%TF.GenerationSoftware,KiCad,Pcbnew,8.0.5*%
%TF.CreationDate,2024-10-05T19:45:41-03:00*%
%TF.ProjectId,modulo_sensor,6d6f6475-6c6f-45f7-9365-6e736f722e6b,rev?*%
%TF.SameCoordinates,Original*%
%TF.FileFunction,Copper,L2,Bot*%
%TF.FilePolarity,Positive*%
%FSLAX46Y46*%
G04 Gerber Fmt 4.6, Leading zero omitted, Abs format (unit mm)*
G04 Created by KiCad (PCBNEW 8.0.5) date 2024-10-05 19:45:41*
%MOMM*%
%LPD*%
G01*
G04 APERTURE LIST*
G04 Aperture macros list*
%AMRoundRect*
0 Rectangle with rounded corners*
0 $1 Rounding radius*
0 $2 $3 $4 $5 $6 $7 $8 $9 X,Y pos of 4 corners*
0 Add a 4 corners polygon primitive as box body*
4,1,4,$2,$3,$4,$5,$6,$7,$8,$9,$2,$3,0*
0 Add four circle primitives for the rounded corners*
1,1,$1+$1,$2,$3*
1,1,$1+$1,$4,$5*
1,1,$1+$1,$6,$7*
1,1,$1+$1,$8,$9*
0 Add four rect primitives between the rounded corners*
20,1,$1+$1,$2,$3,$4,$5,0*
20,1,$1+$1,$4,$5,$6,$7,0*
20,1,$1+$1,$6,$7,$8,$9,0*
20,1,$1+$1,$8,$9,$2,$3,0*%
G04 Aperture macros list end*
%TA.AperFunction,ComponentPad*%
%ADD10R,1.000000X1.000000*%
%TD*%
%TA.AperFunction,ComponentPad*%
%ADD11O,1.000000X1.000000*%
%TD*%
%TA.AperFunction,ComponentPad*%
%ADD12R,1.600000X1.600000*%
%TD*%
%TA.AperFunction,ComponentPad*%
%ADD13O,1.600000X1.600000*%
%TD*%
%TA.AperFunction,ComponentPad*%
%ADD14C,1.600000*%
%TD*%
%TA.AperFunction,SMDPad,CuDef*%
%ADD15RoundRect,0.250000X-0.350000X-0.450000X0.350000X-0.450000X0.350000X0.450000X-0.350000X0.450000X0*%
%TD*%
%TA.AperFunction,ComponentPad*%
%ADD16C,1.500000*%
%TD*%
%TA.AperFunction,SMDPad,CuDef*%
%ADD17RoundRect,0.250000X0.350000X0.450000X-0.350000X0.450000X-0.350000X-0.450000X0.350000X-0.450000X0*%
%TD*%
%TA.AperFunction,Conductor*%
%ADD18C,0.600000*%
%TD*%
G04 APERTURE END LIST*
D10*
%TO.P,J1,1,Pin_1*%
%TO.N,GND*%
X103059983Y-80000000D03*
D11*
%TO.P,J1,2,Pin_2*%
%TO.N,vcc*%
X101789983Y-80000000D03*
%TO.P,J1,3,Pin_3*%
%TO.N,/Led_Sensor6*%
X100519983Y-80000000D03*
%TO.P,J1,4,Pin_4*%
%TO.N,/Led_Sensor5*%
X99249983Y-80000000D03*
%TO.P,J1,5,Pin_5*%
%TO.N,/Led_Sensor4*%
X97979983Y-80000000D03*
%TO.P,J1,6,Pin_6*%
%TO.N,/Led_Sensor3*%
X96709983Y-80000000D03*
%TO.P,J1,7,Pin_7*%
%TO.N,/Led_Sensor2*%
X95439983Y-80000000D03*
%TO.P,J1,8,Pin_8*%
%TO.N,/Led_Sensor1*%
X94169983Y-80000000D03*
%TD*%
D12*
%TO.P,U1,1,1A*%
%TO.N,/Sensor4*%
X83080000Y-72500000D03*
D13*
%TO.P,U1,2,1Y*%
%TO.N,/Led_Sensor4*%
X80540000Y-72500000D03*
%TO.P,U1,3,2A*%
%TO.N,/Sensor3*%
X78000000Y-72500000D03*
%TO.P,U1,4,2Y*%
%TO.N,/Led_Sensor3*%
X75460000Y-72500000D03*
%TO.P,U1,5,3A*%
%TO.N,/Sensor2*%
X72920000Y-72500000D03*
%TO.P,U1,6,3Y*%
%TO.N,/Led_Sensor2*%
X70380000Y-72500000D03*
%TO.P,U1,7,GND*%
%TO.N,GND*%
X67840000Y-72500000D03*
%TO.P,U1,8,4Y*%
%TO.N,/Led_Sensor1*%
X67840000Y-80120000D03*
%TO.P,U1,9,4A*%
%TO.N,/Sensor1*%
X70380000Y-80120000D03*
%TO.P,U1,10,5Y*%
%TO.N,/Led_Sensor5*%
X72920000Y-80120000D03*
%TO.P,U1,11,5A*%
%TO.N,/Sensor5*%
X75460000Y-80120000D03*
%TO.P,U1,12,6Y*%
%TO.N,/Led_Sensor6*%
X78000000Y-80120000D03*
%TO.P,U1,13,6A*%
%TO.N,/Sensor6*%
X80540000Y-80120000D03*
%TO.P,U1,14,VCC*%
%TO.N,vcc*%
X83080000Y-80120000D03*
%TD*%
D14*
%TO.P,C1,1*%
%TO.N,vcc*%
X107000000Y-78750000D03*
%TO.P,C1,2*%
%TO.N,GND*%
X107000000Y-81250000D03*
%TD*%
D15*
%TO.P,R8,1*%
%TO.N,/Sensor4*%
X111609983Y-66000000D03*
%TO.P,R8,2*%
%TO.N,vcc*%
X113609983Y-66000000D03*
%TD*%
D16*
%TO.P,Sensor3,A*%
%TO.N,Net-(R5-Pad1)*%
X91879983Y-59990000D03*
%TO.P,Sensor3,CATH*%
%TO.N,GND*%
X89339983Y-59990000D03*
%TO.P,Sensor3,COLL*%
%TO.N,/Sensor3*%
X91879983Y-65490000D03*
%TO.P,Sensor3,E*%
%TO.N,GND*%
X89339983Y-65490000D03*
%TD*%
%TO.P,Sensor2,A*%
%TO.N,Net-(R3-Pad1)*%
X75879983Y-59990000D03*
%TO.P,Sensor2,CATH*%
%TO.N,GND*%
X73339983Y-59990000D03*
%TO.P,Sensor2,COLL*%
%TO.N,/Sensor2*%
X75879983Y-65490000D03*
%TO.P,Sensor2,E*%
%TO.N,GND*%
X73339983Y-65490000D03*
%TD*%
D15*
%TO.P,R7,1*%
%TO.N,Net-(R7-Pad1)*%
X111609983Y-60000000D03*
%TO.P,R7,2*%
%TO.N,vcc*%
X113609983Y-60000000D03*
%TD*%
D16*
%TO.P,Sensor6,A*%
%TO.N,Net-(R11-Pad1)*%
X139879983Y-59990000D03*
%TO.P,Sensor6,CATH*%
%TO.N,GND*%
X137339983Y-59990000D03*
%TO.P,Sensor6,COLL*%
%TO.N,/Sensor6*%
X139879983Y-65490000D03*
%TO.P,Sensor6,E*%
%TO.N,GND*%
X137339983Y-65490000D03*
%TD*%
D15*
%TO.P,R6,1*%
%TO.N,/Sensor3*%
X95609983Y-66000000D03*
%TO.P,R6,2*%
%TO.N,vcc*%
X97609983Y-66000000D03*
%TD*%
%TO.P,R3,1*%
%TO.N,Net-(R3-Pad1)*%
X79609983Y-60000000D03*
%TO.P,R3,2*%
%TO.N,vcc*%
X81609983Y-60000000D03*
%TD*%
%TO.P,R10,1*%
%TO.N,/Sensor5*%
X127609983Y-66000000D03*
%TO.P,R10,2*%
%TO.N,vcc*%
X129609983Y-66000000D03*
%TD*%
%TO.P,R2,1*%
%TO.N,/Sensor1*%
X63000000Y-66000000D03*
%TO.P,R2,2*%
%TO.N,vcc*%
X65000000Y-66000000D03*
%TD*%
%TO.P,R5,1*%
%TO.N,Net-(R5-Pad1)*%
X95609983Y-60000000D03*
%TO.P,R5,2*%
%TO.N,vcc*%
X97609983Y-60000000D03*
%TD*%
D16*
%TO.P,Sensor5,A*%
%TO.N,Net-(R9-Pad1)*%
X123879983Y-59990000D03*
%TO.P,Sensor5,CATH*%
%TO.N,GND*%
X121339983Y-59990000D03*
%TO.P,Sensor5,COLL*%
%TO.N,/Sensor5*%
X123879983Y-65490000D03*
%TO.P,Sensor5,E*%
%TO.N,GND*%
X121339983Y-65490000D03*
%TD*%
D15*
%TO.P,R4,1*%
%TO.N,/Sensor2*%
X79609983Y-66000000D03*
%TO.P,R4,2*%
%TO.N,vcc*%
X81609983Y-66000000D03*
%TD*%
%TO.P,R1,1*%
%TO.N,Net-(R1-Pad1)*%
X63000000Y-60000000D03*
%TO.P,R1,2*%
%TO.N,vcc*%
X65000000Y-60000000D03*
%TD*%
%TO.P,R9,1*%
%TO.N,Net-(R9-Pad1)*%
X127609983Y-60000000D03*
%TO.P,R9,2*%
%TO.N,vcc*%
X129609983Y-60000000D03*
%TD*%
D16*
%TO.P,Sensor1,A*%
%TO.N,Net-(R1-Pad1)*%
X59879983Y-59990000D03*
%TO.P,Sensor1,CATH*%
%TO.N,GND*%
X57339983Y-59990000D03*
%TO.P,Sensor1,COLL*%
%TO.N,/Sensor1*%
X59879983Y-65490000D03*
%TO.P,Sensor1,E*%
%TO.N,GND*%
X57339983Y-65490000D03*
%TD*%
D17*
%TO.P,R12,1*%
%TO.N,/Sensor6*%
X134000000Y-66000000D03*
%TO.P,R12,2*%
%TO.N,vcc*%
X132000000Y-66000000D03*
%TD*%
%TO.P,R11,1*%
%TO.N,Net-(R11-Pad1)*%
X134000000Y-60000000D03*
%TO.P,R11,2*%
%TO.N,vcc*%
X132000000Y-60000000D03*
%TD*%
D16*
%TO.P,Sensor4,A*%
%TO.N,Net-(R7-Pad1)*%
X107879983Y-59990000D03*
%TO.P,Sensor4,CATH*%
%TO.N,GND*%
X105339983Y-59990000D03*
%TO.P,Sensor4,COLL*%
%TO.N,/Sensor4*%
X107879983Y-65490000D03*
%TO.P,Sensor4,E*%
%TO.N,GND*%
X105339983Y-65490000D03*
%TD*%
D18*
%TO.N,/Sensor6*%
X134000000Y-66000000D02*
X134000000Y-73500000D01*
X80540000Y-80120000D02*
X85160000Y-75500000D01*
X139879983Y-67620017D02*
X139879983Y-65490000D01*
X85160000Y-75500000D02*
X132000000Y-75500000D01*
X132000000Y-75500000D02*
X139879983Y-67620017D01*
%TO.N,/Sensor5*%
X75460000Y-80120000D02*
X81180000Y-74400000D01*
X81180000Y-74400000D02*
X117350000Y-74400000D01*
X117350000Y-74400000D02*
X123879983Y-67870017D01*
X123879983Y-67870017D02*
X123879983Y-65490000D01*
%TO.N,/Sensor4*%
X83080000Y-72500000D02*
X103750000Y-72500000D01*
X103750000Y-72500000D02*
X107879983Y-68370017D01*
X107879983Y-68370017D02*
X107879983Y-65490000D01*
%TO.N,/Sensor3*%
X78000000Y-72500000D02*
X78000000Y-72250000D01*
X78000000Y-72250000D02*
X80250000Y-70000000D01*
X80250000Y-70000000D02*
X88500000Y-70000000D01*
X91879983Y-66620017D02*
X91879983Y-65490000D01*
X88500000Y-70000000D02*
X91879983Y-66620017D01*
%TO.N,/Sensor2*%
X72920000Y-72500000D02*
X72920000Y-70580000D01*
X72920000Y-70580000D02*
X75879983Y-67620017D01*
X75879983Y-67620017D02*
X75879983Y-65490000D01*
%TO.N,vcc*%
X142500000Y-71000000D02*
X142500000Y-60000000D01*
X83609983Y-58000000D02*
X81609983Y-60000000D01*
X83080000Y-80120000D02*
X85700000Y-77500000D01*
X132000000Y-66000000D02*
X132000000Y-60000000D01*
X81609983Y-66000000D02*
X81609983Y-60000000D01*
X85700000Y-77500000D02*
X100000000Y-77500000D01*
X108500000Y-77250000D02*
X136250000Y-77250000D01*
X129609983Y-59300000D02*
X128309983Y-58000000D01*
X129609983Y-60000000D02*
X132000000Y-60000000D01*
X142500000Y-60000000D02*
X140000000Y-57500000D01*
X128309983Y-58000000D02*
X116000000Y-58000000D01*
X132000000Y-58500000D02*
X132000000Y-60000000D01*
X67000000Y-58000000D02*
X65000000Y-60000000D01*
X97609983Y-60000000D02*
X97609983Y-59990990D01*
X140000000Y-57500000D02*
X133000000Y-57500000D01*
X113609983Y-66000000D02*
X113609983Y-60000000D01*
X133000000Y-57500000D02*
X132000000Y-58500000D01*
X65000000Y-66000000D02*
X65000000Y-60000000D01*
X136250000Y-77250000D02*
X142500000Y-71000000D01*
X97609983Y-60000000D02*
X99609983Y-58000000D01*
X83609983Y-58000000D02*
X67000000Y-58000000D01*
X100000000Y-77500000D02*
X101789983Y-79289983D01*
X113609983Y-60000000D02*
X114000000Y-60000000D01*
X101789983Y-79289983D02*
X101789983Y-80000000D01*
X114000000Y-60000000D02*
X116000000Y-58000000D01*
X129609983Y-60000000D02*
X129609983Y-59300000D01*
X99609983Y-58000000D02*
X116000000Y-58000000D01*
X107000000Y-78750000D02*
X108500000Y-77250000D01*
X99609983Y-58000000D02*
X83609983Y-58000000D01*
X129609983Y-60000000D02*
X129609983Y-66000000D01*
X97609983Y-66000000D02*
X97609983Y-60000000D01*
%TO.N,/Led_Sensor1*%
X94027497Y-80142486D02*
X94169983Y-80000000D01*
%TO.N,/Led_Sensor6*%
X98500000Y-82500000D02*
X100519983Y-80480017D01*
X80380000Y-82500000D02*
X98500000Y-82500000D01*
X100519983Y-80480017D02*
X100519983Y-80000000D01*
X78000000Y-80120000D02*
X80380000Y-82500000D01*
%TO.N,Net-(R1-Pad1)*%
X63000000Y-60000000D02*
X62990000Y-59990000D01*
X62990000Y-59990000D02*
X59879983Y-59990000D01*
%TO.N,/Sensor1*%
X70380000Y-80120000D02*
X70380000Y-79880000D01*
X63000000Y-72500000D02*
X63000000Y-66000000D01*
X59879983Y-65490000D02*
X62490000Y-65490000D01*
X70380000Y-79880000D02*
X63000000Y-72500000D01*
X62490000Y-65490000D02*
X63000000Y-66000000D01*
%TO.N,Net-(R3-Pad1)*%
X75889983Y-60000000D02*
X75879983Y-59990000D01*
X79609983Y-60000000D02*
X75889983Y-60000000D01*
%TO.N,/Sensor2*%
X79609983Y-66000000D02*
X76389983Y-66000000D01*
X76389983Y-66000000D02*
X75879983Y-65490000D01*
%TO.N,Net-(R5-Pad1)*%
X95599983Y-59990000D02*
X95609983Y-60000000D01*
X91879983Y-59990000D02*
X95599983Y-59990000D01*
%TO.N,/Sensor3*%
X92500000Y-66000000D02*
X95609983Y-66000000D01*
X91990000Y-65490000D02*
X92500000Y-66000000D01*
X91879983Y-65490000D02*
X91990000Y-65490000D01*
%TO.N,Net-(R7-Pad1)*%
X111609983Y-60000000D02*
X107889983Y-60000000D01*
X107889983Y-60000000D02*
X107879983Y-59990000D01*
%TO.N,/Sensor4*%
X107879983Y-65490000D02*
X111099983Y-65490000D01*
X111099983Y-65490000D02*
X111609983Y-66000000D01*
%TO.N,Net-(R9-Pad1)*%
X127609983Y-60000000D02*
X123889983Y-60000000D01*
X123889983Y-60000000D02*
X123879983Y-59990000D01*
%TO.N,/Sensor5*%
X124389983Y-66000000D02*
X123879983Y-65490000D01*
X127609983Y-66000000D02*
X124389983Y-66000000D01*
%TO.N,Net-(R11-Pad1)*%
X138389983Y-58500000D02*
X139879983Y-59990000D01*
X136000000Y-58500000D02*
X138389983Y-58500000D01*
X134000000Y-60000000D02*
X134500000Y-60000000D01*
X134500000Y-60000000D02*
X136000000Y-58500000D01*
%TD*%
%TA.AperFunction,Conductor*%
%TO.N,GND*%
G36*
X132295098Y-56860185D02*
G01*
X132340853Y-56912989D01*
X132350797Y-56982147D01*
X132321772Y-57045703D01*
X132315740Y-57052181D01*
X131489711Y-57878211D01*
X131433960Y-57933962D01*
X131378209Y-57989712D01*
X131290609Y-58120814D01*
X131290602Y-58120827D01*
X131230264Y-58266498D01*
X131230261Y-58266510D01*
X131199500Y-58421153D01*
X131199500Y-58887769D01*
X131179815Y-58954808D01*
X131163182Y-58975450D01*
X131057287Y-59081345D01*
X131020741Y-59140597D01*
X130968793Y-59187321D01*
X130915202Y-59199500D01*
X130694781Y-59199500D01*
X130627742Y-59179815D01*
X130589242Y-59140597D01*
X130583074Y-59130597D01*
X130552695Y-59081344D01*
X130428639Y-58957288D01*
X130428635Y-58957285D01*
X130307220Y-58882395D01*
X130269215Y-58845748D01*
X130265136Y-58839644D01*
X130259747Y-58831578D01*
X130231772Y-58789710D01*
X128820275Y-57378213D01*
X128820271Y-57378210D01*
X128689168Y-57290609D01*
X128689155Y-57290602D01*
X128543484Y-57230264D01*
X128543472Y-57230261D01*
X128388828Y-57199500D01*
X128388825Y-57199500D01*
X116078842Y-57199500D01*
X99688825Y-57199500D01*
X83688825Y-57199500D01*
X66921158Y-57199500D01*
X66921155Y-57199500D01*
X66766510Y-57230261D01*
X66766498Y-57230264D01*
X66620827Y-57290602D01*
X66620814Y-57290609D01*
X66489711Y-57378210D01*
X66489707Y-57378213D01*
X65104739Y-58763181D01*
X65043416Y-58796666D01*
X65017058Y-58799500D01*
X64599998Y-58799500D01*
X64599980Y-58799501D01*
X64497203Y-58810000D01*
X64497200Y-58810001D01*
X64330668Y-58865185D01*
X64330663Y-58865187D01*
X64181342Y-58957289D01*
X64087681Y-59050951D01*
X64026358Y-59084436D01*
X63956666Y-59079452D01*
X63912319Y-59050951D01*
X63818657Y-58957289D01*
X63818656Y-58957288D01*
X63698118Y-58882940D01*
X63669336Y-58865187D01*
X63669331Y-58865185D01*
X63667862Y-58864698D01*
X63502797Y-58810001D01*
X63502795Y-58810000D01*
X63400010Y-58799500D01*
X62599998Y-58799500D01*
X62599980Y-58799501D01*
X62497203Y-58810000D01*
X62497200Y-58810001D01*
X62330668Y-58865185D01*
X62330663Y-58865187D01*
X62181342Y-58957289D01*
X62057289Y-59081342D01*
X62026909Y-59130597D01*
X61974961Y-59177321D01*
X61921370Y-59189500D01*
X60899320Y-59189500D01*
X60832281Y-59169815D01*
X60811639Y-59153181D01*
X60686864Y-59028406D01*
X60686860Y-59028402D01*
X60523659Y-58914127D01*
X60507621Y-58902897D01*
X60365915Y-58836819D01*
X60309313Y-58810425D01*
X60309309Y-58810424D01*
X60309305Y-58810422D01*
X60097960Y-58753793D01*
X59879985Y-58734723D01*
X59879981Y-58734723D01*
X59734665Y-58747436D01*
X59662006Y-58753793D01*
X59662003Y-58753793D01*
X59450660Y-58810422D01*
X59450651Y-58810426D01*
X59252344Y-58902898D01*
X59252340Y-58902900D01*
X59073104Y-59028402D01*
X58918385Y-59183121D01*
X58792883Y-59362357D01*
X58792883Y-59362358D01*
X58792881Y-59362361D01*
X58792881Y-59362362D01*
X58780180Y-59389597D01*
X58722088Y-59514176D01*
X58675915Y-59566615D01*
X58608721Y-59585766D01*
X58541840Y-59565550D01*
X58497324Y-59514175D01*
X58426650Y-59362614D01*
X58426649Y-59362612D01*
X58383107Y-59300428D01*
X58383107Y-59300427D01*
X57822945Y-59860589D01*
X57805908Y-59797007D01*
X57740082Y-59682993D01*
X57646990Y-59589901D01*
X57532976Y-59524075D01*
X57469392Y-59507037D01*
X58029554Y-58946874D01*
X57967370Y-58903333D01*
X57769142Y-58810898D01*
X57769133Y-58810894D01*
X57557877Y-58754289D01*
X57557867Y-58754287D01*
X57339984Y-58735225D01*
X57339982Y-58735225D01*
X57122098Y-58754287D01*
X57122088Y-58754289D01*
X56910832Y-58810894D01*
X56910823Y-58810898D01*
X56712596Y-58903333D01*
X56650411Y-58946874D01*
X57210574Y-59507037D01*
X57146990Y-59524075D01*
X57032976Y-59589901D01*
X56939884Y-59682993D01*
X56874058Y-59797007D01*
X56857020Y-59860591D01*
X56296857Y-59300428D01*
X56253316Y-59362613D01*
X56160881Y-59560840D01*
X56160877Y-59560849D01*
X56104272Y-59772105D01*
X56104270Y-59772115D01*
X56085208Y-59989999D01*
X56085208Y-59990000D01*
X56104270Y-60207884D01*
X56104272Y-60207894D01*
X56160877Y-60419150D01*
X56160881Y-60419159D01*
X56253316Y-60617387D01*
X56296857Y-60679571D01*
X56857020Y-60119408D01*
X56874058Y-60182993D01*
X56939884Y-60297007D01*
X57032976Y-60390099D01*
X57146990Y-60455925D01*
X57210573Y-60472962D01*
X56650410Y-61033124D01*
X56651592Y-61046631D01*
X56672197Y-61072409D01*
X56679391Y-61141908D01*
X56647868Y-61204263D01*
X56587639Y-61239677D01*
X56576848Y-61241881D01*
X56358613Y-61276447D01*
X56133986Y-61349433D01*
X55923549Y-61456657D01*
X55852706Y-61508128D01*
X55732473Y-61595483D01*
X55732471Y-61595485D01*
X55732470Y-61595485D01*
X55565468Y-61762487D01*
X55565468Y-61762488D01*
X55565466Y-61762490D01*
X55520467Y-61824426D01*
X55426640Y-61953566D01*
X55319416Y-62164003D01*
X55246429Y-62388631D01*
X55209483Y-62621902D01*
X55209483Y-62858097D01*
X55246429Y-63091368D01*
X55319416Y-63315996D01*
X55426640Y-63526433D01*
X55565466Y-63717510D01*
X55732473Y-63884517D01*
X55923550Y-64023343D01*
X56022974Y-64074002D01*
X56133986Y-64130566D01*
X56133988Y-64130566D01*
X56133991Y-64130568D01*
X56358615Y-64203553D01*
X56568450Y-64236787D01*
X56576845Y-64238117D01*
X56639979Y-64268046D01*
X56676911Y-64327357D01*
X56675913Y-64397220D01*
X56651538Y-64433981D01*
X56650410Y-64446873D01*
X57210574Y-65007037D01*
X57146990Y-65024075D01*
X57032976Y-65089901D01*
X56939884Y-65182993D01*
X56874058Y-65297007D01*
X56857020Y-65360591D01*
X56296857Y-64800428D01*
X56253316Y-64862613D01*
X56160881Y-65060840D01*
X56160877Y-65060849D01*
X56104272Y-65272105D01*
X56104270Y-65272115D01*
X56085208Y-65489999D01*
X56085208Y-65490000D01*
X56104270Y-65707884D01*
X56104272Y-65707894D01*
X56160877Y-65919150D01*
X56160881Y-65919159D01*
X56253316Y-66117387D01*
X56296857Y-66179571D01*
X56857020Y-65619408D01*
X56874058Y-65682993D01*
X56939884Y-65797007D01*
X57032976Y-65890099D01*
X57146990Y-65955925D01*
X57210573Y-65972962D01*
X56650410Y-66533125D01*
X56655084Y-66586553D01*
X56646594Y-66628793D01*
X56652532Y-66620862D01*
X56717996Y-66596445D01*
X56779247Y-66607747D01*
X56910823Y-66669101D01*
X56910832Y-66669105D01*
X57122088Y-66725710D01*
X57122098Y-66725712D01*
X57339982Y-66744775D01*
X57339984Y-66744775D01*
X57557867Y-66725712D01*
X57557877Y-66725710D01*
X57769133Y-66669105D01*
X57769147Y-66669100D01*
X57967366Y-66576669D01*
X57967368Y-66576668D01*
X58029554Y-66533124D01*
X57469393Y-65972962D01*
X57532976Y-65955925D01*
X57646990Y-65890099D01*
X57740082Y-65797007D01*
X57805908Y-65682993D01*
X57822945Y-65619409D01*
X58383107Y-66179570D01*
X58426649Y-66117388D01*
X58497323Y-65965825D01*
X58543495Y-65913386D01*
X58610689Y-65894233D01*
X58677570Y-65914448D01*
X58722088Y-65965824D01*
X58792880Y-66117638D01*
X58792881Y-66117639D01*
X58918385Y-66296877D01*
X59073106Y-66451598D01*
X59252344Y-66577102D01*
X59450653Y-66669575D01*
X59662006Y-66726207D01*
X59844909Y-66742208D01*
X59879981Y-66745277D01*
X59879983Y-66745277D01*
X59879985Y-66745277D01*
X59908237Y-66742805D01*
X60097960Y-66726207D01*
X60309313Y-66669575D01*
X60507622Y-66577102D01*
X60686860Y-66451598D01*
X60811639Y-66326819D01*
X60872962Y-66293334D01*
X60899320Y-66290500D01*
X61775501Y-66290500D01*
X61842540Y-66310185D01*
X61888295Y-66362989D01*
X61899501Y-66414500D01*
X61899501Y-66500018D01*
X61910000Y-66602796D01*
X61910001Y-66602799D01*
X61965185Y-66769331D01*
X61965187Y-66769336D01*
X62057289Y-66918657D01*
X62163181Y-67024549D01*
X62196666Y-67085872D01*
X62199500Y-67112230D01*
X62199500Y-72578846D01*
X62230261Y-72733489D01*
X62230264Y-72733501D01*
X62290602Y-72879172D01*
X62290609Y-72879185D01*
X62378210Y-73010288D01*
X62378213Y-73010292D01*
X67974385Y-78606463D01*
X68007870Y-78667786D01*
X68002886Y-78737478D01*
X67961014Y-78793411D01*
X67895550Y-78817828D01*
X67875898Y-78817672D01*
X67840004Y-78814532D01*
X67839998Y-78814532D01*
X67613313Y-78834364D01*
X67613302Y-78834366D01*
X67393511Y-78893258D01*
X67393502Y-78893261D01*
X67187267Y-78989431D01*
X67187265Y-78989432D01*
X67000858Y-79119954D01*
X66839954Y-79280858D01*
X66709432Y-79467265D01*
X66709431Y-79467267D01*
X66613261Y-79673502D01*
X66613258Y-79673511D01*
X66554366Y-79893302D01*
X66554364Y-79893313D01*
X66534532Y-80119998D01*
X66534532Y-80120001D01*
X66554364Y-80346686D01*
X66554366Y-80346697D01*
X66613258Y-80566488D01*
X66613261Y-80566497D01*
X66709431Y-80772732D01*
X66709432Y-80772734D01*
X66839954Y-80959141D01*
X67000858Y-81120045D01*
X67000861Y-81120047D01*
X67187266Y-81250568D01*
X67393504Y-81346739D01*
X67613308Y-81405635D01*
X67775230Y-81419801D01*
X67839998Y-81425468D01*
X67840000Y-81425468D01*
X67840002Y-81425468D01*
X67896673Y-81420509D01*
X68066692Y-81405635D01*
X68286496Y-81346739D01*
X68492734Y-81250568D01*
X68679139Y-81120047D01*
X68840047Y-80959139D01*
X68970568Y-80772734D01*
X68997618Y-80714724D01*
X69043790Y-80662285D01*
X69110983Y-80643133D01*
X69177865Y-80663348D01*
X69222382Y-80714725D01*
X69249429Y-80772728D01*
X69249432Y-80772734D01*
X69379954Y-80959141D01*
X69540858Y-81120045D01*
X69540861Y-81120047D01*
X69727266Y-81250568D01*
X69933504Y-81346739D01*
X70153308Y-81405635D01*
X70315230Y-81419801D01*
X70379998Y-81425468D01*
X70380000Y-81425468D01*
X70380002Y-81425468D01*
X70436673Y-81420509D01*
X70606692Y-81405635D01*
X70826496Y-81346739D01*
X71032734Y-81250568D01*
X71219139Y-81120047D01*
X71380047Y-80959139D01*
X71510568Y-80772734D01*
X71537618Y-80714724D01*
X71583790Y-80662285D01*
X71650983Y-80643133D01*
X71717865Y-80663348D01*
X71762382Y-80714725D01*
X71789429Y-80772728D01*
X71789432Y-80772734D01*
X71919954Y-80959141D01*
X72080858Y-81120045D01*
X72080861Y-81120047D01*
X72267266Y-81250568D01*
X72473504Y-81346739D01*
X72693308Y-81405635D01*
X72855230Y-81419801D01*
X72919998Y-81425468D01*
X72920000Y-81425468D01*
X72920002Y-81425468D01*
X72976673Y-81420509D01*
X73146692Y-81405635D01*
X73366496Y-81346739D01*
X73572734Y-81250568D01*
X73759139Y-81120047D01*
X73920047Y-80959139D01*
X74050568Y-80772734D01*
X74077618Y-80714724D01*
X74123790Y-80662285D01*
X74190983Y-80643133D01*
X74257865Y-80663348D01*
X74302382Y-80714725D01*
X74329429Y-80772728D01*
X74329432Y-80772734D01*
X74459954Y-80959141D01*
X74620858Y-81120045D01*
X74620861Y-81120047D01*
X74807266Y-81250568D01*
X75013504Y-81346739D01*
X75233308Y-81405635D01*
X75395230Y-81419801D01*
X75459998Y-81425468D01*
X75460000Y-81425468D01*
X75460002Y-81425468D01*
X75516673Y-81420509D01*
X75686692Y-81405635D01*
X75906496Y-81346739D01*
X76112734Y-81250568D01*
X76299139Y-81120047D01*
X76460047Y-80959139D01*
X76590568Y-80772734D01*
X76617618Y-80714724D01*
X76663790Y-80662285D01*
X76730983Y-80643133D01*
X76797865Y-80663348D01*
X76842382Y-80714725D01*
X76869429Y-80772728D01*
X76869432Y-80772734D01*
X76999954Y-80959141D01*
X77160858Y-81120045D01*
X77160861Y-81120047D01*
X77347266Y-81250568D01*
X77553504Y-81346739D01*
X77773308Y-81405635D01*
X77935230Y-81419801D01*
X77999998Y-81425468D01*
X77999999Y-81425468D01*
X77999999Y-81425467D01*
X78000000Y-81425468D01*
X78101840Y-81416557D01*
X78170337Y-81430323D01*
X78200327Y-81452404D01*
X79375742Y-82627819D01*
X79409227Y-82689142D01*
X79404243Y-82758834D01*
X79362371Y-82814767D01*
X79296907Y-82839184D01*
X79288061Y-82839500D01*
X54234483Y-82839500D01*
X54167444Y-82819815D01*
X54121689Y-82767011D01*
X54110483Y-82715500D01*
X54110483Y-67463920D01*
X55409482Y-67463920D01*
X55438323Y-67608907D01*
X55438326Y-67608917D01*
X55494895Y-67745488D01*
X55494902Y-67745501D01*
X55577031Y-67868415D01*
X55577034Y-67868419D01*
X55681563Y-67972948D01*
X55681567Y-67972951D01*
X55804481Y-68055080D01*
X55804494Y-68055087D01*
X55921411Y-68103515D01*
X55941070Y-68111658D01*
X55941074Y-68111658D01*
X55941075Y-68111659D01*
X56086062Y-68140500D01*
X56086065Y-68140500D01*
X56233903Y-68140500D01*
X56331445Y-68121096D01*
X56378896Y-68111658D01*
X56515478Y-68055084D01*
X56638399Y-67972951D01*
X56742934Y-67868416D01*
X56825067Y-67745495D01*
X56881641Y-67608913D01*
X56892541Y-67554116D01*
X56910483Y-67463920D01*
X56910483Y-67316079D01*
X56881642Y-67171092D01*
X56881641Y-67171091D01*
X56881641Y-67171087D01*
X56866616Y-67134814D01*
X56825070Y-67034511D01*
X56825063Y-67034498D01*
X56742934Y-66911584D01*
X56742931Y-66911580D01*
X56639161Y-66807810D01*
X56605676Y-66746487D01*
X56609895Y-66687486D01*
X56592701Y-66705235D01*
X56524673Y-66721168D01*
X56484104Y-66711920D01*
X56378900Y-66668343D01*
X56378890Y-66668340D01*
X56233903Y-66639500D01*
X56233901Y-66639500D01*
X56086065Y-66639500D01*
X56086063Y-66639500D01*
X55941075Y-66668340D01*
X55941065Y-66668343D01*
X55804494Y-66724912D01*
X55804481Y-66724919D01*
X55681567Y-66807048D01*
X55681563Y-66807051D01*
X55577034Y-66911580D01*
X55577031Y-66911584D01*
X55494902Y-67034498D01*
X55494895Y-67034511D01*
X55438326Y-67171082D01*
X55438323Y-67171092D01*
X55409483Y-67316079D01*
X55409483Y-67316082D01*
X55409483Y-67463918D01*
X55409483Y-67463920D01*
X55409482Y-67463920D01*
X54110483Y-67463920D01*
X54110483Y-56964500D01*
X54130168Y-56897461D01*
X54182972Y-56851706D01*
X54234483Y-56840500D01*
X132228059Y-56840500D01*
X132295098Y-56860185D01*
G37*
%TD.AperFunction*%
%TA.AperFunction,Conductor*%
G36*
X143028817Y-71705775D02*
G01*
X143084750Y-71747647D01*
X143109167Y-71813111D01*
X143109483Y-71821957D01*
X143109483Y-82715500D01*
X143089798Y-82782539D01*
X143036994Y-82828294D01*
X142985483Y-82839500D01*
X99591940Y-82839500D01*
X99524901Y-82819815D01*
X99479146Y-82767011D01*
X99469202Y-82697853D01*
X99498227Y-82634297D01*
X99504259Y-82627819D01*
X101141768Y-80990310D01*
X101141771Y-80990307D01*
X101171375Y-80946002D01*
X101173390Y-80942987D01*
X101177049Y-80937510D01*
X101178941Y-80934678D01*
X101232546Y-80889869D01*
X101301870Y-80881155D01*
X101340502Y-80894202D01*
X101401422Y-80926765D01*
X101405256Y-80928814D01*
X101593851Y-80986024D01*
X101789983Y-81005341D01*
X101986115Y-80986024D01*
X102174710Y-80928814D01*
X102177321Y-80927418D01*
X102178847Y-80927100D01*
X102180338Y-80926483D01*
X102180455Y-80926765D01*
X102245720Y-80913174D01*
X102310089Y-80937510D01*
X102317891Y-80943351D01*
X102452606Y-80993597D01*
X102452610Y-80993598D01*
X102512138Y-80999999D01*
X102512155Y-81000000D01*
X102809983Y-81000000D01*
X103309983Y-81000000D01*
X103607811Y-81000000D01*
X103607827Y-80999999D01*
X103667355Y-80993598D01*
X103667362Y-80993596D01*
X103802069Y-80943354D01*
X103802076Y-80943350D01*
X103917170Y-80857190D01*
X103917173Y-80857187D01*
X104003333Y-80742093D01*
X104003337Y-80742086D01*
X104053579Y-80607379D01*
X104053581Y-80607372D01*
X104059982Y-80547844D01*
X104059983Y-80547827D01*
X104059983Y-80250000D01*
X103309983Y-80250000D01*
X103309983Y-81000000D01*
X102809983Y-81000000D01*
X102809983Y-80209618D01*
X102860429Y-80260064D01*
X102934538Y-80302851D01*
X103017196Y-80325000D01*
X103102770Y-80325000D01*
X103185428Y-80302851D01*
X103259537Y-80260064D01*
X103320047Y-80199554D01*
X103362834Y-80125445D01*
X103384983Y-80042787D01*
X103384983Y-79957213D01*
X103362834Y-79874555D01*
X103320047Y-79800446D01*
X103269601Y-79750000D01*
X103309983Y-79750000D01*
X104059983Y-79750000D01*
X104059983Y-79452172D01*
X104059982Y-79452155D01*
X104053581Y-79392627D01*
X104053579Y-79392620D01*
X104003337Y-79257913D01*
X104003333Y-79257906D01*
X103917173Y-79142812D01*
X103917170Y-79142809D01*
X103802076Y-79056649D01*
X103802069Y-79056645D01*
X103667362Y-79006403D01*
X103667355Y-79006401D01*
X103607827Y-79000000D01*
X103309983Y-79000000D01*
X103309983Y-79750000D01*
X103269601Y-79750000D01*
X103259537Y-79739936D01*
X103185428Y-79697149D01*
X103102770Y-79675000D01*
X103017196Y-79675000D01*
X102934538Y-79697149D01*
X102860429Y-79739936D01*
X102809983Y-79790382D01*
X102809983Y-79000000D01*
X102619178Y-79000000D01*
X102552139Y-78980315D01*
X102506384Y-78927511D01*
X102504618Y-78923455D01*
X102499379Y-78910809D01*
X102499373Y-78910797D01*
X102411773Y-78779695D01*
X102369556Y-78737478D01*
X102300272Y-78668194D01*
X101503864Y-77871786D01*
X100510292Y-76878213D01*
X100510288Y-76878210D01*
X100379185Y-76790609D01*
X100379172Y-76790602D01*
X100233501Y-76730264D01*
X100233489Y-76730261D01*
X100078845Y-76699500D01*
X100078842Y-76699500D01*
X85778843Y-76699500D01*
X85621158Y-76699500D01*
X85621153Y-76699500D01*
X85466510Y-76730260D01*
X85466498Y-76730263D01*
X85351594Y-76777858D01*
X85282125Y-76785327D01*
X85219646Y-76754052D01*
X85183994Y-76693962D01*
X85186488Y-76624137D01*
X85216459Y-76575618D01*
X85455259Y-76336819D01*
X85516582Y-76303334D01*
X85542940Y-76300500D01*
X108077098Y-76300500D01*
X108144137Y-76320185D01*
X108189892Y-76372989D01*
X108199836Y-76442147D01*
X108170811Y-76505703D01*
X108124549Y-76539062D01*
X108120821Y-76540605D01*
X108120814Y-76540609D01*
X107989712Y-76628209D01*
X107989710Y-76628212D01*
X107200326Y-77417594D01*
X107139003Y-77451079D01*
X107101838Y-77453441D01*
X107000002Y-77444532D01*
X106999998Y-77444532D01*
X106773313Y-77464364D01*
X106773302Y-77464366D01*
X106553511Y-77523258D01*
X106553502Y-77523261D01*
X106347267Y-77619431D01*
X106347265Y-77619432D01*
X106160858Y-77749954D01*
X105999954Y-77910858D01*
X105869432Y-78097265D01*
X105869431Y-78097267D01*
X105773261Y-78303502D01*
X105773258Y-78303511D01*
X105714366Y-78523302D01*
X105714364Y-78523313D01*
X105694532Y-78749998D01*
X105694532Y-78750001D01*
X105714364Y-78976686D01*
X105714366Y-78976697D01*
X105773258Y-79196488D01*
X105773261Y-79196497D01*
X105869431Y-79402732D01*
X105869432Y-79402734D01*
X105999954Y-79589141D01*
X106160858Y-79750045D01*
X106207693Y-79782839D01*
X106347266Y-79880568D01*
X106362975Y-79887893D01*
X106415414Y-79934064D01*
X106434567Y-80001257D01*
X106414352Y-80068138D01*
X106362979Y-80112656D01*
X106347514Y-80119867D01*
X106347512Y-80119868D01*
X106274526Y-80170973D01*
X106274526Y-80170974D01*
X106953553Y-80850000D01*
X106947339Y-80850000D01*
X106845606Y-80877259D01*
X106754394Y-80929920D01*
X106679920Y-81004394D01*
X106627259Y-81095606D01*
X106600000Y-81197339D01*
X106600000Y-81203552D01*
X105920974Y-80524526D01*
X105920973Y-80524526D01*
X105869868Y-80597512D01*
X105869866Y-80597516D01*
X105773734Y-80803673D01*
X105773730Y-80803682D01*
X105714860Y-81023389D01*
X105714858Y-81023400D01*
X105695034Y-81249997D01*
X105695034Y-81250002D01*
X105714858Y-81476599D01*
X105714860Y-81476610D01*
X105773730Y-81696317D01*
X105773735Y-81696331D01*
X105869863Y-81902478D01*
X105920974Y-81975472D01*
X106600000Y-81296446D01*
X106600000Y-81302661D01*
X106627259Y-81404394D01*
X106679920Y-81495606D01*
X106754394Y-81570080D01*
X106845606Y-81622741D01*
X106947339Y-81650000D01*
X106953553Y-81650000D01*
X106274526Y-82329025D01*
X106347513Y-82380132D01*
X106347521Y-82380136D01*
X106553668Y-82476264D01*
X106553682Y-82476269D01*
X106773389Y-82535139D01*
X106773400Y-82535141D01*
X106999998Y-82554966D01*
X107000002Y-82554966D01*
X107226599Y-82535141D01*
X107226610Y-82535139D01*
X107446317Y-82476269D01*
X107446331Y-82476264D01*
X107652478Y-82380136D01*
X107725471Y-82329024D01*
X107046447Y-81650000D01*
X107052661Y-81650000D01*
X107154394Y-81622741D01*
X107245606Y-81570080D01*
X107320080Y-81495606D01*
X107372741Y-81404394D01*
X107400000Y-81302661D01*
X107400000Y-81296447D01*
X108079024Y-81975471D01*
X108130136Y-81902478D01*
X108226264Y-81696331D01*
X108226269Y-81696317D01*
X108285139Y-81476610D01*
X108285141Y-81476599D01*
X108304966Y-81250002D01*
X108304966Y-81249997D01*
X108285141Y-81023400D01*
X108285139Y-81023389D01*
X108226269Y-80803682D01*
X108226264Y-80803668D01*
X108130136Y-80597521D01*
X108130132Y-80597513D01*
X108079025Y-80524526D01*
X107400000Y-81203551D01*
X107400000Y-81197339D01*
X107372741Y-81095606D01*
X107320080Y-81004394D01*
X107245606Y-80929920D01*
X107154394Y-80877259D01*
X107052661Y-80850000D01*
X107046448Y-80850000D01*
X107725472Y-80170974D01*
X107652480Y-80119864D01*
X107637024Y-80112657D01*
X107584585Y-80066484D01*
X107565433Y-79999290D01*
X107585649Y-79932409D01*
X107637023Y-79887893D01*
X107652734Y-79880568D01*
X107839139Y-79750047D01*
X108000047Y-79589139D01*
X108130568Y-79402734D01*
X108226739Y-79196496D01*
X108285635Y-78976692D01*
X108305468Y-78750000D01*
X108296557Y-78648158D01*
X108310323Y-78579662D01*
X108332400Y-78549676D01*
X108795259Y-78086819D01*
X108856582Y-78053334D01*
X108882940Y-78050500D01*
X109520159Y-78050500D01*
X109587198Y-78070185D01*
X109632953Y-78122989D01*
X109642897Y-78192147D01*
X109613872Y-78255703D01*
X109579586Y-78283332D01*
X109525673Y-78312770D01*
X109525665Y-78312775D01*
X109296595Y-78484254D01*
X109296577Y-78484270D01*
X109094253Y-78686594D01*
X109094237Y-78686612D01*
X108922758Y-78915682D01*
X108922753Y-78915690D01*
X108785618Y-79166833D01*
X108685611Y-79434962D01*
X108624787Y-79714566D01*
X108604373Y-79999998D01*
X108604373Y-80000001D01*
X108624787Y-80285433D01*
X108685611Y-80565037D01*
X108685613Y-80565043D01*
X108685614Y-80565046D01*
X108781526Y-80822194D01*
X108785618Y-80833166D01*
X108922753Y-81084309D01*
X108922758Y-81084317D01*
X109094237Y-81313387D01*
X109094253Y-81313405D01*
X109296577Y-81515729D01*
X109296595Y-81515745D01*
X109525665Y-81687224D01*
X109525673Y-81687229D01*
X109776816Y-81824364D01*
X109776815Y-81824364D01*
X109776819Y-81824365D01*
X109776822Y-81824367D01*
X110044937Y-81924369D01*
X110044943Y-81924370D01*
X110044945Y-81924371D01*
X110324549Y-81985195D01*
X110324551Y-81985195D01*
X110324555Y-81985196D01*
X110578203Y-82003337D01*
X110609982Y-82005610D01*
X110609983Y-82005610D01*
X110609984Y-82005610D01*
X110638578Y-82003564D01*
X110895411Y-81985196D01*
X110940117Y-81975471D01*
X111175020Y-81924371D01*
X111175020Y-81924370D01*
X111175029Y-81924369D01*
X111443144Y-81824367D01*
X111694298Y-81687226D01*
X111923378Y-81515739D01*
X112125722Y-81313395D01*
X112297209Y-81084315D01*
X112434350Y-80833161D01*
X112534352Y-80565046D01*
X112595179Y-80285428D01*
X112615593Y-80000000D01*
X112595179Y-79714572D01*
X112586245Y-79673504D01*
X112534354Y-79434962D01*
X112534353Y-79434960D01*
X112534352Y-79434954D01*
X112434350Y-79166839D01*
X112433802Y-79165836D01*
X112297212Y-78915690D01*
X112297207Y-78915682D01*
X112125728Y-78686612D01*
X112125712Y-78686594D01*
X111923388Y-78484270D01*
X111923370Y-78484254D01*
X111694300Y-78312775D01*
X111694292Y-78312770D01*
X111640380Y-78283332D01*
X111590975Y-78233927D01*
X111576123Y-78165654D01*
X111600540Y-78100189D01*
X111656474Y-78058318D01*
X111699807Y-78050500D01*
X136328844Y-78050500D01*
X136328845Y-78050499D01*
X136483497Y-78019737D01*
X136629179Y-77959394D01*
X136760289Y-77871789D01*
X142897802Y-71734276D01*
X142959125Y-71700791D01*
X143028817Y-71705775D01*
G37*
%TD.AperFunction*%
%TA.AperFunction,Conductor*%
G36*
X99684099Y-78320185D02*
G01*
X99704741Y-78336819D01*
X100222100Y-78854178D01*
X100255585Y-78915501D01*
X100250601Y-78985193D01*
X100208729Y-79041126D01*
X100170418Y-79060518D01*
X100135255Y-79071185D01*
X99961450Y-79164086D01*
X99956382Y-79167473D01*
X99955288Y-79165836D01*
X99899320Y-79189596D01*
X99830454Y-79177795D01*
X99813826Y-79167109D01*
X99813584Y-79167473D01*
X99808515Y-79164086D01*
X99634716Y-79071188D01*
X99634710Y-79071186D01*
X99446115Y-79013976D01*
X99446112Y-79013975D01*
X99249983Y-78994659D01*
X99053853Y-79013975D01*
X98865249Y-79071188D01*
X98691450Y-79164086D01*
X98686382Y-79167473D01*
X98685288Y-79165836D01*
X98629320Y-79189596D01*
X98560454Y-79177795D01*
X98543826Y-79167109D01*
X98543584Y-79167473D01*
X98538515Y-79164086D01*
X98364716Y-79071188D01*
X98364710Y-79071186D01*
X98176115Y-79013976D01*
X98176112Y-79013975D01*
X97979983Y-78994659D01*
X97783853Y-79013975D01*
X97595249Y-79071188D01*
X97421450Y-79164086D01*
X97416382Y-79167473D01*
X97415288Y-79165836D01*
X97359320Y-79189596D01*
X97290454Y-79177795D01*
X97273826Y-79167109D01*
X97273584Y-79167473D01*
X97268515Y-79164086D01*
X97094716Y-79071188D01*
X97094710Y-79071186D01*
X96906115Y-79013976D01*
X96906112Y-79013975D01*
X96709983Y-78994659D01*
X96513853Y-79013975D01*
X96325249Y-79071188D01*
X96151450Y-79164086D01*
X96146382Y-79167473D01*
X96145288Y-79165836D01*
X96089320Y-79189596D01*
X96020454Y-79177795D01*
X96003826Y-79167109D01*
X96003584Y-79167473D01*
X95998515Y-79164086D01*
X95824716Y-79071188D01*
X95824710Y-79071186D01*
X95636115Y-79013976D01*
X95636112Y-79013975D01*
X95439983Y-78994659D01*
X95243853Y-79013975D01*
X95055249Y-79071188D01*
X94881450Y-79164086D01*
X94876382Y-79167473D01*
X94875288Y-79165836D01*
X94819320Y-79189596D01*
X94750454Y-79177795D01*
X94733826Y-79167109D01*
X94733584Y-79167473D01*
X94728515Y-79164086D01*
X94554716Y-79071188D01*
X94554710Y-79071186D01*
X94366115Y-79013976D01*
X94366112Y-79013975D01*
X94169983Y-78994659D01*
X93973853Y-79013975D01*
X93785249Y-79071188D01*
X93611450Y-79164086D01*
X93611443Y-79164090D01*
X93459099Y-79289116D01*
X93334073Y-79441460D01*
X93334069Y-79441467D01*
X93241171Y-79615266D01*
X93183958Y-79803870D01*
X93164642Y-80000000D01*
X93183958Y-80196129D01*
X93241171Y-80384733D01*
X93334069Y-80558532D01*
X93334073Y-80558539D01*
X93376849Y-80610661D01*
X93384096Y-80620432D01*
X93393058Y-80633844D01*
X93405708Y-80652775D01*
X93433214Y-80680281D01*
X93441379Y-80689290D01*
X93459101Y-80710885D01*
X93480690Y-80728602D01*
X93489699Y-80736766D01*
X93517208Y-80764275D01*
X93517209Y-80764276D01*
X93549543Y-80785881D01*
X93559317Y-80793130D01*
X93611443Y-80835909D01*
X93611450Y-80835913D01*
X93785249Y-80928811D01*
X93785252Y-80928811D01*
X93785256Y-80928814D01*
X93973851Y-80986024D01*
X94169983Y-81005341D01*
X94366115Y-80986024D01*
X94554710Y-80928814D01*
X94728521Y-80835910D01*
X94728527Y-80835904D01*
X94733590Y-80832523D01*
X94734686Y-80834164D01*
X94790622Y-80810405D01*
X94859490Y-80822194D01*
X94876131Y-80832888D01*
X94876376Y-80832523D01*
X94881441Y-80835907D01*
X94881445Y-80835910D01*
X94990502Y-80894202D01*
X95051422Y-80926765D01*
X95055256Y-80928814D01*
X95243851Y-80986024D01*
X95439983Y-81005341D01*
X95636115Y-80986024D01*
X95824710Y-80928814D01*
X95998521Y-80835910D01*
X95998527Y-80835904D01*
X96003590Y-80832523D01*
X96004686Y-80834164D01*
X96060622Y-80810405D01*
X96129490Y-80822194D01*
X96146131Y-80832888D01*
X96146376Y-80832523D01*
X96151441Y-80835907D01*
X96151445Y-80835910D01*
X96260502Y-80894202D01*
X96321422Y-80926765D01*
X96325256Y-80928814D01*
X96513851Y-80986024D01*
X96709983Y-81005341D01*
X96906115Y-80986024D01*
X97094710Y-80928814D01*
X97268521Y-80835910D01*
X97268527Y-80835904D01*
X97273590Y-80832523D01*
X97274686Y-80834164D01*
X97330622Y-80810405D01*
X97399490Y-80822194D01*
X97416131Y-80832888D01*
X97416376Y-80832523D01*
X97421441Y-80835907D01*
X97421445Y-80835910D01*
X97530502Y-80894202D01*
X97591422Y-80926765D01*
X97595256Y-80928814D01*
X97783851Y-80986024D01*
X97979983Y-81005341D01*
X98176115Y-80986024D01*
X98364710Y-80928814D01*
X98538521Y-80835910D01*
X98538527Y-80835904D01*
X98543590Y-80832523D01*
X98544686Y-80834164D01*
X98600622Y-80810405D01*
X98669490Y-80822194D01*
X98686131Y-80832888D01*
X98686376Y-80832523D01*
X98691441Y-80835907D01*
X98691445Y-80835910D01*
X98731251Y-80857187D01*
X98765930Y-80875723D01*
X98815774Y-80924685D01*
X98831235Y-80992823D01*
X98807403Y-81058503D01*
X98795158Y-81072762D01*
X98204741Y-81663181D01*
X98143418Y-81696666D01*
X98117060Y-81699500D01*
X88038980Y-81699500D01*
X87971941Y-81679815D01*
X87926186Y-81627011D01*
X87916242Y-81557853D01*
X87945267Y-81494297D01*
X87951299Y-81487819D01*
X88125712Y-81313405D01*
X88125722Y-81313395D01*
X88297209Y-81084315D01*
X88434350Y-80833161D01*
X88534352Y-80565046D01*
X88595179Y-80285428D01*
X88615593Y-80000000D01*
X88595179Y-79714572D01*
X88586245Y-79673504D01*
X88534354Y-79434962D01*
X88534353Y-79434960D01*
X88534352Y-79434954D01*
X88434350Y-79166839D01*
X88433802Y-79165836D01*
X88297212Y-78915690D01*
X88297207Y-78915682D01*
X88125728Y-78686612D01*
X88125712Y-78686594D01*
X87951299Y-78512181D01*
X87917814Y-78450858D01*
X87922798Y-78381166D01*
X87964670Y-78325233D01*
X88030134Y-78300816D01*
X88038980Y-78300500D01*
X99617060Y-78300500D01*
X99684099Y-78320185D01*
G37*
%TD.AperFunction*%
%TA.AperFunction,Conductor*%
G36*
X84095099Y-75220185D02*
G01*
X84140854Y-75272989D01*
X84150798Y-75342147D01*
X84121773Y-75405703D01*
X84115741Y-75412181D01*
X80740326Y-78787594D01*
X80679003Y-78821079D01*
X80641838Y-78823441D01*
X80540002Y-78814532D01*
X80539998Y-78814532D01*
X80313313Y-78834364D01*
X80313302Y-78834366D01*
X80093511Y-78893258D01*
X80093502Y-78893261D01*
X79887267Y-78989431D01*
X79887265Y-78989432D01*
X79700858Y-79119954D01*
X79539954Y-79280858D01*
X79409432Y-79467265D01*
X79409431Y-79467267D01*
X79382382Y-79525275D01*
X79336209Y-79577714D01*
X79269016Y-79596866D01*
X79202135Y-79576650D01*
X79157618Y-79525275D01*
X79130568Y-79467267D01*
X79130567Y-79467265D01*
X79112503Y-79441467D01*
X79000047Y-79280861D01*
X79000045Y-79280858D01*
X78839141Y-79119954D01*
X78652734Y-78989432D01*
X78652732Y-78989431D01*
X78446497Y-78893261D01*
X78446488Y-78893258D01*
X78226697Y-78834366D01*
X78226687Y-78834364D01*
X78170692Y-78829465D01*
X78105624Y-78804012D01*
X78064646Y-78747420D01*
X78060769Y-78677658D01*
X78093818Y-78618258D01*
X81475259Y-75236819D01*
X81536582Y-75203334D01*
X81562940Y-75200500D01*
X84028060Y-75200500D01*
X84095099Y-75220185D01*
G37*
%TD.AperFunction*%
%TA.AperFunction,Conductor*%
G36*
X88594934Y-58820185D02*
G01*
X88640689Y-58872989D01*
X88651423Y-58935308D01*
X88650411Y-58946874D01*
X89210574Y-59507037D01*
X89146990Y-59524075D01*
X89032976Y-59589901D01*
X88939884Y-59682993D01*
X88874058Y-59797007D01*
X88857020Y-59860591D01*
X88296857Y-59300428D01*
X88253316Y-59362613D01*
X88160881Y-59560840D01*
X88160877Y-59560849D01*
X88104272Y-59772105D01*
X88104270Y-59772115D01*
X88085208Y-59989999D01*
X88085208Y-59990000D01*
X88104270Y-60207884D01*
X88104272Y-60207894D01*
X88160877Y-60419150D01*
X88160881Y-60419159D01*
X88253316Y-60617387D01*
X88296857Y-60679571D01*
X88857020Y-60119408D01*
X88874058Y-60182993D01*
X88939884Y-60297007D01*
X89032976Y-60390099D01*
X89146990Y-60455925D01*
X89210573Y-60472962D01*
X88650410Y-61033124D01*
X88651592Y-61046631D01*
X88672197Y-61072409D01*
X88679391Y-61141908D01*
X88647868Y-61204263D01*
X88587639Y-61239677D01*
X88576848Y-61241881D01*
X88358613Y-61276447D01*
X88133986Y-61349433D01*
X87923549Y-61456657D01*
X87852706Y-61508128D01*
X87732473Y-61595483D01*
X87732471Y-61595485D01*
X87732470Y-61595485D01*
X87565468Y-61762487D01*
X87565468Y-61762488D01*
X87565466Y-61762490D01*
X87520467Y-61824426D01*
X87426640Y-61953566D01*
X87319416Y-62164003D01*
X87246429Y-62388631D01*
X87209483Y-62621902D01*
X87209483Y-62858097D01*
X87246429Y-63091368D01*
X87319416Y-63315996D01*
X87426640Y-63526433D01*
X87565466Y-63717510D01*
X87732473Y-63884517D01*
X87923550Y-64023343D01*
X88022974Y-64074002D01*
X88133986Y-64130566D01*
X88133988Y-64130566D01*
X88133991Y-64130568D01*
X88358615Y-64203553D01*
X88568450Y-64236787D01*
X88576845Y-64238117D01*
X88639979Y-64268046D01*
X88676911Y-64327357D01*
X88675913Y-64397220D01*
X88651538Y-64433981D01*
X88650410Y-64446873D01*
X89210574Y-65007037D01*
X89146990Y-65024075D01*
X89032976Y-65089901D01*
X88939884Y-65182993D01*
X88874058Y-65297007D01*
X88857020Y-65360591D01*
X88296857Y-64800428D01*
X88253316Y-64862613D01*
X88160881Y-65060840D01*
X88160877Y-65060849D01*
X88104272Y-65272105D01*
X88104270Y-65272115D01*
X88085208Y-65489999D01*
X88085208Y-65490000D01*
X88104270Y-65707884D01*
X88104272Y-65707894D01*
X88160877Y-65919150D01*
X88160881Y-65919159D01*
X88253316Y-66117387D01*
X88296857Y-66179571D01*
X88857020Y-65619408D01*
X88874058Y-65682993D01*
X88939884Y-65797007D01*
X89032976Y-65890099D01*
X89146990Y-65955925D01*
X89210573Y-65972962D01*
X88650410Y-66533125D01*
X88655084Y-66586553D01*
X88646594Y-66628793D01*
X88652532Y-66620862D01*
X88717996Y-66596445D01*
X88779247Y-66607747D01*
X88910823Y-66669101D01*
X88910832Y-66669105D01*
X89122088Y-66725710D01*
X89122098Y-66725712D01*
X89339982Y-66744775D01*
X89339984Y-66744775D01*
X89557867Y-66725712D01*
X89557877Y-66725710D01*
X89769133Y-66669105D01*
X89769147Y-66669100D01*
X89967366Y-66576669D01*
X89967368Y-66576668D01*
X90029553Y-66533124D01*
X89469392Y-65972962D01*
X89532976Y-65955925D01*
X89646990Y-65890099D01*
X89740082Y-65797007D01*
X89805908Y-65682993D01*
X89822945Y-65619409D01*
X90383107Y-66179570D01*
X90426649Y-66117388D01*
X90497323Y-65965825D01*
X90543495Y-65913386D01*
X90610689Y-65894233D01*
X90677570Y-65914448D01*
X90722088Y-65965824D01*
X90792880Y-66117638D01*
X90792881Y-66117639D01*
X90918385Y-66296877D01*
X90918389Y-66296881D01*
X90921491Y-66301311D01*
X90919340Y-66302816D01*
X90942999Y-66356735D01*
X90932024Y-66425737D01*
X90907692Y-66460229D01*
X88204741Y-69163181D01*
X88143418Y-69196666D01*
X88117060Y-69199500D01*
X80171153Y-69199500D01*
X80016510Y-69230260D01*
X80016502Y-69230262D01*
X79870824Y-69290604D01*
X79870814Y-69290609D01*
X79739711Y-69378210D01*
X79739707Y-69378213D01*
X77947957Y-71169963D01*
X77886634Y-71203448D01*
X77871084Y-71205810D01*
X77773312Y-71214364D01*
X77773302Y-71214366D01*
X77553511Y-71273258D01*
X77553502Y-71273261D01*
X77347267Y-71369431D01*
X77347265Y-71369432D01*
X77160858Y-71499954D01*
X76999954Y-71660858D01*
X76869432Y-71847265D01*
X76869431Y-71847267D01*
X76842382Y-71905275D01*
X76796209Y-71957714D01*
X76729016Y-71976866D01*
X76662135Y-71956650D01*
X76617618Y-71905275D01*
X76590686Y-71847520D01*
X76590568Y-71847266D01*
X76473319Y-71679815D01*
X76460045Y-71660858D01*
X76299141Y-71499954D01*
X76112734Y-71369432D01*
X76112732Y-71369431D01*
X75906497Y-71273261D01*
X75906488Y-71273258D01*
X75686697Y-71214366D01*
X75686693Y-71214365D01*
X75686692Y-71214365D01*
X75686691Y-71214364D01*
X75686686Y-71214364D01*
X75460002Y-71194532D01*
X75459998Y-71194532D01*
X75233313Y-71214364D01*
X75233302Y-71214366D01*
X75013511Y-71273258D01*
X75013502Y-71273261D01*
X74807267Y-71369431D01*
X74807265Y-71369432D01*
X74620858Y-71499954D01*
X74459954Y-71660858D01*
X74329432Y-71847265D01*
X74329431Y-71847267D01*
X74302382Y-71905275D01*
X74256209Y-71957714D01*
X74189016Y-71976866D01*
X74122135Y-71956650D01*
X74077618Y-71905275D01*
X74050686Y-71847520D01*
X74050568Y-71847266D01*
X73933319Y-71679815D01*
X73920045Y-71660858D01*
X73756819Y-71497632D01*
X73723334Y-71436309D01*
X73720500Y-71409951D01*
X73720500Y-70962940D01*
X73740185Y-70895901D01*
X73756819Y-70875259D01*
X76501769Y-68130309D01*
X76501772Y-68130306D01*
X76514232Y-68111659D01*
X76519674Y-68103515D01*
X76519674Y-68103514D01*
X76589373Y-67999202D01*
X76589373Y-67999201D01*
X76589377Y-67999196D01*
X76649720Y-67853514D01*
X76680483Y-67698859D01*
X76680483Y-67463920D01*
X87409482Y-67463920D01*
X87438323Y-67608907D01*
X87438326Y-67608917D01*
X87494895Y-67745488D01*
X87494902Y-67745501D01*
X87577031Y-67868415D01*
X87577034Y-67868419D01*
X87681563Y-67972948D01*
X87681567Y-67972951D01*
X87804481Y-68055080D01*
X87804494Y-68055087D01*
X87921411Y-68103515D01*
X87941070Y-68111658D01*
X87941074Y-68111658D01*
X87941075Y-68111659D01*
X88086062Y-68140500D01*
X88086065Y-68140500D01*
X88233903Y-68140500D01*
X88331445Y-68121096D01*
X88378896Y-68111658D01*
X88515478Y-68055084D01*
X88638399Y-67972951D01*
X88742934Y-67868416D01*
X88825067Y-67745495D01*
X88881641Y-67608913D01*
X88892541Y-67554116D01*
X88910483Y-67463920D01*
X88910483Y-67316079D01*
X88881642Y-67171092D01*
X88881641Y-67171091D01*
X88881641Y-67171087D01*
X88866616Y-67134814D01*
X88825070Y-67034511D01*
X88825063Y-67034498D01*
X88742934Y-66911584D01*
X88742931Y-66911580D01*
X88639161Y-66807810D01*
X88605676Y-66746487D01*
X88609895Y-66687486D01*
X88592701Y-66705235D01*
X88524673Y-66721168D01*
X88484104Y-66711920D01*
X88378900Y-66668343D01*
X88378890Y-66668340D01*
X88233903Y-66639500D01*
X88233901Y-66639500D01*
X88086065Y-66639500D01*
X88086063Y-66639500D01*
X87941075Y-66668340D01*
X87941065Y-66668343D01*
X87804494Y-66724912D01*
X87804481Y-66724919D01*
X87681567Y-66807048D01*
X87681563Y-66807051D01*
X87577034Y-66911580D01*
X87577031Y-66911584D01*
X87494902Y-67034498D01*
X87494895Y-67034511D01*
X87438326Y-67171082D01*
X87438323Y-67171092D01*
X87409483Y-67316079D01*
X87409483Y-67316082D01*
X87409483Y-67463918D01*
X87409483Y-67463920D01*
X87409482Y-67463920D01*
X76680483Y-67463920D01*
X76680483Y-66924500D01*
X76700168Y-66857461D01*
X76752972Y-66811706D01*
X76804483Y-66800500D01*
X78525185Y-66800500D01*
X78592224Y-66820185D01*
X78630722Y-66859401D01*
X78667271Y-66918656D01*
X78791327Y-67042712D01*
X78940649Y-67134814D01*
X79107186Y-67189999D01*
X79209974Y-67200500D01*
X80009991Y-67200499D01*
X80009999Y-67200498D01*
X80010002Y-67200498D01*
X80066285Y-67194748D01*
X80112780Y-67189999D01*
X80279317Y-67134814D01*
X80428639Y-67042712D01*
X80522302Y-66949049D01*
X80583625Y-66915564D01*
X80653317Y-66920548D01*
X80697664Y-66949049D01*
X80791327Y-67042712D01*
X80940649Y-67134814D01*
X81107186Y-67189999D01*
X81209974Y-67200500D01*
X82009991Y-67200499D01*
X82009999Y-67200498D01*
X82010002Y-67200498D01*
X82066285Y-67194748D01*
X82112780Y-67189999D01*
X82279317Y-67134814D01*
X82428639Y-67042712D01*
X82552695Y-66918656D01*
X82644797Y-66769334D01*
X82699982Y-66602797D01*
X82710483Y-66500009D01*
X82710482Y-65499992D01*
X82709461Y-65490000D01*
X82699982Y-65397203D01*
X82699981Y-65397200D01*
X82687286Y-65358889D01*
X82644797Y-65230666D01*
X82552695Y-65081344D01*
X82446801Y-64975450D01*
X82413317Y-64914127D01*
X82410483Y-64887769D01*
X82410483Y-61112230D01*
X82430168Y-61045191D01*
X82446802Y-61024549D01*
X82453405Y-61017946D01*
X82552695Y-60918656D01*
X82644797Y-60769334D01*
X82699982Y-60602797D01*
X82710483Y-60500009D01*
X82710482Y-60082938D01*
X82730166Y-60015900D01*
X82746796Y-59995263D01*
X83905242Y-58836819D01*
X83966565Y-58803334D01*
X83992923Y-58800500D01*
X88527895Y-58800500D01*
X88594934Y-58820185D01*
G37*
%TD.AperFunction*%
%TA.AperFunction,Conductor*%
G36*
X104594934Y-58820185D02*
G01*
X104640689Y-58872989D01*
X104651423Y-58935308D01*
X104650411Y-58946874D01*
X105210574Y-59507037D01*
X105146990Y-59524075D01*
X105032976Y-59589901D01*
X104939884Y-59682993D01*
X104874058Y-59797007D01*
X104857020Y-59860591D01*
X104296857Y-59300428D01*
X104253316Y-59362613D01*
X104160881Y-59560840D01*
X104160877Y-59560849D01*
X104104272Y-59772105D01*
X104104270Y-59772115D01*
X104085208Y-59989999D01*
X104085208Y-59990000D01*
X104104270Y-60207884D01*
X104104272Y-60207894D01*
X104160877Y-60419150D01*
X104160881Y-60419159D01*
X104253316Y-60617387D01*
X104296857Y-60679571D01*
X104857020Y-60119408D01*
X104874058Y-60182993D01*
X104939884Y-60297007D01*
X105032976Y-60390099D01*
X105146990Y-60455925D01*
X105210573Y-60472962D01*
X104650410Y-61033124D01*
X104651592Y-61046631D01*
X104672197Y-61072409D01*
X104679391Y-61141908D01*
X104647868Y-61204263D01*
X104587639Y-61239677D01*
X104576848Y-61241881D01*
X104358613Y-61276447D01*
X104133986Y-61349433D01*
X103923549Y-61456657D01*
X103852706Y-61508128D01*
X103732473Y-61595483D01*
X103732471Y-61595485D01*
X103732470Y-61595485D01*
X103565468Y-61762487D01*
X103565468Y-61762488D01*
X103565466Y-61762490D01*
X103520467Y-61824426D01*
X103426640Y-61953566D01*
X103319416Y-62164003D01*
X103246429Y-62388631D01*
X103209483Y-62621902D01*
X103209483Y-62858097D01*
X103246429Y-63091368D01*
X103319416Y-63315996D01*
X103426640Y-63526433D01*
X103565466Y-63717510D01*
X103732473Y-63884517D01*
X103923550Y-64023343D01*
X104022974Y-64074002D01*
X104133986Y-64130566D01*
X104133988Y-64130566D01*
X104133991Y-64130568D01*
X104358615Y-64203553D01*
X104568450Y-64236787D01*
X104576845Y-64238117D01*
X104639979Y-64268046D01*
X104676911Y-64327357D01*
X104675913Y-64397220D01*
X104651538Y-64433981D01*
X104650410Y-64446873D01*
X105210574Y-65007037D01*
X105146990Y-65024075D01*
X105032976Y-65089901D01*
X104939884Y-65182993D01*
X104874058Y-65297007D01*
X104857020Y-65360591D01*
X104296857Y-64800428D01*
X104253316Y-64862613D01*
X104160881Y-65060840D01*
X104160877Y-65060849D01*
X104104272Y-65272105D01*
X104104270Y-65272115D01*
X104085208Y-65489999D01*
X104085208Y-65490000D01*
X104104270Y-65707884D01*
X104104272Y-65707894D01*
X104160877Y-65919150D01*
X104160881Y-65919159D01*
X104253316Y-66117387D01*
X104296857Y-66179571D01*
X104857020Y-65619408D01*
X104874058Y-65682993D01*
X104939884Y-65797007D01*
X105032976Y-65890099D01*
X105146990Y-65955925D01*
X105210573Y-65972962D01*
X104650410Y-66533125D01*
X104655084Y-66586553D01*
X104646594Y-66628793D01*
X104652532Y-66620862D01*
X104717996Y-66596445D01*
X104779247Y-66607747D01*
X104910823Y-66669101D01*
X104910832Y-66669105D01*
X105122088Y-66725710D01*
X105122098Y-66725712D01*
X105339982Y-66744775D01*
X105339984Y-66744775D01*
X105557867Y-66725712D01*
X105557877Y-66725710D01*
X105769133Y-66669105D01*
X105769147Y-66669100D01*
X105967366Y-66576669D01*
X105967368Y-66576668D01*
X106029553Y-66533124D01*
X105469392Y-65972962D01*
X105532976Y-65955925D01*
X105646990Y-65890099D01*
X105740082Y-65797007D01*
X105805908Y-65682993D01*
X105822945Y-65619409D01*
X106383107Y-66179570D01*
X106426649Y-66117388D01*
X106497323Y-65965825D01*
X106543495Y-65913386D01*
X106610689Y-65894233D01*
X106677570Y-65914448D01*
X106722088Y-65965824D01*
X106792880Y-66117638D01*
X106792881Y-66117639D01*
X106918385Y-66296877D01*
X106918389Y-66296881D01*
X107043164Y-66421656D01*
X107076649Y-66482979D01*
X107079483Y-66509337D01*
X107079483Y-67987077D01*
X107059798Y-68054116D01*
X107043164Y-68074758D01*
X103454741Y-71663181D01*
X103393418Y-71696666D01*
X103367060Y-71699500D01*
X84496977Y-71699500D01*
X84429938Y-71679815D01*
X84384183Y-71627011D01*
X84376733Y-71599865D01*
X84375876Y-71600068D01*
X84374092Y-71592520D01*
X84323797Y-71457671D01*
X84323793Y-71457664D01*
X84237547Y-71342455D01*
X84237544Y-71342452D01*
X84122335Y-71256206D01*
X84122328Y-71256202D01*
X83987482Y-71205908D01*
X83987483Y-71205908D01*
X83927883Y-71199501D01*
X83927881Y-71199500D01*
X83927873Y-71199500D01*
X83927864Y-71199500D01*
X82232129Y-71199500D01*
X82232123Y-71199501D01*
X82172516Y-71205908D01*
X82037671Y-71256202D01*
X82037664Y-71256206D01*
X81922455Y-71342452D01*
X81922452Y-71342455D01*
X81836206Y-71457664D01*
X81836202Y-71457671D01*
X81785908Y-71592516D01*
X81782137Y-71627596D01*
X81755398Y-71692146D01*
X81698006Y-71731994D01*
X81628180Y-71734487D01*
X81568092Y-71698834D01*
X81557273Y-71685462D01*
X81540045Y-71660858D01*
X81379141Y-71499954D01*
X81192734Y-71369432D01*
X81192732Y-71369431D01*
X80986497Y-71273261D01*
X80986488Y-71273258D01*
X80766697Y-71214366D01*
X80766693Y-71214365D01*
X80766692Y-71214365D01*
X80766691Y-71214364D01*
X80766686Y-71214364D01*
X80540002Y-71194532D01*
X80539998Y-71194532D01*
X80493143Y-71198631D01*
X80424643Y-71184864D01*
X80374460Y-71136249D01*
X80358527Y-71068220D01*
X80381903Y-71002376D01*
X80394645Y-70987431D01*
X80545261Y-70836816D01*
X80606582Y-70803334D01*
X80632940Y-70800500D01*
X88578844Y-70800500D01*
X88578845Y-70800499D01*
X88733497Y-70769737D01*
X88879179Y-70709394D01*
X89010289Y-70621789D01*
X92168158Y-67463920D01*
X103409482Y-67463920D01*
X103438323Y-67608907D01*
X103438326Y-67608917D01*
X103494895Y-67745488D01*
X103494902Y-67745501D01*
X103577031Y-67868415D01*
X103577034Y-67868419D01*
X103681563Y-67972948D01*
X103681567Y-67972951D01*
X103804481Y-68055080D01*
X103804494Y-68055087D01*
X103921411Y-68103515D01*
X103941070Y-68111658D01*
X103941074Y-68111658D01*
X103941075Y-68111659D01*
X104086062Y-68140500D01*
X104086065Y-68140500D01*
X104233903Y-68140500D01*
X104331445Y-68121096D01*
X104378896Y-68111658D01*
X104515478Y-68055084D01*
X104638399Y-67972951D01*
X104742934Y-67868416D01*
X104825067Y-67745495D01*
X104881641Y-67608913D01*
X104892541Y-67554116D01*
X104910483Y-67463920D01*
X104910483Y-67316079D01*
X104881642Y-67171092D01*
X104881641Y-67171091D01*
X104881641Y-67171087D01*
X104866616Y-67134814D01*
X104825070Y-67034511D01*
X104825063Y-67034498D01*
X104742934Y-66911584D01*
X104742931Y-66911580D01*
X104639161Y-66807810D01*
X104605676Y-66746487D01*
X104609895Y-66687486D01*
X104592701Y-66705235D01*
X104524673Y-66721168D01*
X104484104Y-66711920D01*
X104378900Y-66668343D01*
X104378890Y-66668340D01*
X104233903Y-66639500D01*
X104233901Y-66639500D01*
X104086065Y-66639500D01*
X104086063Y-66639500D01*
X103941075Y-66668340D01*
X103941065Y-66668343D01*
X103804494Y-66724912D01*
X103804481Y-66724919D01*
X103681567Y-66807048D01*
X103681563Y-66807051D01*
X103577034Y-66911580D01*
X103577031Y-66911584D01*
X103494902Y-67034498D01*
X103494895Y-67034511D01*
X103438326Y-67171082D01*
X103438323Y-67171092D01*
X103409483Y-67316079D01*
X103409483Y-67316082D01*
X103409483Y-67463918D01*
X103409483Y-67463920D01*
X103409482Y-67463920D01*
X92168158Y-67463920D01*
X92501772Y-67130306D01*
X92589377Y-66999196D01*
X92625669Y-66911580D01*
X92639972Y-66877048D01*
X92683812Y-66822644D01*
X92750106Y-66800579D01*
X92754533Y-66800500D01*
X94525185Y-66800500D01*
X94592224Y-66820185D01*
X94630722Y-66859401D01*
X94667271Y-66918656D01*
X94791327Y-67042712D01*
X94940649Y-67134814D01*
X95107186Y-67189999D01*
X95209974Y-67200500D01*
X96009991Y-67200499D01*
X96009999Y-67200498D01*
X96010002Y-67200498D01*
X96066285Y-67194748D01*
X96112780Y-67189999D01*
X96279317Y-67134814D01*
X96428639Y-67042712D01*
X96522302Y-66949049D01*
X96583625Y-66915564D01*
X96653317Y-66920548D01*
X96697664Y-66949049D01*
X96791327Y-67042712D01*
X96940649Y-67134814D01*
X97107186Y-67189999D01*
X97209974Y-67200500D01*
X98009991Y-67200499D01*
X98009999Y-67200498D01*
X98010002Y-67200498D01*
X98066285Y-67194748D01*
X98112780Y-67189999D01*
X98279317Y-67134814D01*
X98428639Y-67042712D01*
X98552695Y-66918656D01*
X98644797Y-66769334D01*
X98699982Y-66602797D01*
X98710483Y-66500009D01*
X98710482Y-65499992D01*
X98709461Y-65490000D01*
X98699982Y-65397203D01*
X98699981Y-65397200D01*
X98687286Y-65358889D01*
X98644797Y-65230666D01*
X98552695Y-65081344D01*
X98446801Y-64975450D01*
X98413317Y-64914127D01*
X98410483Y-64887769D01*
X98410483Y-61112230D01*
X98430168Y-61045191D01*
X98446802Y-61024549D01*
X98453405Y-61017946D01*
X98552695Y-60918656D01*
X98644797Y-60769334D01*
X98699982Y-60602797D01*
X98710483Y-60500009D01*
X98710482Y-60082938D01*
X98730166Y-60015900D01*
X98746796Y-59995263D01*
X99905242Y-58836819D01*
X99966565Y-58803334D01*
X99992923Y-58800500D01*
X104527895Y-58800500D01*
X104594934Y-58820185D01*
G37*
%TD.AperFunction*%
%TA.AperFunction,Conductor*%
G36*
X136017806Y-59716782D02*
G01*
X136073740Y-59758654D01*
X136098157Y-59824118D01*
X136098001Y-59843771D01*
X136085208Y-59989997D01*
X136085208Y-59990000D01*
X136104270Y-60207884D01*
X136104272Y-60207894D01*
X136160877Y-60419150D01*
X136160881Y-60419159D01*
X136253316Y-60617387D01*
X136296857Y-60679571D01*
X136857020Y-60119408D01*
X136874058Y-60182993D01*
X136939884Y-60297007D01*
X137032976Y-60390099D01*
X137146990Y-60455925D01*
X137210573Y-60472962D01*
X136650410Y-61033124D01*
X136651592Y-61046631D01*
X136672197Y-61072409D01*
X136679391Y-61141908D01*
X136647868Y-61204263D01*
X136587639Y-61239677D01*
X136576848Y-61241881D01*
X136358613Y-61276447D01*
X136133986Y-61349433D01*
X135923549Y-61456657D01*
X135852706Y-61508128D01*
X135732473Y-61595483D01*
X135732471Y-61595485D01*
X135732470Y-61595485D01*
X135565468Y-61762487D01*
X135565468Y-61762488D01*
X135565466Y-61762490D01*
X135520467Y-61824426D01*
X135426640Y-61953566D01*
X135319416Y-62164003D01*
X135246429Y-62388631D01*
X135209483Y-62621902D01*
X135209483Y-62858097D01*
X135246429Y-63091368D01*
X135319416Y-63315996D01*
X135426640Y-63526433D01*
X135565466Y-63717510D01*
X135732473Y-63884517D01*
X135923550Y-64023343D01*
X136022974Y-64074002D01*
X136133986Y-64130566D01*
X136133988Y-64130566D01*
X136133991Y-64130568D01*
X136358615Y-64203553D01*
X136568450Y-64236787D01*
X136576845Y-64238117D01*
X136639979Y-64268046D01*
X136676911Y-64327357D01*
X136675913Y-64397220D01*
X136651538Y-64433981D01*
X136650410Y-64446873D01*
X137210574Y-65007037D01*
X137146990Y-65024075D01*
X137032976Y-65089901D01*
X136939884Y-65182993D01*
X136874058Y-65297007D01*
X136857020Y-65360591D01*
X136296857Y-64800428D01*
X136253316Y-64862613D01*
X136160881Y-65060840D01*
X136160877Y-65060849D01*
X136104272Y-65272105D01*
X136104270Y-65272115D01*
X136085208Y-65489999D01*
X136085208Y-65490000D01*
X136104270Y-65707884D01*
X136104272Y-65707894D01*
X136160877Y-65919150D01*
X136160881Y-65919159D01*
X136253316Y-66117387D01*
X136296857Y-66179571D01*
X136857020Y-65619408D01*
X136874058Y-65682993D01*
X136939884Y-65797007D01*
X137032976Y-65890099D01*
X137146990Y-65955925D01*
X137210573Y-65972962D01*
X136650410Y-66533125D01*
X136655084Y-66586553D01*
X136646594Y-66628793D01*
X136652532Y-66620862D01*
X136717996Y-66596445D01*
X136779247Y-66607747D01*
X136910823Y-66669101D01*
X136910832Y-66669105D01*
X137122088Y-66725710D01*
X137122098Y-66725712D01*
X137339982Y-66744775D01*
X137339984Y-66744775D01*
X137557867Y-66725712D01*
X137557877Y-66725710D01*
X137769133Y-66669105D01*
X137769147Y-66669100D01*
X137967366Y-66576669D01*
X137967368Y-66576668D01*
X138029554Y-66533124D01*
X137469393Y-65972962D01*
X137532976Y-65955925D01*
X137646990Y-65890099D01*
X137740082Y-65797007D01*
X137805908Y-65682993D01*
X137822945Y-65619409D01*
X138383107Y-66179570D01*
X138426649Y-66117388D01*
X138497323Y-65965825D01*
X138543495Y-65913386D01*
X138610689Y-65894233D01*
X138677570Y-65914448D01*
X138722088Y-65965824D01*
X138792880Y-66117638D01*
X138792881Y-66117639D01*
X138918385Y-66296877D01*
X138918389Y-66296881D01*
X139043164Y-66421656D01*
X139076649Y-66482979D01*
X139079483Y-66509337D01*
X139079483Y-67237077D01*
X139059798Y-67304116D01*
X139043164Y-67324758D01*
X135012181Y-71355741D01*
X134950858Y-71389226D01*
X134881166Y-71384242D01*
X134825233Y-71342370D01*
X134800816Y-71276906D01*
X134800500Y-71268060D01*
X134800500Y-67463920D01*
X135409482Y-67463920D01*
X135438323Y-67608907D01*
X135438326Y-67608917D01*
X135494895Y-67745488D01*
X135494902Y-67745501D01*
X135577031Y-67868415D01*
X135577034Y-67868419D01*
X135681563Y-67972948D01*
X135681567Y-67972951D01*
X135804481Y-68055080D01*
X135804494Y-68055087D01*
X135921411Y-68103515D01*
X135941070Y-68111658D01*
X135941074Y-68111658D01*
X135941075Y-68111659D01*
X136086062Y-68140500D01*
X136086065Y-68140500D01*
X136233903Y-68140500D01*
X136331445Y-68121096D01*
X136378896Y-68111658D01*
X136515478Y-68055084D01*
X136638399Y-67972951D01*
X136742934Y-67868416D01*
X136825067Y-67745495D01*
X136881641Y-67608913D01*
X136892541Y-67554116D01*
X136910483Y-67463920D01*
X136910483Y-67316079D01*
X136881642Y-67171092D01*
X136881641Y-67171091D01*
X136881641Y-67171087D01*
X136866616Y-67134814D01*
X136825070Y-67034511D01*
X136825063Y-67034498D01*
X136742934Y-66911584D01*
X136742931Y-66911580D01*
X136639161Y-66807810D01*
X136605676Y-66746487D01*
X136609895Y-66687486D01*
X136592701Y-66705235D01*
X136524673Y-66721168D01*
X136484104Y-66711920D01*
X136378900Y-66668343D01*
X136378890Y-66668340D01*
X136233903Y-66639500D01*
X136233901Y-66639500D01*
X136086065Y-66639500D01*
X136086063Y-66639500D01*
X135941075Y-66668340D01*
X135941065Y-66668343D01*
X135804494Y-66724912D01*
X135804481Y-66724919D01*
X135681567Y-66807048D01*
X135681563Y-66807051D01*
X135577034Y-66911580D01*
X135577031Y-66911584D01*
X135494902Y-67034498D01*
X135494895Y-67034511D01*
X135438326Y-67171082D01*
X135438323Y-67171092D01*
X135409483Y-67316079D01*
X135409483Y-67316082D01*
X135409483Y-67463918D01*
X135409483Y-67463920D01*
X135409482Y-67463920D01*
X134800500Y-67463920D01*
X134800500Y-67112230D01*
X134820185Y-67045191D01*
X134836819Y-67024549D01*
X134862179Y-66999189D01*
X134942712Y-66918656D01*
X135034814Y-66769334D01*
X135089999Y-66602797D01*
X135100500Y-66500009D01*
X135100499Y-65499992D01*
X135099478Y-65490000D01*
X135089999Y-65397203D01*
X135089998Y-65397200D01*
X135077303Y-65358889D01*
X135034814Y-65230666D01*
X134942712Y-65081344D01*
X134818656Y-64957288D01*
X134669334Y-64865186D01*
X134502797Y-64810001D01*
X134502795Y-64810000D01*
X134400010Y-64799500D01*
X133599998Y-64799500D01*
X133599980Y-64799501D01*
X133497203Y-64810000D01*
X133497200Y-64810001D01*
X133330668Y-64865185D01*
X133330663Y-64865187D01*
X133181345Y-64957287D01*
X133087681Y-65050951D01*
X133026357Y-65084435D01*
X132956666Y-65079451D01*
X132912319Y-65050950D01*
X132836819Y-64975450D01*
X132803334Y-64914127D01*
X132800500Y-64887769D01*
X132800500Y-61112230D01*
X132820185Y-61045191D01*
X132836819Y-61024549D01*
X132912319Y-60949049D01*
X132973642Y-60915564D01*
X133043334Y-60920548D01*
X133087681Y-60949049D01*
X133181344Y-61042712D01*
X133330666Y-61134814D01*
X133497203Y-61189999D01*
X133599991Y-61200500D01*
X134400008Y-61200499D01*
X134400016Y-61200498D01*
X134400019Y-61200498D01*
X134456302Y-61194748D01*
X134502797Y-61189999D01*
X134669334Y-61134814D01*
X134818656Y-61042712D01*
X134942712Y-60918656D01*
X135034814Y-60769334D01*
X135089999Y-60602797D01*
X135092424Y-60579055D01*
X135118819Y-60514364D01*
X135128092Y-60503984D01*
X135886797Y-59745279D01*
X135948115Y-59711798D01*
X136017806Y-59716782D01*
G37*
%TD.AperFunction*%
%TA.AperFunction,Conductor*%
G36*
X58383107Y-60679570D02*
G01*
X58426649Y-60617388D01*
X58497323Y-60465825D01*
X58543495Y-60413386D01*
X58610689Y-60394233D01*
X58677570Y-60414448D01*
X58722088Y-60465824D01*
X58792880Y-60617638D01*
X58792881Y-60617639D01*
X58918385Y-60796877D01*
X59073106Y-60951598D01*
X59252344Y-61077102D01*
X59450653Y-61169575D01*
X59662006Y-61226207D01*
X59670324Y-61226934D01*
X59735391Y-61252381D01*
X59776373Y-61308970D01*
X59780256Y-61378731D01*
X59745806Y-61439518D01*
X59727460Y-61453749D01*
X59727492Y-61453793D01*
X59726101Y-61454803D01*
X59724328Y-61456179D01*
X59723559Y-61456649D01*
X59584516Y-61557670D01*
X59532473Y-61595483D01*
X59532471Y-61595485D01*
X59532470Y-61595485D01*
X59365468Y-61762487D01*
X59365468Y-61762488D01*
X59365466Y-61762490D01*
X59320467Y-61824426D01*
X59226640Y-61953566D01*
X59119416Y-62164003D01*
X59046429Y-62388631D01*
X59009483Y-62621902D01*
X59009483Y-62858097D01*
X59046429Y-63091368D01*
X59119416Y-63315996D01*
X59226640Y-63526433D01*
X59365466Y-63717510D01*
X59532473Y-63884517D01*
X59723543Y-64023338D01*
X59723550Y-64023343D01*
X59724312Y-64023810D01*
X59724540Y-64024062D01*
X59727492Y-64026207D01*
X59727041Y-64026827D01*
X59771187Y-64075623D01*
X59782608Y-64144553D01*
X59754951Y-64208715D01*
X59696995Y-64247739D01*
X59670330Y-64253064D01*
X59662006Y-64253793D01*
X59662003Y-64253793D01*
X59450660Y-64310422D01*
X59450651Y-64310426D01*
X59252344Y-64402898D01*
X59252340Y-64402900D01*
X59073104Y-64528402D01*
X58918385Y-64683121D01*
X58792883Y-64862357D01*
X58792883Y-64862358D01*
X58792881Y-64862361D01*
X58792881Y-64862362D01*
X58791565Y-64865185D01*
X58722088Y-65014176D01*
X58675915Y-65066615D01*
X58608721Y-65085766D01*
X58541840Y-65065550D01*
X58497324Y-65014175D01*
X58426650Y-64862614D01*
X58426649Y-64862612D01*
X58383107Y-64800428D01*
X58383107Y-64800427D01*
X57822945Y-65360589D01*
X57805908Y-65297007D01*
X57740082Y-65182993D01*
X57646990Y-65089901D01*
X57532976Y-65024075D01*
X57469392Y-65007037D01*
X58029554Y-64446874D01*
X57967370Y-64403333D01*
X57769142Y-64310898D01*
X57769133Y-64310894D01*
X57557877Y-64254289D01*
X57557870Y-64254288D01*
X57548912Y-64253504D01*
X57483845Y-64228047D01*
X57442869Y-64171454D01*
X57438995Y-64101692D01*
X57473452Y-64040910D01*
X57494957Y-64024236D01*
X57496397Y-64023352D01*
X57496416Y-64023343D01*
X57687493Y-63884517D01*
X57854500Y-63717510D01*
X57993326Y-63526433D01*
X58100551Y-63315992D01*
X58173536Y-63091368D01*
X58210483Y-62858097D01*
X58210483Y-62621902D01*
X58173536Y-62388631D01*
X58100549Y-62164003D01*
X57993325Y-61953566D01*
X57854500Y-61762490D01*
X57687493Y-61595483D01*
X57496416Y-61456657D01*
X57496410Y-61456654D01*
X57494943Y-61455755D01*
X57494498Y-61455264D01*
X57492474Y-61453793D01*
X57492782Y-61453367D01*
X57448064Y-61403946D01*
X57436637Y-61335017D01*
X57464290Y-61270852D01*
X57522243Y-61231824D01*
X57548920Y-61226495D01*
X57557866Y-61225712D01*
X57557877Y-61225710D01*
X57769133Y-61169105D01*
X57769147Y-61169100D01*
X57967366Y-61076669D01*
X57967368Y-61076668D01*
X58029554Y-61033124D01*
X57469393Y-60472962D01*
X57532976Y-60455925D01*
X57646990Y-60390099D01*
X57740082Y-60297007D01*
X57805908Y-60182993D01*
X57822945Y-60119409D01*
X58383107Y-60679570D01*
G37*
%TD.AperFunction*%
%TA.AperFunction,Conductor*%
G36*
X74383107Y-60679570D02*
G01*
X74426649Y-60617388D01*
X74497323Y-60465825D01*
X74543495Y-60413386D01*
X74610689Y-60394233D01*
X74677570Y-60414448D01*
X74722088Y-60465824D01*
X74792880Y-60617638D01*
X74792881Y-60617639D01*
X74918385Y-60796877D01*
X75073106Y-60951598D01*
X75252344Y-61077102D01*
X75450653Y-61169575D01*
X75662006Y-61226207D01*
X75670324Y-61226934D01*
X75735391Y-61252381D01*
X75776373Y-61308970D01*
X75780256Y-61378731D01*
X75745806Y-61439518D01*
X75727460Y-61453749D01*
X75727492Y-61453793D01*
X75726101Y-61454803D01*
X75724328Y-61456179D01*
X75723559Y-61456649D01*
X75584516Y-61557670D01*
X75532473Y-61595483D01*
X75532471Y-61595485D01*
X75532470Y-61595485D01*
X75365468Y-61762487D01*
X75365468Y-61762488D01*
X75365466Y-61762490D01*
X75320467Y-61824426D01*
X75226640Y-61953566D01*
X75119416Y-62164003D01*
X75046429Y-62388631D01*
X75009483Y-62621902D01*
X75009483Y-62858097D01*
X75046429Y-63091368D01*
X75119416Y-63315996D01*
X75226640Y-63526433D01*
X75365466Y-63717510D01*
X75532473Y-63884517D01*
X75723543Y-64023338D01*
X75723550Y-64023343D01*
X75724312Y-64023810D01*
X75724540Y-64024062D01*
X75727492Y-64026207D01*
X75727041Y-64026827D01*
X75771187Y-64075623D01*
X75782608Y-64144553D01*
X75754951Y-64208715D01*
X75696995Y-64247739D01*
X75670330Y-64253064D01*
X75662006Y-64253793D01*
X75662003Y-64253793D01*
X75450660Y-64310422D01*
X75450651Y-64310426D01*
X75252344Y-64402898D01*
X75252340Y-64402900D01*
X75073104Y-64528402D01*
X74918385Y-64683121D01*
X74792883Y-64862357D01*
X74792883Y-64862358D01*
X74792881Y-64862361D01*
X74792881Y-64862362D01*
X74791565Y-64865185D01*
X74722088Y-65014176D01*
X74675915Y-65066615D01*
X74608721Y-65085766D01*
X74541840Y-65065550D01*
X74497324Y-65014175D01*
X74426650Y-64862614D01*
X74426649Y-64862612D01*
X74383107Y-64800428D01*
X74383107Y-64800427D01*
X73822945Y-65360589D01*
X73805908Y-65297007D01*
X73740082Y-65182993D01*
X73646990Y-65089901D01*
X73532976Y-65024075D01*
X73469392Y-65007037D01*
X74029554Y-64446874D01*
X73967370Y-64403333D01*
X73769142Y-64310898D01*
X73769133Y-64310894D01*
X73557877Y-64254289D01*
X73557870Y-64254288D01*
X73548912Y-64253504D01*
X73483845Y-64228047D01*
X73442869Y-64171454D01*
X73438995Y-64101692D01*
X73473452Y-64040910D01*
X73494957Y-64024236D01*
X73496397Y-64023352D01*
X73496416Y-64023343D01*
X73687493Y-63884517D01*
X73854500Y-63717510D01*
X73993326Y-63526433D01*
X74100551Y-63315992D01*
X74173536Y-63091368D01*
X74210483Y-62858097D01*
X74210483Y-62621902D01*
X74173536Y-62388631D01*
X74100549Y-62164003D01*
X73993325Y-61953566D01*
X73854500Y-61762490D01*
X73687493Y-61595483D01*
X73496416Y-61456657D01*
X73496410Y-61456654D01*
X73494943Y-61455755D01*
X73494498Y-61455264D01*
X73492474Y-61453793D01*
X73492782Y-61453367D01*
X73448064Y-61403946D01*
X73436637Y-61335017D01*
X73464290Y-61270852D01*
X73522243Y-61231824D01*
X73548920Y-61226495D01*
X73557866Y-61225712D01*
X73557877Y-61225710D01*
X73769133Y-61169105D01*
X73769147Y-61169100D01*
X73967366Y-61076669D01*
X73967368Y-61076668D01*
X74029553Y-61033124D01*
X73469392Y-60472962D01*
X73532976Y-60455925D01*
X73646990Y-60390099D01*
X73740082Y-60297007D01*
X73805908Y-60182993D01*
X73822945Y-60119409D01*
X74383107Y-60679570D01*
G37*
%TD.AperFunction*%
%TA.AperFunction,Conductor*%
G36*
X90383107Y-60679570D02*
G01*
X90426649Y-60617388D01*
X90497323Y-60465825D01*
X90543495Y-60413386D01*
X90610689Y-60394233D01*
X90677570Y-60414448D01*
X90722088Y-60465824D01*
X90792880Y-60617638D01*
X90792881Y-60617639D01*
X90918385Y-60796877D01*
X91073106Y-60951598D01*
X91252344Y-61077102D01*
X91450653Y-61169575D01*
X91662006Y-61226207D01*
X91670324Y-61226934D01*
X91735391Y-61252381D01*
X91776373Y-61308970D01*
X91780256Y-61378731D01*
X91745806Y-61439518D01*
X91727460Y-61453749D01*
X91727492Y-61453793D01*
X91726101Y-61454803D01*
X91724328Y-61456179D01*
X91723559Y-61456649D01*
X91584516Y-61557670D01*
X91532473Y-61595483D01*
X91532471Y-61595485D01*
X91532470Y-61595485D01*
X91365468Y-61762487D01*
X91365468Y-61762488D01*
X91365466Y-61762490D01*
X91320467Y-61824426D01*
X91226640Y-61953566D01*
X91119416Y-62164003D01*
X91046429Y-62388631D01*
X91009483Y-62621902D01*
X91009483Y-62858097D01*
X91046429Y-63091368D01*
X91119416Y-63315996D01*
X91226640Y-63526433D01*
X91365466Y-63717510D01*
X91532473Y-63884517D01*
X91723543Y-64023338D01*
X91723550Y-64023343D01*
X91724312Y-64023810D01*
X91724540Y-64024062D01*
X91727492Y-64026207D01*
X91727041Y-64026827D01*
X91771187Y-64075623D01*
X91782608Y-64144553D01*
X91754951Y-64208715D01*
X91696995Y-64247739D01*
X91670330Y-64253064D01*
X91662006Y-64253793D01*
X91662003Y-64253793D01*
X91450660Y-64310422D01*
X91450651Y-64310426D01*
X91252344Y-64402898D01*
X91252340Y-64402900D01*
X91073104Y-64528402D01*
X90918385Y-64683121D01*
X90792883Y-64862357D01*
X90792883Y-64862358D01*
X90792881Y-64862361D01*
X90792881Y-64862362D01*
X90791565Y-64865185D01*
X90722088Y-65014176D01*
X90675915Y-65066615D01*
X90608721Y-65085766D01*
X90541840Y-65065550D01*
X90497324Y-65014175D01*
X90426650Y-64862614D01*
X90426649Y-64862612D01*
X90383107Y-64800428D01*
X90383107Y-64800427D01*
X89822945Y-65360589D01*
X89805908Y-65297007D01*
X89740082Y-65182993D01*
X89646990Y-65089901D01*
X89532976Y-65024075D01*
X89469392Y-65007037D01*
X90029554Y-64446874D01*
X89967370Y-64403333D01*
X89769142Y-64310898D01*
X89769133Y-64310894D01*
X89557877Y-64254289D01*
X89557870Y-64254288D01*
X89548912Y-64253504D01*
X89483845Y-64228047D01*
X89442869Y-64171454D01*
X89438995Y-64101692D01*
X89473452Y-64040910D01*
X89494957Y-64024236D01*
X89496397Y-64023352D01*
X89496416Y-64023343D01*
X89687493Y-63884517D01*
X89854500Y-63717510D01*
X89993326Y-63526433D01*
X90100551Y-63315992D01*
X90173536Y-63091368D01*
X90210483Y-62858097D01*
X90210483Y-62621902D01*
X90173536Y-62388631D01*
X90100549Y-62164003D01*
X89993325Y-61953566D01*
X89854500Y-61762490D01*
X89687493Y-61595483D01*
X89496416Y-61456657D01*
X89496410Y-61456654D01*
X89494943Y-61455755D01*
X89494498Y-61455264D01*
X89492474Y-61453793D01*
X89492782Y-61453367D01*
X89448064Y-61403946D01*
X89436637Y-61335017D01*
X89464290Y-61270852D01*
X89522243Y-61231824D01*
X89548920Y-61226495D01*
X89557866Y-61225712D01*
X89557877Y-61225710D01*
X89769133Y-61169105D01*
X89769147Y-61169100D01*
X89967366Y-61076669D01*
X89967368Y-61076668D01*
X90029554Y-61033124D01*
X89469393Y-60472962D01*
X89532976Y-60455925D01*
X89646990Y-60390099D01*
X89740082Y-60297007D01*
X89805908Y-60182993D01*
X89822945Y-60119409D01*
X90383107Y-60679570D01*
G37*
%TD.AperFunction*%
%TA.AperFunction,Conductor*%
G36*
X106383107Y-60679570D02*
G01*
X106426649Y-60617388D01*
X106497323Y-60465825D01*
X106543495Y-60413386D01*
X106610689Y-60394233D01*
X106677570Y-60414448D01*
X106722088Y-60465824D01*
X106792880Y-60617638D01*
X106792881Y-60617639D01*
X106918385Y-60796877D01*
X107073106Y-60951598D01*
X107252344Y-61077102D01*
X107450653Y-61169575D01*
X107662006Y-61226207D01*
X107670324Y-61226934D01*
X107735391Y-61252381D01*
X107776373Y-61308970D01*
X107780256Y-61378731D01*
X107745806Y-61439518D01*
X107727460Y-61453749D01*
X107727492Y-61453793D01*
X107726101Y-61454803D01*
X107724328Y-61456179D01*
X107723559Y-61456649D01*
X107584516Y-61557670D01*
X107532473Y-61595483D01*
X107532471Y-61595485D01*
X107532470Y-61595485D01*
X107365468Y-61762487D01*
X107365468Y-61762488D01*
X107365466Y-61762490D01*
X107320467Y-61824426D01*
X107226640Y-61953566D01*
X107119416Y-62164003D01*
X107046429Y-62388631D01*
X107009483Y-62621902D01*
X107009483Y-62858097D01*
X107046429Y-63091368D01*
X107119416Y-63315996D01*
X107226640Y-63526433D01*
X107365466Y-63717510D01*
X107532473Y-63884517D01*
X107723543Y-64023338D01*
X107723550Y-64023343D01*
X107724312Y-64023810D01*
X107724540Y-64024062D01*
X107727492Y-64026207D01*
X107727041Y-64026827D01*
X107771187Y-64075623D01*
X107782608Y-64144553D01*
X107754951Y-64208715D01*
X107696995Y-64247739D01*
X107670330Y-64253064D01*
X107662006Y-64253793D01*
X107662003Y-64253793D01*
X107450660Y-64310422D01*
X107450651Y-64310426D01*
X107252344Y-64402898D01*
X107252340Y-64402900D01*
X107073104Y-64528402D01*
X106918385Y-64683121D01*
X106792883Y-64862357D01*
X106792883Y-64862358D01*
X106792881Y-64862361D01*
X106792881Y-64862362D01*
X106791565Y-64865185D01*
X106722088Y-65014176D01*
X106675915Y-65066615D01*
X106608721Y-65085766D01*
X106541840Y-65065550D01*
X106497324Y-65014175D01*
X106426650Y-64862614D01*
X106426649Y-64862612D01*
X106383107Y-64800428D01*
X106383107Y-64800427D01*
X105822945Y-65360589D01*
X105805908Y-65297007D01*
X105740082Y-65182993D01*
X105646990Y-65089901D01*
X105532976Y-65024075D01*
X105469392Y-65007037D01*
X106029554Y-64446874D01*
X105967370Y-64403333D01*
X105769142Y-64310898D01*
X105769133Y-64310894D01*
X105557877Y-64254289D01*
X105557870Y-64254288D01*
X105548912Y-64253504D01*
X105483845Y-64228047D01*
X105442869Y-64171454D01*
X105438995Y-64101692D01*
X105473452Y-64040910D01*
X105494957Y-64024236D01*
X105496397Y-64023352D01*
X105496416Y-64023343D01*
X105687493Y-63884517D01*
X105854500Y-63717510D01*
X105993326Y-63526433D01*
X106100551Y-63315992D01*
X106173536Y-63091368D01*
X106210483Y-62858097D01*
X106210483Y-62621902D01*
X106173536Y-62388631D01*
X106100549Y-62164003D01*
X105993325Y-61953566D01*
X105854500Y-61762490D01*
X105687493Y-61595483D01*
X105496416Y-61456657D01*
X105496410Y-61456654D01*
X105494943Y-61455755D01*
X105494498Y-61455264D01*
X105492474Y-61453793D01*
X105492782Y-61453367D01*
X105448064Y-61403946D01*
X105436637Y-61335017D01*
X105464290Y-61270852D01*
X105522243Y-61231824D01*
X105548920Y-61226495D01*
X105557866Y-61225712D01*
X105557877Y-61225710D01*
X105769133Y-61169105D01*
X105769147Y-61169100D01*
X105967366Y-61076669D01*
X105967368Y-61076668D01*
X106029554Y-61033124D01*
X105469393Y-60472962D01*
X105532976Y-60455925D01*
X105646990Y-60390099D01*
X105740082Y-60297007D01*
X105805908Y-60182993D01*
X105822945Y-60119409D01*
X106383107Y-60679570D01*
G37*
%TD.AperFunction*%
%TA.AperFunction,Conductor*%
G36*
X122383107Y-60679570D02*
G01*
X122426649Y-60617388D01*
X122497323Y-60465825D01*
X122543495Y-60413386D01*
X122610689Y-60394233D01*
X122677570Y-60414448D01*
X122722088Y-60465824D01*
X122792880Y-60617638D01*
X122792881Y-60617639D01*
X122918385Y-60796877D01*
X123073106Y-60951598D01*
X123252344Y-61077102D01*
X123450653Y-61169575D01*
X123662006Y-61226207D01*
X123670324Y-61226934D01*
X123735391Y-61252381D01*
X123776373Y-61308970D01*
X123780256Y-61378731D01*
X123745806Y-61439518D01*
X123727460Y-61453749D01*
X123727492Y-61453793D01*
X123726101Y-61454803D01*
X123724328Y-61456179D01*
X123723559Y-61456649D01*
X123584516Y-61557670D01*
X123532473Y-61595483D01*
X123532471Y-61595485D01*
X123532470Y-61595485D01*
X123365468Y-61762487D01*
X123365468Y-61762488D01*
X123365466Y-61762490D01*
X123320467Y-61824426D01*
X123226640Y-61953566D01*
X123119416Y-62164003D01*
X123046429Y-62388631D01*
X123009483Y-62621902D01*
X123009483Y-62858097D01*
X123046429Y-63091368D01*
X123119416Y-63315996D01*
X123226640Y-63526433D01*
X123365466Y-63717510D01*
X123532473Y-63884517D01*
X123723543Y-64023338D01*
X123723550Y-64023343D01*
X123724312Y-64023810D01*
X123724540Y-64024062D01*
X123727492Y-64026207D01*
X123727041Y-64026827D01*
X123771187Y-64075623D01*
X123782608Y-64144553D01*
X123754951Y-64208715D01*
X123696995Y-64247739D01*
X123670330Y-64253064D01*
X123662006Y-64253793D01*
X123662003Y-64253793D01*
X123450660Y-64310422D01*
X123450651Y-64310426D01*
X123252344Y-64402898D01*
X123252340Y-64402900D01*
X123073104Y-64528402D01*
X122918385Y-64683121D01*
X122792883Y-64862357D01*
X122792883Y-64862358D01*
X122792881Y-64862361D01*
X122792881Y-64862362D01*
X122791565Y-64865185D01*
X122722088Y-65014176D01*
X122675915Y-65066615D01*
X122608721Y-65085766D01*
X122541840Y-65065550D01*
X122497324Y-65014175D01*
X122426650Y-64862614D01*
X122426649Y-64862612D01*
X122383107Y-64800428D01*
X122383107Y-64800427D01*
X121822945Y-65360589D01*
X121805908Y-65297007D01*
X121740082Y-65182993D01*
X121646990Y-65089901D01*
X121532976Y-65024075D01*
X121469392Y-65007037D01*
X122029554Y-64446874D01*
X121967370Y-64403333D01*
X121769142Y-64310898D01*
X121769133Y-64310894D01*
X121557877Y-64254289D01*
X121557870Y-64254288D01*
X121548912Y-64253504D01*
X121483845Y-64228047D01*
X121442869Y-64171454D01*
X121438995Y-64101692D01*
X121473452Y-64040910D01*
X121494957Y-64024236D01*
X121496397Y-64023352D01*
X121496416Y-64023343D01*
X121687493Y-63884517D01*
X121854500Y-63717510D01*
X121993326Y-63526433D01*
X122100551Y-63315992D01*
X122173536Y-63091368D01*
X122210483Y-62858097D01*
X122210483Y-62621902D01*
X122173536Y-62388631D01*
X122100549Y-62164003D01*
X121993325Y-61953566D01*
X121854500Y-61762490D01*
X121687493Y-61595483D01*
X121496416Y-61456657D01*
X121496410Y-61456654D01*
X121494943Y-61455755D01*
X121494498Y-61455264D01*
X121492474Y-61453793D01*
X121492782Y-61453367D01*
X121448064Y-61403946D01*
X121436637Y-61335017D01*
X121464290Y-61270852D01*
X121522243Y-61231824D01*
X121548920Y-61226495D01*
X121557866Y-61225712D01*
X121557877Y-61225710D01*
X121769133Y-61169105D01*
X121769147Y-61169100D01*
X121967366Y-61076669D01*
X121967368Y-61076668D01*
X122029553Y-61033124D01*
X121469392Y-60472962D01*
X121532976Y-60455925D01*
X121646990Y-60390099D01*
X121740082Y-60297007D01*
X121805908Y-60182993D01*
X121822945Y-60119409D01*
X122383107Y-60679570D01*
G37*
%TD.AperFunction*%
%TA.AperFunction,Conductor*%
G36*
X138383107Y-60679570D02*
G01*
X138426649Y-60617388D01*
X138497323Y-60465825D01*
X138543495Y-60413386D01*
X138610689Y-60394233D01*
X138677570Y-60414448D01*
X138722088Y-60465824D01*
X138792880Y-60617638D01*
X138792881Y-60617639D01*
X138918385Y-60796877D01*
X139073106Y-60951598D01*
X139252344Y-61077102D01*
X139450653Y-61169575D01*
X139662006Y-61226207D01*
X139670324Y-61226934D01*
X139735391Y-61252381D01*
X139776373Y-61308970D01*
X139780256Y-61378731D01*
X139745806Y-61439518D01*
X139727460Y-61453749D01*
X139727492Y-61453793D01*
X139726101Y-61454803D01*
X139724328Y-61456179D01*
X139723559Y-61456649D01*
X139584516Y-61557670D01*
X139532473Y-61595483D01*
X139532471Y-61595485D01*
X139532470Y-61595485D01*
X139365468Y-61762487D01*
X139365468Y-61762488D01*
X139365466Y-61762490D01*
X139320467Y-61824426D01*
X139226640Y-61953566D01*
X139119416Y-62164003D01*
X139046429Y-62388631D01*
X139009483Y-62621902D01*
X139009483Y-62858097D01*
X139046429Y-63091368D01*
X139119416Y-63315996D01*
X139226640Y-63526433D01*
X139365466Y-63717510D01*
X139532473Y-63884517D01*
X139723543Y-64023338D01*
X139723550Y-64023343D01*
X139724312Y-64023810D01*
X139724540Y-64024062D01*
X139727492Y-64026207D01*
X139727041Y-64026827D01*
X139771187Y-64075623D01*
X139782608Y-64144553D01*
X139754951Y-64208715D01*
X139696995Y-64247739D01*
X139670330Y-64253064D01*
X139662006Y-64253793D01*
X139662003Y-64253793D01*
X139450660Y-64310422D01*
X139450651Y-64310426D01*
X139252344Y-64402898D01*
X139252340Y-64402900D01*
X139073104Y-64528402D01*
X138918385Y-64683121D01*
X138792883Y-64862357D01*
X138792883Y-64862358D01*
X138792881Y-64862361D01*
X138792881Y-64862362D01*
X138791565Y-64865185D01*
X138722088Y-65014176D01*
X138675915Y-65066615D01*
X138608721Y-65085766D01*
X138541840Y-65065550D01*
X138497324Y-65014175D01*
X138426650Y-64862614D01*
X138426649Y-64862612D01*
X138383107Y-64800428D01*
X138383107Y-64800427D01*
X137822945Y-65360589D01*
X137805908Y-65297007D01*
X137740082Y-65182993D01*
X137646990Y-65089901D01*
X137532976Y-65024075D01*
X137469392Y-65007037D01*
X138029554Y-64446874D01*
X137967370Y-64403333D01*
X137769142Y-64310898D01*
X137769133Y-64310894D01*
X137557877Y-64254289D01*
X137557870Y-64254288D01*
X137548912Y-64253504D01*
X137483845Y-64228047D01*
X137442869Y-64171454D01*
X137438995Y-64101692D01*
X137473452Y-64040910D01*
X137494957Y-64024236D01*
X137496397Y-64023352D01*
X137496416Y-64023343D01*
X137687493Y-63884517D01*
X137854500Y-63717510D01*
X137993326Y-63526433D01*
X138100551Y-63315992D01*
X138173536Y-63091368D01*
X138210483Y-62858097D01*
X138210483Y-62621902D01*
X138173536Y-62388631D01*
X138100549Y-62164003D01*
X137993325Y-61953566D01*
X137854500Y-61762490D01*
X137687493Y-61595483D01*
X137496416Y-61456657D01*
X137496410Y-61456654D01*
X137494943Y-61455755D01*
X137494498Y-61455264D01*
X137492474Y-61453793D01*
X137492782Y-61453367D01*
X137448064Y-61403946D01*
X137436637Y-61335017D01*
X137464290Y-61270852D01*
X137522243Y-61231824D01*
X137548920Y-61226495D01*
X137557866Y-61225712D01*
X137557877Y-61225710D01*
X137769133Y-61169105D01*
X137769147Y-61169100D01*
X137967366Y-61076669D01*
X137967368Y-61076668D01*
X138029553Y-61033124D01*
X137469392Y-60472962D01*
X137532976Y-60455925D01*
X137646990Y-60390099D01*
X137740082Y-60297007D01*
X137805908Y-60182993D01*
X137822945Y-60119408D01*
X138383107Y-60679570D01*
G37*
%TD.AperFunction*%
%TA.AperFunction,Conductor*%
G36*
X78592224Y-60820185D02*
G01*
X78630722Y-60859401D01*
X78667271Y-60918656D01*
X78791327Y-61042712D01*
X78940649Y-61134814D01*
X79107186Y-61189999D01*
X79209974Y-61200500D01*
X80009991Y-61200499D01*
X80009999Y-61200498D01*
X80010002Y-61200498D01*
X80066285Y-61194748D01*
X80112780Y-61189999D01*
X80279317Y-61134814D01*
X80428639Y-61042712D01*
X80522304Y-60949046D01*
X80583623Y-60915564D01*
X80653315Y-60920548D01*
X80697663Y-60949048D01*
X80773165Y-61024550D01*
X80806649Y-61085871D01*
X80809483Y-61112230D01*
X80809483Y-64887769D01*
X80789798Y-64954808D01*
X80773164Y-64975451D01*
X80697663Y-65050951D01*
X80636339Y-65084435D01*
X80566648Y-65079450D01*
X80522301Y-65050950D01*
X80428640Y-64957289D01*
X80428639Y-64957288D01*
X80279317Y-64865186D01*
X80112780Y-64810001D01*
X80112778Y-64810000D01*
X80009993Y-64799500D01*
X79209981Y-64799500D01*
X79209963Y-64799501D01*
X79107186Y-64810000D01*
X79107183Y-64810001D01*
X78940651Y-64865185D01*
X78940646Y-64865187D01*
X78791325Y-64957289D01*
X78667272Y-65081342D01*
X78667271Y-65081344D01*
X78639104Y-65127011D01*
X78630724Y-65140597D01*
X78578776Y-65187321D01*
X78525185Y-65199500D01*
X77191906Y-65199500D01*
X77124867Y-65179815D01*
X77079112Y-65127011D01*
X77072131Y-65107593D01*
X77059560Y-65060677D01*
X77059559Y-65060676D01*
X77059558Y-65060670D01*
X76967085Y-64862362D01*
X76967082Y-64862358D01*
X76967082Y-64862357D01*
X76841582Y-64683124D01*
X76811639Y-64653181D01*
X76686860Y-64528402D01*
X76592101Y-64462051D01*
X76548478Y-64407475D01*
X76541286Y-64337977D01*
X76572808Y-64275622D01*
X76633038Y-64240209D01*
X76643829Y-64238005D01*
X76675271Y-64233024D01*
X76861351Y-64203553D01*
X77085975Y-64130568D01*
X77296416Y-64023343D01*
X77487493Y-63884517D01*
X77654500Y-63717510D01*
X77793326Y-63526433D01*
X77900551Y-63315992D01*
X77973536Y-63091368D01*
X78010483Y-62858097D01*
X78010483Y-62621902D01*
X77973536Y-62388631D01*
X77900549Y-62164003D01*
X77793325Y-61953566D01*
X77654500Y-61762490D01*
X77487493Y-61595483D01*
X77296416Y-61456657D01*
X77262779Y-61439518D01*
X77085979Y-61349433D01*
X76861351Y-61276446D01*
X76643829Y-61241994D01*
X76580694Y-61212065D01*
X76543763Y-61152753D01*
X76544761Y-61082890D01*
X76583371Y-61024658D01*
X76592089Y-61017956D01*
X76686860Y-60951598D01*
X76801639Y-60836819D01*
X76862962Y-60803334D01*
X76889320Y-60800500D01*
X78525185Y-60800500D01*
X78592224Y-60820185D01*
G37*
%TD.AperFunction*%
%TA.AperFunction,Conductor*%
G36*
X94586056Y-60810185D02*
G01*
X94624554Y-60849401D01*
X94667271Y-60918656D01*
X94791327Y-61042712D01*
X94940649Y-61134814D01*
X95107186Y-61189999D01*
X95209974Y-61200500D01*
X96009991Y-61200499D01*
X96009999Y-61200498D01*
X96010002Y-61200498D01*
X96066285Y-61194748D01*
X96112780Y-61189999D01*
X96279317Y-61134814D01*
X96428639Y-61042712D01*
X96522304Y-60949046D01*
X96583623Y-60915564D01*
X96653315Y-60920548D01*
X96697663Y-60949048D01*
X96773165Y-61024550D01*
X96806649Y-61085871D01*
X96809483Y-61112230D01*
X96809483Y-64887769D01*
X96789798Y-64954808D01*
X96773164Y-64975451D01*
X96697663Y-65050951D01*
X96636339Y-65084435D01*
X96566648Y-65079450D01*
X96522301Y-65050950D01*
X96428640Y-64957289D01*
X96428639Y-64957288D01*
X96279317Y-64865186D01*
X96112780Y-64810001D01*
X96112778Y-64810000D01*
X96009993Y-64799500D01*
X95209981Y-64799500D01*
X95209963Y-64799501D01*
X95107186Y-64810000D01*
X95107183Y-64810001D01*
X94940651Y-64865185D01*
X94940646Y-64865187D01*
X94791325Y-64957289D01*
X94667272Y-65081342D01*
X94667271Y-65081344D01*
X94639104Y-65127011D01*
X94630724Y-65140597D01*
X94578776Y-65187321D01*
X94525185Y-65199500D01*
X93191906Y-65199500D01*
X93124867Y-65179815D01*
X93079112Y-65127011D01*
X93072131Y-65107593D01*
X93059560Y-65060677D01*
X93059559Y-65060676D01*
X93059558Y-65060670D01*
X92967085Y-64862362D01*
X92967082Y-64862358D01*
X92967082Y-64862357D01*
X92841582Y-64683124D01*
X92811639Y-64653181D01*
X92686860Y-64528402D01*
X92592101Y-64462051D01*
X92548478Y-64407475D01*
X92541286Y-64337977D01*
X92572808Y-64275622D01*
X92633038Y-64240209D01*
X92643829Y-64238005D01*
X92675271Y-64233024D01*
X92861351Y-64203553D01*
X93085975Y-64130568D01*
X93296416Y-64023343D01*
X93487493Y-63884517D01*
X93654500Y-63717510D01*
X93793326Y-63526433D01*
X93900551Y-63315992D01*
X93973536Y-63091368D01*
X94010483Y-62858097D01*
X94010483Y-62621902D01*
X93973536Y-62388631D01*
X93900549Y-62164003D01*
X93793325Y-61953566D01*
X93654500Y-61762490D01*
X93487493Y-61595483D01*
X93296416Y-61456657D01*
X93262779Y-61439518D01*
X93085979Y-61349433D01*
X92861351Y-61276446D01*
X92643829Y-61241994D01*
X92580694Y-61212065D01*
X92543763Y-61152753D01*
X92544761Y-61082890D01*
X92583371Y-61024658D01*
X92592089Y-61017956D01*
X92686860Y-60951598D01*
X92811639Y-60826819D01*
X92872962Y-60793334D01*
X92899320Y-60790500D01*
X94519017Y-60790500D01*
X94586056Y-60810185D01*
G37*
%TD.AperFunction*%
%TA.AperFunction,Conductor*%
G36*
X107072345Y-58820185D02*
G01*
X107118100Y-58872989D01*
X107128044Y-58942147D01*
X107099019Y-59005703D01*
X107076428Y-59026076D01*
X107073102Y-59028404D01*
X106918385Y-59183121D01*
X106792883Y-59362357D01*
X106792883Y-59362358D01*
X106792881Y-59362361D01*
X106792881Y-59362362D01*
X106780180Y-59389597D01*
X106722088Y-59514176D01*
X106675915Y-59566615D01*
X106608721Y-59585766D01*
X106541840Y-59565550D01*
X106497324Y-59514175D01*
X106426650Y-59362614D01*
X106426649Y-59362612D01*
X106383107Y-59300428D01*
X106383107Y-59300427D01*
X105822945Y-59860589D01*
X105805908Y-59797007D01*
X105740082Y-59682993D01*
X105646990Y-59589901D01*
X105532976Y-59524075D01*
X105469392Y-59507037D01*
X106029554Y-58946874D01*
X106028543Y-58935306D01*
X106042310Y-58866807D01*
X106090926Y-58816624D01*
X106152071Y-58800500D01*
X107005306Y-58800500D01*
X107072345Y-58820185D01*
G37*
%TD.AperFunction*%
%TA.AperFunction,Conductor*%
G36*
X123072345Y-58820185D02*
G01*
X123118100Y-58872989D01*
X123128044Y-58942147D01*
X123099019Y-59005703D01*
X123076428Y-59026076D01*
X123073102Y-59028404D01*
X122918385Y-59183121D01*
X122792883Y-59362357D01*
X122792883Y-59362358D01*
X122792881Y-59362361D01*
X122792881Y-59362362D01*
X122780180Y-59389597D01*
X122722088Y-59514176D01*
X122675915Y-59566615D01*
X122608721Y-59585766D01*
X122541840Y-59565550D01*
X122497324Y-59514175D01*
X122426650Y-59362614D01*
X122426649Y-59362612D01*
X122383107Y-59300428D01*
X122383107Y-59300427D01*
X121822945Y-59860589D01*
X121805908Y-59797007D01*
X121740082Y-59682993D01*
X121646990Y-59589901D01*
X121532976Y-59524075D01*
X121469392Y-59507037D01*
X122029554Y-58946874D01*
X122028543Y-58935306D01*
X122042310Y-58866807D01*
X122090926Y-58816624D01*
X122152071Y-58800500D01*
X123005306Y-58800500D01*
X123072345Y-58820185D01*
G37*
%TD.AperFunction*%
%TD*%
%TA.AperFunction,NonConductor*%
G36*
X91072345Y-58820185D02*
G01*
X91118100Y-58872989D01*
X91128044Y-58942147D01*
X91099019Y-59005703D01*
X91076428Y-59026076D01*
X91073102Y-59028404D01*
X90918385Y-59183121D01*
X90792883Y-59362357D01*
X90792883Y-59362358D01*
X90792881Y-59362361D01*
X90792881Y-59362362D01*
X90780180Y-59389597D01*
X90722088Y-59514176D01*
X90675915Y-59566615D01*
X90608721Y-59585766D01*
X90541840Y-59565550D01*
X90497324Y-59514175D01*
X90426650Y-59362614D01*
X90426649Y-59362612D01*
X90383107Y-59300428D01*
X90383107Y-59300427D01*
X89822945Y-59860589D01*
X89805908Y-59797007D01*
X89740082Y-59682993D01*
X89646990Y-59589901D01*
X89532976Y-59524075D01*
X89469392Y-59507037D01*
X90029554Y-58946874D01*
X90028543Y-58935306D01*
X90042310Y-58866807D01*
X90090926Y-58816624D01*
X90152071Y-58800500D01*
X91005306Y-58800500D01*
X91072345Y-58820185D01*
G37*
%TD.AperFunction*%
%TA.AperFunction,NonConductor*%
G36*
X75072345Y-58820185D02*
G01*
X75118100Y-58872989D01*
X75128044Y-58942147D01*
X75099019Y-59005703D01*
X75076428Y-59026076D01*
X75073102Y-59028404D01*
X74918385Y-59183121D01*
X74792883Y-59362357D01*
X74792883Y-59362358D01*
X74792881Y-59362361D01*
X74792881Y-59362362D01*
X74780180Y-59389597D01*
X74722088Y-59514176D01*
X74675915Y-59566615D01*
X74608721Y-59585766D01*
X74541840Y-59565550D01*
X74497324Y-59514175D01*
X74426650Y-59362614D01*
X74426649Y-59362612D01*
X74383107Y-59300428D01*
X74383107Y-59300427D01*
X73822945Y-59860589D01*
X73805908Y-59797007D01*
X73740082Y-59682993D01*
X73646990Y-59589901D01*
X73532976Y-59524075D01*
X73469392Y-59507037D01*
X74029554Y-58946874D01*
X74028543Y-58935306D01*
X74042310Y-58866807D01*
X74090926Y-58816624D01*
X74152071Y-58800500D01*
X75005306Y-58800500D01*
X75072345Y-58820185D01*
G37*
%TD.AperFunction*%
%TA.AperFunction,NonConductor*%
G36*
X110592224Y-60820185D02*
G01*
X110630722Y-60859401D01*
X110667271Y-60918656D01*
X110791327Y-61042712D01*
X110940649Y-61134814D01*
X111107186Y-61189999D01*
X111209974Y-61200500D01*
X112009991Y-61200499D01*
X112009999Y-61200498D01*
X112010002Y-61200498D01*
X112066285Y-61194748D01*
X112112780Y-61189999D01*
X112279317Y-61134814D01*
X112428639Y-61042712D01*
X112522304Y-60949046D01*
X112583623Y-60915564D01*
X112653315Y-60920548D01*
X112697663Y-60949048D01*
X112773165Y-61024550D01*
X112806649Y-61085871D01*
X112809483Y-61112230D01*
X112809483Y-64887769D01*
X112789798Y-64954808D01*
X112773164Y-64975451D01*
X112697663Y-65050951D01*
X112636339Y-65084435D01*
X112566648Y-65079450D01*
X112522301Y-65050950D01*
X112428640Y-64957289D01*
X112428639Y-64957288D01*
X112279317Y-64865186D01*
X112112780Y-64810001D01*
X112112778Y-64810000D01*
X112009999Y-64799500D01*
X112009992Y-64799500D01*
X111545054Y-64799500D01*
X111485344Y-64781967D01*
X111484536Y-64783479D01*
X111479164Y-64780607D01*
X111479162Y-64780606D01*
X111479159Y-64780605D01*
X111479154Y-64780602D01*
X111333484Y-64720264D01*
X111333472Y-64720261D01*
X111178828Y-64689500D01*
X111178825Y-64689500D01*
X108899320Y-64689500D01*
X108832281Y-64669815D01*
X108811639Y-64653181D01*
X108686864Y-64528406D01*
X108686860Y-64528402D01*
X108592101Y-64462051D01*
X108548478Y-64407475D01*
X108541286Y-64337977D01*
X108572808Y-64275622D01*
X108633038Y-64240209D01*
X108643829Y-64238005D01*
X108675271Y-64233024D01*
X108861351Y-64203553D01*
X109085975Y-64130568D01*
X109296416Y-64023343D01*
X109487493Y-63884517D01*
X109654500Y-63717510D01*
X109793326Y-63526433D01*
X109900551Y-63315992D01*
X109973536Y-63091368D01*
X110010483Y-62858097D01*
X110010483Y-62621902D01*
X109973536Y-62388631D01*
X109900549Y-62164003D01*
X109793325Y-61953566D01*
X109654500Y-61762490D01*
X109487493Y-61595483D01*
X109296416Y-61456657D01*
X109262779Y-61439518D01*
X109085979Y-61349433D01*
X108861351Y-61276446D01*
X108643829Y-61241994D01*
X108580694Y-61212065D01*
X108543763Y-61152753D01*
X108544761Y-61082890D01*
X108583371Y-61024658D01*
X108592089Y-61017956D01*
X108686860Y-60951598D01*
X108801639Y-60836819D01*
X108862962Y-60803334D01*
X108889320Y-60800500D01*
X110525185Y-60800500D01*
X110592224Y-60820185D01*
G37*
%TD.AperFunction*%
%TA.AperFunction,NonConductor*%
G36*
X61976073Y-60810185D02*
G01*
X62014571Y-60849401D01*
X62057288Y-60918656D01*
X62181344Y-61042712D01*
X62330666Y-61134814D01*
X62497203Y-61189999D01*
X62599991Y-61200500D01*
X63400008Y-61200499D01*
X63400016Y-61200498D01*
X63400019Y-61200498D01*
X63456302Y-61194748D01*
X63502797Y-61189999D01*
X63669334Y-61134814D01*
X63818656Y-61042712D01*
X63912321Y-60949046D01*
X63973640Y-60915564D01*
X64043332Y-60920548D01*
X64087680Y-60949048D01*
X64163182Y-61024550D01*
X64196666Y-61085871D01*
X64199500Y-61112230D01*
X64199500Y-64887769D01*
X64179815Y-64954808D01*
X64163181Y-64975451D01*
X64087680Y-65050951D01*
X64026356Y-65084435D01*
X63956665Y-65079450D01*
X63912318Y-65050950D01*
X63818657Y-64957289D01*
X63818656Y-64957288D01*
X63669334Y-64865186D01*
X63502797Y-64810001D01*
X63502795Y-64810000D01*
X63400016Y-64799500D01*
X63400009Y-64799500D01*
X62935071Y-64799500D01*
X62875361Y-64781967D01*
X62874553Y-64783479D01*
X62869181Y-64780607D01*
X62869179Y-64780606D01*
X62869176Y-64780605D01*
X62869171Y-64780602D01*
X62723501Y-64720264D01*
X62723489Y-64720261D01*
X62568845Y-64689500D01*
X62568842Y-64689500D01*
X60899320Y-64689500D01*
X60832281Y-64669815D01*
X60811639Y-64653181D01*
X60686864Y-64528406D01*
X60686860Y-64528402D01*
X60592101Y-64462051D01*
X60548478Y-64407475D01*
X60541286Y-64337977D01*
X60572808Y-64275622D01*
X60633038Y-64240209D01*
X60643829Y-64238005D01*
X60675271Y-64233024D01*
X60861351Y-64203553D01*
X61085975Y-64130568D01*
X61296416Y-64023343D01*
X61487493Y-63884517D01*
X61654500Y-63717510D01*
X61793326Y-63526433D01*
X61900551Y-63315992D01*
X61973536Y-63091368D01*
X62010483Y-62858097D01*
X62010483Y-62621902D01*
X61973536Y-62388631D01*
X61900549Y-62164003D01*
X61793325Y-61953566D01*
X61654500Y-61762490D01*
X61487493Y-61595483D01*
X61296416Y-61456657D01*
X61262779Y-61439518D01*
X61085979Y-61349433D01*
X60861351Y-61276446D01*
X60643829Y-61241994D01*
X60580694Y-61212065D01*
X60543763Y-61152753D01*
X60544761Y-61082890D01*
X60583371Y-61024658D01*
X60592089Y-61017956D01*
X60686860Y-60951598D01*
X60811639Y-60826819D01*
X60872962Y-60793334D01*
X60899320Y-60790500D01*
X61909034Y-60790500D01*
X61976073Y-60810185D01*
G37*
%TD.AperFunction*%
%TA.AperFunction,NonConductor*%
G36*
X126592224Y-60820185D02*
G01*
X126630722Y-60859401D01*
X126667271Y-60918656D01*
X126791327Y-61042712D01*
X126940649Y-61134814D01*
X127107186Y-61189999D01*
X127209974Y-61200500D01*
X128009991Y-61200499D01*
X128009999Y-61200498D01*
X128010002Y-61200498D01*
X128066285Y-61194748D01*
X128112780Y-61189999D01*
X128279317Y-61134814D01*
X128428639Y-61042712D01*
X128522304Y-60949046D01*
X128583623Y-60915564D01*
X128653315Y-60920548D01*
X128697663Y-60949048D01*
X128773165Y-61024550D01*
X128806649Y-61085871D01*
X128809483Y-61112230D01*
X128809483Y-64887769D01*
X128789798Y-64954808D01*
X128773164Y-64975451D01*
X128697663Y-65050951D01*
X128636339Y-65084435D01*
X128566648Y-65079450D01*
X128522301Y-65050950D01*
X128428640Y-64957289D01*
X128428639Y-64957288D01*
X128279317Y-64865186D01*
X128112780Y-64810001D01*
X128112778Y-64810000D01*
X128009993Y-64799500D01*
X127209981Y-64799500D01*
X127209963Y-64799501D01*
X127107186Y-64810000D01*
X127107183Y-64810001D01*
X126940651Y-64865185D01*
X126940646Y-64865187D01*
X126791325Y-64957289D01*
X126667272Y-65081342D01*
X126667271Y-65081344D01*
X126639104Y-65127011D01*
X126630724Y-65140597D01*
X126578776Y-65187321D01*
X126525185Y-65199500D01*
X125191906Y-65199500D01*
X125124867Y-65179815D01*
X125079112Y-65127011D01*
X125072131Y-65107593D01*
X125059560Y-65060677D01*
X125059559Y-65060676D01*
X125059558Y-65060670D01*
X124967085Y-64862362D01*
X124967082Y-64862358D01*
X124967082Y-64862357D01*
X124841582Y-64683124D01*
X124811639Y-64653181D01*
X124686860Y-64528402D01*
X124592101Y-64462051D01*
X124548478Y-64407475D01*
X124541286Y-64337977D01*
X124572808Y-64275622D01*
X124633038Y-64240209D01*
X124643829Y-64238005D01*
X124675271Y-64233024D01*
X124861351Y-64203553D01*
X125085975Y-64130568D01*
X125296416Y-64023343D01*
X125487493Y-63884517D01*
X125654500Y-63717510D01*
X125793326Y-63526433D01*
X125900551Y-63315992D01*
X125973536Y-63091368D01*
X126010483Y-62858097D01*
X126010483Y-62621902D01*
X125973536Y-62388631D01*
X125900549Y-62164003D01*
X125793325Y-61953566D01*
X125654500Y-61762490D01*
X125487493Y-61595483D01*
X125296416Y-61456657D01*
X125262779Y-61439518D01*
X125085979Y-61349433D01*
X124861351Y-61276446D01*
X124643829Y-61241994D01*
X124580694Y-61212065D01*
X124543763Y-61152753D01*
X124544761Y-61082890D01*
X124583371Y-61024658D01*
X124592089Y-61017956D01*
X124686860Y-60951598D01*
X124801639Y-60836819D01*
X124862962Y-60803334D01*
X124889320Y-60800500D01*
X126525185Y-60800500D01*
X126592224Y-60820185D01*
G37*
%TD.AperFunction*%
%TA.AperFunction,NonConductor*%
G36*
X120594934Y-58820185D02*
G01*
X120640689Y-58872989D01*
X120651423Y-58935308D01*
X120650411Y-58946874D01*
X121210574Y-59507037D01*
X121146990Y-59524075D01*
X121032976Y-59589901D01*
X120939884Y-59682993D01*
X120874058Y-59797007D01*
X120857020Y-59860591D01*
X120296857Y-59300428D01*
X120253316Y-59362613D01*
X120160881Y-59560840D01*
X120160877Y-59560849D01*
X120104272Y-59772105D01*
X120104270Y-59772115D01*
X120085208Y-59989999D01*
X120085208Y-59990000D01*
X120104270Y-60207884D01*
X120104272Y-60207894D01*
X120160877Y-60419150D01*
X120160881Y-60419159D01*
X120253316Y-60617387D01*
X120296857Y-60679571D01*
X120857020Y-60119408D01*
X120874058Y-60182993D01*
X120939884Y-60297007D01*
X121032976Y-60390099D01*
X121146990Y-60455925D01*
X121210573Y-60472962D01*
X120650410Y-61033124D01*
X120651592Y-61046631D01*
X120672197Y-61072409D01*
X120679391Y-61141908D01*
X120647868Y-61204263D01*
X120587639Y-61239677D01*
X120576848Y-61241881D01*
X120358613Y-61276447D01*
X120133986Y-61349433D01*
X119923549Y-61456657D01*
X119852706Y-61508128D01*
X119732473Y-61595483D01*
X119732471Y-61595485D01*
X119732470Y-61595485D01*
X119565468Y-61762487D01*
X119565468Y-61762488D01*
X119565466Y-61762490D01*
X119520467Y-61824426D01*
X119426640Y-61953566D01*
X119319416Y-62164003D01*
X119246429Y-62388631D01*
X119209483Y-62621902D01*
X119209483Y-62858097D01*
X119246429Y-63091368D01*
X119319416Y-63315996D01*
X119426640Y-63526433D01*
X119565466Y-63717510D01*
X119732473Y-63884517D01*
X119923550Y-64023343D01*
X120022974Y-64074002D01*
X120133986Y-64130566D01*
X120133988Y-64130566D01*
X120133991Y-64130568D01*
X120358615Y-64203553D01*
X120568450Y-64236787D01*
X120576845Y-64238117D01*
X120639979Y-64268046D01*
X120676911Y-64327357D01*
X120675913Y-64397220D01*
X120651538Y-64433981D01*
X120650410Y-64446873D01*
X121210574Y-65007037D01*
X121146990Y-65024075D01*
X121032976Y-65089901D01*
X120939884Y-65182993D01*
X120874058Y-65297007D01*
X120857020Y-65360591D01*
X120296857Y-64800428D01*
X120253316Y-64862613D01*
X120160881Y-65060840D01*
X120160877Y-65060849D01*
X120104272Y-65272105D01*
X120104270Y-65272115D01*
X120085208Y-65489999D01*
X120085208Y-65490000D01*
X120104270Y-65707884D01*
X120104272Y-65707894D01*
X120160877Y-65919150D01*
X120160881Y-65919159D01*
X120253316Y-66117387D01*
X120296857Y-66179571D01*
X120857020Y-65619408D01*
X120874058Y-65682993D01*
X120939884Y-65797007D01*
X121032976Y-65890099D01*
X121146990Y-65955925D01*
X121210573Y-65972962D01*
X120650410Y-66533125D01*
X120655084Y-66586553D01*
X120646594Y-66628793D01*
X120652532Y-66620862D01*
X120717996Y-66596445D01*
X120779247Y-66607747D01*
X120910823Y-66669101D01*
X120910832Y-66669105D01*
X121122088Y-66725710D01*
X121122098Y-66725712D01*
X121339982Y-66744775D01*
X121339984Y-66744775D01*
X121557867Y-66725712D01*
X121557877Y-66725710D01*
X121769133Y-66669105D01*
X121769147Y-66669100D01*
X121967366Y-66576669D01*
X121967368Y-66576668D01*
X122029553Y-66533124D01*
X121469392Y-65972962D01*
X121532976Y-65955925D01*
X121646990Y-65890099D01*
X121740082Y-65797007D01*
X121805908Y-65682993D01*
X121822945Y-65619409D01*
X122383107Y-66179570D01*
X122426649Y-66117388D01*
X122497323Y-65965825D01*
X122543495Y-65913386D01*
X122610689Y-65894233D01*
X122677570Y-65914448D01*
X122722088Y-65965824D01*
X122792880Y-66117638D01*
X122792881Y-66117639D01*
X122918385Y-66296877D01*
X122918389Y-66296881D01*
X123043164Y-66421656D01*
X123076649Y-66482979D01*
X123079483Y-66509337D01*
X123079483Y-67487077D01*
X123059798Y-67554116D01*
X123043164Y-67574758D01*
X117054741Y-73563181D01*
X116993418Y-73596666D01*
X116967060Y-73599500D01*
X84481067Y-73599500D01*
X84414028Y-73579815D01*
X84368273Y-73527011D01*
X84358329Y-73457853D01*
X84364885Y-73432168D01*
X84374090Y-73407485D01*
X84374091Y-73407483D01*
X84374091Y-73407478D01*
X84375874Y-73399938D01*
X84378146Y-73400474D01*
X84400429Y-73346688D01*
X84457823Y-73306843D01*
X84496976Y-73300500D01*
X103828844Y-73300500D01*
X103828845Y-73300499D01*
X103983497Y-73269737D01*
X104129179Y-73209394D01*
X104260289Y-73121789D01*
X108501772Y-68880306D01*
X108589377Y-68749196D01*
X108649720Y-68603514D01*
X108680483Y-68448859D01*
X108680483Y-68291175D01*
X108680483Y-67463920D01*
X119409482Y-67463920D01*
X119438323Y-67608907D01*
X119438326Y-67608917D01*
X119494895Y-67745488D01*
X119494902Y-67745501D01*
X119577031Y-67868415D01*
X119577034Y-67868419D01*
X119681563Y-67972948D01*
X119681567Y-67972951D01*
X119804481Y-68055080D01*
X119804494Y-68055087D01*
X119921411Y-68103515D01*
X119941070Y-68111658D01*
X119941074Y-68111658D01*
X119941075Y-68111659D01*
X120086062Y-68140500D01*
X120086065Y-68140500D01*
X120233903Y-68140500D01*
X120331445Y-68121096D01*
X120378896Y-68111658D01*
X120515478Y-68055084D01*
X120638399Y-67972951D01*
X120742934Y-67868416D01*
X120825067Y-67745495D01*
X120881641Y-67608913D01*
X120892541Y-67554116D01*
X120910483Y-67463920D01*
X120910483Y-67316079D01*
X120881642Y-67171092D01*
X120881641Y-67171091D01*
X120881641Y-67171087D01*
X120866616Y-67134814D01*
X120825070Y-67034511D01*
X120825063Y-67034498D01*
X120742934Y-66911584D01*
X120742931Y-66911580D01*
X120639161Y-66807810D01*
X120605676Y-66746487D01*
X120609895Y-66687486D01*
X120592701Y-66705235D01*
X120524673Y-66721168D01*
X120484104Y-66711920D01*
X120378900Y-66668343D01*
X120378890Y-66668340D01*
X120233903Y-66639500D01*
X120233901Y-66639500D01*
X120086065Y-66639500D01*
X120086063Y-66639500D01*
X119941075Y-66668340D01*
X119941065Y-66668343D01*
X119804494Y-66724912D01*
X119804481Y-66724919D01*
X119681567Y-66807048D01*
X119681563Y-66807051D01*
X119577034Y-66911580D01*
X119577031Y-66911584D01*
X119494902Y-67034498D01*
X119494895Y-67034511D01*
X119438326Y-67171082D01*
X119438323Y-67171092D01*
X119409483Y-67316079D01*
X119409483Y-67316082D01*
X119409483Y-67463918D01*
X119409483Y-67463920D01*
X119409482Y-67463920D01*
X108680483Y-67463920D01*
X108680483Y-66509337D01*
X108700168Y-66442298D01*
X108716802Y-66421656D01*
X108811639Y-66326819D01*
X108872962Y-66293334D01*
X108899320Y-66290500D01*
X110385484Y-66290500D01*
X110452523Y-66310185D01*
X110498278Y-66362989D01*
X110509484Y-66414500D01*
X110509484Y-66500018D01*
X110519983Y-66602796D01*
X110519984Y-66602799D01*
X110556144Y-66711920D01*
X110575169Y-66769334D01*
X110667271Y-66918656D01*
X110791327Y-67042712D01*
X110940649Y-67134814D01*
X111107186Y-67189999D01*
X111209974Y-67200500D01*
X112009991Y-67200499D01*
X112009999Y-67200498D01*
X112010002Y-67200498D01*
X112066285Y-67194748D01*
X112112780Y-67189999D01*
X112279317Y-67134814D01*
X112428639Y-67042712D01*
X112522302Y-66949049D01*
X112583625Y-66915564D01*
X112653317Y-66920548D01*
X112697664Y-66949049D01*
X112791327Y-67042712D01*
X112940649Y-67134814D01*
X113107186Y-67189999D01*
X113209974Y-67200500D01*
X114009991Y-67200499D01*
X114009999Y-67200498D01*
X114010002Y-67200498D01*
X114066285Y-67194748D01*
X114112780Y-67189999D01*
X114279317Y-67134814D01*
X114428639Y-67042712D01*
X114552695Y-66918656D01*
X114644797Y-66769334D01*
X114699982Y-66602797D01*
X114710483Y-66500009D01*
X114710482Y-65499992D01*
X114709461Y-65490000D01*
X114699982Y-65397203D01*
X114699981Y-65397200D01*
X114687286Y-65358889D01*
X114644797Y-65230666D01*
X114552695Y-65081344D01*
X114446801Y-64975450D01*
X114413317Y-64914127D01*
X114410483Y-64887769D01*
X114410483Y-61112230D01*
X114430168Y-61045191D01*
X114446802Y-61024549D01*
X114453405Y-61017946D01*
X114552695Y-60918656D01*
X114644797Y-60769334D01*
X114699982Y-60602797D01*
X114710483Y-60500009D01*
X114710482Y-60472957D01*
X114730164Y-60405920D01*
X114746796Y-60385280D01*
X116295259Y-58836819D01*
X116356582Y-58803334D01*
X116382940Y-58800500D01*
X120527895Y-58800500D01*
X120594934Y-58820185D01*
G37*
%TD.AperFunction*%
%TA.AperFunction,NonConductor*%
G36*
X130860349Y-66569158D02*
G01*
X130911549Y-66616701D01*
X130922697Y-66641111D01*
X130931721Y-66668343D01*
X130965186Y-66769334D01*
X131057288Y-66918656D01*
X131181344Y-67042712D01*
X131330666Y-67134814D01*
X131497203Y-67189999D01*
X131599991Y-67200500D01*
X132400008Y-67200499D01*
X132400016Y-67200498D01*
X132400019Y-67200498D01*
X132456302Y-67194748D01*
X132502797Y-67189999D01*
X132669334Y-67134814D01*
X132818656Y-67042712D01*
X132912321Y-66949046D01*
X132973640Y-66915564D01*
X133043332Y-66920548D01*
X133087680Y-66949048D01*
X133163182Y-67024550D01*
X133196666Y-67085871D01*
X133199500Y-67112230D01*
X133199500Y-73117060D01*
X133179815Y-73184099D01*
X133163181Y-73204741D01*
X131704741Y-74663181D01*
X131643418Y-74696666D01*
X131617060Y-74699500D01*
X118481940Y-74699500D01*
X118414901Y-74679815D01*
X118369146Y-74627011D01*
X118359202Y-74557853D01*
X118388227Y-74494297D01*
X118394259Y-74487819D01*
X124501769Y-68380309D01*
X124501772Y-68380306D01*
X124589377Y-68249196D01*
X124649721Y-68103514D01*
X124680483Y-67948859D01*
X124680483Y-67791174D01*
X124680483Y-66924500D01*
X124700168Y-66857461D01*
X124752972Y-66811706D01*
X124804483Y-66800500D01*
X126525185Y-66800500D01*
X126592224Y-66820185D01*
X126630722Y-66859401D01*
X126667271Y-66918656D01*
X126791327Y-67042712D01*
X126940649Y-67134814D01*
X127107186Y-67189999D01*
X127209974Y-67200500D01*
X128009991Y-67200499D01*
X128009999Y-67200498D01*
X128010002Y-67200498D01*
X128066285Y-67194748D01*
X128112780Y-67189999D01*
X128279317Y-67134814D01*
X128428639Y-67042712D01*
X128522302Y-66949049D01*
X128583625Y-66915564D01*
X128653317Y-66920548D01*
X128697664Y-66949049D01*
X128791327Y-67042712D01*
X128940649Y-67134814D01*
X129107186Y-67189999D01*
X129209974Y-67200500D01*
X130009991Y-67200499D01*
X130009999Y-67200498D01*
X130010002Y-67200498D01*
X130066285Y-67194748D01*
X130112780Y-67189999D01*
X130279317Y-67134814D01*
X130428639Y-67042712D01*
X130552695Y-66918656D01*
X130644797Y-66769334D01*
X130687286Y-66641108D01*
X130727057Y-66583666D01*
X130791573Y-66556843D01*
X130860349Y-66569158D01*
G37*
%TD.AperFunction*%
%TA.AperFunction,NonConductor*%
G36*
X141618834Y-63855690D02*
G01*
X141674767Y-63897562D01*
X141699184Y-63963026D01*
X141699500Y-63971872D01*
X141699500Y-70617060D01*
X141679815Y-70684099D01*
X141663181Y-70704741D01*
X135954741Y-76413181D01*
X135893418Y-76446666D01*
X135867060Y-76449500D01*
X132422902Y-76449500D01*
X132355863Y-76429815D01*
X132310108Y-76377011D01*
X132300164Y-76307853D01*
X132329189Y-76244297D01*
X132375451Y-76210938D01*
X132379179Y-76209394D01*
X132510289Y-76121789D01*
X140501772Y-68130306D01*
X140589377Y-67999196D01*
X140649720Y-67853514D01*
X140680483Y-67698859D01*
X140680483Y-67541174D01*
X140680483Y-66509337D01*
X140700168Y-66442298D01*
X140716802Y-66421656D01*
X140775469Y-66362989D01*
X140841581Y-66296877D01*
X140967085Y-66117639D01*
X141059558Y-65919330D01*
X141116190Y-65707977D01*
X141135260Y-65490000D01*
X141116190Y-65272023D01*
X141072131Y-65107593D01*
X141059560Y-65060677D01*
X141059559Y-65060676D01*
X141059558Y-65060670D01*
X140967085Y-64862362D01*
X140967082Y-64862358D01*
X140967082Y-64862357D01*
X140841582Y-64683124D01*
X140811639Y-64653181D01*
X140686860Y-64528402D01*
X140592101Y-64462051D01*
X140548478Y-64407475D01*
X140541286Y-64337977D01*
X140572808Y-64275622D01*
X140633038Y-64240209D01*
X140643829Y-64238005D01*
X140675271Y-64233024D01*
X140861351Y-64203553D01*
X141085975Y-64130568D01*
X141296416Y-64023343D01*
X141487493Y-63884517D01*
X141487819Y-63884191D01*
X141487972Y-63884107D01*
X141491197Y-63881353D01*
X141491775Y-63882030D01*
X141549142Y-63850706D01*
X141618834Y-63855690D01*
G37*
%TD.AperFunction*%
%TA.AperFunction,NonConductor*%
G36*
X72594934Y-58820185D02*
G01*
X72640689Y-58872989D01*
X72651423Y-58935308D01*
X72650411Y-58946874D01*
X73210574Y-59507037D01*
X73146990Y-59524075D01*
X73032976Y-59589901D01*
X72939884Y-59682993D01*
X72874058Y-59797007D01*
X72857020Y-59860591D01*
X72296857Y-59300428D01*
X72253316Y-59362613D01*
X72160881Y-59560840D01*
X72160877Y-59560849D01*
X72104272Y-59772105D01*
X72104270Y-59772115D01*
X72085208Y-59989999D01*
X72085208Y-59990000D01*
X72104270Y-60207884D01*
X72104272Y-60207894D01*
X72160877Y-60419150D01*
X72160881Y-60419159D01*
X72253316Y-60617387D01*
X72296857Y-60679571D01*
X72857020Y-60119408D01*
X72874058Y-60182993D01*
X72939884Y-60297007D01*
X73032976Y-60390099D01*
X73146990Y-60455925D01*
X73210573Y-60472962D01*
X72650410Y-61033124D01*
X72651592Y-61046631D01*
X72672197Y-61072409D01*
X72679391Y-61141908D01*
X72647868Y-61204263D01*
X72587639Y-61239677D01*
X72576848Y-61241881D01*
X72358613Y-61276447D01*
X72133986Y-61349433D01*
X71923549Y-61456657D01*
X71852706Y-61508128D01*
X71732473Y-61595483D01*
X71732471Y-61595485D01*
X71732470Y-61595485D01*
X71565468Y-61762487D01*
X71565468Y-61762488D01*
X71565466Y-61762490D01*
X71520467Y-61824426D01*
X71426640Y-61953566D01*
X71319416Y-62164003D01*
X71246429Y-62388631D01*
X71209483Y-62621902D01*
X71209483Y-62858097D01*
X71246429Y-63091368D01*
X71319416Y-63315996D01*
X71426640Y-63526433D01*
X71565466Y-63717510D01*
X71732473Y-63884517D01*
X71923550Y-64023343D01*
X72022974Y-64074002D01*
X72133986Y-64130566D01*
X72133988Y-64130566D01*
X72133991Y-64130568D01*
X72358615Y-64203553D01*
X72568450Y-64236787D01*
X72576845Y-64238117D01*
X72639979Y-64268046D01*
X72676911Y-64327357D01*
X72675913Y-64397220D01*
X72651538Y-64433981D01*
X72650410Y-64446873D01*
X73210574Y-65007037D01*
X73146990Y-65024075D01*
X73032976Y-65089901D01*
X72939884Y-65182993D01*
X72874058Y-65297007D01*
X72857020Y-65360591D01*
X72296857Y-64800428D01*
X72253316Y-64862613D01*
X72160881Y-65060840D01*
X72160877Y-65060849D01*
X72104272Y-65272105D01*
X72104270Y-65272115D01*
X72085208Y-65489999D01*
X72085208Y-65490000D01*
X72104270Y-65707884D01*
X72104272Y-65707894D01*
X72160877Y-65919150D01*
X72160881Y-65919159D01*
X72253316Y-66117387D01*
X72296857Y-66179571D01*
X72857020Y-65619408D01*
X72874058Y-65682993D01*
X72939884Y-65797007D01*
X73032976Y-65890099D01*
X73146990Y-65955925D01*
X73210573Y-65972962D01*
X72650410Y-66533125D01*
X72655084Y-66586553D01*
X72646594Y-66628793D01*
X72652532Y-66620862D01*
X72717996Y-66596445D01*
X72779247Y-66607747D01*
X72910823Y-66669101D01*
X72910832Y-66669105D01*
X73122088Y-66725710D01*
X73122098Y-66725712D01*
X73339982Y-66744775D01*
X73339984Y-66744775D01*
X73557867Y-66725712D01*
X73557877Y-66725710D01*
X73769133Y-66669105D01*
X73769147Y-66669100D01*
X73967366Y-66576669D01*
X73967368Y-66576668D01*
X74029553Y-66533124D01*
X73469392Y-65972962D01*
X73532976Y-65955925D01*
X73646990Y-65890099D01*
X73740082Y-65797007D01*
X73805908Y-65682993D01*
X73822945Y-65619409D01*
X74383107Y-66179570D01*
X74426649Y-66117388D01*
X74497323Y-65965825D01*
X74543495Y-65913386D01*
X74610689Y-65894233D01*
X74677570Y-65914448D01*
X74722088Y-65965824D01*
X74792880Y-66117638D01*
X74792881Y-66117639D01*
X74918385Y-66296877D01*
X74918389Y-66296881D01*
X75043164Y-66421656D01*
X75076649Y-66482979D01*
X75079483Y-66509337D01*
X75079483Y-67237077D01*
X75059798Y-67304116D01*
X75043164Y-67324758D01*
X72409711Y-69958211D01*
X72353960Y-70013962D01*
X72298209Y-70069712D01*
X72210609Y-70200814D01*
X72210602Y-70200827D01*
X72150264Y-70346498D01*
X72150261Y-70346510D01*
X72119500Y-70501153D01*
X72119500Y-71409951D01*
X72099815Y-71476990D01*
X72083181Y-71497632D01*
X71919954Y-71660858D01*
X71789432Y-71847265D01*
X71789431Y-71847267D01*
X71762382Y-71905275D01*
X71716209Y-71957714D01*
X71649016Y-71976866D01*
X71582135Y-71956650D01*
X71537618Y-71905275D01*
X71510686Y-71847520D01*
X71510568Y-71847266D01*
X71393319Y-71679815D01*
X71380045Y-71660858D01*
X71219141Y-71499954D01*
X71032734Y-71369432D01*
X71032732Y-71369431D01*
X70826497Y-71273261D01*
X70826488Y-71273258D01*
X70606697Y-71214366D01*
X70606693Y-71214365D01*
X70606692Y-71214365D01*
X70606691Y-71214364D01*
X70606686Y-71214364D01*
X70380002Y-71194532D01*
X70379998Y-71194532D01*
X70153313Y-71214364D01*
X70153302Y-71214366D01*
X69933511Y-71273258D01*
X69933502Y-71273261D01*
X69727267Y-71369431D01*
X69727265Y-71369432D01*
X69540858Y-71499954D01*
X69379954Y-71660858D01*
X69319185Y-71747647D01*
X69249432Y-71847266D01*
X69249315Y-71847518D01*
X69222106Y-71905867D01*
X69175933Y-71958306D01*
X69108739Y-71977457D01*
X69041858Y-71957241D01*
X68997342Y-71905865D01*
X68970135Y-71847520D01*
X68970134Y-71847518D01*
X68839657Y-71661179D01*
X68678820Y-71500342D01*
X68492482Y-71369865D01*
X68286328Y-71273734D01*
X68090000Y-71221127D01*
X68090000Y-72184314D01*
X68085606Y-72179920D01*
X67994394Y-72127259D01*
X67892661Y-72100000D01*
X67787339Y-72100000D01*
X67685606Y-72127259D01*
X67594394Y-72179920D01*
X67590000Y-72184314D01*
X67590000Y-71221127D01*
X67393671Y-71273734D01*
X67187517Y-71369865D01*
X67001179Y-71500342D01*
X66840342Y-71661179D01*
X66709865Y-71847517D01*
X66613734Y-72053673D01*
X66613730Y-72053682D01*
X66561127Y-72249999D01*
X66561128Y-72250000D01*
X67524314Y-72250000D01*
X67519920Y-72254394D01*
X67467259Y-72345606D01*
X67440000Y-72447339D01*
X67440000Y-72552661D01*
X67467259Y-72654394D01*
X67519920Y-72745606D01*
X67524314Y-72750000D01*
X66561128Y-72750000D01*
X66613730Y-72946317D01*
X66613734Y-72946326D01*
X66709865Y-73152482D01*
X66840342Y-73338820D01*
X67001179Y-73499657D01*
X67187517Y-73630134D01*
X67393673Y-73726265D01*
X67393682Y-73726269D01*
X67589999Y-73778872D01*
X67590000Y-73778871D01*
X67590000Y-72815686D01*
X67594394Y-72820080D01*
X67685606Y-72872741D01*
X67787339Y-72900000D01*
X67892661Y-72900000D01*
X67994394Y-72872741D01*
X68085606Y-72820080D01*
X68090000Y-72815686D01*
X68090000Y-73778872D01*
X68286317Y-73726269D01*
X68286326Y-73726265D01*
X68492482Y-73630134D01*
X68678820Y-73499657D01*
X68839657Y-73338820D01*
X68970132Y-73152484D01*
X68997341Y-73094134D01*
X69043513Y-73041695D01*
X69110707Y-73022542D01*
X69177588Y-73042757D01*
X69222106Y-73094133D01*
X69249431Y-73152732D01*
X69249432Y-73152734D01*
X69379954Y-73339141D01*
X69540858Y-73500045D01*
X69540861Y-73500047D01*
X69727266Y-73630568D01*
X69933504Y-73726739D01*
X70153308Y-73785635D01*
X70315230Y-73799801D01*
X70379998Y-73805468D01*
X70380000Y-73805468D01*
X70380002Y-73805468D01*
X70436673Y-73800509D01*
X70606692Y-73785635D01*
X70826496Y-73726739D01*
X71032734Y-73630568D01*
X71219139Y-73500047D01*
X71380047Y-73339139D01*
X71510568Y-73152734D01*
X71537618Y-73094724D01*
X71583790Y-73042285D01*
X71650983Y-73023133D01*
X71717865Y-73043348D01*
X71762382Y-73094725D01*
X71789429Y-73152728D01*
X71789432Y-73152734D01*
X71919954Y-73339141D01*
X72080858Y-73500045D01*
X72080861Y-73500047D01*
X72267266Y-73630568D01*
X72473504Y-73726739D01*
X72693308Y-73785635D01*
X72855230Y-73799801D01*
X72919998Y-73805468D01*
X72920000Y-73805468D01*
X72920002Y-73805468D01*
X72976673Y-73800509D01*
X73146692Y-73785635D01*
X73366496Y-73726739D01*
X73572734Y-73630568D01*
X73759139Y-73500047D01*
X73920047Y-73339139D01*
X74050568Y-73152734D01*
X74077618Y-73094724D01*
X74123790Y-73042285D01*
X74190983Y-73023133D01*
X74257865Y-73043348D01*
X74302382Y-73094725D01*
X74329429Y-73152728D01*
X74329432Y-73152734D01*
X74459954Y-73339141D01*
X74620858Y-73500045D01*
X74620861Y-73500047D01*
X74807266Y-73630568D01*
X75013504Y-73726739D01*
X75233308Y-73785635D01*
X75395230Y-73799801D01*
X75459998Y-73805468D01*
X75460000Y-73805468D01*
X75460002Y-73805468D01*
X75516673Y-73800509D01*
X75686692Y-73785635D01*
X75906496Y-73726739D01*
X76112734Y-73630568D01*
X76299139Y-73500047D01*
X76460047Y-73339139D01*
X76590568Y-73152734D01*
X76617618Y-73094724D01*
X76663790Y-73042285D01*
X76730983Y-73023133D01*
X76797865Y-73043348D01*
X76842382Y-73094725D01*
X76869429Y-73152728D01*
X76869432Y-73152734D01*
X76999954Y-73339141D01*
X77160858Y-73500045D01*
X77160861Y-73500047D01*
X77347266Y-73630568D01*
X77553504Y-73726739D01*
X77773308Y-73785635D01*
X77935230Y-73799801D01*
X77999998Y-73805468D01*
X78000000Y-73805468D01*
X78000002Y-73805468D01*
X78056673Y-73800509D01*
X78226692Y-73785635D01*
X78446496Y-73726739D01*
X78652734Y-73630568D01*
X78839139Y-73500047D01*
X79000047Y-73339139D01*
X79130568Y-73152734D01*
X79157618Y-73094724D01*
X79203790Y-73042285D01*
X79270983Y-73023133D01*
X79337865Y-73043348D01*
X79382382Y-73094725D01*
X79409429Y-73152728D01*
X79409432Y-73152734D01*
X79539954Y-73339141D01*
X79700858Y-73500045D01*
X79700861Y-73500047D01*
X79887266Y-73630568D01*
X80093504Y-73726739D01*
X80313308Y-73785635D01*
X80369304Y-73790534D01*
X80434372Y-73815987D01*
X80475351Y-73872578D01*
X80479229Y-73942340D01*
X80446177Y-74001743D01*
X75660326Y-78787594D01*
X75599003Y-78821079D01*
X75561838Y-78823441D01*
X75460002Y-78814532D01*
X75459998Y-78814532D01*
X75233313Y-78834364D01*
X75233302Y-78834366D01*
X75013511Y-78893258D01*
X75013502Y-78893261D01*
X74807267Y-78989431D01*
X74807265Y-78989432D01*
X74620858Y-79119954D01*
X74459954Y-79280858D01*
X74329432Y-79467265D01*
X74329431Y-79467267D01*
X74302382Y-79525275D01*
X74256209Y-79577714D01*
X74189016Y-79596866D01*
X74122135Y-79576650D01*
X74077618Y-79525275D01*
X74050568Y-79467267D01*
X74050567Y-79467265D01*
X74032503Y-79441467D01*
X73920047Y-79280861D01*
X73920045Y-79280858D01*
X73759141Y-79119954D01*
X73572734Y-78989432D01*
X73572732Y-78989431D01*
X73366497Y-78893261D01*
X73366488Y-78893258D01*
X73146697Y-78834366D01*
X73146693Y-78834365D01*
X73146692Y-78834365D01*
X73146691Y-78834364D01*
X73146686Y-78834364D01*
X72920002Y-78814532D01*
X72919998Y-78814532D01*
X72693313Y-78834364D01*
X72693302Y-78834366D01*
X72473511Y-78893258D01*
X72473502Y-78893261D01*
X72267267Y-78989431D01*
X72267265Y-78989432D01*
X72080858Y-79119954D01*
X71919954Y-79280858D01*
X71789432Y-79467265D01*
X71789431Y-79467267D01*
X71762382Y-79525275D01*
X71716209Y-79577714D01*
X71649016Y-79596866D01*
X71582135Y-79576650D01*
X71537618Y-79525275D01*
X71510568Y-79467267D01*
X71510567Y-79467265D01*
X71492503Y-79441467D01*
X71380047Y-79280861D01*
X71380045Y-79280858D01*
X71219141Y-79119954D01*
X71032734Y-78989432D01*
X71032732Y-78989431D01*
X70826497Y-78893261D01*
X70826488Y-78893258D01*
X70606697Y-78834366D01*
X70606687Y-78834364D01*
X70497955Y-78824851D01*
X70432886Y-78799398D01*
X70421082Y-78789004D01*
X63836819Y-72204741D01*
X63803334Y-72143418D01*
X63800500Y-72117060D01*
X63800500Y-67463920D01*
X71409482Y-67463920D01*
X71438323Y-67608907D01*
X71438326Y-67608917D01*
X71494895Y-67745488D01*
X71494902Y-67745501D01*
X71577031Y-67868415D01*
X71577034Y-67868419D01*
X71681563Y-67972948D01*
X71681567Y-67972951D01*
X71804481Y-68055080D01*
X71804494Y-68055087D01*
X71921411Y-68103515D01*
X71941070Y-68111658D01*
X71941074Y-68111658D01*
X71941075Y-68111659D01*
X72086062Y-68140500D01*
X72086065Y-68140500D01*
X72233903Y-68140500D01*
X72331445Y-68121096D01*
X72378896Y-68111658D01*
X72515478Y-68055084D01*
X72638399Y-67972951D01*
X72742934Y-67868416D01*
X72825067Y-67745495D01*
X72881641Y-67608913D01*
X72892541Y-67554116D01*
X72910483Y-67463920D01*
X72910483Y-67316079D01*
X72881642Y-67171092D01*
X72881641Y-67171091D01*
X72881641Y-67171087D01*
X72866616Y-67134814D01*
X72825070Y-67034511D01*
X72825063Y-67034498D01*
X72742934Y-66911584D01*
X72742931Y-66911580D01*
X72639161Y-66807810D01*
X72605676Y-66746487D01*
X72609895Y-66687486D01*
X72592701Y-66705235D01*
X72524673Y-66721168D01*
X72484104Y-66711920D01*
X72378900Y-66668343D01*
X72378890Y-66668340D01*
X72233903Y-66639500D01*
X72233901Y-66639500D01*
X72086065Y-66639500D01*
X72086063Y-66639500D01*
X71941075Y-66668340D01*
X71941065Y-66668343D01*
X71804494Y-66724912D01*
X71804481Y-66724919D01*
X71681567Y-66807048D01*
X71681563Y-66807051D01*
X71577034Y-66911580D01*
X71577031Y-66911584D01*
X71494902Y-67034498D01*
X71494895Y-67034511D01*
X71438326Y-67171082D01*
X71438323Y-67171092D01*
X71409483Y-67316079D01*
X71409483Y-67316082D01*
X71409483Y-67463918D01*
X71409483Y-67463920D01*
X71409482Y-67463920D01*
X63800500Y-67463920D01*
X63800500Y-67112230D01*
X63820185Y-67045191D01*
X63836819Y-67024549D01*
X63912319Y-66949049D01*
X63973642Y-66915564D01*
X64043334Y-66920548D01*
X64087681Y-66949049D01*
X64181344Y-67042712D01*
X64330666Y-67134814D01*
X64497203Y-67189999D01*
X64599991Y-67200500D01*
X65400008Y-67200499D01*
X65400016Y-67200498D01*
X65400019Y-67200498D01*
X65456302Y-67194748D01*
X65502797Y-67189999D01*
X65669334Y-67134814D01*
X65818656Y-67042712D01*
X65942712Y-66918656D01*
X66034814Y-66769334D01*
X66089999Y-66602797D01*
X66100500Y-66500009D01*
X66100499Y-65499992D01*
X66099478Y-65490000D01*
X66089999Y-65397203D01*
X66089998Y-65397200D01*
X66077303Y-65358889D01*
X66034814Y-65230666D01*
X65942712Y-65081344D01*
X65836818Y-64975450D01*
X65803334Y-64914127D01*
X65800500Y-64887769D01*
X65800500Y-61112230D01*
X65820185Y-61045191D01*
X65836819Y-61024549D01*
X65843422Y-61017946D01*
X65942712Y-60918656D01*
X66034814Y-60769334D01*
X66089999Y-60602797D01*
X66100500Y-60500009D01*
X66100499Y-60082938D01*
X66120183Y-60015900D01*
X66136813Y-59995263D01*
X67295259Y-58836819D01*
X67356582Y-58803334D01*
X67382940Y-58800500D01*
X72527895Y-58800500D01*
X72594934Y-58820185D01*
G37*
%TD.AperFunction*%
M02*
