M48
; DRILL file {KiCad 8.0.5} date 2024-10-05T19:45:48-0300
; FORMAT={-:-/ absolute / inch / decimal}
; #@! TF.CreationDate,2024-10-05T19:45:48-03:00
; #@! TF.GenerationSoftware,Kicad,Pcbnew,8.0.5
; #@! TF.FileFunction,Plated,1,2,PTH
FMAT,2
INCH
; #@! TA.AperFunction,Plated,PTH,ComponentDrill
T1C0.0256
; #@! TA.AperFunction,Plated,PTH,ComponentDrill
T2C0.0315
; #@! TA.AperFunction,Plated,PTH,ComponentDrill
T3C0.0394
%
G90
G05
T1
X3.7075Y-3.1496
X3.7575Y-3.1496
X3.8075Y-3.1496
X3.8575Y-3.1496
X3.9075Y-3.1496
X3.9575Y-3.1496
X4.0075Y-3.1496
X4.0575Y-3.1496
T2
X2.6709Y-2.8543
X2.6709Y-3.1543
X2.7709Y-2.8543
X2.7709Y-3.1543
X2.8709Y-2.8543
X2.8709Y-3.1543
X2.9709Y-2.8543
X2.9709Y-3.1543
X3.0709Y-2.8543
X3.0709Y-3.1543
X3.1709Y-2.8543
X3.1709Y-3.1543
X3.2709Y-2.8543
X3.2709Y-3.1543
X4.2126Y-3.1004
X4.2126Y-3.1988
T3
X2.2575Y-2.3618
X2.2575Y-2.5783
X2.3575Y-2.3618
X2.3575Y-2.5783
X2.8874Y-2.3618
X2.8874Y-2.5783
X2.9874Y-2.3618
X2.9874Y-2.5783
X3.5173Y-2.3618
X3.5173Y-2.5783
X3.6173Y-2.3618
X3.6173Y-2.5783
X4.1472Y-2.3618
X4.1472Y-2.5783
X4.2472Y-2.3618
X4.2472Y-2.5783
X4.7772Y-2.3618
X4.7772Y-2.5783
X4.8772Y-2.3618
X4.8772Y-2.5783
X5.4071Y-2.3618
X5.4071Y-2.5783
X5.5071Y-2.3618
X5.5071Y-2.5783
M30
