%TF.GenerationSoftware,KiCad,Pcbnew,8.0.5*%
%TF.CreationDate,2024-10-05T19:45:41-03:00*%
%TF.ProjectId,modulo_sensor,6d6f6475-6c6f-45f7-9365-6e736f722e6b,rev?*%
%TF.SameCoordinates,Original*%
%TF.FileFunction,Copper,L1,Top*%
%TF.FilePolarity,Positive*%
%FSLAX46Y46*%
G04 Gerber Fmt 4.6, Leading zero omitted, Abs format (unit mm)*
G04 Created by KiCad (PCBNEW 8.0.5) date 2024-10-05 19:45:41*
%MOMM*%
%LPD*%
G01*
G04 APERTURE LIST*
G04 Aperture macros list*
%AMRoundRect*
0 Rectangle with rounded corners*
0 $1 Rounding radius*
0 $2 $3 $4 $5 $6 $7 $8 $9 X,Y pos of 4 corners*
0 Add a 4 corners polygon primitive as box body*
4,1,4,$2,$3,$4,$5,$6,$7,$8,$9,$2,$3,0*
0 Add four circle primitives for the rounded corners*
1,1,$1+$1,$2,$3*
1,1,$1+$1,$4,$5*
1,1,$1+$1,$6,$7*
1,1,$1+$1,$8,$9*
0 Add four rect primitives between the rounded corners*
20,1,$1+$1,$2,$3,$4,$5,0*
20,1,$1+$1,$4,$5,$6,$7,0*
20,1,$1+$1,$6,$7,$8,$9,0*
20,1,$1+$1,$8,$9,$2,$3,0*%
G04 Aperture macros list end*
%TA.AperFunction,ComponentPad*%
%ADD10R,1.000000X1.000000*%
%TD*%
%TA.AperFunction,ComponentPad*%
%ADD11O,1.000000X1.000000*%
%TD*%
%TA.AperFunction,SMDPad,CuDef*%
%ADD12RoundRect,0.250000X0.450000X-0.350000X0.450000X0.350000X-0.450000X0.350000X-0.450000X-0.350000X0*%
%TD*%
%TA.AperFunction,SMDPad,CuDef*%
%ADD13RoundRect,0.250001X0.462499X0.624999X-0.462499X0.624999X-0.462499X-0.624999X0.462499X-0.624999X0*%
%TD*%
%TA.AperFunction,ComponentPad*%
%ADD14R,1.600000X1.600000*%
%TD*%
%TA.AperFunction,ComponentPad*%
%ADD15O,1.600000X1.600000*%
%TD*%
%TA.AperFunction,ComponentPad*%
%ADD16C,1.600000*%
%TD*%
%TA.AperFunction,ComponentPad*%
%ADD17C,1.500000*%
%TD*%
%TA.AperFunction,Conductor*%
%ADD18C,0.600000*%
%TD*%
G04 APERTURE END LIST*
D10*
%TO.P,J1,1,Pin_1*%
%TO.N,GND*%
X103059983Y-80000000D03*
D11*
%TO.P,J1,2,Pin_2*%
%TO.N,vcc*%
X101789983Y-80000000D03*
%TO.P,J1,3,Pin_3*%
%TO.N,/Led_Sensor6*%
X100519983Y-80000000D03*
%TO.P,J1,4,Pin_4*%
%TO.N,/Led_Sensor5*%
X99249983Y-80000000D03*
%TO.P,J1,5,Pin_5*%
%TO.N,/Led_Sensor4*%
X97979983Y-80000000D03*
%TO.P,J1,6,Pin_6*%
%TO.N,/Led_Sensor3*%
X96709983Y-80000000D03*
%TO.P,J1,7,Pin_7*%
%TO.N,/Led_Sensor2*%
X95439983Y-80000000D03*
%TO.P,J1,8,Pin_8*%
%TO.N,/Led_Sensor1*%
X94169983Y-80000000D03*
%TD*%
D12*
%TO.P,R15,1*%
%TO.N,Net-(D3-K)*%
X96500000Y-68000000D03*
%TO.P,R15,2*%
%TO.N,GND*%
X96500000Y-66000000D03*
%TD*%
D13*
%TO.P,D2,1,K*%
%TO.N,Net-(D2-K)*%
X76097483Y-69500000D03*
%TO.P,D2,2,A*%
%TO.N,/Led_Sensor2*%
X73122483Y-69500000D03*
%TD*%
D12*
%TO.P,R18,1*%
%TO.N,Net-(D6-K)*%
X133500000Y-68000000D03*
%TO.P,R18,2*%
%TO.N,GND*%
X133500000Y-66000000D03*
%TD*%
D13*
%TO.P,D3,1,K*%
%TO.N,Net-(D3-K)*%
X92097483Y-69500000D03*
%TO.P,D3,2,A*%
%TO.N,/Led_Sensor3*%
X89122483Y-69500000D03*
%TD*%
%TO.P,D6,1,K*%
%TO.N,Net-(D6-K)*%
X140097483Y-70000000D03*
%TO.P,D6,2,A*%
%TO.N,/Led_Sensor6*%
X137122483Y-70000000D03*
%TD*%
D12*
%TO.P,R13,1*%
%TO.N,Net-(D1-K)*%
X65000000Y-68000000D03*
%TO.P,R13,2*%
%TO.N,GND*%
X65000000Y-66000000D03*
%TD*%
D13*
%TO.P,D4,1,K*%
%TO.N,Net-(D4-K)*%
X108097483Y-69500000D03*
%TO.P,D4,2,A*%
%TO.N,/Led_Sensor4*%
X105122483Y-69500000D03*
%TD*%
D12*
%TO.P,R17,1*%
%TO.N,Net-(D5-K)*%
X128500000Y-68000000D03*
%TO.P,R17,2*%
%TO.N,GND*%
X128500000Y-66000000D03*
%TD*%
%TO.P,R14,1*%
%TO.N,Net-(D2-K)*%
X81000000Y-68000000D03*
%TO.P,R14,2*%
%TO.N,GND*%
X81000000Y-66000000D03*
%TD*%
%TO.P,R16,1*%
%TO.N,Net-(D4-K)*%
X112500000Y-68000000D03*
%TO.P,R16,2*%
%TO.N,GND*%
X112500000Y-66000000D03*
%TD*%
D14*
%TO.P,U1,1,1A*%
%TO.N,/Sensor4*%
X83080000Y-72500000D03*
D15*
%TO.P,U1,2,1Y*%
%TO.N,/Led_Sensor4*%
X80540000Y-72500000D03*
%TO.P,U1,3,2A*%
%TO.N,/Sensor3*%
X78000000Y-72500000D03*
%TO.P,U1,4,2Y*%
%TO.N,/Led_Sensor3*%
X75460000Y-72500000D03*
%TO.P,U1,5,3A*%
%TO.N,/Sensor2*%
X72920000Y-72500000D03*
%TO.P,U1,6,3Y*%
%TO.N,/Led_Sensor2*%
X70380000Y-72500000D03*
%TO.P,U1,7,GND*%
%TO.N,GND*%
X67840000Y-72500000D03*
%TO.P,U1,8,4Y*%
%TO.N,/Led_Sensor1*%
X67840000Y-80120000D03*
%TO.P,U1,9,4A*%
%TO.N,/Sensor1*%
X70380000Y-80120000D03*
%TO.P,U1,10,5Y*%
%TO.N,/Led_Sensor5*%
X72920000Y-80120000D03*
%TO.P,U1,11,5A*%
%TO.N,/Sensor5*%
X75460000Y-80120000D03*
%TO.P,U1,12,6Y*%
%TO.N,/Led_Sensor6*%
X78000000Y-80120000D03*
%TO.P,U1,13,6A*%
%TO.N,/Sensor6*%
X80540000Y-80120000D03*
%TO.P,U1,14,VCC*%
%TO.N,vcc*%
X83080000Y-80120000D03*
%TD*%
D16*
%TO.P,C1,1*%
%TO.N,vcc*%
X107000000Y-78750000D03*
%TO.P,C1,2*%
%TO.N,GND*%
X107000000Y-81250000D03*
%TD*%
D13*
%TO.P,D5,1,K*%
%TO.N,Net-(D5-K)*%
X124097483Y-69500000D03*
%TO.P,D5,2,A*%
%TO.N,/Led_Sensor5*%
X121122483Y-69500000D03*
%TD*%
%TO.P,D1,1,K*%
%TO.N,Net-(D1-K)*%
X60097483Y-69500000D03*
%TO.P,D1,2,A*%
%TO.N,/Led_Sensor1*%
X57122483Y-69500000D03*
%TD*%
D17*
%TO.P,Sensor3,A*%
%TO.N,Net-(R5-Pad1)*%
X91879983Y-59990000D03*
%TO.P,Sensor3,CATH*%
%TO.N,GND*%
X89339983Y-59990000D03*
%TO.P,Sensor3,COLL*%
%TO.N,/Sensor3*%
X91879983Y-65490000D03*
%TO.P,Sensor3,E*%
%TO.N,GND*%
X89339983Y-65490000D03*
%TD*%
%TO.P,Sensor2,A*%
%TO.N,Net-(R3-Pad1)*%
X75879983Y-59990000D03*
%TO.P,Sensor2,CATH*%
%TO.N,GND*%
X73339983Y-59990000D03*
%TO.P,Sensor2,COLL*%
%TO.N,/Sensor2*%
X75879983Y-65490000D03*
%TO.P,Sensor2,E*%
%TO.N,GND*%
X73339983Y-65490000D03*
%TD*%
%TO.P,Sensor6,A*%
%TO.N,Net-(R11-Pad1)*%
X139879983Y-59990000D03*
%TO.P,Sensor6,CATH*%
%TO.N,GND*%
X137339983Y-59990000D03*
%TO.P,Sensor6,COLL*%
%TO.N,/Sensor6*%
X139879983Y-65490000D03*
%TO.P,Sensor6,E*%
%TO.N,GND*%
X137339983Y-65490000D03*
%TD*%
%TO.P,Sensor5,A*%
%TO.N,Net-(R9-Pad1)*%
X123879983Y-59990000D03*
%TO.P,Sensor5,CATH*%
%TO.N,GND*%
X121339983Y-59990000D03*
%TO.P,Sensor5,COLL*%
%TO.N,/Sensor5*%
X123879983Y-65490000D03*
%TO.P,Sensor5,E*%
%TO.N,GND*%
X121339983Y-65490000D03*
%TD*%
%TO.P,Sensor1,A*%
%TO.N,Net-(R1-Pad1)*%
X59879983Y-59990000D03*
%TO.P,Sensor1,CATH*%
%TO.N,GND*%
X57339983Y-59990000D03*
%TO.P,Sensor1,COLL*%
%TO.N,/Sensor1*%
X59879983Y-65490000D03*
%TO.P,Sensor1,E*%
%TO.N,GND*%
X57339983Y-65490000D03*
%TD*%
%TO.P,Sensor4,A*%
%TO.N,Net-(R7-Pad1)*%
X107879983Y-59990000D03*
%TO.P,Sensor4,CATH*%
%TO.N,GND*%
X105339983Y-59990000D03*
%TO.P,Sensor4,COLL*%
%TO.N,/Sensor4*%
X107879983Y-65490000D03*
%TO.P,Sensor4,E*%
%TO.N,GND*%
X105339983Y-65490000D03*
%TD*%
D18*
%TO.N,vcc*%
X101789983Y-80000000D02*
X101789983Y-79070000D01*
X101789983Y-79070000D02*
X102109983Y-78750000D01*
X102109983Y-78750000D02*
X107000000Y-78750000D01*
%TO.N,Net-(D1-K)*%
X61597483Y-68000000D02*
X60097483Y-69500000D01*
X65000000Y-68000000D02*
X61597483Y-68000000D01*
%TO.N,/Led_Sensor1*%
X70460000Y-77500000D02*
X67840000Y-80120000D01*
X94169983Y-80000000D02*
X91669983Y-77500000D01*
X91669983Y-77500000D02*
X70460000Y-77500000D01*
X67840000Y-80120000D02*
X63120000Y-80120000D01*
X57122483Y-74122483D02*
X57122483Y-69500000D01*
X63120000Y-80120000D02*
X57122483Y-74122483D01*
%TO.N,Net-(D2-K)*%
X77597483Y-68000000D02*
X76097483Y-69500000D01*
X81000000Y-68000000D02*
X77597483Y-68000000D01*
%TO.N,/Led_Sensor2*%
X70380000Y-72500000D02*
X70380000Y-72242483D01*
X70380000Y-72242483D02*
X73122483Y-69500000D01*
X73000000Y-76500000D02*
X70380000Y-73880000D01*
X95439983Y-80000000D02*
X95439983Y-78939983D01*
X70380000Y-73880000D02*
X70380000Y-72500000D01*
X95439983Y-78939983D02*
X93000000Y-76500000D01*
X93000000Y-76500000D02*
X73000000Y-76500000D01*
%TO.N,/Led_Sensor3*%
X78460000Y-69500000D02*
X89122483Y-69500000D01*
X96709983Y-80000000D02*
X96709983Y-78209983D01*
X96709983Y-78209983D02*
X94000000Y-75500000D01*
X75460000Y-73460000D02*
X75460000Y-72500000D01*
X77500000Y-75500000D02*
X75460000Y-73460000D01*
X75500000Y-72460000D02*
X78460000Y-69500000D01*
X94000000Y-75500000D02*
X77500000Y-75500000D01*
%TO.N,Net-(D3-K)*%
X96500000Y-68000000D02*
X93597483Y-68000000D01*
X93597483Y-68000000D02*
X92097483Y-69500000D01*
%TO.N,/Led_Sensor4*%
X95000000Y-74500000D02*
X97979983Y-77479983D01*
X80540000Y-73040000D02*
X82000000Y-74500000D01*
X80540000Y-72500000D02*
X80540000Y-73040000D01*
X97979983Y-77479983D02*
X97979983Y-80000000D01*
X105122483Y-69500000D02*
X105122483Y-70337483D01*
X82000000Y-74500000D02*
X95000000Y-74500000D01*
X97979983Y-79500000D02*
X97979983Y-77520017D01*
X105122483Y-70337483D02*
X97979983Y-77479983D01*
%TO.N,Net-(D4-K)*%
X112500000Y-68000000D02*
X109597483Y-68000000D01*
X109597483Y-68000000D02*
X108097483Y-69500000D01*
%TO.N,/Led_Sensor5*%
X99249983Y-78250017D02*
X99249983Y-80000000D01*
X72920000Y-80120000D02*
X75300000Y-82500000D01*
X97500000Y-82500000D02*
X99249983Y-80750017D01*
X104250000Y-73250000D02*
X99249983Y-78250017D01*
X99249983Y-80750017D02*
X99249983Y-80000000D01*
X121000000Y-69500000D02*
X117250000Y-73250000D01*
X75300000Y-82500000D02*
X97500000Y-82500000D01*
X121122483Y-69500000D02*
X121000000Y-69500000D01*
X117250000Y-73250000D02*
X104250000Y-73250000D01*
%TO.N,Net-(D5-K)*%
X124097483Y-69500000D02*
X127000000Y-69500000D01*
X127000000Y-69500000D02*
X128500000Y-68000000D01*
%TO.N,/Led_Sensor6*%
X100500000Y-79980017D02*
X100519983Y-80000000D01*
X137122483Y-70500000D02*
X131872483Y-75750000D01*
X103750000Y-75750000D02*
X100519983Y-78980017D01*
X100519983Y-78980017D02*
X100519983Y-80000000D01*
X131872483Y-75750000D02*
X103750000Y-75750000D01*
X137122483Y-70000000D02*
X137122483Y-70500000D01*
%TO.N,Net-(D6-K)*%
X134000000Y-68500000D02*
X133500000Y-68000000D01*
X138597483Y-68500000D02*
X134000000Y-68500000D01*
X140097483Y-70000000D02*
X138597483Y-68500000D01*
%TD*%
%TA.AperFunction,Conductor*%
%TO.N,GND*%
G36*
X58383107Y-60679570D02*
G01*
X58426649Y-60617388D01*
X58497323Y-60465825D01*
X58543495Y-60413386D01*
X58610689Y-60394233D01*
X58677570Y-60414448D01*
X58722088Y-60465824D01*
X58792880Y-60617638D01*
X58792881Y-60617639D01*
X58918385Y-60796877D01*
X59073106Y-60951598D01*
X59252344Y-61077102D01*
X59450653Y-61169575D01*
X59662006Y-61226207D01*
X59670324Y-61226934D01*
X59735391Y-61252381D01*
X59776373Y-61308970D01*
X59780256Y-61378731D01*
X59745806Y-61439518D01*
X59727460Y-61453749D01*
X59727492Y-61453793D01*
X59726101Y-61454803D01*
X59724328Y-61456179D01*
X59723559Y-61456649D01*
X59584516Y-61557670D01*
X59532473Y-61595483D01*
X59532471Y-61595485D01*
X59532470Y-61595485D01*
X59365468Y-61762487D01*
X59365468Y-61762488D01*
X59365466Y-61762490D01*
X59305845Y-61844550D01*
X59226640Y-61953566D01*
X59119416Y-62164003D01*
X59046429Y-62388631D01*
X59009483Y-62621902D01*
X59009483Y-62858097D01*
X59046429Y-63091368D01*
X59119416Y-63315996D01*
X59226640Y-63526433D01*
X59365466Y-63717510D01*
X59532473Y-63884517D01*
X59723543Y-64023338D01*
X59723550Y-64023343D01*
X59724312Y-64023810D01*
X59724540Y-64024062D01*
X59727492Y-64026207D01*
X59727041Y-64026827D01*
X59771187Y-64075623D01*
X59782608Y-64144553D01*
X59754951Y-64208715D01*
X59696995Y-64247739D01*
X59670330Y-64253064D01*
X59662006Y-64253793D01*
X59662003Y-64253793D01*
X59450660Y-64310422D01*
X59450651Y-64310426D01*
X59252344Y-64402898D01*
X59252340Y-64402900D01*
X59073104Y-64528402D01*
X58918385Y-64683121D01*
X58792883Y-64862357D01*
X58792883Y-64862358D01*
X58792881Y-64862361D01*
X58792881Y-64862362D01*
X58780180Y-64889597D01*
X58722088Y-65014176D01*
X58675915Y-65066615D01*
X58608721Y-65085766D01*
X58541840Y-65065550D01*
X58497324Y-65014175D01*
X58426650Y-64862614D01*
X58426649Y-64862612D01*
X58383107Y-64800428D01*
X58383107Y-64800427D01*
X57822945Y-65360589D01*
X57805908Y-65297007D01*
X57740082Y-65182993D01*
X57646990Y-65089901D01*
X57532976Y-65024075D01*
X57469392Y-65007037D01*
X58029554Y-64446874D01*
X57967370Y-64403333D01*
X57769142Y-64310898D01*
X57769133Y-64310894D01*
X57557877Y-64254289D01*
X57557870Y-64254288D01*
X57548912Y-64253504D01*
X57483845Y-64228047D01*
X57442869Y-64171454D01*
X57438995Y-64101692D01*
X57473452Y-64040910D01*
X57494957Y-64024236D01*
X57496397Y-64023352D01*
X57496416Y-64023343D01*
X57687493Y-63884517D01*
X57854500Y-63717510D01*
X57993326Y-63526433D01*
X58100551Y-63315992D01*
X58173536Y-63091368D01*
X58210483Y-62858097D01*
X58210483Y-62621902D01*
X58173536Y-62388631D01*
X58100549Y-62164003D01*
X57993325Y-61953566D01*
X57854500Y-61762490D01*
X57687493Y-61595483D01*
X57496416Y-61456657D01*
X57496410Y-61456654D01*
X57494943Y-61455755D01*
X57494498Y-61455264D01*
X57492474Y-61453793D01*
X57492782Y-61453367D01*
X57448064Y-61403946D01*
X57436637Y-61335017D01*
X57464290Y-61270852D01*
X57522243Y-61231824D01*
X57548920Y-61226495D01*
X57557866Y-61225712D01*
X57557877Y-61225710D01*
X57769133Y-61169105D01*
X57769147Y-61169100D01*
X57967366Y-61076669D01*
X57967368Y-61076668D01*
X58029553Y-61033124D01*
X57469392Y-60472962D01*
X57532976Y-60455925D01*
X57646990Y-60390099D01*
X57740082Y-60297007D01*
X57805908Y-60182993D01*
X57822945Y-60119409D01*
X58383107Y-60679570D01*
G37*
%TD.AperFunction*%
%TA.AperFunction,Conductor*%
G36*
X74383107Y-60679570D02*
G01*
X74426649Y-60617388D01*
X74497323Y-60465825D01*
X74543495Y-60413386D01*
X74610689Y-60394233D01*
X74677570Y-60414448D01*
X74722088Y-60465824D01*
X74792880Y-60617638D01*
X74792881Y-60617639D01*
X74918385Y-60796877D01*
X75073106Y-60951598D01*
X75252344Y-61077102D01*
X75450653Y-61169575D01*
X75662006Y-61226207D01*
X75670324Y-61226934D01*
X75735391Y-61252381D01*
X75776373Y-61308970D01*
X75780256Y-61378731D01*
X75745806Y-61439518D01*
X75727460Y-61453749D01*
X75727492Y-61453793D01*
X75726101Y-61454803D01*
X75724328Y-61456179D01*
X75723559Y-61456649D01*
X75584516Y-61557670D01*
X75532473Y-61595483D01*
X75532471Y-61595485D01*
X75532470Y-61595485D01*
X75365468Y-61762487D01*
X75365468Y-61762488D01*
X75365466Y-61762490D01*
X75305845Y-61844550D01*
X75226640Y-61953566D01*
X75119416Y-62164003D01*
X75046429Y-62388631D01*
X75009483Y-62621902D01*
X75009483Y-62858097D01*
X75046429Y-63091368D01*
X75119416Y-63315996D01*
X75226640Y-63526433D01*
X75365466Y-63717510D01*
X75532473Y-63884517D01*
X75723543Y-64023338D01*
X75723550Y-64023343D01*
X75724312Y-64023810D01*
X75724540Y-64024062D01*
X75727492Y-64026207D01*
X75727041Y-64026827D01*
X75771187Y-64075623D01*
X75782608Y-64144553D01*
X75754951Y-64208715D01*
X75696995Y-64247739D01*
X75670330Y-64253064D01*
X75662006Y-64253793D01*
X75662003Y-64253793D01*
X75450660Y-64310422D01*
X75450651Y-64310426D01*
X75252344Y-64402898D01*
X75252340Y-64402900D01*
X75073104Y-64528402D01*
X74918385Y-64683121D01*
X74792883Y-64862357D01*
X74792883Y-64862358D01*
X74792881Y-64862361D01*
X74792881Y-64862362D01*
X74780180Y-64889597D01*
X74722088Y-65014176D01*
X74675915Y-65066615D01*
X74608721Y-65085766D01*
X74541840Y-65065550D01*
X74497324Y-65014175D01*
X74426650Y-64862614D01*
X74426649Y-64862612D01*
X74383107Y-64800428D01*
X74383107Y-64800427D01*
X73822945Y-65360589D01*
X73805908Y-65297007D01*
X73740082Y-65182993D01*
X73646990Y-65089901D01*
X73532976Y-65024075D01*
X73469392Y-65007037D01*
X74029554Y-64446874D01*
X73967370Y-64403333D01*
X73769142Y-64310898D01*
X73769133Y-64310894D01*
X73557877Y-64254289D01*
X73557870Y-64254288D01*
X73548912Y-64253504D01*
X73483845Y-64228047D01*
X73442869Y-64171454D01*
X73438995Y-64101692D01*
X73473452Y-64040910D01*
X73494957Y-64024236D01*
X73496397Y-64023352D01*
X73496416Y-64023343D01*
X73687493Y-63884517D01*
X73854500Y-63717510D01*
X73993326Y-63526433D01*
X74100551Y-63315992D01*
X74173536Y-63091368D01*
X74210483Y-62858097D01*
X74210483Y-62621902D01*
X74173536Y-62388631D01*
X74100549Y-62164003D01*
X73993325Y-61953566D01*
X73854500Y-61762490D01*
X73687493Y-61595483D01*
X73496416Y-61456657D01*
X73496410Y-61456654D01*
X73494943Y-61455755D01*
X73494498Y-61455264D01*
X73492474Y-61453793D01*
X73492782Y-61453367D01*
X73448064Y-61403946D01*
X73436637Y-61335017D01*
X73464290Y-61270852D01*
X73522243Y-61231824D01*
X73548920Y-61226495D01*
X73557866Y-61225712D01*
X73557877Y-61225710D01*
X73769133Y-61169105D01*
X73769147Y-61169100D01*
X73967366Y-61076669D01*
X73967368Y-61076668D01*
X74029554Y-61033124D01*
X73469393Y-60472962D01*
X73532976Y-60455925D01*
X73646990Y-60390099D01*
X73740082Y-60297007D01*
X73805908Y-60182993D01*
X73822945Y-60119409D01*
X74383107Y-60679570D01*
G37*
%TD.AperFunction*%
%TA.AperFunction,Conductor*%
G36*
X90383107Y-60679570D02*
G01*
X90426649Y-60617388D01*
X90497323Y-60465825D01*
X90543495Y-60413386D01*
X90610689Y-60394233D01*
X90677570Y-60414448D01*
X90722088Y-60465824D01*
X90792880Y-60617638D01*
X90792881Y-60617639D01*
X90918385Y-60796877D01*
X91073106Y-60951598D01*
X91252344Y-61077102D01*
X91450653Y-61169575D01*
X91662006Y-61226207D01*
X91670324Y-61226934D01*
X91735391Y-61252381D01*
X91776373Y-61308970D01*
X91780256Y-61378731D01*
X91745806Y-61439518D01*
X91727460Y-61453749D01*
X91727492Y-61453793D01*
X91726101Y-61454803D01*
X91724328Y-61456179D01*
X91723559Y-61456649D01*
X91584516Y-61557670D01*
X91532473Y-61595483D01*
X91532471Y-61595485D01*
X91532470Y-61595485D01*
X91365468Y-61762487D01*
X91365468Y-61762488D01*
X91365466Y-61762490D01*
X91305845Y-61844550D01*
X91226640Y-61953566D01*
X91119416Y-62164003D01*
X91046429Y-62388631D01*
X91009483Y-62621902D01*
X91009483Y-62858097D01*
X91046429Y-63091368D01*
X91119416Y-63315996D01*
X91226640Y-63526433D01*
X91365466Y-63717510D01*
X91532473Y-63884517D01*
X91723543Y-64023338D01*
X91723550Y-64023343D01*
X91724312Y-64023810D01*
X91724540Y-64024062D01*
X91727492Y-64026207D01*
X91727041Y-64026827D01*
X91771187Y-64075623D01*
X91782608Y-64144553D01*
X91754951Y-64208715D01*
X91696995Y-64247739D01*
X91670330Y-64253064D01*
X91662006Y-64253793D01*
X91662003Y-64253793D01*
X91450660Y-64310422D01*
X91450651Y-64310426D01*
X91252344Y-64402898D01*
X91252340Y-64402900D01*
X91073104Y-64528402D01*
X90918385Y-64683121D01*
X90792883Y-64862357D01*
X90792883Y-64862358D01*
X90792881Y-64862361D01*
X90792881Y-64862362D01*
X90780180Y-64889597D01*
X90722088Y-65014176D01*
X90675915Y-65066615D01*
X90608721Y-65085766D01*
X90541840Y-65065550D01*
X90497324Y-65014175D01*
X90426650Y-64862614D01*
X90426649Y-64862612D01*
X90383107Y-64800428D01*
X90383107Y-64800427D01*
X89822945Y-65360589D01*
X89805908Y-65297007D01*
X89740082Y-65182993D01*
X89646990Y-65089901D01*
X89532976Y-65024075D01*
X89469392Y-65007037D01*
X90029554Y-64446874D01*
X89967370Y-64403333D01*
X89769142Y-64310898D01*
X89769133Y-64310894D01*
X89557877Y-64254289D01*
X89557870Y-64254288D01*
X89548912Y-64253504D01*
X89483845Y-64228047D01*
X89442869Y-64171454D01*
X89438995Y-64101692D01*
X89473452Y-64040910D01*
X89494957Y-64024236D01*
X89496397Y-64023352D01*
X89496416Y-64023343D01*
X89687493Y-63884517D01*
X89854500Y-63717510D01*
X89993326Y-63526433D01*
X90100551Y-63315992D01*
X90173536Y-63091368D01*
X90210483Y-62858097D01*
X90210483Y-62621902D01*
X90173536Y-62388631D01*
X90100549Y-62164003D01*
X89993325Y-61953566D01*
X89854500Y-61762490D01*
X89687493Y-61595483D01*
X89496416Y-61456657D01*
X89496410Y-61456654D01*
X89494943Y-61455755D01*
X89494498Y-61455264D01*
X89492474Y-61453793D01*
X89492782Y-61453367D01*
X89448064Y-61403946D01*
X89436637Y-61335017D01*
X89464290Y-61270852D01*
X89522243Y-61231824D01*
X89548920Y-61226495D01*
X89557866Y-61225712D01*
X89557877Y-61225710D01*
X89769133Y-61169105D01*
X89769147Y-61169100D01*
X89967366Y-61076669D01*
X89967368Y-61076668D01*
X90029554Y-61033124D01*
X89469393Y-60472962D01*
X89532976Y-60455925D01*
X89646990Y-60390099D01*
X89740082Y-60297007D01*
X89805908Y-60182993D01*
X89822945Y-60119409D01*
X90383107Y-60679570D01*
G37*
%TD.AperFunction*%
%TA.AperFunction,Conductor*%
G36*
X106383107Y-60679570D02*
G01*
X106426649Y-60617388D01*
X106497323Y-60465825D01*
X106543495Y-60413386D01*
X106610689Y-60394233D01*
X106677570Y-60414448D01*
X106722088Y-60465824D01*
X106792880Y-60617638D01*
X106792881Y-60617639D01*
X106918385Y-60796877D01*
X107073106Y-60951598D01*
X107252344Y-61077102D01*
X107450653Y-61169575D01*
X107662006Y-61226207D01*
X107670324Y-61226934D01*
X107735391Y-61252381D01*
X107776373Y-61308970D01*
X107780256Y-61378731D01*
X107745806Y-61439518D01*
X107727460Y-61453749D01*
X107727492Y-61453793D01*
X107726101Y-61454803D01*
X107724328Y-61456179D01*
X107723559Y-61456649D01*
X107584516Y-61557670D01*
X107532473Y-61595483D01*
X107532471Y-61595485D01*
X107532470Y-61595485D01*
X107365468Y-61762487D01*
X107365468Y-61762488D01*
X107365466Y-61762490D01*
X107305845Y-61844550D01*
X107226640Y-61953566D01*
X107119416Y-62164003D01*
X107046429Y-62388631D01*
X107009483Y-62621902D01*
X107009483Y-62858097D01*
X107046429Y-63091368D01*
X107119416Y-63315996D01*
X107226640Y-63526433D01*
X107365466Y-63717510D01*
X107532473Y-63884517D01*
X107723543Y-64023338D01*
X107723550Y-64023343D01*
X107724312Y-64023810D01*
X107724540Y-64024062D01*
X107727492Y-64026207D01*
X107727041Y-64026827D01*
X107771187Y-64075623D01*
X107782608Y-64144553D01*
X107754951Y-64208715D01*
X107696995Y-64247739D01*
X107670330Y-64253064D01*
X107662006Y-64253793D01*
X107662003Y-64253793D01*
X107450660Y-64310422D01*
X107450651Y-64310426D01*
X107252344Y-64402898D01*
X107252340Y-64402900D01*
X107073104Y-64528402D01*
X106918385Y-64683121D01*
X106792883Y-64862357D01*
X106792883Y-64862358D01*
X106792881Y-64862361D01*
X106792881Y-64862362D01*
X106780180Y-64889597D01*
X106722088Y-65014176D01*
X106675915Y-65066615D01*
X106608721Y-65085766D01*
X106541840Y-65065550D01*
X106497324Y-65014175D01*
X106426650Y-64862614D01*
X106426649Y-64862612D01*
X106383107Y-64800428D01*
X106383107Y-64800427D01*
X105822945Y-65360589D01*
X105805908Y-65297007D01*
X105740082Y-65182993D01*
X105646990Y-65089901D01*
X105532976Y-65024075D01*
X105469392Y-65007037D01*
X106029554Y-64446874D01*
X105967370Y-64403333D01*
X105769142Y-64310898D01*
X105769133Y-64310894D01*
X105557877Y-64254289D01*
X105557870Y-64254288D01*
X105548912Y-64253504D01*
X105483845Y-64228047D01*
X105442869Y-64171454D01*
X105438995Y-64101692D01*
X105473452Y-64040910D01*
X105494957Y-64024236D01*
X105496397Y-64023352D01*
X105496416Y-64023343D01*
X105687493Y-63884517D01*
X105854500Y-63717510D01*
X105993326Y-63526433D01*
X106100551Y-63315992D01*
X106173536Y-63091368D01*
X106210483Y-62858097D01*
X106210483Y-62621902D01*
X106173536Y-62388631D01*
X106100549Y-62164003D01*
X105993325Y-61953566D01*
X105854500Y-61762490D01*
X105687493Y-61595483D01*
X105496416Y-61456657D01*
X105496410Y-61456654D01*
X105494943Y-61455755D01*
X105494498Y-61455264D01*
X105492474Y-61453793D01*
X105492782Y-61453367D01*
X105448064Y-61403946D01*
X105436637Y-61335017D01*
X105464290Y-61270852D01*
X105522243Y-61231824D01*
X105548920Y-61226495D01*
X105557866Y-61225712D01*
X105557877Y-61225710D01*
X105769133Y-61169105D01*
X105769147Y-61169100D01*
X105967366Y-61076669D01*
X105967368Y-61076668D01*
X106029554Y-61033124D01*
X105469393Y-60472962D01*
X105532976Y-60455925D01*
X105646990Y-60390099D01*
X105740082Y-60297007D01*
X105805908Y-60182993D01*
X105822945Y-60119409D01*
X106383107Y-60679570D01*
G37*
%TD.AperFunction*%
%TA.AperFunction,Conductor*%
G36*
X122383107Y-60679570D02*
G01*
X122426649Y-60617388D01*
X122497323Y-60465825D01*
X122543495Y-60413386D01*
X122610689Y-60394233D01*
X122677570Y-60414448D01*
X122722088Y-60465824D01*
X122792880Y-60617638D01*
X122792881Y-60617639D01*
X122918385Y-60796877D01*
X123073106Y-60951598D01*
X123252344Y-61077102D01*
X123450653Y-61169575D01*
X123662006Y-61226207D01*
X123670324Y-61226934D01*
X123735391Y-61252381D01*
X123776373Y-61308970D01*
X123780256Y-61378731D01*
X123745806Y-61439518D01*
X123727460Y-61453749D01*
X123727492Y-61453793D01*
X123726101Y-61454803D01*
X123724328Y-61456179D01*
X123723559Y-61456649D01*
X123584516Y-61557670D01*
X123532473Y-61595483D01*
X123532471Y-61595485D01*
X123532470Y-61595485D01*
X123365468Y-61762487D01*
X123365468Y-61762488D01*
X123365466Y-61762490D01*
X123305845Y-61844550D01*
X123226640Y-61953566D01*
X123119416Y-62164003D01*
X123046429Y-62388631D01*
X123009483Y-62621902D01*
X123009483Y-62858097D01*
X123046429Y-63091368D01*
X123119416Y-63315996D01*
X123226640Y-63526433D01*
X123365466Y-63717510D01*
X123532473Y-63884517D01*
X123723543Y-64023338D01*
X123723550Y-64023343D01*
X123724312Y-64023810D01*
X123724540Y-64024062D01*
X123727492Y-64026207D01*
X123727041Y-64026827D01*
X123771187Y-64075623D01*
X123782608Y-64144553D01*
X123754951Y-64208715D01*
X123696995Y-64247739D01*
X123670330Y-64253064D01*
X123662006Y-64253793D01*
X123662003Y-64253793D01*
X123450660Y-64310422D01*
X123450651Y-64310426D01*
X123252344Y-64402898D01*
X123252340Y-64402900D01*
X123073104Y-64528402D01*
X122918385Y-64683121D01*
X122792883Y-64862357D01*
X122792883Y-64862358D01*
X122792881Y-64862361D01*
X122792881Y-64862362D01*
X122780180Y-64889597D01*
X122722088Y-65014176D01*
X122675915Y-65066615D01*
X122608721Y-65085766D01*
X122541840Y-65065550D01*
X122497324Y-65014175D01*
X122426650Y-64862614D01*
X122426649Y-64862612D01*
X122383107Y-64800428D01*
X122383107Y-64800427D01*
X121822945Y-65360589D01*
X121805908Y-65297007D01*
X121740082Y-65182993D01*
X121646990Y-65089901D01*
X121532976Y-65024075D01*
X121469392Y-65007037D01*
X122029554Y-64446874D01*
X121967370Y-64403333D01*
X121769142Y-64310898D01*
X121769133Y-64310894D01*
X121557877Y-64254289D01*
X121557870Y-64254288D01*
X121548912Y-64253504D01*
X121483845Y-64228047D01*
X121442869Y-64171454D01*
X121438995Y-64101692D01*
X121473452Y-64040910D01*
X121494957Y-64024236D01*
X121496397Y-64023352D01*
X121496416Y-64023343D01*
X121687493Y-63884517D01*
X121854500Y-63717510D01*
X121993326Y-63526433D01*
X122100551Y-63315992D01*
X122173536Y-63091368D01*
X122210483Y-62858097D01*
X122210483Y-62621902D01*
X122173536Y-62388631D01*
X122100549Y-62164003D01*
X121993325Y-61953566D01*
X121854500Y-61762490D01*
X121687493Y-61595483D01*
X121496416Y-61456657D01*
X121496410Y-61456654D01*
X121494943Y-61455755D01*
X121494498Y-61455264D01*
X121492474Y-61453793D01*
X121492782Y-61453367D01*
X121448064Y-61403946D01*
X121436637Y-61335017D01*
X121464290Y-61270852D01*
X121522243Y-61231824D01*
X121548920Y-61226495D01*
X121557866Y-61225712D01*
X121557877Y-61225710D01*
X121769133Y-61169105D01*
X121769147Y-61169100D01*
X121967366Y-61076669D01*
X121967368Y-61076668D01*
X122029554Y-61033124D01*
X121469393Y-60472962D01*
X121532976Y-60455925D01*
X121646990Y-60390099D01*
X121740082Y-60297007D01*
X121805908Y-60182993D01*
X121822945Y-60119409D01*
X122383107Y-60679570D01*
G37*
%TD.AperFunction*%
%TA.AperFunction,Conductor*%
G36*
X138383107Y-60679570D02*
G01*
X138426649Y-60617388D01*
X138497323Y-60465825D01*
X138543495Y-60413386D01*
X138610689Y-60394233D01*
X138677570Y-60414448D01*
X138722088Y-60465824D01*
X138792880Y-60617638D01*
X138792881Y-60617639D01*
X138918385Y-60796877D01*
X139073106Y-60951598D01*
X139252344Y-61077102D01*
X139450653Y-61169575D01*
X139662006Y-61226207D01*
X139670324Y-61226934D01*
X139735391Y-61252381D01*
X139776373Y-61308970D01*
X139780256Y-61378731D01*
X139745806Y-61439518D01*
X139727460Y-61453749D01*
X139727492Y-61453793D01*
X139726101Y-61454803D01*
X139724328Y-61456179D01*
X139723559Y-61456649D01*
X139584516Y-61557670D01*
X139532473Y-61595483D01*
X139532471Y-61595485D01*
X139532470Y-61595485D01*
X139365468Y-61762487D01*
X139365468Y-61762488D01*
X139365466Y-61762490D01*
X139305845Y-61844550D01*
X139226640Y-61953566D01*
X139119416Y-62164003D01*
X139046429Y-62388631D01*
X139009483Y-62621902D01*
X139009483Y-62858097D01*
X139046429Y-63091368D01*
X139119416Y-63315996D01*
X139226640Y-63526433D01*
X139365466Y-63717510D01*
X139532473Y-63884517D01*
X139723543Y-64023338D01*
X139723550Y-64023343D01*
X139724312Y-64023810D01*
X139724540Y-64024062D01*
X139727492Y-64026207D01*
X139727041Y-64026827D01*
X139771187Y-64075623D01*
X139782608Y-64144553D01*
X139754951Y-64208715D01*
X139696995Y-64247739D01*
X139670330Y-64253064D01*
X139662006Y-64253793D01*
X139662003Y-64253793D01*
X139450660Y-64310422D01*
X139450651Y-64310426D01*
X139252344Y-64402898D01*
X139252340Y-64402900D01*
X139073104Y-64528402D01*
X138918385Y-64683121D01*
X138792883Y-64862357D01*
X138792883Y-64862358D01*
X138792881Y-64862361D01*
X138792881Y-64862362D01*
X138780180Y-64889597D01*
X138722088Y-65014176D01*
X138675915Y-65066615D01*
X138608721Y-65085766D01*
X138541840Y-65065550D01*
X138497324Y-65014175D01*
X138426650Y-64862614D01*
X138426649Y-64862612D01*
X138383107Y-64800428D01*
X138383107Y-64800427D01*
X137822945Y-65360589D01*
X137805908Y-65297007D01*
X137740082Y-65182993D01*
X137646990Y-65089901D01*
X137532976Y-65024075D01*
X137469392Y-65007037D01*
X138029554Y-64446874D01*
X137967370Y-64403333D01*
X137769142Y-64310898D01*
X137769133Y-64310894D01*
X137557877Y-64254289D01*
X137557870Y-64254288D01*
X137548912Y-64253504D01*
X137483845Y-64228047D01*
X137442869Y-64171454D01*
X137438995Y-64101692D01*
X137473452Y-64040910D01*
X137494957Y-64024236D01*
X137496397Y-64023352D01*
X137496416Y-64023343D01*
X137687493Y-63884517D01*
X137854500Y-63717510D01*
X137993326Y-63526433D01*
X138100551Y-63315992D01*
X138173536Y-63091368D01*
X138210483Y-62858097D01*
X138210483Y-62621902D01*
X138173536Y-62388631D01*
X138100549Y-62164003D01*
X137993325Y-61953566D01*
X137854500Y-61762490D01*
X137687493Y-61595483D01*
X137496416Y-61456657D01*
X137496410Y-61456654D01*
X137494943Y-61455755D01*
X137494498Y-61455264D01*
X137492474Y-61453793D01*
X137492782Y-61453367D01*
X137448064Y-61403946D01*
X137436637Y-61335017D01*
X137464290Y-61270852D01*
X137522243Y-61231824D01*
X137548920Y-61226495D01*
X137557866Y-61225712D01*
X137557877Y-61225710D01*
X137769133Y-61169105D01*
X137769147Y-61169100D01*
X137967366Y-61076669D01*
X137967368Y-61076668D01*
X138029554Y-61033124D01*
X137469393Y-60472962D01*
X137532976Y-60455925D01*
X137646990Y-60390099D01*
X137740082Y-60297007D01*
X137805908Y-60182993D01*
X137822945Y-60119409D01*
X138383107Y-60679570D01*
G37*
%TD.AperFunction*%
%TA.AperFunction,Conductor*%
G36*
X143052522Y-56860185D02*
G01*
X143098277Y-56912989D01*
X143109483Y-56964500D01*
X143109483Y-82715500D01*
X143089798Y-82782539D01*
X143036994Y-82828294D01*
X142985483Y-82839500D01*
X98591940Y-82839500D01*
X98524901Y-82819815D01*
X98479146Y-82767011D01*
X98469202Y-82697853D01*
X98498227Y-82634297D01*
X98504259Y-82627819D01*
X99871769Y-81260309D01*
X99871772Y-81260306D01*
X99959377Y-81129196D01*
X100009738Y-81007614D01*
X100053578Y-80953213D01*
X100119872Y-80931148D01*
X100160292Y-80936408D01*
X100323851Y-80986024D01*
X100519983Y-81005341D01*
X100716115Y-80986024D01*
X100904710Y-80928814D01*
X101078521Y-80835910D01*
X101078527Y-80835904D01*
X101083590Y-80832523D01*
X101084686Y-80834164D01*
X101140622Y-80810405D01*
X101209490Y-80822194D01*
X101226131Y-80832888D01*
X101226376Y-80832523D01*
X101231441Y-80835907D01*
X101231445Y-80835910D01*
X101344702Y-80896447D01*
X101401422Y-80926765D01*
X101405256Y-80928814D01*
X101593851Y-80986024D01*
X101789983Y-81005341D01*
X101986115Y-80986024D01*
X102174710Y-80928814D01*
X102177321Y-80927418D01*
X102178847Y-80927100D01*
X102180338Y-80926483D01*
X102180455Y-80926765D01*
X102245720Y-80913174D01*
X102310089Y-80937510D01*
X102317891Y-80943351D01*
X102452606Y-80993597D01*
X102452610Y-80993598D01*
X102512138Y-80999999D01*
X102512155Y-81000000D01*
X102809983Y-81000000D01*
X103309983Y-81000000D01*
X103607811Y-81000000D01*
X103607827Y-80999999D01*
X103667355Y-80993598D01*
X103667362Y-80993596D01*
X103802069Y-80943354D01*
X103802076Y-80943350D01*
X103917170Y-80857190D01*
X103917173Y-80857187D01*
X104003333Y-80742093D01*
X104003337Y-80742086D01*
X104053579Y-80607379D01*
X104053581Y-80607372D01*
X104059982Y-80547844D01*
X104059983Y-80547827D01*
X104059983Y-80250000D01*
X103309983Y-80250000D01*
X103309983Y-81000000D01*
X102809983Y-81000000D01*
X102809983Y-80209618D01*
X102860429Y-80260064D01*
X102934538Y-80302851D01*
X103017196Y-80325000D01*
X103102770Y-80325000D01*
X103185428Y-80302851D01*
X103259537Y-80260064D01*
X103320047Y-80199554D01*
X103362834Y-80125445D01*
X103384983Y-80042787D01*
X103384983Y-79957213D01*
X103362834Y-79874555D01*
X103320047Y-79800446D01*
X103269601Y-79750000D01*
X104059983Y-79750000D01*
X104059983Y-79674500D01*
X104079668Y-79607461D01*
X104132472Y-79561706D01*
X104183983Y-79550500D01*
X105909951Y-79550500D01*
X105976990Y-79570185D01*
X105997632Y-79586819D01*
X106160858Y-79750045D01*
X106160861Y-79750047D01*
X106347266Y-79880568D01*
X106362975Y-79887893D01*
X106415414Y-79934064D01*
X106434567Y-80001257D01*
X106414352Y-80068138D01*
X106362979Y-80112656D01*
X106347514Y-80119867D01*
X106347512Y-80119868D01*
X106274526Y-80170973D01*
X106274526Y-80170974D01*
X106953553Y-80850000D01*
X106947339Y-80850000D01*
X106845606Y-80877259D01*
X106754394Y-80929920D01*
X106679920Y-81004394D01*
X106627259Y-81095606D01*
X106600000Y-81197339D01*
X106600000Y-81203552D01*
X105920974Y-80524526D01*
X105920973Y-80524526D01*
X105869868Y-80597512D01*
X105869866Y-80597516D01*
X105773734Y-80803673D01*
X105773730Y-80803682D01*
X105714860Y-81023389D01*
X105714858Y-81023400D01*
X105695034Y-81249997D01*
X105695034Y-81250002D01*
X105714858Y-81476599D01*
X105714860Y-81476610D01*
X105773730Y-81696317D01*
X105773735Y-81696331D01*
X105869863Y-81902478D01*
X105920974Y-81975472D01*
X106600000Y-81296446D01*
X106600000Y-81302661D01*
X106627259Y-81404394D01*
X106679920Y-81495606D01*
X106754394Y-81570080D01*
X106845606Y-81622741D01*
X106947339Y-81650000D01*
X106953553Y-81650000D01*
X106274526Y-82329025D01*
X106347513Y-82380132D01*
X106347521Y-82380136D01*
X106553668Y-82476264D01*
X106553682Y-82476269D01*
X106773389Y-82535139D01*
X106773400Y-82535141D01*
X106999998Y-82554966D01*
X107000002Y-82554966D01*
X107226599Y-82535141D01*
X107226610Y-82535139D01*
X107446317Y-82476269D01*
X107446331Y-82476264D01*
X107652478Y-82380136D01*
X107725471Y-82329024D01*
X107046447Y-81650000D01*
X107052661Y-81650000D01*
X107154394Y-81622741D01*
X107245606Y-81570080D01*
X107320080Y-81495606D01*
X107372741Y-81404394D01*
X107400000Y-81302661D01*
X107400000Y-81296447D01*
X108079024Y-81975471D01*
X108130136Y-81902478D01*
X108226264Y-81696331D01*
X108226269Y-81696317D01*
X108285139Y-81476610D01*
X108285141Y-81476599D01*
X108304966Y-81250002D01*
X108304966Y-81249997D01*
X108285141Y-81023400D01*
X108285139Y-81023389D01*
X108226269Y-80803682D01*
X108226264Y-80803668D01*
X108130136Y-80597521D01*
X108130132Y-80597513D01*
X108079025Y-80524526D01*
X107400000Y-81203551D01*
X107400000Y-81197339D01*
X107372741Y-81095606D01*
X107320080Y-81004394D01*
X107245606Y-80929920D01*
X107154394Y-80877259D01*
X107052661Y-80850000D01*
X107046448Y-80850000D01*
X107725472Y-80170974D01*
X107652480Y-80119864D01*
X107637024Y-80112657D01*
X107584585Y-80066484D01*
X107565635Y-79999998D01*
X108604373Y-79999998D01*
X108604373Y-80000001D01*
X108624787Y-80285433D01*
X108685611Y-80565037D01*
X108685613Y-80565043D01*
X108685614Y-80565046D01*
X108784211Y-80829394D01*
X108785618Y-80833166D01*
X108922753Y-81084309D01*
X108922758Y-81084317D01*
X109094237Y-81313387D01*
X109094253Y-81313405D01*
X109296577Y-81515729D01*
X109296595Y-81515745D01*
X109525665Y-81687224D01*
X109525673Y-81687229D01*
X109776816Y-81824364D01*
X109776815Y-81824364D01*
X109776819Y-81824365D01*
X109776822Y-81824367D01*
X110044937Y-81924369D01*
X110044943Y-81924370D01*
X110044945Y-81924371D01*
X110324549Y-81985195D01*
X110324551Y-81985195D01*
X110324555Y-81985196D01*
X110578203Y-82003337D01*
X110609982Y-82005610D01*
X110609983Y-82005610D01*
X110609984Y-82005610D01*
X110638578Y-82003564D01*
X110895411Y-81985196D01*
X110940117Y-81975471D01*
X111175020Y-81924371D01*
X111175020Y-81924370D01*
X111175029Y-81924369D01*
X111443144Y-81824367D01*
X111694298Y-81687226D01*
X111923378Y-81515739D01*
X112125722Y-81313395D01*
X112297209Y-81084315D01*
X112434350Y-80833161D01*
X112534352Y-80565046D01*
X112595179Y-80285428D01*
X112615593Y-80000000D01*
X112595179Y-79714572D01*
X112586245Y-79673504D01*
X112534354Y-79434962D01*
X112534353Y-79434960D01*
X112534352Y-79434954D01*
X112434350Y-79166839D01*
X112354008Y-79019705D01*
X112297212Y-78915690D01*
X112297207Y-78915682D01*
X112125728Y-78686612D01*
X112125712Y-78686594D01*
X111923388Y-78484270D01*
X111923370Y-78484254D01*
X111694300Y-78312775D01*
X111694292Y-78312770D01*
X111443149Y-78175635D01*
X111443150Y-78175635D01*
X111233037Y-78097267D01*
X111175029Y-78075631D01*
X111175026Y-78075630D01*
X111175020Y-78075628D01*
X110895416Y-78014804D01*
X110609984Y-77994390D01*
X110609982Y-77994390D01*
X110324549Y-78014804D01*
X110044945Y-78075628D01*
X109776816Y-78175635D01*
X109525673Y-78312770D01*
X109525665Y-78312775D01*
X109296595Y-78484254D01*
X109296577Y-78484270D01*
X109094253Y-78686594D01*
X109094237Y-78686612D01*
X108922758Y-78915682D01*
X108922753Y-78915690D01*
X108785618Y-79166833D01*
X108685611Y-79434962D01*
X108624787Y-79714566D01*
X108604373Y-79999998D01*
X107565635Y-79999998D01*
X107565433Y-79999290D01*
X107585649Y-79932409D01*
X107637023Y-79887893D01*
X107652734Y-79880568D01*
X107839139Y-79750047D01*
X108000047Y-79589139D01*
X108130568Y-79402734D01*
X108226739Y-79196496D01*
X108285635Y-78976692D01*
X108305468Y-78750000D01*
X108285635Y-78523308D01*
X108226739Y-78303504D01*
X108130568Y-78097266D01*
X108013319Y-77929815D01*
X108000045Y-77910858D01*
X107839141Y-77749954D01*
X107652734Y-77619432D01*
X107652732Y-77619431D01*
X107446497Y-77523261D01*
X107446488Y-77523258D01*
X107226697Y-77464366D01*
X107226693Y-77464365D01*
X107226692Y-77464365D01*
X107226691Y-77464364D01*
X107226686Y-77464364D01*
X107000002Y-77444532D01*
X106999998Y-77444532D01*
X106773313Y-77464364D01*
X106773302Y-77464366D01*
X106553511Y-77523258D01*
X106553502Y-77523261D01*
X106347267Y-77619431D01*
X106347265Y-77619432D01*
X106160858Y-77749954D01*
X105997632Y-77913181D01*
X105936309Y-77946666D01*
X105909951Y-77949500D01*
X102981940Y-77949500D01*
X102914901Y-77929815D01*
X102869146Y-77877011D01*
X102859202Y-77807853D01*
X102888227Y-77744297D01*
X102894259Y-77737819D01*
X104045259Y-76586819D01*
X104106582Y-76553334D01*
X104132940Y-76550500D01*
X131951327Y-76550500D01*
X131951328Y-76550499D01*
X132105980Y-76519737D01*
X132251662Y-76459394D01*
X132382772Y-76371789D01*
X137342742Y-71411819D01*
X137404065Y-71378334D01*
X137430423Y-71375500D01*
X137634986Y-71375500D01*
X137634991Y-71375500D01*
X137737780Y-71364999D01*
X137904317Y-71309814D01*
X138053638Y-71217711D01*
X138177694Y-71093655D01*
X138269797Y-70944334D01*
X138324982Y-70777797D01*
X138335483Y-70675008D01*
X138335483Y-69669440D01*
X138355168Y-69602401D01*
X138407972Y-69556646D01*
X138477130Y-69546702D01*
X138540686Y-69575727D01*
X138547164Y-69581759D01*
X138848164Y-69882759D01*
X138881649Y-69944082D01*
X138884483Y-69970440D01*
X138884483Y-70675015D01*
X138894983Y-70777795D01*
X138894984Y-70777797D01*
X138922576Y-70861065D01*
X138950169Y-70944335D01*
X138950170Y-70944337D01*
X139042269Y-71093651D01*
X139042272Y-71093655D01*
X139166327Y-71217710D01*
X139166331Y-71217713D01*
X139315645Y-71309812D01*
X139315647Y-71309813D01*
X139315649Y-71309814D01*
X139482186Y-71364999D01*
X139584975Y-71375500D01*
X139584980Y-71375500D01*
X140609986Y-71375500D01*
X140609991Y-71375500D01*
X140712780Y-71364999D01*
X140879317Y-71309814D01*
X141028638Y-71217711D01*
X141152694Y-71093655D01*
X141244797Y-70944334D01*
X141299982Y-70777797D01*
X141310483Y-70675008D01*
X141310483Y-69324992D01*
X141299982Y-69222203D01*
X141244797Y-69055666D01*
X141231935Y-69034814D01*
X141152696Y-68906348D01*
X141152693Y-68906344D01*
X141028638Y-68782289D01*
X141028634Y-68782286D01*
X140879320Y-68690187D01*
X140879318Y-68690186D01*
X140796048Y-68662593D01*
X140712780Y-68635001D01*
X140712778Y-68635000D01*
X140609998Y-68624500D01*
X140609991Y-68624500D01*
X139905423Y-68624500D01*
X139838384Y-68604815D01*
X139817742Y-68588181D01*
X139107775Y-67878213D01*
X139107771Y-67878210D01*
X138976668Y-67790609D01*
X138976655Y-67790602D01*
X138830984Y-67730264D01*
X138830972Y-67730261D01*
X138676328Y-67699500D01*
X138676325Y-67699500D01*
X137014717Y-67699500D01*
X136947678Y-67679815D01*
X136901923Y-67627011D01*
X136891979Y-67557853D01*
X136893100Y-67551308D01*
X136910483Y-67463920D01*
X136910483Y-67316079D01*
X136881642Y-67171092D01*
X136881641Y-67171091D01*
X136881641Y-67171087D01*
X136834504Y-67057288D01*
X136825070Y-67034511D01*
X136825063Y-67034498D01*
X136742934Y-66911584D01*
X136742931Y-66911580D01*
X136639161Y-66807810D01*
X136605676Y-66746487D01*
X136609895Y-66687486D01*
X136592701Y-66705235D01*
X136524673Y-66721168D01*
X136484104Y-66711920D01*
X136378900Y-66668343D01*
X136378890Y-66668340D01*
X136233903Y-66639500D01*
X136233901Y-66639500D01*
X136086065Y-66639500D01*
X136086063Y-66639500D01*
X135941075Y-66668340D01*
X135941065Y-66668343D01*
X135804494Y-66724912D01*
X135804481Y-66724919D01*
X135681567Y-66807048D01*
X135681563Y-66807051D01*
X135577034Y-66911580D01*
X135577031Y-66911584D01*
X135494902Y-67034498D01*
X135494895Y-67034511D01*
X135438326Y-67171082D01*
X135438323Y-67171092D01*
X135409483Y-67316079D01*
X135409483Y-67316082D01*
X135409483Y-67463918D01*
X135409483Y-67463920D01*
X135409482Y-67463920D01*
X135426866Y-67551308D01*
X135420639Y-67620900D01*
X135377776Y-67676077D01*
X135311887Y-67699322D01*
X135305249Y-67699500D01*
X134822643Y-67699500D01*
X134755604Y-67679815D01*
X134709849Y-67627011D01*
X134699285Y-67588102D01*
X134695526Y-67551308D01*
X134689999Y-67497203D01*
X134634814Y-67330666D01*
X134542712Y-67181344D01*
X134448695Y-67087327D01*
X134415210Y-67026004D01*
X134420194Y-66956312D01*
X134448695Y-66911964D01*
X134542317Y-66818342D01*
X134634356Y-66669124D01*
X134634358Y-66669119D01*
X134689505Y-66502697D01*
X134689506Y-66502690D01*
X134699999Y-66399986D01*
X134700000Y-66399973D01*
X134700000Y-66250000D01*
X132300001Y-66250000D01*
X132300001Y-66399986D01*
X132310494Y-66502697D01*
X132365641Y-66669119D01*
X132365643Y-66669124D01*
X132457684Y-66818345D01*
X132551304Y-66911965D01*
X132584789Y-66973288D01*
X132579805Y-67042980D01*
X132551305Y-67087327D01*
X132457287Y-67181345D01*
X132365187Y-67330663D01*
X132365186Y-67330666D01*
X132310001Y-67497203D01*
X132310001Y-67497204D01*
X132310000Y-67497204D01*
X132299500Y-67599983D01*
X132299500Y-68400001D01*
X132299501Y-68400019D01*
X132310000Y-68502796D01*
X132310001Y-68502799D01*
X132365185Y-68669331D01*
X132365187Y-68669336D01*
X132378048Y-68690187D01*
X132457288Y-68818656D01*
X132581344Y-68942712D01*
X132730666Y-69034814D01*
X132897203Y-69089999D01*
X132999991Y-69100500D01*
X133420232Y-69100499D01*
X133487271Y-69120183D01*
X133489123Y-69121397D01*
X133620814Y-69209390D01*
X133620818Y-69209392D01*
X133620821Y-69209394D01*
X133766503Y-69269738D01*
X133921153Y-69300499D01*
X133921157Y-69300500D01*
X133921158Y-69300500D01*
X135785483Y-69300500D01*
X135852522Y-69320185D01*
X135898277Y-69372989D01*
X135909483Y-69424500D01*
X135909483Y-70529560D01*
X135889798Y-70596599D01*
X135873164Y-70617241D01*
X131577224Y-74913181D01*
X131515901Y-74946666D01*
X131489543Y-74949500D01*
X103981940Y-74949500D01*
X103914901Y-74929815D01*
X103869146Y-74877011D01*
X103859202Y-74807853D01*
X103888227Y-74744297D01*
X103894259Y-74737819D01*
X104545259Y-74086819D01*
X104606582Y-74053334D01*
X104632940Y-74050500D01*
X117328844Y-74050500D01*
X117328845Y-74050499D01*
X117483497Y-74019737D01*
X117629179Y-73959394D01*
X117760289Y-73871789D01*
X120720259Y-70911819D01*
X120781582Y-70878334D01*
X120807940Y-70875500D01*
X121634986Y-70875500D01*
X121634991Y-70875500D01*
X121737780Y-70864999D01*
X121904317Y-70809814D01*
X122053638Y-70717711D01*
X122177694Y-70593655D01*
X122269797Y-70444334D01*
X122324982Y-70277797D01*
X122335483Y-70175008D01*
X122335483Y-68824992D01*
X122335482Y-68824984D01*
X122884483Y-68824984D01*
X122884483Y-70175015D01*
X122894983Y-70277795D01*
X122894984Y-70277797D01*
X122903446Y-70303334D01*
X122950169Y-70444335D01*
X122950170Y-70444337D01*
X123042269Y-70593651D01*
X123042272Y-70593655D01*
X123166327Y-70717710D01*
X123166331Y-70717713D01*
X123315645Y-70809812D01*
X123315647Y-70809813D01*
X123315649Y-70809814D01*
X123482186Y-70864999D01*
X123584975Y-70875500D01*
X123584980Y-70875500D01*
X124609986Y-70875500D01*
X124609991Y-70875500D01*
X124712780Y-70864999D01*
X124879317Y-70809814D01*
X125028638Y-70717711D01*
X125152694Y-70593655D01*
X125244797Y-70444334D01*
X125264294Y-70385495D01*
X125304067Y-70328051D01*
X125368583Y-70301228D01*
X125382000Y-70300500D01*
X127078844Y-70300500D01*
X127078845Y-70300499D01*
X127233497Y-70269737D01*
X127379179Y-70209394D01*
X127510289Y-70121789D01*
X128495259Y-69136817D01*
X128556582Y-69103333D01*
X128582940Y-69100499D01*
X129000002Y-69100499D01*
X129000008Y-69100499D01*
X129102797Y-69089999D01*
X129269334Y-69034814D01*
X129418656Y-68942712D01*
X129542712Y-68818656D01*
X129634814Y-68669334D01*
X129689999Y-68502797D01*
X129700500Y-68400009D01*
X129700499Y-67599992D01*
X129699284Y-67588102D01*
X129689999Y-67497203D01*
X129689998Y-67497200D01*
X129650569Y-67378212D01*
X129634814Y-67330666D01*
X129542712Y-67181344D01*
X129448695Y-67087327D01*
X129415210Y-67026004D01*
X129420194Y-66956312D01*
X129448695Y-66911964D01*
X129542317Y-66818342D01*
X129634356Y-66669124D01*
X129634358Y-66669119D01*
X129689505Y-66502697D01*
X129689506Y-66502690D01*
X129699999Y-66399986D01*
X129700000Y-66399973D01*
X129700000Y-66250000D01*
X127300001Y-66250000D01*
X127300001Y-66399986D01*
X127310494Y-66502697D01*
X127365641Y-66669119D01*
X127365643Y-66669124D01*
X127457684Y-66818345D01*
X127551304Y-66911965D01*
X127584789Y-66973288D01*
X127579805Y-67042980D01*
X127551305Y-67087327D01*
X127457287Y-67181345D01*
X127365187Y-67330663D01*
X127365186Y-67330666D01*
X127310001Y-67497203D01*
X127310001Y-67497204D01*
X127310000Y-67497204D01*
X127299500Y-67599983D01*
X127299500Y-68017059D01*
X127279815Y-68084098D01*
X127263181Y-68104740D01*
X126704741Y-68663181D01*
X126643418Y-68696666D01*
X126617060Y-68699500D01*
X125382000Y-68699500D01*
X125314961Y-68679815D01*
X125269206Y-68627011D01*
X125264294Y-68614504D01*
X125255571Y-68588181D01*
X125244797Y-68555666D01*
X125152694Y-68406345D01*
X125028638Y-68282289D01*
X125028634Y-68282286D01*
X124879320Y-68190187D01*
X124879318Y-68190186D01*
X124796048Y-68162593D01*
X124712780Y-68135001D01*
X124712778Y-68135000D01*
X124609998Y-68124500D01*
X124609991Y-68124500D01*
X123584975Y-68124500D01*
X123584967Y-68124500D01*
X123482187Y-68135000D01*
X123482186Y-68135001D01*
X123315647Y-68190186D01*
X123315645Y-68190187D01*
X123166331Y-68282286D01*
X123166327Y-68282289D01*
X123042272Y-68406344D01*
X123042269Y-68406348D01*
X122950170Y-68555662D01*
X122950169Y-68555664D01*
X122894984Y-68722203D01*
X122894983Y-68722204D01*
X122884483Y-68824984D01*
X122335482Y-68824984D01*
X122324982Y-68722203D01*
X122269797Y-68555666D01*
X122177694Y-68406345D01*
X122053638Y-68282289D01*
X122053634Y-68282286D01*
X121904320Y-68190187D01*
X121904318Y-68190186D01*
X121821048Y-68162593D01*
X121737780Y-68135001D01*
X121737778Y-68135000D01*
X121634998Y-68124500D01*
X121634991Y-68124500D01*
X120786213Y-68124500D01*
X120719174Y-68104815D01*
X120673419Y-68052011D01*
X120663475Y-67982853D01*
X120692500Y-67919297D01*
X120698532Y-67912819D01*
X120742931Y-67868419D01*
X120742934Y-67868416D01*
X120825067Y-67745495D01*
X120881641Y-67608913D01*
X120903862Y-67497203D01*
X120910483Y-67463920D01*
X120910483Y-67316079D01*
X120881642Y-67171092D01*
X120881641Y-67171091D01*
X120881641Y-67171087D01*
X120834504Y-67057288D01*
X120825070Y-67034511D01*
X120825063Y-67034498D01*
X120742934Y-66911584D01*
X120742931Y-66911580D01*
X120639161Y-66807810D01*
X120605676Y-66746487D01*
X120609895Y-66687486D01*
X120592701Y-66705235D01*
X120524673Y-66721168D01*
X120484104Y-66711920D01*
X120378900Y-66668343D01*
X120378890Y-66668340D01*
X120233903Y-66639500D01*
X120233901Y-66639500D01*
X120086065Y-66639500D01*
X120086063Y-66639500D01*
X119941075Y-66668340D01*
X119941065Y-66668343D01*
X119804494Y-66724912D01*
X119804481Y-66724919D01*
X119681567Y-66807048D01*
X119681563Y-66807051D01*
X119577034Y-66911580D01*
X119577031Y-66911584D01*
X119494902Y-67034498D01*
X119494895Y-67034511D01*
X119438326Y-67171082D01*
X119438323Y-67171092D01*
X119409483Y-67316079D01*
X119409483Y-67316082D01*
X119409483Y-67463918D01*
X119409483Y-67463920D01*
X119409482Y-67463920D01*
X119438323Y-67608907D01*
X119438326Y-67608917D01*
X119494895Y-67745488D01*
X119494902Y-67745501D01*
X119577031Y-67868415D01*
X119577034Y-67868419D01*
X119681563Y-67972948D01*
X119681567Y-67972951D01*
X119804481Y-68055080D01*
X119804494Y-68055087D01*
X119941065Y-68111656D01*
X119941070Y-68111658D01*
X120005630Y-68124500D01*
X120064598Y-68136230D01*
X120126509Y-68168615D01*
X120161083Y-68229331D01*
X120157344Y-68299100D01*
X120128089Y-68345528D01*
X120067269Y-68406348D01*
X119975170Y-68555662D01*
X119975169Y-68555664D01*
X119919984Y-68722203D01*
X119919983Y-68722204D01*
X119909483Y-68824984D01*
X119909483Y-69407077D01*
X119889798Y-69474116D01*
X119873164Y-69494758D01*
X116954741Y-72413181D01*
X116893418Y-72446666D01*
X116867060Y-72449500D01*
X104441905Y-72449500D01*
X104374866Y-72429815D01*
X104329111Y-72377011D01*
X104319167Y-72307853D01*
X104348192Y-72244297D01*
X104354224Y-72237819D01*
X104999527Y-71592516D01*
X105700944Y-70891098D01*
X105749617Y-70861076D01*
X105904317Y-70809814D01*
X106053638Y-70717711D01*
X106177694Y-70593655D01*
X106269797Y-70444334D01*
X106324982Y-70277797D01*
X106335483Y-70175008D01*
X106335483Y-68824992D01*
X106335482Y-68824984D01*
X106884483Y-68824984D01*
X106884483Y-70175015D01*
X106894983Y-70277795D01*
X106894984Y-70277797D01*
X106903446Y-70303334D01*
X106950169Y-70444335D01*
X106950170Y-70444337D01*
X107042269Y-70593651D01*
X107042272Y-70593655D01*
X107166327Y-70717710D01*
X107166331Y-70717713D01*
X107315645Y-70809812D01*
X107315647Y-70809813D01*
X107315649Y-70809814D01*
X107482186Y-70864999D01*
X107584975Y-70875500D01*
X107584980Y-70875500D01*
X108609986Y-70875500D01*
X108609991Y-70875500D01*
X108712780Y-70864999D01*
X108879317Y-70809814D01*
X109028638Y-70717711D01*
X109152694Y-70593655D01*
X109244797Y-70444334D01*
X109299982Y-70277797D01*
X109310483Y-70175008D01*
X109310483Y-69470440D01*
X109330168Y-69403401D01*
X109346802Y-69382759D01*
X109892742Y-68836819D01*
X109954065Y-68803334D01*
X109980423Y-68800500D01*
X111387769Y-68800500D01*
X111454808Y-68820185D01*
X111475450Y-68836818D01*
X111581344Y-68942712D01*
X111730666Y-69034814D01*
X111897203Y-69089999D01*
X111999991Y-69100500D01*
X113000008Y-69100499D01*
X113000016Y-69100498D01*
X113000019Y-69100498D01*
X113056302Y-69094748D01*
X113102797Y-69089999D01*
X113269334Y-69034814D01*
X113418656Y-68942712D01*
X113542712Y-68818656D01*
X113634814Y-68669334D01*
X113689999Y-68502797D01*
X113700500Y-68400009D01*
X113700499Y-67599992D01*
X113699284Y-67588102D01*
X113689999Y-67497203D01*
X113689998Y-67497200D01*
X113650569Y-67378212D01*
X113634814Y-67330666D01*
X113542712Y-67181344D01*
X113448695Y-67087327D01*
X113415210Y-67026004D01*
X113420194Y-66956312D01*
X113448695Y-66911964D01*
X113542317Y-66818342D01*
X113634356Y-66669124D01*
X113634358Y-66669119D01*
X113689505Y-66502697D01*
X113689506Y-66502690D01*
X113699999Y-66399986D01*
X113700000Y-66399973D01*
X113700000Y-66250000D01*
X111300001Y-66250000D01*
X111300001Y-66399986D01*
X111310494Y-66502697D01*
X111365641Y-66669119D01*
X111365643Y-66669124D01*
X111457684Y-66818345D01*
X111551304Y-66911965D01*
X111584789Y-66973288D01*
X111579805Y-67042980D01*
X111551304Y-67087327D01*
X111475450Y-67163181D01*
X111414127Y-67196666D01*
X111387769Y-67199500D01*
X109518637Y-67199500D01*
X109363992Y-67230261D01*
X109363980Y-67230264D01*
X109321315Y-67247936D01*
X109321316Y-67247937D01*
X109218306Y-67290604D01*
X109218297Y-67290609D01*
X109087195Y-67378209D01*
X109087193Y-67378212D01*
X108377224Y-68088181D01*
X108315901Y-68121666D01*
X108289543Y-68124500D01*
X107584967Y-68124500D01*
X107482187Y-68135000D01*
X107482186Y-68135001D01*
X107315647Y-68190186D01*
X107315645Y-68190187D01*
X107166331Y-68282286D01*
X107166327Y-68282289D01*
X107042272Y-68406344D01*
X107042269Y-68406348D01*
X106950170Y-68555662D01*
X106950169Y-68555664D01*
X106894984Y-68722203D01*
X106894983Y-68722204D01*
X106884483Y-68824984D01*
X106335482Y-68824984D01*
X106324982Y-68722203D01*
X106269797Y-68555666D01*
X106177694Y-68406345D01*
X106053638Y-68282289D01*
X106053634Y-68282286D01*
X105904320Y-68190187D01*
X105904318Y-68190186D01*
X105821048Y-68162593D01*
X105737780Y-68135001D01*
X105737778Y-68135000D01*
X105634998Y-68124500D01*
X105634991Y-68124500D01*
X104786213Y-68124500D01*
X104719174Y-68104815D01*
X104673419Y-68052011D01*
X104663475Y-67982853D01*
X104692500Y-67919297D01*
X104698532Y-67912819D01*
X104742931Y-67868419D01*
X104742934Y-67868416D01*
X104825067Y-67745495D01*
X104881641Y-67608913D01*
X104903862Y-67497203D01*
X104910483Y-67463920D01*
X104910483Y-67316079D01*
X104881642Y-67171092D01*
X104881641Y-67171091D01*
X104881641Y-67171087D01*
X104834504Y-67057288D01*
X104825070Y-67034511D01*
X104825063Y-67034498D01*
X104742934Y-66911584D01*
X104742931Y-66911580D01*
X104639161Y-66807810D01*
X104605676Y-66746487D01*
X104609895Y-66687486D01*
X104592701Y-66705235D01*
X104524673Y-66721168D01*
X104484104Y-66711920D01*
X104378900Y-66668343D01*
X104378890Y-66668340D01*
X104233903Y-66639500D01*
X104233901Y-66639500D01*
X104086065Y-66639500D01*
X104086063Y-66639500D01*
X103941075Y-66668340D01*
X103941065Y-66668343D01*
X103804494Y-66724912D01*
X103804481Y-66724919D01*
X103681567Y-66807048D01*
X103681563Y-66807051D01*
X103577034Y-66911580D01*
X103577031Y-66911584D01*
X103494902Y-67034498D01*
X103494895Y-67034511D01*
X103438326Y-67171082D01*
X103438323Y-67171092D01*
X103409483Y-67316079D01*
X103409483Y-67316082D01*
X103409483Y-67463918D01*
X103409483Y-67463920D01*
X103409482Y-67463920D01*
X103438323Y-67608907D01*
X103438326Y-67608917D01*
X103494895Y-67745488D01*
X103494902Y-67745501D01*
X103577031Y-67868415D01*
X103577034Y-67868419D01*
X103681563Y-67972948D01*
X103681567Y-67972951D01*
X103804481Y-68055080D01*
X103804494Y-68055087D01*
X103941065Y-68111656D01*
X103941070Y-68111658D01*
X104005630Y-68124500D01*
X104064598Y-68136230D01*
X104126509Y-68168615D01*
X104161083Y-68229331D01*
X104157344Y-68299100D01*
X104128089Y-68345528D01*
X104067269Y-68406348D01*
X103975170Y-68555662D01*
X103975169Y-68555664D01*
X103919984Y-68722203D01*
X103919983Y-68722204D01*
X103909483Y-68824984D01*
X103909483Y-70175015D01*
X103919984Y-70277798D01*
X103928308Y-70302918D01*
X103930710Y-70372746D01*
X103898283Y-70429603D01*
X98067664Y-76260223D01*
X98006341Y-76293708D01*
X97936649Y-76288724D01*
X97892302Y-76260223D01*
X95510292Y-73878213D01*
X95510288Y-73878210D01*
X95379185Y-73790609D01*
X95379172Y-73790602D01*
X95233501Y-73730264D01*
X95233489Y-73730261D01*
X95078845Y-73699500D01*
X95078842Y-73699500D01*
X84443769Y-73699500D01*
X84376730Y-73679815D01*
X84330975Y-73627011D01*
X84321031Y-73557853D01*
X84327587Y-73532167D01*
X84339502Y-73500220D01*
X84374091Y-73407483D01*
X84380500Y-73347873D01*
X84380499Y-71652128D01*
X84374091Y-71592517D01*
X84339567Y-71499954D01*
X84323797Y-71457671D01*
X84323793Y-71457664D01*
X84237547Y-71342455D01*
X84237544Y-71342452D01*
X84122335Y-71256206D01*
X84122328Y-71256202D01*
X83987482Y-71205908D01*
X83987483Y-71205908D01*
X83927883Y-71199501D01*
X83927881Y-71199500D01*
X83927873Y-71199500D01*
X83927864Y-71199500D01*
X82232129Y-71199500D01*
X82232123Y-71199501D01*
X82172516Y-71205908D01*
X82037671Y-71256202D01*
X82037664Y-71256206D01*
X81922455Y-71342452D01*
X81922452Y-71342455D01*
X81836206Y-71457664D01*
X81836202Y-71457671D01*
X81785908Y-71592516D01*
X81782137Y-71627596D01*
X81755398Y-71692146D01*
X81698006Y-71731994D01*
X81628180Y-71734487D01*
X81568092Y-71698834D01*
X81557273Y-71685462D01*
X81540045Y-71660858D01*
X81379141Y-71499954D01*
X81192734Y-71369432D01*
X81192732Y-71369431D01*
X80986497Y-71273261D01*
X80986488Y-71273258D01*
X80766697Y-71214366D01*
X80766693Y-71214365D01*
X80766692Y-71214365D01*
X80766691Y-71214364D01*
X80766686Y-71214364D01*
X80540002Y-71194532D01*
X80539998Y-71194532D01*
X80313313Y-71214364D01*
X80313302Y-71214366D01*
X80093511Y-71273258D01*
X80093502Y-71273261D01*
X79887267Y-71369431D01*
X79887265Y-71369432D01*
X79700858Y-71499954D01*
X79539954Y-71660858D01*
X79409432Y-71847265D01*
X79409431Y-71847267D01*
X79382382Y-71905275D01*
X79336209Y-71957714D01*
X79269016Y-71976866D01*
X79202135Y-71956650D01*
X79157618Y-71905275D01*
X79130686Y-71847520D01*
X79130568Y-71847266D01*
X79000047Y-71660861D01*
X79000045Y-71660858D01*
X78839141Y-71499954D01*
X78652734Y-71369432D01*
X78652732Y-71369431D01*
X78446497Y-71273261D01*
X78446488Y-71273258D01*
X78226697Y-71214366D01*
X78226687Y-71214364D01*
X78170692Y-71209465D01*
X78105624Y-71184012D01*
X78064646Y-71127420D01*
X78060769Y-71057658D01*
X78093818Y-70998258D01*
X78755259Y-70336819D01*
X78816582Y-70303334D01*
X78842940Y-70300500D01*
X87837966Y-70300500D01*
X87905005Y-70320185D01*
X87950760Y-70372989D01*
X87955672Y-70385496D01*
X87975169Y-70444334D01*
X87975170Y-70444337D01*
X88067269Y-70593651D01*
X88067272Y-70593655D01*
X88191327Y-70717710D01*
X88191331Y-70717713D01*
X88340645Y-70809812D01*
X88340647Y-70809813D01*
X88340649Y-70809814D01*
X88507186Y-70864999D01*
X88609975Y-70875500D01*
X88609980Y-70875500D01*
X89634986Y-70875500D01*
X89634991Y-70875500D01*
X89737780Y-70864999D01*
X89904317Y-70809814D01*
X90053638Y-70717711D01*
X90177694Y-70593655D01*
X90269797Y-70444334D01*
X90324982Y-70277797D01*
X90335483Y-70175008D01*
X90335483Y-68824992D01*
X90335482Y-68824984D01*
X90884483Y-68824984D01*
X90884483Y-70175015D01*
X90894983Y-70277795D01*
X90894984Y-70277797D01*
X90903446Y-70303334D01*
X90950169Y-70444335D01*
X90950170Y-70444337D01*
X91042269Y-70593651D01*
X91042272Y-70593655D01*
X91166327Y-70717710D01*
X91166331Y-70717713D01*
X91315645Y-70809812D01*
X91315647Y-70809813D01*
X91315649Y-70809814D01*
X91482186Y-70864999D01*
X91584975Y-70875500D01*
X91584980Y-70875500D01*
X92609986Y-70875500D01*
X92609991Y-70875500D01*
X92712780Y-70864999D01*
X92879317Y-70809814D01*
X93028638Y-70717711D01*
X93152694Y-70593655D01*
X93244797Y-70444334D01*
X93299982Y-70277797D01*
X93310483Y-70175008D01*
X93310483Y-69470440D01*
X93330168Y-69403401D01*
X93346802Y-69382759D01*
X93892742Y-68836819D01*
X93954065Y-68803334D01*
X93980423Y-68800500D01*
X95387769Y-68800500D01*
X95454808Y-68820185D01*
X95475450Y-68836818D01*
X95581344Y-68942712D01*
X95730666Y-69034814D01*
X95897203Y-69089999D01*
X95999991Y-69100500D01*
X97000008Y-69100499D01*
X97000016Y-69100498D01*
X97000019Y-69100498D01*
X97056302Y-69094748D01*
X97102797Y-69089999D01*
X97269334Y-69034814D01*
X97418656Y-68942712D01*
X97542712Y-68818656D01*
X97634814Y-68669334D01*
X97689999Y-68502797D01*
X97700500Y-68400009D01*
X97700499Y-67599992D01*
X97699284Y-67588102D01*
X97689999Y-67497203D01*
X97689998Y-67497200D01*
X97650569Y-67378212D01*
X97634814Y-67330666D01*
X97542712Y-67181344D01*
X97448695Y-67087327D01*
X97415210Y-67026004D01*
X97420194Y-66956312D01*
X97448695Y-66911964D01*
X97542317Y-66818342D01*
X97634356Y-66669124D01*
X97634358Y-66669119D01*
X97689505Y-66502697D01*
X97689506Y-66502690D01*
X97699999Y-66399986D01*
X97700000Y-66399973D01*
X97700000Y-66250000D01*
X95300001Y-66250000D01*
X95300001Y-66399986D01*
X95310494Y-66502697D01*
X95365641Y-66669119D01*
X95365643Y-66669124D01*
X95457684Y-66818345D01*
X95551304Y-66911965D01*
X95584789Y-66973288D01*
X95579805Y-67042980D01*
X95551304Y-67087327D01*
X95475450Y-67163181D01*
X95414127Y-67196666D01*
X95387769Y-67199500D01*
X93518637Y-67199500D01*
X93363992Y-67230261D01*
X93363980Y-67230264D01*
X93321315Y-67247936D01*
X93321316Y-67247937D01*
X93218306Y-67290604D01*
X93218297Y-67290609D01*
X93087195Y-67378209D01*
X93087193Y-67378212D01*
X92377224Y-68088181D01*
X92315901Y-68121666D01*
X92289543Y-68124500D01*
X91584967Y-68124500D01*
X91482187Y-68135000D01*
X91482186Y-68135001D01*
X91315647Y-68190186D01*
X91315645Y-68190187D01*
X91166331Y-68282286D01*
X91166327Y-68282289D01*
X91042272Y-68406344D01*
X91042269Y-68406348D01*
X90950170Y-68555662D01*
X90950169Y-68555664D01*
X90894984Y-68722203D01*
X90894983Y-68722204D01*
X90884483Y-68824984D01*
X90335482Y-68824984D01*
X90324982Y-68722203D01*
X90269797Y-68555666D01*
X90177694Y-68406345D01*
X90053638Y-68282289D01*
X90053634Y-68282286D01*
X89904320Y-68190187D01*
X89904318Y-68190186D01*
X89821048Y-68162593D01*
X89737780Y-68135001D01*
X89737778Y-68135000D01*
X89634998Y-68124500D01*
X89634991Y-68124500D01*
X88786213Y-68124500D01*
X88719174Y-68104815D01*
X88673419Y-68052011D01*
X88663475Y-67982853D01*
X88692500Y-67919297D01*
X88698532Y-67912819D01*
X88742931Y-67868419D01*
X88742934Y-67868416D01*
X88825067Y-67745495D01*
X88881641Y-67608913D01*
X88903862Y-67497203D01*
X88910483Y-67463920D01*
X88910483Y-67316079D01*
X88881642Y-67171092D01*
X88881641Y-67171091D01*
X88881641Y-67171087D01*
X88834504Y-67057288D01*
X88825070Y-67034511D01*
X88825063Y-67034498D01*
X88742934Y-66911584D01*
X88742931Y-66911580D01*
X88639161Y-66807810D01*
X88605676Y-66746487D01*
X88609895Y-66687486D01*
X88592701Y-66705235D01*
X88524673Y-66721168D01*
X88484104Y-66711920D01*
X88378900Y-66668343D01*
X88378890Y-66668340D01*
X88233903Y-66639500D01*
X88233901Y-66639500D01*
X88086065Y-66639500D01*
X88086063Y-66639500D01*
X87941075Y-66668340D01*
X87941065Y-66668343D01*
X87804494Y-66724912D01*
X87804481Y-66724919D01*
X87681567Y-66807048D01*
X87681563Y-66807051D01*
X87577034Y-66911580D01*
X87577031Y-66911584D01*
X87494902Y-67034498D01*
X87494895Y-67034511D01*
X87438326Y-67171082D01*
X87438323Y-67171092D01*
X87409483Y-67316079D01*
X87409483Y-67316082D01*
X87409483Y-67463918D01*
X87409483Y-67463920D01*
X87409482Y-67463920D01*
X87438323Y-67608907D01*
X87438326Y-67608917D01*
X87494895Y-67745488D01*
X87494902Y-67745501D01*
X87577031Y-67868415D01*
X87577034Y-67868419D01*
X87681563Y-67972948D01*
X87681567Y-67972951D01*
X87804481Y-68055080D01*
X87804494Y-68055087D01*
X87941065Y-68111656D01*
X87941070Y-68111658D01*
X88005630Y-68124500D01*
X88064598Y-68136230D01*
X88126509Y-68168615D01*
X88161083Y-68229331D01*
X88157344Y-68299100D01*
X88128089Y-68345528D01*
X88067269Y-68406348D01*
X87975170Y-68555662D01*
X87975169Y-68555665D01*
X87955672Y-68614504D01*
X87915899Y-68671949D01*
X87851383Y-68698772D01*
X87837966Y-68699500D01*
X82296538Y-68699500D01*
X82229499Y-68679815D01*
X82183744Y-68627011D01*
X82173800Y-68557853D01*
X82178832Y-68536496D01*
X82189999Y-68502797D01*
X82200500Y-68400009D01*
X82200499Y-67599992D01*
X82199284Y-67588102D01*
X82189999Y-67497203D01*
X82189998Y-67497200D01*
X82150569Y-67378212D01*
X82134814Y-67330666D01*
X82042712Y-67181344D01*
X81948695Y-67087327D01*
X81915210Y-67026004D01*
X81920194Y-66956312D01*
X81948695Y-66911964D01*
X82042317Y-66818342D01*
X82134356Y-66669124D01*
X82134358Y-66669119D01*
X82189505Y-66502697D01*
X82189506Y-66502690D01*
X82199999Y-66399986D01*
X82200000Y-66399973D01*
X82200000Y-66250000D01*
X79800001Y-66250000D01*
X79800001Y-66399986D01*
X79810494Y-66502697D01*
X79865641Y-66669119D01*
X79865643Y-66669124D01*
X79957684Y-66818345D01*
X80051304Y-66911965D01*
X80084789Y-66973288D01*
X80079805Y-67042980D01*
X80051304Y-67087327D01*
X79975450Y-67163181D01*
X79914127Y-67196666D01*
X79887769Y-67199500D01*
X77518637Y-67199500D01*
X77363992Y-67230261D01*
X77363980Y-67230264D01*
X77321315Y-67247936D01*
X77321316Y-67247937D01*
X77218306Y-67290604D01*
X77218297Y-67290609D01*
X77087195Y-67378209D01*
X77087193Y-67378212D01*
X76377224Y-68088181D01*
X76315901Y-68121666D01*
X76289543Y-68124500D01*
X75584967Y-68124500D01*
X75482187Y-68135000D01*
X75482186Y-68135001D01*
X75315647Y-68190186D01*
X75315645Y-68190187D01*
X75166331Y-68282286D01*
X75166327Y-68282289D01*
X75042272Y-68406344D01*
X75042269Y-68406348D01*
X74950170Y-68555662D01*
X74950169Y-68555664D01*
X74894984Y-68722203D01*
X74894983Y-68722204D01*
X74884483Y-68824984D01*
X74884483Y-70175015D01*
X74894983Y-70277795D01*
X74894984Y-70277797D01*
X74903446Y-70303334D01*
X74950169Y-70444335D01*
X74950170Y-70444337D01*
X75042269Y-70593651D01*
X75042272Y-70593655D01*
X75166327Y-70717710D01*
X75166331Y-70717713D01*
X75315645Y-70809812D01*
X75315647Y-70809813D01*
X75315649Y-70809814D01*
X75482186Y-70864999D01*
X75584975Y-70875500D01*
X75653059Y-70875500D01*
X75720098Y-70895185D01*
X75765853Y-70947989D01*
X75775797Y-71017147D01*
X75746772Y-71080703D01*
X75740748Y-71087172D01*
X75700501Y-71127420D01*
X75660326Y-71167595D01*
X75599002Y-71201079D01*
X75561838Y-71203441D01*
X75460002Y-71194532D01*
X75459998Y-71194532D01*
X75233313Y-71214364D01*
X75233302Y-71214366D01*
X75013511Y-71273258D01*
X75013502Y-71273261D01*
X74807267Y-71369431D01*
X74807265Y-71369432D01*
X74620858Y-71499954D01*
X74459954Y-71660858D01*
X74329432Y-71847265D01*
X74329431Y-71847267D01*
X74302382Y-71905275D01*
X74256209Y-71957714D01*
X74189016Y-71976866D01*
X74122135Y-71956650D01*
X74077618Y-71905275D01*
X74050686Y-71847520D01*
X74050568Y-71847266D01*
X73920047Y-71660861D01*
X73920045Y-71660858D01*
X73759141Y-71499954D01*
X73572734Y-71369432D01*
X73572732Y-71369431D01*
X73366497Y-71273261D01*
X73366488Y-71273258D01*
X73146697Y-71214366D01*
X73146693Y-71214365D01*
X73146692Y-71214365D01*
X73146691Y-71214364D01*
X73146686Y-71214364D01*
X72920002Y-71194532D01*
X72919998Y-71194532D01*
X72864905Y-71199352D01*
X72796405Y-71185585D01*
X72746222Y-71136970D01*
X72730289Y-71068941D01*
X72753664Y-71003098D01*
X72766407Y-70988153D01*
X72842744Y-70911816D01*
X72904066Y-70878334D01*
X72930423Y-70875500D01*
X73634986Y-70875500D01*
X73634991Y-70875500D01*
X73737780Y-70864999D01*
X73904317Y-70809814D01*
X74053638Y-70717711D01*
X74177694Y-70593655D01*
X74269797Y-70444334D01*
X74324982Y-70277797D01*
X74335483Y-70175008D01*
X74335483Y-68824992D01*
X74324982Y-68722203D01*
X74269797Y-68555666D01*
X74177694Y-68406345D01*
X74053638Y-68282289D01*
X74053634Y-68282286D01*
X73904320Y-68190187D01*
X73904318Y-68190186D01*
X73821048Y-68162593D01*
X73737780Y-68135001D01*
X73737778Y-68135000D01*
X73634998Y-68124500D01*
X73634991Y-68124500D01*
X72786213Y-68124500D01*
X72719174Y-68104815D01*
X72673419Y-68052011D01*
X72663475Y-67982853D01*
X72692500Y-67919297D01*
X72698532Y-67912819D01*
X72742931Y-67868419D01*
X72742934Y-67868416D01*
X72825067Y-67745495D01*
X72881641Y-67608913D01*
X72903862Y-67497203D01*
X72910483Y-67463920D01*
X72910483Y-67316079D01*
X72881642Y-67171092D01*
X72881641Y-67171091D01*
X72881641Y-67171087D01*
X72834504Y-67057288D01*
X72825070Y-67034511D01*
X72825063Y-67034498D01*
X72742934Y-66911584D01*
X72742931Y-66911580D01*
X72639161Y-66807810D01*
X72605676Y-66746487D01*
X72609895Y-66687486D01*
X72592701Y-66705235D01*
X72524673Y-66721168D01*
X72484104Y-66711920D01*
X72378900Y-66668343D01*
X72378890Y-66668340D01*
X72233903Y-66639500D01*
X72233901Y-66639500D01*
X72086065Y-66639500D01*
X72086063Y-66639500D01*
X71941075Y-66668340D01*
X71941065Y-66668343D01*
X71804494Y-66724912D01*
X71804481Y-66724919D01*
X71681567Y-66807048D01*
X71681563Y-66807051D01*
X71577034Y-66911580D01*
X71577031Y-66911584D01*
X71494902Y-67034498D01*
X71494895Y-67034511D01*
X71438326Y-67171082D01*
X71438323Y-67171092D01*
X71409483Y-67316079D01*
X71409483Y-67316082D01*
X71409483Y-67463918D01*
X71409483Y-67463920D01*
X71409482Y-67463920D01*
X71438323Y-67608907D01*
X71438326Y-67608917D01*
X71494895Y-67745488D01*
X71494902Y-67745501D01*
X71577031Y-67868415D01*
X71577034Y-67868419D01*
X71681563Y-67972948D01*
X71681567Y-67972951D01*
X71804481Y-68055080D01*
X71804494Y-68055087D01*
X71941065Y-68111656D01*
X71941070Y-68111658D01*
X72005630Y-68124500D01*
X72064598Y-68136230D01*
X72126509Y-68168615D01*
X72161083Y-68229331D01*
X72157344Y-68299100D01*
X72128089Y-68345528D01*
X72067269Y-68406348D01*
X71975170Y-68555662D01*
X71975169Y-68555664D01*
X71919984Y-68722203D01*
X71919983Y-68722204D01*
X71909483Y-68824984D01*
X71909483Y-69529559D01*
X71889798Y-69596598D01*
X71873164Y-69617240D01*
X70319720Y-71170683D01*
X70258397Y-71204168D01*
X70242848Y-71206530D01*
X70153312Y-71214364D01*
X70153302Y-71214366D01*
X69933511Y-71273258D01*
X69933502Y-71273261D01*
X69727267Y-71369431D01*
X69727265Y-71369432D01*
X69540858Y-71499954D01*
X69379954Y-71660858D01*
X69249433Y-71847264D01*
X69249432Y-71847266D01*
X69249315Y-71847518D01*
X69222106Y-71905867D01*
X69175933Y-71958306D01*
X69108739Y-71977457D01*
X69041858Y-71957241D01*
X68997342Y-71905865D01*
X68970135Y-71847520D01*
X68970134Y-71847518D01*
X68839657Y-71661179D01*
X68678820Y-71500342D01*
X68492482Y-71369865D01*
X68286328Y-71273734D01*
X68090000Y-71221127D01*
X68090000Y-72184314D01*
X68085606Y-72179920D01*
X67994394Y-72127259D01*
X67892661Y-72100000D01*
X67787339Y-72100000D01*
X67685606Y-72127259D01*
X67594394Y-72179920D01*
X67590000Y-72184314D01*
X67590000Y-71221127D01*
X67393671Y-71273734D01*
X67187517Y-71369865D01*
X67001179Y-71500342D01*
X66840342Y-71661179D01*
X66709865Y-71847517D01*
X66613734Y-72053673D01*
X66613730Y-72053682D01*
X66561127Y-72249999D01*
X66561128Y-72250000D01*
X67524314Y-72250000D01*
X67519920Y-72254394D01*
X67467259Y-72345606D01*
X67440000Y-72447339D01*
X67440000Y-72552661D01*
X67467259Y-72654394D01*
X67519920Y-72745606D01*
X67524314Y-72750000D01*
X66561128Y-72750000D01*
X66613730Y-72946317D01*
X66613734Y-72946326D01*
X66709865Y-73152482D01*
X66840342Y-73338820D01*
X67001179Y-73499657D01*
X67187517Y-73630134D01*
X67393673Y-73726265D01*
X67393682Y-73726269D01*
X67589999Y-73778872D01*
X67590000Y-73778871D01*
X67590000Y-72815686D01*
X67594394Y-72820080D01*
X67685606Y-72872741D01*
X67787339Y-72900000D01*
X67892661Y-72900000D01*
X67994394Y-72872741D01*
X68085606Y-72820080D01*
X68090000Y-72815686D01*
X68090000Y-73778872D01*
X68286317Y-73726269D01*
X68286326Y-73726265D01*
X68492482Y-73630134D01*
X68678820Y-73499657D01*
X68839657Y-73338820D01*
X68970132Y-73152484D01*
X68997341Y-73094134D01*
X69043513Y-73041695D01*
X69110707Y-73022542D01*
X69177588Y-73042757D01*
X69222106Y-73094133D01*
X69249431Y-73152732D01*
X69249432Y-73152734D01*
X69379954Y-73339141D01*
X69543181Y-73502368D01*
X69576666Y-73563691D01*
X69579500Y-73590049D01*
X69579500Y-73958846D01*
X69610261Y-74113489D01*
X69610264Y-74113501D01*
X69670602Y-74259172D01*
X69670609Y-74259185D01*
X69758210Y-74390288D01*
X69758213Y-74390292D01*
X71855741Y-76487819D01*
X71889226Y-76549142D01*
X71884242Y-76618834D01*
X71842370Y-76674767D01*
X71776906Y-76699184D01*
X71768060Y-76699500D01*
X70381153Y-76699500D01*
X70226510Y-76730260D01*
X70226502Y-76730262D01*
X70080824Y-76790604D01*
X70080814Y-76790609D01*
X69949711Y-76878210D01*
X69949707Y-76878213D01*
X68040326Y-78787594D01*
X67979003Y-78821079D01*
X67941838Y-78823441D01*
X67840002Y-78814532D01*
X67839998Y-78814532D01*
X67613313Y-78834364D01*
X67613302Y-78834366D01*
X67393511Y-78893258D01*
X67393502Y-78893261D01*
X67187267Y-78989431D01*
X67187265Y-78989432D01*
X67000858Y-79119954D01*
X66837632Y-79283181D01*
X66776309Y-79316666D01*
X66749951Y-79319500D01*
X63502940Y-79319500D01*
X63435901Y-79299815D01*
X63415259Y-79283181D01*
X57959302Y-73827224D01*
X57925817Y-73765901D01*
X57922983Y-73739543D01*
X57922983Y-70867506D01*
X57942668Y-70800467D01*
X57981885Y-70761968D01*
X58053638Y-70717711D01*
X58177694Y-70593655D01*
X58269797Y-70444334D01*
X58324982Y-70277797D01*
X58335483Y-70175008D01*
X58335483Y-68824992D01*
X58335482Y-68824984D01*
X58884483Y-68824984D01*
X58884483Y-70175015D01*
X58894983Y-70277795D01*
X58894984Y-70277797D01*
X58903446Y-70303334D01*
X58950169Y-70444335D01*
X58950170Y-70444337D01*
X59042269Y-70593651D01*
X59042272Y-70593655D01*
X59166327Y-70717710D01*
X59166331Y-70717713D01*
X59315645Y-70809812D01*
X59315647Y-70809813D01*
X59315649Y-70809814D01*
X59482186Y-70864999D01*
X59584975Y-70875500D01*
X59584980Y-70875500D01*
X60609986Y-70875500D01*
X60609991Y-70875500D01*
X60712780Y-70864999D01*
X60879317Y-70809814D01*
X61028638Y-70717711D01*
X61152694Y-70593655D01*
X61244797Y-70444334D01*
X61299982Y-70277797D01*
X61310483Y-70175008D01*
X61310483Y-69470440D01*
X61330168Y-69403401D01*
X61346802Y-69382759D01*
X61892742Y-68836819D01*
X61954065Y-68803334D01*
X61980423Y-68800500D01*
X63887769Y-68800500D01*
X63954808Y-68820185D01*
X63975450Y-68836818D01*
X64081344Y-68942712D01*
X64230666Y-69034814D01*
X64397203Y-69089999D01*
X64499991Y-69100500D01*
X65500008Y-69100499D01*
X65500016Y-69100498D01*
X65500019Y-69100498D01*
X65556302Y-69094748D01*
X65602797Y-69089999D01*
X65769334Y-69034814D01*
X65918656Y-68942712D01*
X66042712Y-68818656D01*
X66134814Y-68669334D01*
X66189999Y-68502797D01*
X66200500Y-68400009D01*
X66200499Y-67599992D01*
X66199284Y-67588102D01*
X66189999Y-67497203D01*
X66189998Y-67497200D01*
X66150569Y-67378212D01*
X66134814Y-67330666D01*
X66042712Y-67181344D01*
X65948695Y-67087327D01*
X65915210Y-67026004D01*
X65920194Y-66956312D01*
X65948695Y-66911964D01*
X66042317Y-66818342D01*
X66134356Y-66669124D01*
X66134358Y-66669119D01*
X66189505Y-66502697D01*
X66189506Y-66502690D01*
X66199999Y-66399986D01*
X66200000Y-66399973D01*
X66200000Y-66250000D01*
X63800001Y-66250000D01*
X63800001Y-66399986D01*
X63810494Y-66502697D01*
X63865641Y-66669119D01*
X63865643Y-66669124D01*
X63957684Y-66818345D01*
X64051304Y-66911965D01*
X64084789Y-66973288D01*
X64079805Y-67042980D01*
X64051304Y-67087327D01*
X63975450Y-67163181D01*
X63914127Y-67196666D01*
X63887769Y-67199500D01*
X61518637Y-67199500D01*
X61363992Y-67230261D01*
X61363980Y-67230264D01*
X61321315Y-67247936D01*
X61321316Y-67247937D01*
X61218306Y-67290604D01*
X61218297Y-67290609D01*
X61087195Y-67378209D01*
X61087193Y-67378212D01*
X60377224Y-68088181D01*
X60315901Y-68121666D01*
X60289543Y-68124500D01*
X59584967Y-68124500D01*
X59482187Y-68135000D01*
X59482186Y-68135001D01*
X59315647Y-68190186D01*
X59315645Y-68190187D01*
X59166331Y-68282286D01*
X59166327Y-68282289D01*
X59042272Y-68406344D01*
X59042269Y-68406348D01*
X58950170Y-68555662D01*
X58950169Y-68555664D01*
X58894984Y-68722203D01*
X58894983Y-68722204D01*
X58884483Y-68824984D01*
X58335482Y-68824984D01*
X58324982Y-68722203D01*
X58269797Y-68555666D01*
X58177694Y-68406345D01*
X58053638Y-68282289D01*
X58053634Y-68282286D01*
X57904320Y-68190187D01*
X57904318Y-68190186D01*
X57821048Y-68162593D01*
X57737780Y-68135001D01*
X57737778Y-68135000D01*
X57634998Y-68124500D01*
X57634991Y-68124500D01*
X56786213Y-68124500D01*
X56719174Y-68104815D01*
X56673419Y-68052011D01*
X56663475Y-67982853D01*
X56692500Y-67919297D01*
X56698532Y-67912819D01*
X56742931Y-67868419D01*
X56742934Y-67868416D01*
X56825067Y-67745495D01*
X56881641Y-67608913D01*
X56903862Y-67497203D01*
X56910483Y-67463920D01*
X56910483Y-67316079D01*
X56881642Y-67171092D01*
X56881641Y-67171091D01*
X56881641Y-67171087D01*
X56834504Y-67057288D01*
X56825070Y-67034511D01*
X56825063Y-67034498D01*
X56742934Y-66911584D01*
X56742931Y-66911580D01*
X56639161Y-66807810D01*
X56605676Y-66746487D01*
X56609895Y-66687486D01*
X56592701Y-66705235D01*
X56524673Y-66721168D01*
X56484104Y-66711920D01*
X56378900Y-66668343D01*
X56378890Y-66668340D01*
X56233903Y-66639500D01*
X56233901Y-66639500D01*
X56086065Y-66639500D01*
X56086063Y-66639500D01*
X55941075Y-66668340D01*
X55941065Y-66668343D01*
X55804494Y-66724912D01*
X55804481Y-66724919D01*
X55681567Y-66807048D01*
X55681563Y-66807051D01*
X55577034Y-66911580D01*
X55577031Y-66911584D01*
X55494902Y-67034498D01*
X55494895Y-67034511D01*
X55438326Y-67171082D01*
X55438323Y-67171092D01*
X55409483Y-67316079D01*
X55409483Y-67316082D01*
X55409483Y-67463918D01*
X55409483Y-67463920D01*
X55409482Y-67463920D01*
X55438323Y-67608907D01*
X55438326Y-67608917D01*
X55494895Y-67745488D01*
X55494902Y-67745501D01*
X55577031Y-67868415D01*
X55577034Y-67868419D01*
X55681563Y-67972948D01*
X55681567Y-67972951D01*
X55804481Y-68055080D01*
X55804494Y-68055087D01*
X55941065Y-68111656D01*
X55941070Y-68111658D01*
X56005630Y-68124500D01*
X56064598Y-68136230D01*
X56126509Y-68168615D01*
X56161083Y-68229331D01*
X56157344Y-68299100D01*
X56128089Y-68345528D01*
X56067269Y-68406348D01*
X55975170Y-68555662D01*
X55975169Y-68555664D01*
X55919984Y-68722203D01*
X55919983Y-68722204D01*
X55909483Y-68824984D01*
X55909483Y-70175015D01*
X55919983Y-70277795D01*
X55919984Y-70277797D01*
X55928446Y-70303334D01*
X55975169Y-70444335D01*
X55975170Y-70444337D01*
X56067269Y-70593651D01*
X56067272Y-70593655D01*
X56191328Y-70717711D01*
X56263080Y-70761968D01*
X56309804Y-70813915D01*
X56321983Y-70867506D01*
X56321983Y-74201329D01*
X56352744Y-74355972D01*
X56352747Y-74355984D01*
X56413085Y-74501655D01*
X56413092Y-74501668D01*
X56500693Y-74632771D01*
X56500696Y-74632775D01*
X62609707Y-80741786D01*
X62609711Y-80741789D01*
X62740814Y-80829390D01*
X62740827Y-80829397D01*
X62886498Y-80889735D01*
X62886503Y-80889737D01*
X63004328Y-80913174D01*
X63041153Y-80920499D01*
X63041156Y-80920500D01*
X63041158Y-80920500D01*
X63198842Y-80920500D01*
X66749951Y-80920500D01*
X66816990Y-80940185D01*
X66837632Y-80956819D01*
X67000858Y-81120045D01*
X67000861Y-81120047D01*
X67187266Y-81250568D01*
X67393504Y-81346739D01*
X67613308Y-81405635D01*
X67775230Y-81419801D01*
X67839998Y-81425468D01*
X67840000Y-81425468D01*
X67840002Y-81425468D01*
X67896673Y-81420509D01*
X68066692Y-81405635D01*
X68286496Y-81346739D01*
X68492734Y-81250568D01*
X68679139Y-81120047D01*
X68840047Y-80959139D01*
X68970568Y-80772734D01*
X68997618Y-80714724D01*
X69043790Y-80662285D01*
X69110983Y-80643133D01*
X69177865Y-80663348D01*
X69222382Y-80714725D01*
X69249429Y-80772728D01*
X69249432Y-80772734D01*
X69379954Y-80959141D01*
X69540858Y-81120045D01*
X69540861Y-81120047D01*
X69727266Y-81250568D01*
X69933504Y-81346739D01*
X70153308Y-81405635D01*
X70315230Y-81419801D01*
X70379998Y-81425468D01*
X70380000Y-81425468D01*
X70380002Y-81425468D01*
X70436673Y-81420509D01*
X70606692Y-81405635D01*
X70826496Y-81346739D01*
X71032734Y-81250568D01*
X71219139Y-81120047D01*
X71380047Y-80959139D01*
X71510568Y-80772734D01*
X71537618Y-80714724D01*
X71583790Y-80662285D01*
X71650983Y-80643133D01*
X71717865Y-80663348D01*
X71762382Y-80714725D01*
X71789429Y-80772728D01*
X71789432Y-80772734D01*
X71919954Y-80959141D01*
X72080858Y-81120045D01*
X72080861Y-81120047D01*
X72267266Y-81250568D01*
X72473504Y-81346739D01*
X72693308Y-81405635D01*
X72855230Y-81419801D01*
X72919998Y-81425468D01*
X72919999Y-81425468D01*
X72919999Y-81425467D01*
X72920000Y-81425468D01*
X73021840Y-81416557D01*
X73090337Y-81430323D01*
X73120327Y-81452404D01*
X74295742Y-82627819D01*
X74329227Y-82689142D01*
X74324243Y-82758834D01*
X74282371Y-82814767D01*
X74216907Y-82839184D01*
X74208061Y-82839500D01*
X54234483Y-82839500D01*
X54167444Y-82819815D01*
X54121689Y-82767011D01*
X54110483Y-82715500D01*
X54110483Y-62621902D01*
X55209483Y-62621902D01*
X55209483Y-62858097D01*
X55246429Y-63091368D01*
X55319416Y-63315996D01*
X55426640Y-63526433D01*
X55565466Y-63717510D01*
X55732473Y-63884517D01*
X55923550Y-64023343D01*
X56022974Y-64074002D01*
X56133986Y-64130566D01*
X56133988Y-64130566D01*
X56133991Y-64130568D01*
X56358615Y-64203553D01*
X56568450Y-64236787D01*
X56576845Y-64238117D01*
X56639979Y-64268046D01*
X56676911Y-64327357D01*
X56675913Y-64397220D01*
X56651538Y-64433981D01*
X56650410Y-64446873D01*
X57210574Y-65007037D01*
X57146990Y-65024075D01*
X57032976Y-65089901D01*
X56939884Y-65182993D01*
X56874058Y-65297007D01*
X56857020Y-65360591D01*
X56296857Y-64800428D01*
X56253316Y-64862613D01*
X56160881Y-65060840D01*
X56160877Y-65060849D01*
X56104272Y-65272105D01*
X56104270Y-65272115D01*
X56085208Y-65489999D01*
X56085208Y-65490000D01*
X56104270Y-65707884D01*
X56104272Y-65707894D01*
X56160877Y-65919150D01*
X56160881Y-65919159D01*
X56253316Y-66117387D01*
X56296857Y-66179571D01*
X56857020Y-65619408D01*
X56874058Y-65682993D01*
X56939884Y-65797007D01*
X57032976Y-65890099D01*
X57146990Y-65955925D01*
X57210573Y-65972962D01*
X56650410Y-66533125D01*
X56655084Y-66586553D01*
X56646594Y-66628793D01*
X56652532Y-66620862D01*
X56717996Y-66596445D01*
X56779247Y-66607747D01*
X56910823Y-66669101D01*
X56910832Y-66669105D01*
X57122088Y-66725710D01*
X57122098Y-66725712D01*
X57339982Y-66744775D01*
X57339984Y-66744775D01*
X57557867Y-66725712D01*
X57557877Y-66725710D01*
X57769133Y-66669105D01*
X57769147Y-66669100D01*
X57967366Y-66576669D01*
X57967368Y-66576668D01*
X58029554Y-66533124D01*
X57469393Y-65972962D01*
X57532976Y-65955925D01*
X57646990Y-65890099D01*
X57740082Y-65797007D01*
X57805908Y-65682993D01*
X57822945Y-65619409D01*
X58383107Y-66179570D01*
X58426649Y-66117388D01*
X58497323Y-65965825D01*
X58543495Y-65913386D01*
X58610689Y-65894233D01*
X58677570Y-65914448D01*
X58722088Y-65965824D01*
X58792880Y-66117638D01*
X58792881Y-66117639D01*
X58918385Y-66296877D01*
X59073106Y-66451598D01*
X59252344Y-66577102D01*
X59450653Y-66669575D01*
X59662006Y-66726207D01*
X59844909Y-66742208D01*
X59879981Y-66745277D01*
X59879983Y-66745277D01*
X59879985Y-66745277D01*
X59908237Y-66742805D01*
X60097960Y-66726207D01*
X60309313Y-66669575D01*
X60507622Y-66577102D01*
X60686860Y-66451598D01*
X60841581Y-66296877D01*
X60967085Y-66117639D01*
X61059558Y-65919330D01*
X61116190Y-65707977D01*
X61125635Y-65600013D01*
X63800000Y-65600013D01*
X63800000Y-65750000D01*
X64750000Y-65750000D01*
X65250000Y-65750000D01*
X66199999Y-65750000D01*
X66199999Y-65600028D01*
X66199998Y-65600013D01*
X66189505Y-65497302D01*
X66134358Y-65330880D01*
X66134356Y-65330875D01*
X66042315Y-65181654D01*
X65918345Y-65057684D01*
X65769124Y-64965643D01*
X65769119Y-64965641D01*
X65602697Y-64910494D01*
X65602690Y-64910493D01*
X65499986Y-64900000D01*
X65250000Y-64900000D01*
X65250000Y-65750000D01*
X64750000Y-65750000D01*
X64750000Y-64900000D01*
X64500029Y-64900000D01*
X64500012Y-64900001D01*
X64397302Y-64910494D01*
X64230880Y-64965641D01*
X64230875Y-64965643D01*
X64081654Y-65057684D01*
X63957684Y-65181654D01*
X63865643Y-65330875D01*
X63865641Y-65330880D01*
X63810494Y-65497302D01*
X63810493Y-65497309D01*
X63800000Y-65600013D01*
X61125635Y-65600013D01*
X61135260Y-65490000D01*
X61116190Y-65272023D01*
X61079862Y-65136446D01*
X61059560Y-65060677D01*
X61059559Y-65060676D01*
X61059558Y-65060670D01*
X60967085Y-64862362D01*
X60967082Y-64862358D01*
X60967082Y-64862357D01*
X60841582Y-64683124D01*
X60841579Y-64683121D01*
X60686860Y-64528402D01*
X60592101Y-64462051D01*
X60548478Y-64407475D01*
X60541286Y-64337977D01*
X60572808Y-64275622D01*
X60633038Y-64240209D01*
X60643829Y-64238005D01*
X60675271Y-64233024D01*
X60861351Y-64203553D01*
X61085975Y-64130568D01*
X61296416Y-64023343D01*
X61487493Y-63884517D01*
X61654500Y-63717510D01*
X61793326Y-63526433D01*
X61900551Y-63315992D01*
X61973536Y-63091368D01*
X62010483Y-62858097D01*
X62010483Y-62621902D01*
X71209483Y-62621902D01*
X71209483Y-62858097D01*
X71246429Y-63091368D01*
X71319416Y-63315996D01*
X71426640Y-63526433D01*
X71565466Y-63717510D01*
X71732473Y-63884517D01*
X71923550Y-64023343D01*
X72022974Y-64074002D01*
X72133986Y-64130566D01*
X72133988Y-64130566D01*
X72133991Y-64130568D01*
X72358615Y-64203553D01*
X72568450Y-64236787D01*
X72576845Y-64238117D01*
X72639979Y-64268046D01*
X72676911Y-64327357D01*
X72675913Y-64397220D01*
X72651538Y-64433981D01*
X72650410Y-64446873D01*
X73210574Y-65007037D01*
X73146990Y-65024075D01*
X73032976Y-65089901D01*
X72939884Y-65182993D01*
X72874058Y-65297007D01*
X72857020Y-65360591D01*
X72296857Y-64800428D01*
X72253316Y-64862613D01*
X72160881Y-65060840D01*
X72160877Y-65060849D01*
X72104272Y-65272105D01*
X72104270Y-65272115D01*
X72085208Y-65489999D01*
X72085208Y-65490000D01*
X72104270Y-65707884D01*
X72104272Y-65707894D01*
X72160877Y-65919150D01*
X72160881Y-65919159D01*
X72253316Y-66117387D01*
X72296857Y-66179571D01*
X72857020Y-65619408D01*
X72874058Y-65682993D01*
X72939884Y-65797007D01*
X73032976Y-65890099D01*
X73146990Y-65955925D01*
X73210573Y-65972962D01*
X72650410Y-66533125D01*
X72655084Y-66586553D01*
X72646594Y-66628793D01*
X72652532Y-66620862D01*
X72717996Y-66596445D01*
X72779247Y-66607747D01*
X72910823Y-66669101D01*
X72910832Y-66669105D01*
X73122088Y-66725710D01*
X73122098Y-66725712D01*
X73339982Y-66744775D01*
X73339984Y-66744775D01*
X73557867Y-66725712D01*
X73557877Y-66725710D01*
X73769133Y-66669105D01*
X73769147Y-66669100D01*
X73967366Y-66576669D01*
X73967368Y-66576668D01*
X74029554Y-66533124D01*
X73469393Y-65972962D01*
X73532976Y-65955925D01*
X73646990Y-65890099D01*
X73740082Y-65797007D01*
X73805908Y-65682993D01*
X73822945Y-65619409D01*
X74383107Y-66179570D01*
X74426649Y-66117388D01*
X74497323Y-65965825D01*
X74543495Y-65913386D01*
X74610689Y-65894233D01*
X74677570Y-65914448D01*
X74722088Y-65965824D01*
X74792880Y-66117638D01*
X74792881Y-66117639D01*
X74918385Y-66296877D01*
X75073106Y-66451598D01*
X75252344Y-66577102D01*
X75450653Y-66669575D01*
X75662006Y-66726207D01*
X75844909Y-66742208D01*
X75879981Y-66745277D01*
X75879983Y-66745277D01*
X75879985Y-66745277D01*
X75908237Y-66742805D01*
X76097960Y-66726207D01*
X76309313Y-66669575D01*
X76507622Y-66577102D01*
X76686860Y-66451598D01*
X76841581Y-66296877D01*
X76967085Y-66117639D01*
X77059558Y-65919330D01*
X77116190Y-65707977D01*
X77125635Y-65600013D01*
X79800000Y-65600013D01*
X79800000Y-65750000D01*
X80750000Y-65750000D01*
X81250000Y-65750000D01*
X82199999Y-65750000D01*
X82199999Y-65600028D01*
X82199998Y-65600013D01*
X82189505Y-65497302D01*
X82134358Y-65330880D01*
X82134356Y-65330875D01*
X82042315Y-65181654D01*
X81918345Y-65057684D01*
X81769124Y-64965643D01*
X81769119Y-64965641D01*
X81602697Y-64910494D01*
X81602690Y-64910493D01*
X81499986Y-64900000D01*
X81250000Y-64900000D01*
X81250000Y-65750000D01*
X80750000Y-65750000D01*
X80750000Y-64900000D01*
X80500029Y-64900000D01*
X80500012Y-64900001D01*
X80397302Y-64910494D01*
X80230880Y-64965641D01*
X80230875Y-64965643D01*
X80081654Y-65057684D01*
X79957684Y-65181654D01*
X79865643Y-65330875D01*
X79865641Y-65330880D01*
X79810494Y-65497302D01*
X79810493Y-65497309D01*
X79800000Y-65600013D01*
X77125635Y-65600013D01*
X77135260Y-65490000D01*
X77116190Y-65272023D01*
X77079862Y-65136446D01*
X77059560Y-65060677D01*
X77059559Y-65060676D01*
X77059558Y-65060670D01*
X76967085Y-64862362D01*
X76967082Y-64862358D01*
X76967082Y-64862357D01*
X76841582Y-64683124D01*
X76841579Y-64683121D01*
X76686860Y-64528402D01*
X76592101Y-64462051D01*
X76548478Y-64407475D01*
X76541286Y-64337977D01*
X76572808Y-64275622D01*
X76633038Y-64240209D01*
X76643829Y-64238005D01*
X76675271Y-64233024D01*
X76861351Y-64203553D01*
X77085975Y-64130568D01*
X77296416Y-64023343D01*
X77487493Y-63884517D01*
X77654500Y-63717510D01*
X77793326Y-63526433D01*
X77900551Y-63315992D01*
X77973536Y-63091368D01*
X78010483Y-62858097D01*
X78010483Y-62621902D01*
X87209483Y-62621902D01*
X87209483Y-62858097D01*
X87246429Y-63091368D01*
X87319416Y-63315996D01*
X87426640Y-63526433D01*
X87565466Y-63717510D01*
X87732473Y-63884517D01*
X87923550Y-64023343D01*
X88022974Y-64074002D01*
X88133986Y-64130566D01*
X88133988Y-64130566D01*
X88133991Y-64130568D01*
X88358615Y-64203553D01*
X88568450Y-64236787D01*
X88576845Y-64238117D01*
X88639979Y-64268046D01*
X88676911Y-64327357D01*
X88675913Y-64397220D01*
X88651538Y-64433981D01*
X88650410Y-64446873D01*
X89210574Y-65007037D01*
X89146990Y-65024075D01*
X89032976Y-65089901D01*
X88939884Y-65182993D01*
X88874058Y-65297007D01*
X88857020Y-65360591D01*
X88296857Y-64800428D01*
X88253316Y-64862613D01*
X88160881Y-65060840D01*
X88160877Y-65060849D01*
X88104272Y-65272105D01*
X88104270Y-65272115D01*
X88085208Y-65489999D01*
X88085208Y-65490000D01*
X88104270Y-65707884D01*
X88104272Y-65707894D01*
X88160877Y-65919150D01*
X88160881Y-65919159D01*
X88253316Y-66117387D01*
X88296857Y-66179571D01*
X88857020Y-65619408D01*
X88874058Y-65682993D01*
X88939884Y-65797007D01*
X89032976Y-65890099D01*
X89146990Y-65955925D01*
X89210573Y-65972962D01*
X88650410Y-66533125D01*
X88655084Y-66586553D01*
X88646594Y-66628793D01*
X88652532Y-66620862D01*
X88717996Y-66596445D01*
X88779247Y-66607747D01*
X88910823Y-66669101D01*
X88910832Y-66669105D01*
X89122088Y-66725710D01*
X89122098Y-66725712D01*
X89339982Y-66744775D01*
X89339984Y-66744775D01*
X89557867Y-66725712D01*
X89557877Y-66725710D01*
X89769133Y-66669105D01*
X89769147Y-66669100D01*
X89967366Y-66576669D01*
X89967368Y-66576668D01*
X90029554Y-66533124D01*
X89469393Y-65972962D01*
X89532976Y-65955925D01*
X89646990Y-65890099D01*
X89740082Y-65797007D01*
X89805908Y-65682993D01*
X89822945Y-65619409D01*
X90383107Y-66179570D01*
X90426649Y-66117388D01*
X90497323Y-65965825D01*
X90543495Y-65913386D01*
X90610689Y-65894233D01*
X90677570Y-65914448D01*
X90722088Y-65965824D01*
X90792880Y-66117638D01*
X90792881Y-66117639D01*
X90918385Y-66296877D01*
X91073106Y-66451598D01*
X91252344Y-66577102D01*
X91450653Y-66669575D01*
X91662006Y-66726207D01*
X91844909Y-66742208D01*
X91879981Y-66745277D01*
X91879983Y-66745277D01*
X91879985Y-66745277D01*
X91908237Y-66742805D01*
X92097960Y-66726207D01*
X92309313Y-66669575D01*
X92507622Y-66577102D01*
X92686860Y-66451598D01*
X92841581Y-66296877D01*
X92967085Y-66117639D01*
X93059558Y-65919330D01*
X93116190Y-65707977D01*
X93125635Y-65600013D01*
X95300000Y-65600013D01*
X95300000Y-65750000D01*
X96250000Y-65750000D01*
X96750000Y-65750000D01*
X97699999Y-65750000D01*
X97699999Y-65600028D01*
X97699998Y-65600013D01*
X97689505Y-65497302D01*
X97634358Y-65330880D01*
X97634356Y-65330875D01*
X97542315Y-65181654D01*
X97418345Y-65057684D01*
X97269124Y-64965643D01*
X97269119Y-64965641D01*
X97102697Y-64910494D01*
X97102690Y-64910493D01*
X96999986Y-64900000D01*
X96750000Y-64900000D01*
X96750000Y-65750000D01*
X96250000Y-65750000D01*
X96250000Y-64900000D01*
X96000029Y-64900000D01*
X96000012Y-64900001D01*
X95897302Y-64910494D01*
X95730880Y-64965641D01*
X95730875Y-64965643D01*
X95581654Y-65057684D01*
X95457684Y-65181654D01*
X95365643Y-65330875D01*
X95365641Y-65330880D01*
X95310494Y-65497302D01*
X95310493Y-65497309D01*
X95300000Y-65600013D01*
X93125635Y-65600013D01*
X93135260Y-65490000D01*
X93116190Y-65272023D01*
X93079862Y-65136446D01*
X93059560Y-65060677D01*
X93059559Y-65060676D01*
X93059558Y-65060670D01*
X92967085Y-64862362D01*
X92967082Y-64862358D01*
X92967082Y-64862357D01*
X92841582Y-64683124D01*
X92841579Y-64683121D01*
X92686860Y-64528402D01*
X92592101Y-64462051D01*
X92548478Y-64407475D01*
X92541286Y-64337977D01*
X92572808Y-64275622D01*
X92633038Y-64240209D01*
X92643829Y-64238005D01*
X92675271Y-64233024D01*
X92861351Y-64203553D01*
X93085975Y-64130568D01*
X93296416Y-64023343D01*
X93487493Y-63884517D01*
X93654500Y-63717510D01*
X93793326Y-63526433D01*
X93900551Y-63315992D01*
X93973536Y-63091368D01*
X94010483Y-62858097D01*
X94010483Y-62621902D01*
X103209483Y-62621902D01*
X103209483Y-62858097D01*
X103246429Y-63091368D01*
X103319416Y-63315996D01*
X103426640Y-63526433D01*
X103565466Y-63717510D01*
X103732473Y-63884517D01*
X103923550Y-64023343D01*
X104022974Y-64074002D01*
X104133986Y-64130566D01*
X104133988Y-64130566D01*
X104133991Y-64130568D01*
X104358615Y-64203553D01*
X104568450Y-64236787D01*
X104576845Y-64238117D01*
X104639979Y-64268046D01*
X104676911Y-64327357D01*
X104675913Y-64397220D01*
X104651538Y-64433981D01*
X104650410Y-64446873D01*
X105210574Y-65007037D01*
X105146990Y-65024075D01*
X105032976Y-65089901D01*
X104939884Y-65182993D01*
X104874058Y-65297007D01*
X104857020Y-65360591D01*
X104296857Y-64800428D01*
X104253316Y-64862613D01*
X104160881Y-65060840D01*
X104160877Y-65060849D01*
X104104272Y-65272105D01*
X104104270Y-65272115D01*
X104085208Y-65489999D01*
X104085208Y-65490000D01*
X104104270Y-65707884D01*
X104104272Y-65707894D01*
X104160877Y-65919150D01*
X104160881Y-65919159D01*
X104253316Y-66117387D01*
X104296857Y-66179571D01*
X104857020Y-65619408D01*
X104874058Y-65682993D01*
X104939884Y-65797007D01*
X105032976Y-65890099D01*
X105146990Y-65955925D01*
X105210573Y-65972962D01*
X104650410Y-66533125D01*
X104655084Y-66586553D01*
X104646594Y-66628793D01*
X104652532Y-66620862D01*
X104717996Y-66596445D01*
X104779247Y-66607747D01*
X104910823Y-66669101D01*
X104910832Y-66669105D01*
X105122088Y-66725710D01*
X105122098Y-66725712D01*
X105339982Y-66744775D01*
X105339984Y-66744775D01*
X105557867Y-66725712D01*
X105557877Y-66725710D01*
X105769133Y-66669105D01*
X105769147Y-66669100D01*
X105967366Y-66576669D01*
X105967368Y-66576668D01*
X106029554Y-66533124D01*
X105469393Y-65972962D01*
X105532976Y-65955925D01*
X105646990Y-65890099D01*
X105740082Y-65797007D01*
X105805908Y-65682993D01*
X105822945Y-65619409D01*
X106383107Y-66179570D01*
X106426649Y-66117388D01*
X106497323Y-65965825D01*
X106543495Y-65913386D01*
X106610689Y-65894233D01*
X106677570Y-65914448D01*
X106722088Y-65965824D01*
X106792880Y-66117638D01*
X106792881Y-66117639D01*
X106918385Y-66296877D01*
X107073106Y-66451598D01*
X107252344Y-66577102D01*
X107450653Y-66669575D01*
X107662006Y-66726207D01*
X107844909Y-66742208D01*
X107879981Y-66745277D01*
X107879983Y-66745277D01*
X107879985Y-66745277D01*
X107908237Y-66742805D01*
X108097960Y-66726207D01*
X108309313Y-66669575D01*
X108507622Y-66577102D01*
X108686860Y-66451598D01*
X108841581Y-66296877D01*
X108967085Y-66117639D01*
X109059558Y-65919330D01*
X109116190Y-65707977D01*
X109125635Y-65600013D01*
X111300000Y-65600013D01*
X111300000Y-65750000D01*
X112250000Y-65750000D01*
X112750000Y-65750000D01*
X113699999Y-65750000D01*
X113699999Y-65600028D01*
X113699998Y-65600013D01*
X113689505Y-65497302D01*
X113634358Y-65330880D01*
X113634356Y-65330875D01*
X113542315Y-65181654D01*
X113418345Y-65057684D01*
X113269124Y-64965643D01*
X113269119Y-64965641D01*
X113102697Y-64910494D01*
X113102690Y-64910493D01*
X112999986Y-64900000D01*
X112750000Y-64900000D01*
X112750000Y-65750000D01*
X112250000Y-65750000D01*
X112250000Y-64900000D01*
X112000029Y-64900000D01*
X112000012Y-64900001D01*
X111897302Y-64910494D01*
X111730880Y-64965641D01*
X111730875Y-64965643D01*
X111581654Y-65057684D01*
X111457684Y-65181654D01*
X111365643Y-65330875D01*
X111365641Y-65330880D01*
X111310494Y-65497302D01*
X111310493Y-65497309D01*
X111300000Y-65600013D01*
X109125635Y-65600013D01*
X109135260Y-65490000D01*
X109116190Y-65272023D01*
X109079862Y-65136446D01*
X109059560Y-65060677D01*
X109059559Y-65060676D01*
X109059558Y-65060670D01*
X108967085Y-64862362D01*
X108967082Y-64862358D01*
X108967082Y-64862357D01*
X108841582Y-64683124D01*
X108841579Y-64683121D01*
X108686860Y-64528402D01*
X108592101Y-64462051D01*
X108548478Y-64407475D01*
X108541286Y-64337977D01*
X108572808Y-64275622D01*
X108633038Y-64240209D01*
X108643829Y-64238005D01*
X108675271Y-64233024D01*
X108861351Y-64203553D01*
X109085975Y-64130568D01*
X109296416Y-64023343D01*
X109487493Y-63884517D01*
X109654500Y-63717510D01*
X109793326Y-63526433D01*
X109900551Y-63315992D01*
X109973536Y-63091368D01*
X110010483Y-62858097D01*
X110010483Y-62621902D01*
X119209483Y-62621902D01*
X119209483Y-62858097D01*
X119246429Y-63091368D01*
X119319416Y-63315996D01*
X119426640Y-63526433D01*
X119565466Y-63717510D01*
X119732473Y-63884517D01*
X119923550Y-64023343D01*
X120022974Y-64074002D01*
X120133986Y-64130566D01*
X120133988Y-64130566D01*
X120133991Y-64130568D01*
X120358615Y-64203553D01*
X120568450Y-64236787D01*
X120576845Y-64238117D01*
X120639979Y-64268046D01*
X120676911Y-64327357D01*
X120675913Y-64397220D01*
X120651538Y-64433981D01*
X120650410Y-64446873D01*
X121210574Y-65007037D01*
X121146990Y-65024075D01*
X121032976Y-65089901D01*
X120939884Y-65182993D01*
X120874058Y-65297007D01*
X120857020Y-65360591D01*
X120296857Y-64800428D01*
X120253316Y-64862613D01*
X120160881Y-65060840D01*
X120160877Y-65060849D01*
X120104272Y-65272105D01*
X120104270Y-65272115D01*
X120085208Y-65489999D01*
X120085208Y-65490000D01*
X120104270Y-65707884D01*
X120104272Y-65707894D01*
X120160877Y-65919150D01*
X120160881Y-65919159D01*
X120253316Y-66117387D01*
X120296857Y-66179571D01*
X120857020Y-65619408D01*
X120874058Y-65682993D01*
X120939884Y-65797007D01*
X121032976Y-65890099D01*
X121146990Y-65955925D01*
X121210573Y-65972962D01*
X120650410Y-66533125D01*
X120655084Y-66586553D01*
X120646594Y-66628793D01*
X120652532Y-66620862D01*
X120717996Y-66596445D01*
X120779247Y-66607747D01*
X120910823Y-66669101D01*
X120910832Y-66669105D01*
X121122088Y-66725710D01*
X121122098Y-66725712D01*
X121339982Y-66744775D01*
X121339984Y-66744775D01*
X121557867Y-66725712D01*
X121557877Y-66725710D01*
X121769133Y-66669105D01*
X121769147Y-66669100D01*
X121967366Y-66576669D01*
X121967368Y-66576668D01*
X122029554Y-66533124D01*
X121469393Y-65972962D01*
X121532976Y-65955925D01*
X121646990Y-65890099D01*
X121740082Y-65797007D01*
X121805908Y-65682993D01*
X121822945Y-65619409D01*
X122383107Y-66179570D01*
X122426649Y-66117388D01*
X122497323Y-65965825D01*
X122543495Y-65913386D01*
X122610689Y-65894233D01*
X122677570Y-65914448D01*
X122722088Y-65965824D01*
X122792880Y-66117638D01*
X122792881Y-66117639D01*
X122918385Y-66296877D01*
X123073106Y-66451598D01*
X123252344Y-66577102D01*
X123450653Y-66669575D01*
X123662006Y-66726207D01*
X123844909Y-66742208D01*
X123879981Y-66745277D01*
X123879983Y-66745277D01*
X123879985Y-66745277D01*
X123908237Y-66742805D01*
X124097960Y-66726207D01*
X124309313Y-66669575D01*
X124507622Y-66577102D01*
X124686860Y-66451598D01*
X124841581Y-66296877D01*
X124967085Y-66117639D01*
X125059558Y-65919330D01*
X125116190Y-65707977D01*
X125125635Y-65600013D01*
X127300000Y-65600013D01*
X127300000Y-65750000D01*
X128250000Y-65750000D01*
X128750000Y-65750000D01*
X129699999Y-65750000D01*
X129699999Y-65600028D01*
X129699998Y-65600013D01*
X132300000Y-65600013D01*
X132300000Y-65750000D01*
X133250000Y-65750000D01*
X133750000Y-65750000D01*
X134699999Y-65750000D01*
X134699999Y-65600028D01*
X134699998Y-65600013D01*
X134689505Y-65497302D01*
X134634358Y-65330880D01*
X134634356Y-65330875D01*
X134542315Y-65181654D01*
X134418345Y-65057684D01*
X134269124Y-64965643D01*
X134269119Y-64965641D01*
X134102697Y-64910494D01*
X134102690Y-64910493D01*
X133999986Y-64900000D01*
X133750000Y-64900000D01*
X133750000Y-65750000D01*
X133250000Y-65750000D01*
X133250000Y-64900000D01*
X133000029Y-64900000D01*
X133000012Y-64900001D01*
X132897302Y-64910494D01*
X132730880Y-64965641D01*
X132730875Y-64965643D01*
X132581654Y-65057684D01*
X132457684Y-65181654D01*
X132365643Y-65330875D01*
X132365641Y-65330880D01*
X132310494Y-65497302D01*
X132310493Y-65497309D01*
X132300000Y-65600013D01*
X129699998Y-65600013D01*
X129689505Y-65497302D01*
X129634358Y-65330880D01*
X129634356Y-65330875D01*
X129542315Y-65181654D01*
X129418345Y-65057684D01*
X129269124Y-64965643D01*
X129269119Y-64965641D01*
X129102697Y-64910494D01*
X129102690Y-64910493D01*
X128999986Y-64900000D01*
X128750000Y-64900000D01*
X128750000Y-65750000D01*
X128250000Y-65750000D01*
X128250000Y-64900000D01*
X128000029Y-64900000D01*
X128000012Y-64900001D01*
X127897302Y-64910494D01*
X127730880Y-64965641D01*
X127730875Y-64965643D01*
X127581654Y-65057684D01*
X127457684Y-65181654D01*
X127365643Y-65330875D01*
X127365641Y-65330880D01*
X127310494Y-65497302D01*
X127310493Y-65497309D01*
X127300000Y-65600013D01*
X125125635Y-65600013D01*
X125135260Y-65490000D01*
X125116190Y-65272023D01*
X125079862Y-65136446D01*
X125059560Y-65060677D01*
X125059559Y-65060676D01*
X125059558Y-65060670D01*
X124967085Y-64862362D01*
X124967082Y-64862358D01*
X124967082Y-64862357D01*
X124841582Y-64683124D01*
X124841579Y-64683121D01*
X124686860Y-64528402D01*
X124592101Y-64462051D01*
X124548478Y-64407475D01*
X124541286Y-64337977D01*
X124572808Y-64275622D01*
X124633038Y-64240209D01*
X124643829Y-64238005D01*
X124675271Y-64233024D01*
X124861351Y-64203553D01*
X125085975Y-64130568D01*
X125296416Y-64023343D01*
X125487493Y-63884517D01*
X125654500Y-63717510D01*
X125793326Y-63526433D01*
X125900551Y-63315992D01*
X125973536Y-63091368D01*
X126010483Y-62858097D01*
X126010483Y-62621902D01*
X135209483Y-62621902D01*
X135209483Y-62858097D01*
X135246429Y-63091368D01*
X135319416Y-63315996D01*
X135426640Y-63526433D01*
X135565466Y-63717510D01*
X135732473Y-63884517D01*
X135923550Y-64023343D01*
X136022974Y-64074002D01*
X136133986Y-64130566D01*
X136133988Y-64130566D01*
X136133991Y-64130568D01*
X136358615Y-64203553D01*
X136568450Y-64236787D01*
X136576845Y-64238117D01*
X136639979Y-64268046D01*
X136676911Y-64327357D01*
X136675913Y-64397220D01*
X136651538Y-64433981D01*
X136650410Y-64446873D01*
X137210574Y-65007037D01*
X137146990Y-65024075D01*
X137032976Y-65089901D01*
X136939884Y-65182993D01*
X136874058Y-65297007D01*
X136857020Y-65360591D01*
X136296857Y-64800428D01*
X136253316Y-64862613D01*
X136160881Y-65060840D01*
X136160877Y-65060849D01*
X136104272Y-65272105D01*
X136104270Y-65272115D01*
X136085208Y-65489999D01*
X136085208Y-65490000D01*
X136104270Y-65707884D01*
X136104272Y-65707894D01*
X136160877Y-65919150D01*
X136160881Y-65919159D01*
X136253316Y-66117387D01*
X136296857Y-66179571D01*
X136857020Y-65619408D01*
X136874058Y-65682993D01*
X136939884Y-65797007D01*
X137032976Y-65890099D01*
X137146990Y-65955925D01*
X137210573Y-65972962D01*
X136650410Y-66533125D01*
X136655084Y-66586553D01*
X136646594Y-66628793D01*
X136652532Y-66620862D01*
X136717996Y-66596445D01*
X136779247Y-66607747D01*
X136910823Y-66669101D01*
X136910832Y-66669105D01*
X137122088Y-66725710D01*
X137122098Y-66725712D01*
X137339982Y-66744775D01*
X137339984Y-66744775D01*
X137557867Y-66725712D01*
X137557877Y-66725710D01*
X137769133Y-66669105D01*
X137769147Y-66669100D01*
X137967366Y-66576669D01*
X137967368Y-66576668D01*
X138029554Y-66533124D01*
X137469393Y-65972962D01*
X137532976Y-65955925D01*
X137646990Y-65890099D01*
X137740082Y-65797007D01*
X137805908Y-65682993D01*
X137822945Y-65619409D01*
X138383107Y-66179570D01*
X138426649Y-66117388D01*
X138497323Y-65965825D01*
X138543495Y-65913386D01*
X138610689Y-65894233D01*
X138677570Y-65914448D01*
X138722088Y-65965824D01*
X138792880Y-66117638D01*
X138792881Y-66117639D01*
X138918385Y-66296877D01*
X139073106Y-66451598D01*
X139252344Y-66577102D01*
X139450653Y-66669575D01*
X139662006Y-66726207D01*
X139844909Y-66742208D01*
X139879981Y-66745277D01*
X139879983Y-66745277D01*
X139879985Y-66745277D01*
X139908237Y-66742805D01*
X140097960Y-66726207D01*
X140309313Y-66669575D01*
X140507622Y-66577102D01*
X140686860Y-66451598D01*
X140841581Y-66296877D01*
X140967085Y-66117639D01*
X141059558Y-65919330D01*
X141116190Y-65707977D01*
X141135260Y-65490000D01*
X141116190Y-65272023D01*
X141079862Y-65136446D01*
X141059560Y-65060677D01*
X141059559Y-65060676D01*
X141059558Y-65060670D01*
X140967085Y-64862362D01*
X140967082Y-64862358D01*
X140967082Y-64862357D01*
X140841582Y-64683124D01*
X140841579Y-64683121D01*
X140686860Y-64528402D01*
X140592101Y-64462051D01*
X140548478Y-64407475D01*
X140541286Y-64337977D01*
X140572808Y-64275622D01*
X140633038Y-64240209D01*
X140643829Y-64238005D01*
X140675271Y-64233024D01*
X140861351Y-64203553D01*
X141085975Y-64130568D01*
X141296416Y-64023343D01*
X141487493Y-63884517D01*
X141654500Y-63717510D01*
X141793326Y-63526433D01*
X141900551Y-63315992D01*
X141973536Y-63091368D01*
X142010483Y-62858097D01*
X142010483Y-62621902D01*
X141973536Y-62388631D01*
X141900549Y-62164003D01*
X141793325Y-61953566D01*
X141654500Y-61762490D01*
X141487493Y-61595483D01*
X141296416Y-61456657D01*
X141262779Y-61439518D01*
X141085979Y-61349433D01*
X140861351Y-61276446D01*
X140643829Y-61241994D01*
X140580694Y-61212065D01*
X140543763Y-61152753D01*
X140544761Y-61082890D01*
X140583371Y-61024658D01*
X140592089Y-61017956D01*
X140686860Y-60951598D01*
X140841581Y-60796877D01*
X140967085Y-60617639D01*
X141059558Y-60419330D01*
X141116190Y-60207977D01*
X141135260Y-59990000D01*
X141116190Y-59772023D01*
X141079862Y-59636446D01*
X141059560Y-59560677D01*
X141059559Y-59560676D01*
X141059558Y-59560670D01*
X140967085Y-59362362D01*
X140967082Y-59362358D01*
X140967082Y-59362357D01*
X140841582Y-59183124D01*
X140841579Y-59183121D01*
X140686860Y-59028402D01*
X140548961Y-58931844D01*
X140507621Y-58902897D01*
X140408467Y-58856661D01*
X140309313Y-58810425D01*
X140309309Y-58810424D01*
X140309305Y-58810422D01*
X140097960Y-58753793D01*
X139879985Y-58734723D01*
X139879981Y-58734723D01*
X139734665Y-58747436D01*
X139662006Y-58753793D01*
X139662003Y-58753793D01*
X139450660Y-58810422D01*
X139450651Y-58810426D01*
X139252344Y-58902898D01*
X139252340Y-58902900D01*
X139073104Y-59028402D01*
X138918385Y-59183121D01*
X138792883Y-59362357D01*
X138792883Y-59362358D01*
X138792881Y-59362361D01*
X138792881Y-59362362D01*
X138780180Y-59389597D01*
X138722088Y-59514176D01*
X138675915Y-59566615D01*
X138608721Y-59585766D01*
X138541840Y-59565550D01*
X138497324Y-59514175D01*
X138426650Y-59362614D01*
X138426649Y-59362612D01*
X138383107Y-59300428D01*
X138383107Y-59300427D01*
X137822945Y-59860589D01*
X137805908Y-59797007D01*
X137740082Y-59682993D01*
X137646990Y-59589901D01*
X137532976Y-59524075D01*
X137469392Y-59507037D01*
X138029554Y-58946874D01*
X137967370Y-58903333D01*
X137769142Y-58810898D01*
X137769133Y-58810894D01*
X137557877Y-58754289D01*
X137557867Y-58754287D01*
X137339984Y-58735225D01*
X137339982Y-58735225D01*
X137122098Y-58754287D01*
X137122088Y-58754289D01*
X136910832Y-58810894D01*
X136910823Y-58810898D01*
X136712596Y-58903333D01*
X136650411Y-58946874D01*
X137210574Y-59507037D01*
X137146990Y-59524075D01*
X137032976Y-59589901D01*
X136939884Y-59682993D01*
X136874058Y-59797007D01*
X136857020Y-59860591D01*
X136296857Y-59300428D01*
X136253316Y-59362613D01*
X136160881Y-59560840D01*
X136160877Y-59560849D01*
X136104272Y-59772105D01*
X136104270Y-59772115D01*
X136085208Y-59989999D01*
X136085208Y-59990000D01*
X136104270Y-60207884D01*
X136104272Y-60207894D01*
X136160877Y-60419150D01*
X136160881Y-60419159D01*
X136253316Y-60617387D01*
X136296857Y-60679571D01*
X136857020Y-60119408D01*
X136874058Y-60182993D01*
X136939884Y-60297007D01*
X137032976Y-60390099D01*
X137146990Y-60455925D01*
X137210573Y-60472962D01*
X136650410Y-61033124D01*
X136651592Y-61046631D01*
X136672197Y-61072409D01*
X136679391Y-61141908D01*
X136647868Y-61204263D01*
X136587639Y-61239677D01*
X136576848Y-61241881D01*
X136358613Y-61276447D01*
X136133986Y-61349433D01*
X135923549Y-61456657D01*
X135814533Y-61535862D01*
X135732473Y-61595483D01*
X135732471Y-61595485D01*
X135732470Y-61595485D01*
X135565468Y-61762487D01*
X135565468Y-61762488D01*
X135565466Y-61762490D01*
X135505845Y-61844550D01*
X135426640Y-61953566D01*
X135319416Y-62164003D01*
X135246429Y-62388631D01*
X135209483Y-62621902D01*
X126010483Y-62621902D01*
X125973536Y-62388631D01*
X125900549Y-62164003D01*
X125793325Y-61953566D01*
X125654500Y-61762490D01*
X125487493Y-61595483D01*
X125296416Y-61456657D01*
X125262779Y-61439518D01*
X125085979Y-61349433D01*
X124861351Y-61276446D01*
X124643829Y-61241994D01*
X124580694Y-61212065D01*
X124543763Y-61152753D01*
X124544761Y-61082890D01*
X124583371Y-61024658D01*
X124592089Y-61017956D01*
X124686860Y-60951598D01*
X124841581Y-60796877D01*
X124967085Y-60617639D01*
X125059558Y-60419330D01*
X125116190Y-60207977D01*
X125135260Y-59990000D01*
X125116190Y-59772023D01*
X125079862Y-59636446D01*
X125059560Y-59560677D01*
X125059559Y-59560676D01*
X125059558Y-59560670D01*
X124967085Y-59362362D01*
X124967082Y-59362358D01*
X124967082Y-59362357D01*
X124841582Y-59183124D01*
X124841579Y-59183121D01*
X124686860Y-59028402D01*
X124548961Y-58931844D01*
X124507621Y-58902897D01*
X124408467Y-58856661D01*
X124309313Y-58810425D01*
X124309309Y-58810424D01*
X124309305Y-58810422D01*
X124097960Y-58753793D01*
X123879985Y-58734723D01*
X123879981Y-58734723D01*
X123734665Y-58747436D01*
X123662006Y-58753793D01*
X123662003Y-58753793D01*
X123450660Y-58810422D01*
X123450651Y-58810426D01*
X123252344Y-58902898D01*
X123252340Y-58902900D01*
X123073104Y-59028402D01*
X122918385Y-59183121D01*
X122792883Y-59362357D01*
X122792883Y-59362358D01*
X122792881Y-59362361D01*
X122792881Y-59362362D01*
X122780180Y-59389597D01*
X122722088Y-59514176D01*
X122675915Y-59566615D01*
X122608721Y-59585766D01*
X122541840Y-59565550D01*
X122497324Y-59514175D01*
X122426650Y-59362614D01*
X122426649Y-59362612D01*
X122383107Y-59300428D01*
X122383107Y-59300427D01*
X121822945Y-59860589D01*
X121805908Y-59797007D01*
X121740082Y-59682993D01*
X121646990Y-59589901D01*
X121532976Y-59524075D01*
X121469392Y-59507037D01*
X122029554Y-58946874D01*
X121967370Y-58903333D01*
X121769142Y-58810898D01*
X121769133Y-58810894D01*
X121557877Y-58754289D01*
X121557867Y-58754287D01*
X121339984Y-58735225D01*
X121339982Y-58735225D01*
X121122098Y-58754287D01*
X121122088Y-58754289D01*
X120910832Y-58810894D01*
X120910823Y-58810898D01*
X120712596Y-58903333D01*
X120650411Y-58946874D01*
X121210574Y-59507037D01*
X121146990Y-59524075D01*
X121032976Y-59589901D01*
X120939884Y-59682993D01*
X120874058Y-59797007D01*
X120857020Y-59860591D01*
X120296857Y-59300428D01*
X120253316Y-59362613D01*
X120160881Y-59560840D01*
X120160877Y-59560849D01*
X120104272Y-59772105D01*
X120104270Y-59772115D01*
X120085208Y-59989999D01*
X120085208Y-59990000D01*
X120104270Y-60207884D01*
X120104272Y-60207894D01*
X120160877Y-60419150D01*
X120160881Y-60419159D01*
X120253316Y-60617387D01*
X120296857Y-60679571D01*
X120857020Y-60119408D01*
X120874058Y-60182993D01*
X120939884Y-60297007D01*
X121032976Y-60390099D01*
X121146990Y-60455925D01*
X121210573Y-60472962D01*
X120650410Y-61033124D01*
X120651592Y-61046631D01*
X120672197Y-61072409D01*
X120679391Y-61141908D01*
X120647868Y-61204263D01*
X120587639Y-61239677D01*
X120576848Y-61241881D01*
X120358613Y-61276447D01*
X120133986Y-61349433D01*
X119923549Y-61456657D01*
X119814533Y-61535862D01*
X119732473Y-61595483D01*
X119732471Y-61595485D01*
X119732470Y-61595485D01*
X119565468Y-61762487D01*
X119565468Y-61762488D01*
X119565466Y-61762490D01*
X119505845Y-61844550D01*
X119426640Y-61953566D01*
X119319416Y-62164003D01*
X119246429Y-62388631D01*
X119209483Y-62621902D01*
X110010483Y-62621902D01*
X109973536Y-62388631D01*
X109900549Y-62164003D01*
X109793325Y-61953566D01*
X109654500Y-61762490D01*
X109487493Y-61595483D01*
X109296416Y-61456657D01*
X109262779Y-61439518D01*
X109085979Y-61349433D01*
X108861351Y-61276446D01*
X108643829Y-61241994D01*
X108580694Y-61212065D01*
X108543763Y-61152753D01*
X108544761Y-61082890D01*
X108583371Y-61024658D01*
X108592089Y-61017956D01*
X108686860Y-60951598D01*
X108841581Y-60796877D01*
X108967085Y-60617639D01*
X109059558Y-60419330D01*
X109116190Y-60207977D01*
X109135260Y-59990000D01*
X109116190Y-59772023D01*
X109079862Y-59636446D01*
X109059560Y-59560677D01*
X109059559Y-59560676D01*
X109059558Y-59560670D01*
X108967085Y-59362362D01*
X108967082Y-59362358D01*
X108967082Y-59362357D01*
X108841582Y-59183124D01*
X108841579Y-59183121D01*
X108686860Y-59028402D01*
X108548961Y-58931844D01*
X108507621Y-58902897D01*
X108408467Y-58856661D01*
X108309313Y-58810425D01*
X108309309Y-58810424D01*
X108309305Y-58810422D01*
X108097960Y-58753793D01*
X107879985Y-58734723D01*
X107879981Y-58734723D01*
X107734665Y-58747436D01*
X107662006Y-58753793D01*
X107662003Y-58753793D01*
X107450660Y-58810422D01*
X107450651Y-58810426D01*
X107252344Y-58902898D01*
X107252340Y-58902900D01*
X107073104Y-59028402D01*
X106918385Y-59183121D01*
X106792883Y-59362357D01*
X106792883Y-59362358D01*
X106792881Y-59362361D01*
X106792881Y-59362362D01*
X106780180Y-59389597D01*
X106722088Y-59514176D01*
X106675915Y-59566615D01*
X106608721Y-59585766D01*
X106541840Y-59565550D01*
X106497324Y-59514175D01*
X106426650Y-59362614D01*
X106426649Y-59362612D01*
X106383107Y-59300428D01*
X106383107Y-59300427D01*
X105822945Y-59860589D01*
X105805908Y-59797007D01*
X105740082Y-59682993D01*
X105646990Y-59589901D01*
X105532976Y-59524075D01*
X105469392Y-59507037D01*
X106029554Y-58946874D01*
X105967370Y-58903333D01*
X105769142Y-58810898D01*
X105769133Y-58810894D01*
X105557877Y-58754289D01*
X105557867Y-58754287D01*
X105339984Y-58735225D01*
X105339982Y-58735225D01*
X105122098Y-58754287D01*
X105122088Y-58754289D01*
X104910832Y-58810894D01*
X104910823Y-58810898D01*
X104712596Y-58903333D01*
X104650411Y-58946874D01*
X105210574Y-59507037D01*
X105146990Y-59524075D01*
X105032976Y-59589901D01*
X104939884Y-59682993D01*
X104874058Y-59797007D01*
X104857020Y-59860591D01*
X104296857Y-59300428D01*
X104253316Y-59362613D01*
X104160881Y-59560840D01*
X104160877Y-59560849D01*
X104104272Y-59772105D01*
X104104270Y-59772115D01*
X104085208Y-59989999D01*
X104085208Y-59990000D01*
X104104270Y-60207884D01*
X104104272Y-60207894D01*
X104160877Y-60419150D01*
X104160881Y-60419159D01*
X104253316Y-60617387D01*
X104296857Y-60679571D01*
X104857020Y-60119408D01*
X104874058Y-60182993D01*
X104939884Y-60297007D01*
X105032976Y-60390099D01*
X105146990Y-60455925D01*
X105210573Y-60472962D01*
X104650410Y-61033124D01*
X104651592Y-61046631D01*
X104672197Y-61072409D01*
X104679391Y-61141908D01*
X104647868Y-61204263D01*
X104587639Y-61239677D01*
X104576848Y-61241881D01*
X104358613Y-61276447D01*
X104133986Y-61349433D01*
X103923549Y-61456657D01*
X103814533Y-61535862D01*
X103732473Y-61595483D01*
X103732471Y-61595485D01*
X103732470Y-61595485D01*
X103565468Y-61762487D01*
X103565468Y-61762488D01*
X103565466Y-61762490D01*
X103505845Y-61844550D01*
X103426640Y-61953566D01*
X103319416Y-62164003D01*
X103246429Y-62388631D01*
X103209483Y-62621902D01*
X94010483Y-62621902D01*
X93973536Y-62388631D01*
X93900549Y-62164003D01*
X93793325Y-61953566D01*
X93654500Y-61762490D01*
X93487493Y-61595483D01*
X93296416Y-61456657D01*
X93262779Y-61439518D01*
X93085979Y-61349433D01*
X92861351Y-61276446D01*
X92643829Y-61241994D01*
X92580694Y-61212065D01*
X92543763Y-61152753D01*
X92544761Y-61082890D01*
X92583371Y-61024658D01*
X92592089Y-61017956D01*
X92686860Y-60951598D01*
X92841581Y-60796877D01*
X92967085Y-60617639D01*
X93059558Y-60419330D01*
X93116190Y-60207977D01*
X93135260Y-59990000D01*
X93116190Y-59772023D01*
X93079862Y-59636446D01*
X93059560Y-59560677D01*
X93059559Y-59560676D01*
X93059558Y-59560670D01*
X92967085Y-59362362D01*
X92967082Y-59362358D01*
X92967082Y-59362357D01*
X92841582Y-59183124D01*
X92841579Y-59183121D01*
X92686860Y-59028402D01*
X92548961Y-58931844D01*
X92507621Y-58902897D01*
X92408467Y-58856661D01*
X92309313Y-58810425D01*
X92309309Y-58810424D01*
X92309305Y-58810422D01*
X92097960Y-58753793D01*
X91879985Y-58734723D01*
X91879981Y-58734723D01*
X91734665Y-58747436D01*
X91662006Y-58753793D01*
X91662003Y-58753793D01*
X91450660Y-58810422D01*
X91450651Y-58810426D01*
X91252344Y-58902898D01*
X91252340Y-58902900D01*
X91073104Y-59028402D01*
X90918385Y-59183121D01*
X90792883Y-59362357D01*
X90792883Y-59362358D01*
X90792881Y-59362361D01*
X90792881Y-59362362D01*
X90780180Y-59389597D01*
X90722088Y-59514176D01*
X90675915Y-59566615D01*
X90608721Y-59585766D01*
X90541840Y-59565550D01*
X90497324Y-59514175D01*
X90426650Y-59362614D01*
X90426649Y-59362612D01*
X90383107Y-59300428D01*
X90383107Y-59300427D01*
X89822945Y-59860589D01*
X89805908Y-59797007D01*
X89740082Y-59682993D01*
X89646990Y-59589901D01*
X89532976Y-59524075D01*
X89469392Y-59507037D01*
X90029554Y-58946874D01*
X89967370Y-58903333D01*
X89769142Y-58810898D01*
X89769133Y-58810894D01*
X89557877Y-58754289D01*
X89557867Y-58754287D01*
X89339984Y-58735225D01*
X89339982Y-58735225D01*
X89122098Y-58754287D01*
X89122088Y-58754289D01*
X88910832Y-58810894D01*
X88910823Y-58810898D01*
X88712596Y-58903333D01*
X88650411Y-58946874D01*
X89210574Y-59507037D01*
X89146990Y-59524075D01*
X89032976Y-59589901D01*
X88939884Y-59682993D01*
X88874058Y-59797007D01*
X88857020Y-59860591D01*
X88296857Y-59300428D01*
X88253316Y-59362613D01*
X88160881Y-59560840D01*
X88160877Y-59560849D01*
X88104272Y-59772105D01*
X88104270Y-59772115D01*
X88085208Y-59989999D01*
X88085208Y-59990000D01*
X88104270Y-60207884D01*
X88104272Y-60207894D01*
X88160877Y-60419150D01*
X88160881Y-60419159D01*
X88253316Y-60617387D01*
X88296857Y-60679571D01*
X88857020Y-60119408D01*
X88874058Y-60182993D01*
X88939884Y-60297007D01*
X89032976Y-60390099D01*
X89146990Y-60455925D01*
X89210573Y-60472962D01*
X88650410Y-61033124D01*
X88651592Y-61046631D01*
X88672197Y-61072409D01*
X88679391Y-61141908D01*
X88647868Y-61204263D01*
X88587639Y-61239677D01*
X88576848Y-61241881D01*
X88358613Y-61276447D01*
X88133986Y-61349433D01*
X87923549Y-61456657D01*
X87814533Y-61535862D01*
X87732473Y-61595483D01*
X87732471Y-61595485D01*
X87732470Y-61595485D01*
X87565468Y-61762487D01*
X87565468Y-61762488D01*
X87565466Y-61762490D01*
X87505845Y-61844550D01*
X87426640Y-61953566D01*
X87319416Y-62164003D01*
X87246429Y-62388631D01*
X87209483Y-62621902D01*
X78010483Y-62621902D01*
X77973536Y-62388631D01*
X77900549Y-62164003D01*
X77793325Y-61953566D01*
X77654500Y-61762490D01*
X77487493Y-61595483D01*
X77296416Y-61456657D01*
X77262779Y-61439518D01*
X77085979Y-61349433D01*
X76861351Y-61276446D01*
X76643829Y-61241994D01*
X76580694Y-61212065D01*
X76543763Y-61152753D01*
X76544761Y-61082890D01*
X76583371Y-61024658D01*
X76592089Y-61017956D01*
X76686860Y-60951598D01*
X76841581Y-60796877D01*
X76967085Y-60617639D01*
X77059558Y-60419330D01*
X77116190Y-60207977D01*
X77135260Y-59990000D01*
X77116190Y-59772023D01*
X77079862Y-59636446D01*
X77059560Y-59560677D01*
X77059559Y-59560676D01*
X77059558Y-59560670D01*
X76967085Y-59362362D01*
X76967082Y-59362358D01*
X76967082Y-59362357D01*
X76841582Y-59183124D01*
X76841579Y-59183121D01*
X76686860Y-59028402D01*
X76548961Y-58931844D01*
X76507621Y-58902897D01*
X76408467Y-58856661D01*
X76309313Y-58810425D01*
X76309309Y-58810424D01*
X76309305Y-58810422D01*
X76097960Y-58753793D01*
X75879985Y-58734723D01*
X75879981Y-58734723D01*
X75734665Y-58747436D01*
X75662006Y-58753793D01*
X75662003Y-58753793D01*
X75450660Y-58810422D01*
X75450651Y-58810426D01*
X75252344Y-58902898D01*
X75252340Y-58902900D01*
X75073104Y-59028402D01*
X74918385Y-59183121D01*
X74792883Y-59362357D01*
X74792883Y-59362358D01*
X74792881Y-59362361D01*
X74792881Y-59362362D01*
X74780180Y-59389597D01*
X74722088Y-59514176D01*
X74675915Y-59566615D01*
X74608721Y-59585766D01*
X74541840Y-59565550D01*
X74497324Y-59514175D01*
X74426650Y-59362614D01*
X74426649Y-59362612D01*
X74383107Y-59300428D01*
X74383107Y-59300427D01*
X73822945Y-59860589D01*
X73805908Y-59797007D01*
X73740082Y-59682993D01*
X73646990Y-59589901D01*
X73532976Y-59524075D01*
X73469392Y-59507037D01*
X74029554Y-58946874D01*
X73967370Y-58903333D01*
X73769142Y-58810898D01*
X73769133Y-58810894D01*
X73557877Y-58754289D01*
X73557867Y-58754287D01*
X73339984Y-58735225D01*
X73339982Y-58735225D01*
X73122098Y-58754287D01*
X73122088Y-58754289D01*
X72910832Y-58810894D01*
X72910823Y-58810898D01*
X72712596Y-58903333D01*
X72650411Y-58946874D01*
X73210574Y-59507037D01*
X73146990Y-59524075D01*
X73032976Y-59589901D01*
X72939884Y-59682993D01*
X72874058Y-59797007D01*
X72857020Y-59860591D01*
X72296857Y-59300428D01*
X72253316Y-59362613D01*
X72160881Y-59560840D01*
X72160877Y-59560849D01*
X72104272Y-59772105D01*
X72104270Y-59772115D01*
X72085208Y-59989999D01*
X72085208Y-59990000D01*
X72104270Y-60207884D01*
X72104272Y-60207894D01*
X72160877Y-60419150D01*
X72160881Y-60419159D01*
X72253316Y-60617387D01*
X72296857Y-60679571D01*
X72857020Y-60119408D01*
X72874058Y-60182993D01*
X72939884Y-60297007D01*
X73032976Y-60390099D01*
X73146990Y-60455925D01*
X73210573Y-60472962D01*
X72650410Y-61033124D01*
X72651592Y-61046631D01*
X72672197Y-61072409D01*
X72679391Y-61141908D01*
X72647868Y-61204263D01*
X72587639Y-61239677D01*
X72576848Y-61241881D01*
X72358613Y-61276447D01*
X72133986Y-61349433D01*
X71923549Y-61456657D01*
X71814533Y-61535862D01*
X71732473Y-61595483D01*
X71732471Y-61595485D01*
X71732470Y-61595485D01*
X71565468Y-61762487D01*
X71565468Y-61762488D01*
X71565466Y-61762490D01*
X71505845Y-61844550D01*
X71426640Y-61953566D01*
X71319416Y-62164003D01*
X71246429Y-62388631D01*
X71209483Y-62621902D01*
X62010483Y-62621902D01*
X61973536Y-62388631D01*
X61900549Y-62164003D01*
X61793325Y-61953566D01*
X61654500Y-61762490D01*
X61487493Y-61595483D01*
X61296416Y-61456657D01*
X61262779Y-61439518D01*
X61085979Y-61349433D01*
X60861351Y-61276446D01*
X60643829Y-61241994D01*
X60580694Y-61212065D01*
X60543763Y-61152753D01*
X60544761Y-61082890D01*
X60583371Y-61024658D01*
X60592089Y-61017956D01*
X60686860Y-60951598D01*
X60841581Y-60796877D01*
X60967085Y-60617639D01*
X61059558Y-60419330D01*
X61116190Y-60207977D01*
X61135260Y-59990000D01*
X61116190Y-59772023D01*
X61079862Y-59636446D01*
X61059560Y-59560677D01*
X61059559Y-59560676D01*
X61059558Y-59560670D01*
X60967085Y-59362362D01*
X60967082Y-59362358D01*
X60967082Y-59362357D01*
X60841582Y-59183124D01*
X60841579Y-59183121D01*
X60686860Y-59028402D01*
X60548961Y-58931844D01*
X60507621Y-58902897D01*
X60408467Y-58856661D01*
X60309313Y-58810425D01*
X60309309Y-58810424D01*
X60309305Y-58810422D01*
X60097960Y-58753793D01*
X59879985Y-58734723D01*
X59879981Y-58734723D01*
X59734665Y-58747436D01*
X59662006Y-58753793D01*
X59662003Y-58753793D01*
X59450660Y-58810422D01*
X59450651Y-58810426D01*
X59252344Y-58902898D01*
X59252340Y-58902900D01*
X59073104Y-59028402D01*
X58918385Y-59183121D01*
X58792883Y-59362357D01*
X58792883Y-59362358D01*
X58792881Y-59362361D01*
X58792881Y-59362362D01*
X58780180Y-59389597D01*
X58722088Y-59514176D01*
X58675915Y-59566615D01*
X58608721Y-59585766D01*
X58541840Y-59565550D01*
X58497324Y-59514175D01*
X58426650Y-59362614D01*
X58426649Y-59362612D01*
X58383107Y-59300428D01*
X58383107Y-59300427D01*
X57822945Y-59860589D01*
X57805908Y-59797007D01*
X57740082Y-59682993D01*
X57646990Y-59589901D01*
X57532976Y-59524075D01*
X57469392Y-59507037D01*
X58029554Y-58946874D01*
X57967370Y-58903333D01*
X57769142Y-58810898D01*
X57769133Y-58810894D01*
X57557877Y-58754289D01*
X57557867Y-58754287D01*
X57339984Y-58735225D01*
X57339982Y-58735225D01*
X57122098Y-58754287D01*
X57122088Y-58754289D01*
X56910832Y-58810894D01*
X56910823Y-58810898D01*
X56712596Y-58903333D01*
X56650411Y-58946874D01*
X57210574Y-59507037D01*
X57146990Y-59524075D01*
X57032976Y-59589901D01*
X56939884Y-59682993D01*
X56874058Y-59797007D01*
X56857020Y-59860591D01*
X56296857Y-59300428D01*
X56253316Y-59362613D01*
X56160881Y-59560840D01*
X56160877Y-59560849D01*
X56104272Y-59772105D01*
X56104270Y-59772115D01*
X56085208Y-59989999D01*
X56085208Y-59990000D01*
X56104270Y-60207884D01*
X56104272Y-60207894D01*
X56160877Y-60419150D01*
X56160881Y-60419159D01*
X56253316Y-60617387D01*
X56296857Y-60679571D01*
X56857020Y-60119408D01*
X56874058Y-60182993D01*
X56939884Y-60297007D01*
X57032976Y-60390099D01*
X57146990Y-60455925D01*
X57210573Y-60472962D01*
X56650410Y-61033124D01*
X56651592Y-61046631D01*
X56672197Y-61072409D01*
X56679391Y-61141908D01*
X56647868Y-61204263D01*
X56587639Y-61239677D01*
X56576848Y-61241881D01*
X56358613Y-61276447D01*
X56133986Y-61349433D01*
X55923549Y-61456657D01*
X55814533Y-61535862D01*
X55732473Y-61595483D01*
X55732471Y-61595485D01*
X55732470Y-61595485D01*
X55565468Y-61762487D01*
X55565468Y-61762488D01*
X55565466Y-61762490D01*
X55505845Y-61844550D01*
X55426640Y-61953566D01*
X55319416Y-62164003D01*
X55246429Y-62388631D01*
X55209483Y-62621902D01*
X54110483Y-62621902D01*
X54110483Y-56964500D01*
X54130168Y-56897461D01*
X54182972Y-56851706D01*
X54234483Y-56840500D01*
X142985483Y-56840500D01*
X143052522Y-56860185D01*
G37*
%TD.AperFunction*%
%TA.AperFunction,Conductor*%
G36*
X91354082Y-78320185D02*
G01*
X91374724Y-78336819D01*
X93147114Y-80109209D01*
X93180599Y-80170532D01*
X93182836Y-80184733D01*
X93183958Y-80196129D01*
X93241171Y-80384733D01*
X93334069Y-80558532D01*
X93334073Y-80558539D01*
X93459099Y-80710883D01*
X93611443Y-80835909D01*
X93611450Y-80835913D01*
X93785249Y-80928811D01*
X93785252Y-80928811D01*
X93785256Y-80928814D01*
X93973851Y-80986024D01*
X94169983Y-81005341D01*
X94366115Y-80986024D01*
X94554710Y-80928814D01*
X94728521Y-80835910D01*
X94728527Y-80835904D01*
X94733590Y-80832523D01*
X94734686Y-80834164D01*
X94790622Y-80810405D01*
X94859490Y-80822194D01*
X94876131Y-80832888D01*
X94876376Y-80832523D01*
X94881441Y-80835907D01*
X94881445Y-80835910D01*
X94994702Y-80896447D01*
X95051422Y-80926765D01*
X95055256Y-80928814D01*
X95243851Y-80986024D01*
X95439983Y-81005341D01*
X95636115Y-80986024D01*
X95824710Y-80928814D01*
X95998521Y-80835910D01*
X95998527Y-80835904D01*
X96003590Y-80832523D01*
X96004686Y-80834164D01*
X96060622Y-80810405D01*
X96129490Y-80822194D01*
X96146131Y-80832888D01*
X96146376Y-80832523D01*
X96151441Y-80835907D01*
X96151445Y-80835910D01*
X96264702Y-80896447D01*
X96321422Y-80926765D01*
X96325256Y-80928814D01*
X96513851Y-80986024D01*
X96709983Y-81005341D01*
X96906115Y-80986024D01*
X97094710Y-80928814D01*
X97268521Y-80835910D01*
X97268527Y-80835904D01*
X97273590Y-80832523D01*
X97274686Y-80834164D01*
X97330622Y-80810405D01*
X97399490Y-80822194D01*
X97416131Y-80832888D01*
X97416376Y-80832523D01*
X97421441Y-80835907D01*
X97421445Y-80835910D01*
X97595256Y-80928814D01*
X97661106Y-80948789D01*
X97719543Y-80987086D01*
X97747999Y-81050898D01*
X97737439Y-81119965D01*
X97712790Y-81155130D01*
X97204741Y-81663181D01*
X97143418Y-81696666D01*
X97117060Y-81699500D01*
X88038980Y-81699500D01*
X87971941Y-81679815D01*
X87926186Y-81627011D01*
X87916242Y-81557853D01*
X87945267Y-81494297D01*
X87951299Y-81487819D01*
X88125712Y-81313405D01*
X88125722Y-81313395D01*
X88297209Y-81084315D01*
X88434350Y-80833161D01*
X88534352Y-80565046D01*
X88595179Y-80285428D01*
X88615593Y-80000000D01*
X88595179Y-79714572D01*
X88586245Y-79673504D01*
X88534354Y-79434962D01*
X88534353Y-79434960D01*
X88534352Y-79434954D01*
X88434350Y-79166839D01*
X88354008Y-79019705D01*
X88297212Y-78915690D01*
X88297207Y-78915682D01*
X88125728Y-78686612D01*
X88125712Y-78686594D01*
X87951299Y-78512181D01*
X87917814Y-78450858D01*
X87922798Y-78381166D01*
X87964670Y-78325233D01*
X88030134Y-78300816D01*
X88038980Y-78300500D01*
X91287043Y-78300500D01*
X91354082Y-78320185D01*
G37*
%TD.AperFunction*%
%TD*%
%TA.AperFunction,NonConductor*%
G36*
X85248025Y-78320185D02*
G01*
X85293780Y-78372989D01*
X85303724Y-78442147D01*
X85274699Y-78505703D01*
X85268667Y-78512181D01*
X85094253Y-78686594D01*
X85094237Y-78686612D01*
X84922758Y-78915682D01*
X84922753Y-78915690D01*
X84785618Y-79166833D01*
X84685611Y-79434962D01*
X84624787Y-79714566D01*
X84612460Y-79886925D01*
X84588043Y-79952390D01*
X84532109Y-79994261D01*
X84462418Y-79999245D01*
X84401095Y-79965760D01*
X84367610Y-79904437D01*
X84366724Y-79898610D01*
X84366574Y-79898637D01*
X84365635Y-79893318D01*
X84365635Y-79893308D01*
X84317743Y-79714572D01*
X84306741Y-79673511D01*
X84306738Y-79673502D01*
X84271002Y-79596866D01*
X84210568Y-79467266D01*
X84088720Y-79293247D01*
X84080045Y-79280858D01*
X83919141Y-79119954D01*
X83732734Y-78989432D01*
X83732732Y-78989431D01*
X83526497Y-78893261D01*
X83526488Y-78893258D01*
X83306697Y-78834366D01*
X83306693Y-78834365D01*
X83306692Y-78834365D01*
X83306691Y-78834364D01*
X83306686Y-78834364D01*
X83080002Y-78814532D01*
X83079998Y-78814532D01*
X82853313Y-78834364D01*
X82853302Y-78834366D01*
X82633511Y-78893258D01*
X82633502Y-78893261D01*
X82427267Y-78989431D01*
X82427265Y-78989432D01*
X82240858Y-79119954D01*
X82079954Y-79280858D01*
X81949432Y-79467265D01*
X81949431Y-79467267D01*
X81922382Y-79525275D01*
X81876209Y-79577714D01*
X81809016Y-79596866D01*
X81742135Y-79576650D01*
X81697618Y-79525275D01*
X81670568Y-79467267D01*
X81670567Y-79467265D01*
X81647948Y-79434962D01*
X81548720Y-79293247D01*
X81540045Y-79280858D01*
X81379141Y-79119954D01*
X81192734Y-78989432D01*
X81192732Y-78989431D01*
X80986497Y-78893261D01*
X80986488Y-78893258D01*
X80766697Y-78834366D01*
X80766693Y-78834365D01*
X80766692Y-78834365D01*
X80766691Y-78834364D01*
X80766686Y-78834364D01*
X80540002Y-78814532D01*
X80539998Y-78814532D01*
X80313313Y-78834364D01*
X80313302Y-78834366D01*
X80093511Y-78893258D01*
X80093502Y-78893261D01*
X79887267Y-78989431D01*
X79887265Y-78989432D01*
X79700858Y-79119954D01*
X79539954Y-79280858D01*
X79409432Y-79467265D01*
X79409431Y-79467267D01*
X79382382Y-79525275D01*
X79336209Y-79577714D01*
X79269016Y-79596866D01*
X79202135Y-79576650D01*
X79157618Y-79525275D01*
X79130568Y-79467267D01*
X79130567Y-79467265D01*
X79107948Y-79434962D01*
X79008720Y-79293247D01*
X79000045Y-79280858D01*
X78839141Y-79119954D01*
X78652734Y-78989432D01*
X78652732Y-78989431D01*
X78446497Y-78893261D01*
X78446488Y-78893258D01*
X78226697Y-78834366D01*
X78226693Y-78834365D01*
X78226692Y-78834365D01*
X78226691Y-78834364D01*
X78226686Y-78834364D01*
X78000002Y-78814532D01*
X77999998Y-78814532D01*
X77773313Y-78834364D01*
X77773302Y-78834366D01*
X77553511Y-78893258D01*
X77553502Y-78893261D01*
X77347267Y-78989431D01*
X77347265Y-78989432D01*
X77160858Y-79119954D01*
X76999954Y-79280858D01*
X76869432Y-79467265D01*
X76869431Y-79467267D01*
X76842382Y-79525275D01*
X76796209Y-79577714D01*
X76729016Y-79596866D01*
X76662135Y-79576650D01*
X76617618Y-79525275D01*
X76590568Y-79467267D01*
X76590567Y-79467265D01*
X76567948Y-79434962D01*
X76468720Y-79293247D01*
X76460045Y-79280858D01*
X76299141Y-79119954D01*
X76112734Y-78989432D01*
X76112732Y-78989431D01*
X75906497Y-78893261D01*
X75906488Y-78893258D01*
X75686697Y-78834366D01*
X75686693Y-78834365D01*
X75686692Y-78834365D01*
X75686691Y-78834364D01*
X75686686Y-78834364D01*
X75460002Y-78814532D01*
X75459998Y-78814532D01*
X75233313Y-78834364D01*
X75233302Y-78834366D01*
X75013511Y-78893258D01*
X75013502Y-78893261D01*
X74807267Y-78989431D01*
X74807265Y-78989432D01*
X74620858Y-79119954D01*
X74459954Y-79280858D01*
X74329432Y-79467265D01*
X74329431Y-79467267D01*
X74302382Y-79525275D01*
X74256209Y-79577714D01*
X74189016Y-79596866D01*
X74122135Y-79576650D01*
X74077618Y-79525275D01*
X74050568Y-79467267D01*
X74050567Y-79467265D01*
X74027948Y-79434962D01*
X73928720Y-79293247D01*
X73920045Y-79280858D01*
X73759141Y-79119954D01*
X73572734Y-78989432D01*
X73572732Y-78989431D01*
X73366497Y-78893261D01*
X73366488Y-78893258D01*
X73146697Y-78834366D01*
X73146693Y-78834365D01*
X73146692Y-78834365D01*
X73146691Y-78834364D01*
X73146686Y-78834364D01*
X72920002Y-78814532D01*
X72919998Y-78814532D01*
X72693313Y-78834364D01*
X72693302Y-78834366D01*
X72473511Y-78893258D01*
X72473502Y-78893261D01*
X72267267Y-78989431D01*
X72267265Y-78989432D01*
X72080858Y-79119954D01*
X71919954Y-79280858D01*
X71789432Y-79467265D01*
X71789431Y-79467267D01*
X71762382Y-79525275D01*
X71716209Y-79577714D01*
X71649016Y-79596866D01*
X71582135Y-79576650D01*
X71537618Y-79525275D01*
X71510568Y-79467267D01*
X71510567Y-79467265D01*
X71487948Y-79434962D01*
X71388720Y-79293247D01*
X71380045Y-79280858D01*
X71219141Y-79119954D01*
X71032734Y-78989432D01*
X71032732Y-78989431D01*
X70826497Y-78893261D01*
X70826488Y-78893258D01*
X70606697Y-78834366D01*
X70606687Y-78834364D01*
X70550692Y-78829465D01*
X70485624Y-78804012D01*
X70444646Y-78747420D01*
X70440769Y-78677658D01*
X70473816Y-78618260D01*
X70755261Y-78336816D01*
X70816582Y-78303334D01*
X70842940Y-78300500D01*
X85180986Y-78300500D01*
X85248025Y-78320185D01*
G37*
%TD.AperFunction*%
M02*
