%TF.GenerationSoftware,KiCad,Pcbnew,8.0.5*%
%TF.CreationDate,2024-10-02T14:31:40-03:00*%
%TF.ProjectId,modulo_sensor,6d6f6475-6c6f-45f7-9365-6e736f722e6b,rev?*%
%TF.SameCoordinates,Original*%
%TF.FileFunction,Copper,L1,Top*%
%TF.FilePolarity,Positive*%
%FSLAX46Y46*%
G04 Gerber Fmt 4.6, Leading zero omitted, Abs format (unit mm)*
G04 Created by KiCad (PCBNEW 8.0.5) date 2024-10-02 14:31:40*
%MOMM*%
%LPD*%
G01*
G04 APERTURE LIST*
G04 Aperture macros list*
%AMRoundRect*
0 Rectangle with rounded corners*
0 $1 Rounding radius*
0 $2 $3 $4 $5 $6 $7 $8 $9 X,Y pos of 4 corners*
0 Add a 4 corners polygon primitive as box body*
4,1,4,$2,$3,$4,$5,$6,$7,$8,$9,$2,$3,0*
0 Add four circle primitives for the rounded corners*
1,1,$1+$1,$2,$3*
1,1,$1+$1,$4,$5*
1,1,$1+$1,$6,$7*
1,1,$1+$1,$8,$9*
0 Add four rect primitives between the rounded corners*
20,1,$1+$1,$2,$3,$4,$5,0*
20,1,$1+$1,$4,$5,$6,$7,0*
20,1,$1+$1,$6,$7,$8,$9,0*
20,1,$1+$1,$8,$9,$2,$3,0*%
G04 Aperture macros list end*
%TA.AperFunction,ComponentPad*%
%ADD10R,1.000000X1.000000*%
%TD*%
%TA.AperFunction,ComponentPad*%
%ADD11O,1.000000X1.000000*%
%TD*%
%TA.AperFunction,SMDPad,CuDef*%
%ADD12RoundRect,0.250000X0.450000X-0.350000X0.450000X0.350000X-0.450000X0.350000X-0.450000X-0.350000X0*%
%TD*%
%TA.AperFunction,SMDPad,CuDef*%
%ADD13RoundRect,0.250001X0.462499X0.624999X-0.462499X0.624999X-0.462499X-0.624999X0.462499X-0.624999X0*%
%TD*%
%TA.AperFunction,ComponentPad*%
%ADD14R,1.600000X1.600000*%
%TD*%
%TA.AperFunction,ComponentPad*%
%ADD15O,1.600000X1.600000*%
%TD*%
%TA.AperFunction,ComponentPad*%
%ADD16C,1.600000*%
%TD*%
%TA.AperFunction,ComponentPad*%
%ADD17C,1.500000*%
%TD*%
%TA.AperFunction,Conductor*%
%ADD18C,0.250000*%
%TD*%
G04 APERTURE END LIST*
D10*
%TO.P,J1,1,Pin_1*%
%TO.N,GND*%
X103059983Y-80000000D03*
D11*
%TO.P,J1,2,Pin_2*%
%TO.N,vcc*%
X101789983Y-80000000D03*
%TO.P,J1,3,Pin_3*%
%TO.N,/Led_Sensor6*%
X100519983Y-80000000D03*
%TO.P,J1,4,Pin_4*%
%TO.N,/Led_Sensor5*%
X99249983Y-80000000D03*
%TO.P,J1,5,Pin_5*%
%TO.N,/Led_Sensor4*%
X97979983Y-80000000D03*
%TO.P,J1,6,Pin_6*%
%TO.N,/Led_Sensor3*%
X96709983Y-80000000D03*
%TO.P,J1,7,Pin_7*%
%TO.N,/Led_Sensor2*%
X95439983Y-80000000D03*
%TO.P,J1,8,Pin_8*%
%TO.N,/Led_Sensor1*%
X94169983Y-80000000D03*
%TD*%
D12*
%TO.P,R15,1*%
%TO.N,Net-(D3-K)*%
X96500000Y-68000000D03*
%TO.P,R15,2*%
%TO.N,GND*%
X96500000Y-66000000D03*
%TD*%
D13*
%TO.P,D2,1,K*%
%TO.N,Net-(D2-K)*%
X76097483Y-69500000D03*
%TO.P,D2,2,A*%
%TO.N,/Led_Sensor2*%
X73122483Y-69500000D03*
%TD*%
D12*
%TO.P,R18,1*%
%TO.N,Net-(D6-K)*%
X133500000Y-68000000D03*
%TO.P,R18,2*%
%TO.N,GND*%
X133500000Y-66000000D03*
%TD*%
D13*
%TO.P,D3,1,K*%
%TO.N,Net-(D3-K)*%
X92097483Y-69500000D03*
%TO.P,D3,2,A*%
%TO.N,/Led_Sensor3*%
X89122483Y-69500000D03*
%TD*%
%TO.P,D6,1,K*%
%TO.N,Net-(D6-K)*%
X140097483Y-70000000D03*
%TO.P,D6,2,A*%
%TO.N,/Led_Sensor6*%
X137122483Y-70000000D03*
%TD*%
D12*
%TO.P,R13,1*%
%TO.N,Net-(D1-K)*%
X65000000Y-68000000D03*
%TO.P,R13,2*%
%TO.N,GND*%
X65000000Y-66000000D03*
%TD*%
D13*
%TO.P,D4,1,K*%
%TO.N,Net-(D4-K)*%
X108097483Y-69500000D03*
%TO.P,D4,2,A*%
%TO.N,/Led_Sensor4*%
X105122483Y-69500000D03*
%TD*%
D12*
%TO.P,R17,1*%
%TO.N,Net-(D5-K)*%
X128500000Y-68000000D03*
%TO.P,R17,2*%
%TO.N,GND*%
X128500000Y-66000000D03*
%TD*%
%TO.P,R14,1*%
%TO.N,Net-(D2-K)*%
X81000000Y-68000000D03*
%TO.P,R14,2*%
%TO.N,GND*%
X81000000Y-66000000D03*
%TD*%
%TO.P,R16,1*%
%TO.N,Net-(D4-K)*%
X112500000Y-68000000D03*
%TO.P,R16,2*%
%TO.N,GND*%
X112500000Y-66000000D03*
%TD*%
D14*
%TO.P,U1,1,1A*%
%TO.N,/Sensor4*%
X83080000Y-73500000D03*
D15*
%TO.P,U1,2,1Y*%
%TO.N,/Led_Sensor4*%
X80540000Y-73500000D03*
%TO.P,U1,3,2A*%
%TO.N,/Sensor3*%
X78000000Y-73500000D03*
%TO.P,U1,4,2Y*%
%TO.N,/Led_Sensor3*%
X75460000Y-73500000D03*
%TO.P,U1,5,3A*%
%TO.N,/Sensor2*%
X72920000Y-73500000D03*
%TO.P,U1,6,3Y*%
%TO.N,/Led_Sensor2*%
X70380000Y-73500000D03*
%TO.P,U1,7,GND*%
%TO.N,GND*%
X67840000Y-73500000D03*
%TO.P,U1,8,4Y*%
%TO.N,/Led_Sensor1*%
X67840000Y-81120000D03*
%TO.P,U1,9,4A*%
%TO.N,/Sensor1*%
X70380000Y-81120000D03*
%TO.P,U1,10,5Y*%
%TO.N,/Led_Sensor5*%
X72920000Y-81120000D03*
%TO.P,U1,11,5A*%
%TO.N,/Sensor5*%
X75460000Y-81120000D03*
%TO.P,U1,12,6Y*%
%TO.N,/Led_Sensor6*%
X78000000Y-81120000D03*
%TO.P,U1,13,6A*%
%TO.N,/Sensor6*%
X80540000Y-81120000D03*
%TO.P,U1,14,VCC*%
%TO.N,vcc*%
X83080000Y-81120000D03*
%TD*%
D16*
%TO.P,C1,1*%
%TO.N,vcc*%
X115750000Y-80000000D03*
%TO.P,C1,2*%
%TO.N,GND*%
X113250000Y-80000000D03*
%TD*%
D13*
%TO.P,D5,1,K*%
%TO.N,Net-(D5-K)*%
X124097483Y-69500000D03*
%TO.P,D5,2,A*%
%TO.N,/Led_Sensor5*%
X121122483Y-69500000D03*
%TD*%
%TO.P,D1,1,K*%
%TO.N,Net-(D1-K)*%
X60097483Y-69500000D03*
%TO.P,D1,2,A*%
%TO.N,/Led_Sensor1*%
X57122483Y-69500000D03*
%TD*%
D17*
%TO.P,Sensor3,A*%
%TO.N,Net-(R5-Pad1)*%
X91879983Y-59990000D03*
%TO.P,Sensor3,CATH*%
%TO.N,GND*%
X89339983Y-59990000D03*
%TO.P,Sensor3,COLL*%
%TO.N,/Sensor3*%
X91879983Y-65490000D03*
%TO.P,Sensor3,E*%
%TO.N,GND*%
X89339983Y-65490000D03*
%TD*%
%TO.P,Sensor2,A*%
%TO.N,Net-(R3-Pad1)*%
X75879983Y-59990000D03*
%TO.P,Sensor2,CATH*%
%TO.N,GND*%
X73339983Y-59990000D03*
%TO.P,Sensor2,COLL*%
%TO.N,/Sensor2*%
X75879983Y-65490000D03*
%TO.P,Sensor2,E*%
%TO.N,GND*%
X73339983Y-65490000D03*
%TD*%
%TO.P,Sensor6,A*%
%TO.N,Net-(R11-Pad1)*%
X139879983Y-59990000D03*
%TO.P,Sensor6,CATH*%
%TO.N,GND*%
X137339983Y-59990000D03*
%TO.P,Sensor6,COLL*%
%TO.N,/Sensor6*%
X139879983Y-65490000D03*
%TO.P,Sensor6,E*%
%TO.N,GND*%
X137339983Y-65490000D03*
%TD*%
%TO.P,Sensor5,A*%
%TO.N,Net-(R9-Pad1)*%
X123879983Y-59990000D03*
%TO.P,Sensor5,CATH*%
%TO.N,GND*%
X121339983Y-59990000D03*
%TO.P,Sensor5,COLL*%
%TO.N,/Sensor5*%
X123879983Y-65490000D03*
%TO.P,Sensor5,E*%
%TO.N,GND*%
X121339983Y-65490000D03*
%TD*%
%TO.P,Sensor1,A*%
%TO.N,Net-(R1-Pad1)*%
X59879983Y-59990000D03*
%TO.P,Sensor1,CATH*%
%TO.N,GND*%
X57339983Y-59990000D03*
%TO.P,Sensor1,COLL*%
%TO.N,/Sensor1*%
X59879983Y-65490000D03*
%TO.P,Sensor1,E*%
%TO.N,GND*%
X57339983Y-65490000D03*
%TD*%
%TO.P,Sensor4,A*%
%TO.N,Net-(R7-Pad1)*%
X107879983Y-59990000D03*
%TO.P,Sensor4,CATH*%
%TO.N,GND*%
X105339983Y-59990000D03*
%TO.P,Sensor4,COLL*%
%TO.N,/Sensor4*%
X107879983Y-65490000D03*
%TO.P,Sensor4,E*%
%TO.N,GND*%
X105339983Y-65490000D03*
%TD*%
D18*
%TO.N,vcc*%
X102717606Y-78365271D02*
X114615271Y-78365271D01*
X114615271Y-78365271D02*
X116250000Y-80000000D01*
X101789983Y-79292894D02*
X102717606Y-78365271D01*
X101789983Y-80000000D02*
X101789983Y-79292894D01*
%TO.N,Net-(D1-K)*%
X61597483Y-68000000D02*
X60097483Y-69500000D01*
X65000000Y-68000000D02*
X61597483Y-68000000D01*
%TO.N,/Led_Sensor1*%
X67120000Y-81120000D02*
X57122483Y-71122483D01*
X57122483Y-71122483D02*
X57122483Y-69500000D01*
X67742483Y-81120000D02*
X67120000Y-81120000D01*
X94169983Y-79169983D02*
X94169983Y-80000000D01*
X93000000Y-78000000D02*
X94169983Y-79169983D01*
X67840000Y-81120000D02*
X70960000Y-78000000D01*
X70960000Y-78000000D02*
X93000000Y-78000000D01*
%TO.N,Net-(D2-K)*%
X77597483Y-68000000D02*
X76097483Y-69500000D01*
X81000000Y-68000000D02*
X77597483Y-68000000D01*
%TO.N,/Led_Sensor2*%
X70380000Y-72242483D02*
X73122483Y-69500000D01*
X73880000Y-77000000D02*
X70380000Y-73500000D01*
X95439983Y-78939983D02*
X93500000Y-77000000D01*
X95439983Y-80000000D02*
X95439983Y-78939983D01*
X93500000Y-77000000D02*
X73880000Y-77000000D01*
X70380000Y-73500000D02*
X70380000Y-72242483D01*
%TO.N,/Led_Sensor3*%
X96709983Y-78209983D02*
X94500000Y-76000000D01*
X75500000Y-73500000D02*
X79500000Y-69500000D01*
X96709983Y-80000000D02*
X96709983Y-78209983D01*
X79500000Y-69500000D02*
X89122483Y-69500000D01*
X77960000Y-76000000D02*
X75460000Y-73500000D01*
X94500000Y-76000000D02*
X77960000Y-76000000D01*
%TO.N,Net-(D3-K)*%
X96500000Y-68000000D02*
X93597483Y-68000000D01*
X93597483Y-68000000D02*
X92097483Y-69500000D01*
%TO.N,/Led_Sensor4*%
X95500000Y-75000000D02*
X97979983Y-77479983D01*
X97979983Y-77479983D02*
X97979983Y-80000000D01*
X105122483Y-69500000D02*
X105122483Y-70337483D01*
X80540000Y-73500000D02*
X82040000Y-75000000D01*
X97979983Y-79500000D02*
X97979983Y-77520017D01*
X105122483Y-70337483D02*
X97979983Y-77479983D01*
X82040000Y-75000000D02*
X95500000Y-75000000D01*
%TO.N,Net-(D4-K)*%
X112500000Y-68000000D02*
X109597483Y-68000000D01*
X109597483Y-68000000D02*
X108097483Y-69500000D01*
%TO.N,/Led_Sensor5*%
X72920000Y-81120000D02*
X74434730Y-82634730D01*
X99249983Y-78250017D02*
X99249983Y-80000000D01*
X97365270Y-82634730D02*
X99249983Y-80750017D01*
X99249983Y-80750017D02*
X99249983Y-80000000D01*
X103500000Y-74000000D02*
X99249983Y-78250017D01*
X116500000Y-74000000D02*
X103500000Y-74000000D01*
X121000000Y-69500000D02*
X116500000Y-74000000D01*
X74434730Y-82634730D02*
X97365270Y-82634730D01*
X121122483Y-69500000D02*
X121000000Y-69500000D01*
%TO.N,Net-(D5-K)*%
X124097483Y-69500000D02*
X127000000Y-69500000D01*
X127000000Y-69500000D02*
X128500000Y-68000000D01*
%TO.N,/Led_Sensor6*%
X100500000Y-79980017D02*
X100519983Y-80000000D01*
X137122483Y-70500000D02*
X130622483Y-77000000D01*
X100519983Y-78980017D02*
X100519983Y-80000000D01*
X130622483Y-77000000D02*
X102500000Y-77000000D01*
X137122483Y-70000000D02*
X137122483Y-70500000D01*
X102500000Y-77000000D02*
X100519983Y-78980017D01*
%TO.N,Net-(D6-K)*%
X138362483Y-68265000D02*
X133765000Y-68265000D01*
X133765000Y-68265000D02*
X133500000Y-68000000D01*
X140097483Y-70000000D02*
X138362483Y-68265000D01*
%TD*%
%TA.AperFunction,Conductor*%
%TO.N,GND*%
G36*
X74383107Y-60679570D02*
G01*
X74426649Y-60617388D01*
X74497323Y-60465825D01*
X74543495Y-60413386D01*
X74610689Y-60394233D01*
X74677570Y-60414448D01*
X74722088Y-60465824D01*
X74792880Y-60617638D01*
X74792881Y-60617639D01*
X74918385Y-60796877D01*
X75073106Y-60951598D01*
X75252344Y-61077102D01*
X75450653Y-61169575D01*
X75662006Y-61226207D01*
X75670324Y-61226934D01*
X75735391Y-61252381D01*
X75776373Y-61308970D01*
X75780256Y-61378731D01*
X75745806Y-61439518D01*
X75727460Y-61453749D01*
X75727492Y-61453793D01*
X75726101Y-61454803D01*
X75724328Y-61456179D01*
X75723559Y-61456649D01*
X75584516Y-61557670D01*
X75532473Y-61595483D01*
X75532471Y-61595485D01*
X75532470Y-61595485D01*
X75365468Y-61762487D01*
X75365468Y-61762488D01*
X75365466Y-61762490D01*
X75305845Y-61844550D01*
X75226640Y-61953566D01*
X75119416Y-62164003D01*
X75046429Y-62388631D01*
X75009483Y-62621902D01*
X75009483Y-62858097D01*
X75046429Y-63091368D01*
X75119416Y-63315996D01*
X75226640Y-63526433D01*
X75365466Y-63717510D01*
X75532473Y-63884517D01*
X75723543Y-64023338D01*
X75723550Y-64023343D01*
X75724312Y-64023810D01*
X75724540Y-64024062D01*
X75727492Y-64026207D01*
X75727041Y-64026827D01*
X75771187Y-64075623D01*
X75782608Y-64144553D01*
X75754951Y-64208715D01*
X75696995Y-64247739D01*
X75670330Y-64253064D01*
X75662006Y-64253793D01*
X75662003Y-64253793D01*
X75450660Y-64310422D01*
X75450651Y-64310426D01*
X75252344Y-64402898D01*
X75252340Y-64402900D01*
X75073104Y-64528402D01*
X74918385Y-64683121D01*
X74792883Y-64862357D01*
X74792883Y-64862358D01*
X74792881Y-64862361D01*
X74792881Y-64862362D01*
X74780180Y-64889597D01*
X74722088Y-65014176D01*
X74675915Y-65066615D01*
X74608721Y-65085766D01*
X74541840Y-65065550D01*
X74497324Y-65014175D01*
X74426650Y-64862614D01*
X74426649Y-64862612D01*
X74383107Y-64800428D01*
X74383107Y-64800427D01*
X73822945Y-65360589D01*
X73805908Y-65297007D01*
X73740082Y-65182993D01*
X73646990Y-65089901D01*
X73532976Y-65024075D01*
X73469392Y-65007037D01*
X74029554Y-64446874D01*
X73967370Y-64403333D01*
X73769142Y-64310898D01*
X73769133Y-64310894D01*
X73557877Y-64254289D01*
X73557870Y-64254288D01*
X73548912Y-64253504D01*
X73483845Y-64228047D01*
X73442869Y-64171454D01*
X73438995Y-64101692D01*
X73473452Y-64040910D01*
X73494957Y-64024236D01*
X73496397Y-64023352D01*
X73496416Y-64023343D01*
X73687493Y-63884517D01*
X73854500Y-63717510D01*
X73993326Y-63526433D01*
X74100551Y-63315992D01*
X74173536Y-63091368D01*
X74210483Y-62858097D01*
X74210483Y-62621902D01*
X74173536Y-62388631D01*
X74100549Y-62164003D01*
X73993325Y-61953566D01*
X73854500Y-61762490D01*
X73687493Y-61595483D01*
X73496416Y-61456657D01*
X73496410Y-61456654D01*
X73494943Y-61455755D01*
X73494498Y-61455264D01*
X73492474Y-61453793D01*
X73492782Y-61453367D01*
X73448064Y-61403946D01*
X73436637Y-61335017D01*
X73464290Y-61270852D01*
X73522243Y-61231824D01*
X73548920Y-61226495D01*
X73557866Y-61225712D01*
X73557877Y-61225710D01*
X73769133Y-61169105D01*
X73769147Y-61169100D01*
X73967366Y-61076669D01*
X73967368Y-61076668D01*
X74029554Y-61033124D01*
X73469393Y-60472962D01*
X73532976Y-60455925D01*
X73646990Y-60390099D01*
X73740082Y-60297007D01*
X73805908Y-60182993D01*
X73822945Y-60119409D01*
X74383107Y-60679570D01*
G37*
%TD.AperFunction*%
%TA.AperFunction,Conductor*%
G36*
X90383107Y-60679570D02*
G01*
X90426649Y-60617388D01*
X90497323Y-60465825D01*
X90543495Y-60413386D01*
X90610689Y-60394233D01*
X90677570Y-60414448D01*
X90722088Y-60465824D01*
X90792880Y-60617638D01*
X90792881Y-60617639D01*
X90918385Y-60796877D01*
X91073106Y-60951598D01*
X91252344Y-61077102D01*
X91450653Y-61169575D01*
X91662006Y-61226207D01*
X91670324Y-61226934D01*
X91735391Y-61252381D01*
X91776373Y-61308970D01*
X91780256Y-61378731D01*
X91745806Y-61439518D01*
X91727460Y-61453749D01*
X91727492Y-61453793D01*
X91726101Y-61454803D01*
X91724328Y-61456179D01*
X91723559Y-61456649D01*
X91584516Y-61557670D01*
X91532473Y-61595483D01*
X91532471Y-61595485D01*
X91532470Y-61595485D01*
X91365468Y-61762487D01*
X91365468Y-61762488D01*
X91365466Y-61762490D01*
X91305845Y-61844550D01*
X91226640Y-61953566D01*
X91119416Y-62164003D01*
X91046429Y-62388631D01*
X91009483Y-62621902D01*
X91009483Y-62858097D01*
X91046429Y-63091368D01*
X91119416Y-63315996D01*
X91226640Y-63526433D01*
X91365466Y-63717510D01*
X91532473Y-63884517D01*
X91723543Y-64023338D01*
X91723550Y-64023343D01*
X91724312Y-64023810D01*
X91724540Y-64024062D01*
X91727492Y-64026207D01*
X91727041Y-64026827D01*
X91771187Y-64075623D01*
X91782608Y-64144553D01*
X91754951Y-64208715D01*
X91696995Y-64247739D01*
X91670330Y-64253064D01*
X91662006Y-64253793D01*
X91662003Y-64253793D01*
X91450660Y-64310422D01*
X91450651Y-64310426D01*
X91252344Y-64402898D01*
X91252340Y-64402900D01*
X91073104Y-64528402D01*
X90918385Y-64683121D01*
X90792883Y-64862357D01*
X90792883Y-64862358D01*
X90792881Y-64862361D01*
X90792881Y-64862362D01*
X90780180Y-64889597D01*
X90722088Y-65014176D01*
X90675915Y-65066615D01*
X90608721Y-65085766D01*
X90541840Y-65065550D01*
X90497324Y-65014175D01*
X90426650Y-64862614D01*
X90426649Y-64862612D01*
X90383107Y-64800428D01*
X90383107Y-64800427D01*
X89822945Y-65360589D01*
X89805908Y-65297007D01*
X89740082Y-65182993D01*
X89646990Y-65089901D01*
X89532976Y-65024075D01*
X89469392Y-65007037D01*
X90029554Y-64446874D01*
X89967370Y-64403333D01*
X89769142Y-64310898D01*
X89769133Y-64310894D01*
X89557877Y-64254289D01*
X89557870Y-64254288D01*
X89548912Y-64253504D01*
X89483845Y-64228047D01*
X89442869Y-64171454D01*
X89438995Y-64101692D01*
X89473452Y-64040910D01*
X89494957Y-64024236D01*
X89496397Y-64023352D01*
X89496416Y-64023343D01*
X89687493Y-63884517D01*
X89854500Y-63717510D01*
X89993326Y-63526433D01*
X90100551Y-63315992D01*
X90173536Y-63091368D01*
X90210483Y-62858097D01*
X90210483Y-62621902D01*
X90173536Y-62388631D01*
X90100549Y-62164003D01*
X89993325Y-61953566D01*
X89854500Y-61762490D01*
X89687493Y-61595483D01*
X89496416Y-61456657D01*
X89496410Y-61456654D01*
X89494943Y-61455755D01*
X89494498Y-61455264D01*
X89492474Y-61453793D01*
X89492782Y-61453367D01*
X89448064Y-61403946D01*
X89436637Y-61335017D01*
X89464290Y-61270852D01*
X89522243Y-61231824D01*
X89548920Y-61226495D01*
X89557866Y-61225712D01*
X89557877Y-61225710D01*
X89769133Y-61169105D01*
X89769147Y-61169100D01*
X89967366Y-61076669D01*
X89967368Y-61076668D01*
X90029554Y-61033124D01*
X89469393Y-60472962D01*
X89532976Y-60455925D01*
X89646990Y-60390099D01*
X89740082Y-60297007D01*
X89805908Y-60182993D01*
X89822945Y-60119409D01*
X90383107Y-60679570D01*
G37*
%TD.AperFunction*%
%TA.AperFunction,Conductor*%
G36*
X106383107Y-60679570D02*
G01*
X106426649Y-60617388D01*
X106497323Y-60465825D01*
X106543495Y-60413386D01*
X106610689Y-60394233D01*
X106677570Y-60414448D01*
X106722088Y-60465824D01*
X106792880Y-60617638D01*
X106792881Y-60617639D01*
X106918385Y-60796877D01*
X107073106Y-60951598D01*
X107252344Y-61077102D01*
X107450653Y-61169575D01*
X107662006Y-61226207D01*
X107670324Y-61226934D01*
X107735391Y-61252381D01*
X107776373Y-61308970D01*
X107780256Y-61378731D01*
X107745806Y-61439518D01*
X107727460Y-61453749D01*
X107727492Y-61453793D01*
X107726101Y-61454803D01*
X107724328Y-61456179D01*
X107723559Y-61456649D01*
X107584516Y-61557670D01*
X107532473Y-61595483D01*
X107532471Y-61595485D01*
X107532470Y-61595485D01*
X107365468Y-61762487D01*
X107365468Y-61762488D01*
X107365466Y-61762490D01*
X107305845Y-61844550D01*
X107226640Y-61953566D01*
X107119416Y-62164003D01*
X107046429Y-62388631D01*
X107009483Y-62621902D01*
X107009483Y-62858097D01*
X107046429Y-63091368D01*
X107119416Y-63315996D01*
X107226640Y-63526433D01*
X107365466Y-63717510D01*
X107532473Y-63884517D01*
X107723543Y-64023338D01*
X107723550Y-64023343D01*
X107724312Y-64023810D01*
X107724540Y-64024062D01*
X107727492Y-64026207D01*
X107727041Y-64026827D01*
X107771187Y-64075623D01*
X107782608Y-64144553D01*
X107754951Y-64208715D01*
X107696995Y-64247739D01*
X107670330Y-64253064D01*
X107662006Y-64253793D01*
X107662003Y-64253793D01*
X107450660Y-64310422D01*
X107450651Y-64310426D01*
X107252344Y-64402898D01*
X107252340Y-64402900D01*
X107073104Y-64528402D01*
X106918385Y-64683121D01*
X106792883Y-64862357D01*
X106792883Y-64862358D01*
X106792881Y-64862361D01*
X106792881Y-64862362D01*
X106780180Y-64889597D01*
X106722088Y-65014176D01*
X106675915Y-65066615D01*
X106608721Y-65085766D01*
X106541840Y-65065550D01*
X106497324Y-65014175D01*
X106426650Y-64862614D01*
X106426649Y-64862612D01*
X106383107Y-64800428D01*
X106383107Y-64800427D01*
X105822945Y-65360589D01*
X105805908Y-65297007D01*
X105740082Y-65182993D01*
X105646990Y-65089901D01*
X105532976Y-65024075D01*
X105469392Y-65007037D01*
X106029554Y-64446874D01*
X105967370Y-64403333D01*
X105769142Y-64310898D01*
X105769133Y-64310894D01*
X105557877Y-64254289D01*
X105557870Y-64254288D01*
X105548912Y-64253504D01*
X105483845Y-64228047D01*
X105442869Y-64171454D01*
X105438995Y-64101692D01*
X105473452Y-64040910D01*
X105494957Y-64024236D01*
X105496397Y-64023352D01*
X105496416Y-64023343D01*
X105687493Y-63884517D01*
X105854500Y-63717510D01*
X105993326Y-63526433D01*
X106100551Y-63315992D01*
X106173536Y-63091368D01*
X106210483Y-62858097D01*
X106210483Y-62621902D01*
X106173536Y-62388631D01*
X106100549Y-62164003D01*
X105993325Y-61953566D01*
X105854500Y-61762490D01*
X105687493Y-61595483D01*
X105496416Y-61456657D01*
X105496410Y-61456654D01*
X105494943Y-61455755D01*
X105494498Y-61455264D01*
X105492474Y-61453793D01*
X105492782Y-61453367D01*
X105448064Y-61403946D01*
X105436637Y-61335017D01*
X105464290Y-61270852D01*
X105522243Y-61231824D01*
X105548920Y-61226495D01*
X105557866Y-61225712D01*
X105557877Y-61225710D01*
X105769133Y-61169105D01*
X105769147Y-61169100D01*
X105967366Y-61076669D01*
X105967368Y-61076668D01*
X106029554Y-61033124D01*
X105469393Y-60472962D01*
X105532976Y-60455925D01*
X105646990Y-60390099D01*
X105740082Y-60297007D01*
X105805908Y-60182993D01*
X105822945Y-60119409D01*
X106383107Y-60679570D01*
G37*
%TD.AperFunction*%
%TA.AperFunction,Conductor*%
G36*
X122383107Y-60679570D02*
G01*
X122426649Y-60617388D01*
X122497323Y-60465825D01*
X122543495Y-60413386D01*
X122610689Y-60394233D01*
X122677570Y-60414448D01*
X122722088Y-60465824D01*
X122792880Y-60617638D01*
X122792881Y-60617639D01*
X122918385Y-60796877D01*
X123073106Y-60951598D01*
X123252344Y-61077102D01*
X123450653Y-61169575D01*
X123662006Y-61226207D01*
X123670324Y-61226934D01*
X123735391Y-61252381D01*
X123776373Y-61308970D01*
X123780256Y-61378731D01*
X123745806Y-61439518D01*
X123727460Y-61453749D01*
X123727492Y-61453793D01*
X123726101Y-61454803D01*
X123724328Y-61456179D01*
X123723559Y-61456649D01*
X123584516Y-61557670D01*
X123532473Y-61595483D01*
X123532471Y-61595485D01*
X123532470Y-61595485D01*
X123365468Y-61762487D01*
X123365468Y-61762488D01*
X123365466Y-61762490D01*
X123305845Y-61844550D01*
X123226640Y-61953566D01*
X123119416Y-62164003D01*
X123046429Y-62388631D01*
X123009483Y-62621902D01*
X123009483Y-62858097D01*
X123046429Y-63091368D01*
X123119416Y-63315996D01*
X123226640Y-63526433D01*
X123365466Y-63717510D01*
X123532473Y-63884517D01*
X123723543Y-64023338D01*
X123723550Y-64023343D01*
X123724312Y-64023810D01*
X123724540Y-64024062D01*
X123727492Y-64026207D01*
X123727041Y-64026827D01*
X123771187Y-64075623D01*
X123782608Y-64144553D01*
X123754951Y-64208715D01*
X123696995Y-64247739D01*
X123670330Y-64253064D01*
X123662006Y-64253793D01*
X123662003Y-64253793D01*
X123450660Y-64310422D01*
X123450651Y-64310426D01*
X123252344Y-64402898D01*
X123252340Y-64402900D01*
X123073104Y-64528402D01*
X122918385Y-64683121D01*
X122792883Y-64862357D01*
X122792883Y-64862358D01*
X122792881Y-64862361D01*
X122792881Y-64862362D01*
X122780180Y-64889597D01*
X122722088Y-65014176D01*
X122675915Y-65066615D01*
X122608721Y-65085766D01*
X122541840Y-65065550D01*
X122497324Y-65014175D01*
X122426650Y-64862614D01*
X122426649Y-64862612D01*
X122383107Y-64800428D01*
X122383107Y-64800427D01*
X121822945Y-65360589D01*
X121805908Y-65297007D01*
X121740082Y-65182993D01*
X121646990Y-65089901D01*
X121532976Y-65024075D01*
X121469392Y-65007037D01*
X122029554Y-64446874D01*
X121967370Y-64403333D01*
X121769142Y-64310898D01*
X121769133Y-64310894D01*
X121557877Y-64254289D01*
X121557870Y-64254288D01*
X121548912Y-64253504D01*
X121483845Y-64228047D01*
X121442869Y-64171454D01*
X121438995Y-64101692D01*
X121473452Y-64040910D01*
X121494957Y-64024236D01*
X121496397Y-64023352D01*
X121496416Y-64023343D01*
X121687493Y-63884517D01*
X121854500Y-63717510D01*
X121993326Y-63526433D01*
X122100551Y-63315992D01*
X122173536Y-63091368D01*
X122210483Y-62858097D01*
X122210483Y-62621902D01*
X122173536Y-62388631D01*
X122100549Y-62164003D01*
X121993325Y-61953566D01*
X121854500Y-61762490D01*
X121687493Y-61595483D01*
X121496416Y-61456657D01*
X121496410Y-61456654D01*
X121494943Y-61455755D01*
X121494498Y-61455264D01*
X121492474Y-61453793D01*
X121492782Y-61453367D01*
X121448064Y-61403946D01*
X121436637Y-61335017D01*
X121464290Y-61270852D01*
X121522243Y-61231824D01*
X121548920Y-61226495D01*
X121557866Y-61225712D01*
X121557877Y-61225710D01*
X121769133Y-61169105D01*
X121769147Y-61169100D01*
X121967366Y-61076669D01*
X121967368Y-61076668D01*
X122029554Y-61033124D01*
X121469393Y-60472962D01*
X121532976Y-60455925D01*
X121646990Y-60390099D01*
X121740082Y-60297007D01*
X121805908Y-60182993D01*
X121822945Y-60119409D01*
X122383107Y-60679570D01*
G37*
%TD.AperFunction*%
%TA.AperFunction,Conductor*%
G36*
X138383107Y-60679570D02*
G01*
X138426649Y-60617388D01*
X138497323Y-60465825D01*
X138543495Y-60413386D01*
X138610689Y-60394233D01*
X138677570Y-60414448D01*
X138722088Y-60465824D01*
X138792880Y-60617638D01*
X138792881Y-60617639D01*
X138918385Y-60796877D01*
X139073106Y-60951598D01*
X139252344Y-61077102D01*
X139450653Y-61169575D01*
X139662006Y-61226207D01*
X139670324Y-61226934D01*
X139735391Y-61252381D01*
X139776373Y-61308970D01*
X139780256Y-61378731D01*
X139745806Y-61439518D01*
X139727460Y-61453749D01*
X139727492Y-61453793D01*
X139726101Y-61454803D01*
X139724328Y-61456179D01*
X139723559Y-61456649D01*
X139584516Y-61557670D01*
X139532473Y-61595483D01*
X139532471Y-61595485D01*
X139532470Y-61595485D01*
X139365468Y-61762487D01*
X139365468Y-61762488D01*
X139365466Y-61762490D01*
X139305845Y-61844550D01*
X139226640Y-61953566D01*
X139119416Y-62164003D01*
X139046429Y-62388631D01*
X139009483Y-62621902D01*
X139009483Y-62858097D01*
X139046429Y-63091368D01*
X139119416Y-63315996D01*
X139226640Y-63526433D01*
X139365466Y-63717510D01*
X139532473Y-63884517D01*
X139723543Y-64023338D01*
X139723550Y-64023343D01*
X139724312Y-64023810D01*
X139724540Y-64024062D01*
X139727492Y-64026207D01*
X139727041Y-64026827D01*
X139771187Y-64075623D01*
X139782608Y-64144553D01*
X139754951Y-64208715D01*
X139696995Y-64247739D01*
X139670330Y-64253064D01*
X139662006Y-64253793D01*
X139662003Y-64253793D01*
X139450660Y-64310422D01*
X139450651Y-64310426D01*
X139252344Y-64402898D01*
X139252340Y-64402900D01*
X139073104Y-64528402D01*
X138918385Y-64683121D01*
X138792883Y-64862357D01*
X138792883Y-64862358D01*
X138792881Y-64862361D01*
X138792881Y-64862362D01*
X138780180Y-64889597D01*
X138722088Y-65014176D01*
X138675915Y-65066615D01*
X138608721Y-65085766D01*
X138541840Y-65065550D01*
X138497324Y-65014175D01*
X138426650Y-64862614D01*
X138426649Y-64862612D01*
X138383107Y-64800428D01*
X138383107Y-64800427D01*
X137822945Y-65360589D01*
X137805908Y-65297007D01*
X137740082Y-65182993D01*
X137646990Y-65089901D01*
X137532976Y-65024075D01*
X137469392Y-65007037D01*
X138029554Y-64446874D01*
X137967370Y-64403333D01*
X137769142Y-64310898D01*
X137769133Y-64310894D01*
X137557877Y-64254289D01*
X137557870Y-64254288D01*
X137548912Y-64253504D01*
X137483845Y-64228047D01*
X137442869Y-64171454D01*
X137438995Y-64101692D01*
X137473452Y-64040910D01*
X137494957Y-64024236D01*
X137496397Y-64023352D01*
X137496416Y-64023343D01*
X137687493Y-63884517D01*
X137854500Y-63717510D01*
X137993326Y-63526433D01*
X138100551Y-63315992D01*
X138173536Y-63091368D01*
X138210483Y-62858097D01*
X138210483Y-62621902D01*
X138173536Y-62388631D01*
X138100549Y-62164003D01*
X137993325Y-61953566D01*
X137854500Y-61762490D01*
X137687493Y-61595483D01*
X137496416Y-61456657D01*
X137496410Y-61456654D01*
X137494943Y-61455755D01*
X137494498Y-61455264D01*
X137492474Y-61453793D01*
X137492782Y-61453367D01*
X137448064Y-61403946D01*
X137436637Y-61335017D01*
X137464290Y-61270852D01*
X137522243Y-61231824D01*
X137548920Y-61226495D01*
X137557866Y-61225712D01*
X137557877Y-61225710D01*
X137769133Y-61169105D01*
X137769147Y-61169100D01*
X137967366Y-61076669D01*
X137967368Y-61076668D01*
X138029554Y-61033124D01*
X137469393Y-60472962D01*
X137532976Y-60455925D01*
X137646990Y-60390099D01*
X137740082Y-60297007D01*
X137805908Y-60182993D01*
X137822945Y-60119409D01*
X138383107Y-60679570D01*
G37*
%TD.AperFunction*%
%TA.AperFunction,Conductor*%
G36*
X143052522Y-55800185D02*
G01*
X143098277Y-55852989D01*
X143109483Y-55904500D01*
X143109483Y-82715500D01*
X143089798Y-82782539D01*
X143036994Y-82828294D01*
X142985483Y-82839500D01*
X98344452Y-82839500D01*
X98277413Y-82819815D01*
X98231658Y-82767011D01*
X98221714Y-82697853D01*
X98250739Y-82634297D01*
X98256771Y-82627819D01*
X98890529Y-81994062D01*
X99735841Y-81148750D01*
X99804295Y-81046302D01*
X99831915Y-80979620D01*
X99851446Y-80932469D01*
X99851446Y-80932464D01*
X99851774Y-80931675D01*
X99895615Y-80877271D01*
X99961909Y-80855205D01*
X100024787Y-80869767D01*
X100105996Y-80913174D01*
X100131422Y-80926765D01*
X100135256Y-80928814D01*
X100323851Y-80986024D01*
X100519983Y-81005341D01*
X100716115Y-80986024D01*
X100904710Y-80928814D01*
X101078521Y-80835910D01*
X101078527Y-80835904D01*
X101083590Y-80832523D01*
X101084686Y-80834164D01*
X101140622Y-80810405D01*
X101209490Y-80822194D01*
X101226131Y-80832888D01*
X101226376Y-80832523D01*
X101231441Y-80835907D01*
X101231445Y-80835910D01*
X101375996Y-80913174D01*
X101401422Y-80926765D01*
X101405256Y-80928814D01*
X101593851Y-80986024D01*
X101789983Y-81005341D01*
X101986115Y-80986024D01*
X102174710Y-80928814D01*
X102177321Y-80927418D01*
X102178847Y-80927100D01*
X102180338Y-80926483D01*
X102180455Y-80926765D01*
X102245720Y-80913174D01*
X102310089Y-80937510D01*
X102317891Y-80943351D01*
X102452606Y-80993597D01*
X102452610Y-80993598D01*
X102512138Y-80999999D01*
X102512155Y-81000000D01*
X102809983Y-81000000D01*
X103309983Y-81000000D01*
X103607811Y-81000000D01*
X103607827Y-80999999D01*
X103667355Y-80993598D01*
X103667362Y-80993596D01*
X103802069Y-80943354D01*
X103802076Y-80943350D01*
X103917170Y-80857190D01*
X103917173Y-80857187D01*
X104003333Y-80742093D01*
X104003337Y-80742086D01*
X104053579Y-80607379D01*
X104053581Y-80607372D01*
X104059982Y-80547844D01*
X104059983Y-80547827D01*
X104059983Y-80250000D01*
X103309983Y-80250000D01*
X103309983Y-81000000D01*
X102809983Y-81000000D01*
X102809983Y-80209618D01*
X102860429Y-80260064D01*
X102934538Y-80302851D01*
X103017196Y-80325000D01*
X103102770Y-80325000D01*
X103185428Y-80302851D01*
X103259537Y-80260064D01*
X103320047Y-80199554D01*
X103362834Y-80125445D01*
X103384983Y-80042787D01*
X103384983Y-79957213D01*
X103362834Y-79874555D01*
X103320047Y-79800446D01*
X103269601Y-79750000D01*
X104059983Y-79750000D01*
X104059983Y-79452172D01*
X104059982Y-79452155D01*
X104053581Y-79392627D01*
X104053579Y-79392620D01*
X104003337Y-79257913D01*
X104003333Y-79257906D01*
X103951811Y-79189082D01*
X103927393Y-79123618D01*
X103942244Y-79055345D01*
X103991649Y-79005939D01*
X104051077Y-78990771D01*
X106993123Y-78990771D01*
X107060162Y-79010456D01*
X107105917Y-79063260D01*
X107115861Y-79132418D01*
X107092390Y-79189081D01*
X106922758Y-79415682D01*
X106922753Y-79415690D01*
X106785618Y-79666833D01*
X106685611Y-79934962D01*
X106624787Y-80214566D01*
X106604373Y-80499998D01*
X106604373Y-80500001D01*
X106624787Y-80785433D01*
X106685611Y-81065037D01*
X106685613Y-81065043D01*
X106685614Y-81065046D01*
X106767889Y-81285633D01*
X106785618Y-81333166D01*
X106922753Y-81584309D01*
X106922758Y-81584317D01*
X107094237Y-81813387D01*
X107094253Y-81813405D01*
X107296577Y-82015729D01*
X107296595Y-82015745D01*
X107525665Y-82187224D01*
X107525673Y-82187229D01*
X107776816Y-82324364D01*
X107776815Y-82324364D01*
X107776819Y-82324365D01*
X107776822Y-82324367D01*
X108044937Y-82424369D01*
X108044943Y-82424370D01*
X108044945Y-82424371D01*
X108324549Y-82485195D01*
X108324551Y-82485195D01*
X108324555Y-82485196D01*
X108578203Y-82503337D01*
X108609982Y-82505610D01*
X108609983Y-82505610D01*
X108609984Y-82505610D01*
X108638578Y-82503564D01*
X108895411Y-82485196D01*
X109175029Y-82424369D01*
X109443144Y-82324367D01*
X109694298Y-82187226D01*
X109923378Y-82015739D01*
X110125722Y-81813395D01*
X110297209Y-81584315D01*
X110434350Y-81333161D01*
X110534352Y-81065046D01*
X110538429Y-81046306D01*
X110595178Y-80785433D01*
X110595178Y-80785432D01*
X110595179Y-80785428D01*
X110615593Y-80500000D01*
X110595179Y-80214572D01*
X110548502Y-80000002D01*
X110534354Y-79934962D01*
X110534353Y-79934960D01*
X110534352Y-79934954D01*
X110434350Y-79666839D01*
X110372561Y-79553682D01*
X110297212Y-79415690D01*
X110297207Y-79415682D01*
X110127576Y-79189081D01*
X110103159Y-79123617D01*
X110118011Y-79055344D01*
X110167416Y-79005939D01*
X110226843Y-78990771D01*
X112131461Y-78990771D01*
X112198500Y-79010456D01*
X112244255Y-79063260D01*
X112254199Y-79132418D01*
X112233036Y-79185895D01*
X112119866Y-79347517D01*
X112023734Y-79553673D01*
X112023730Y-79553682D01*
X111964860Y-79773389D01*
X111964858Y-79773400D01*
X111945034Y-79999997D01*
X111945034Y-80000002D01*
X111964858Y-80226599D01*
X111964860Y-80226610D01*
X112023730Y-80446317D01*
X112023735Y-80446331D01*
X112119863Y-80652478D01*
X112170974Y-80725472D01*
X112850000Y-80046446D01*
X112850000Y-80052661D01*
X112877259Y-80154394D01*
X112929920Y-80245606D01*
X113004394Y-80320080D01*
X113095606Y-80372741D01*
X113197339Y-80400000D01*
X113203553Y-80400000D01*
X112524526Y-81079025D01*
X112597513Y-81130132D01*
X112597521Y-81130136D01*
X112803668Y-81226264D01*
X112803682Y-81226269D01*
X113023389Y-81285139D01*
X113023400Y-81285141D01*
X113249998Y-81304966D01*
X113250002Y-81304966D01*
X113476599Y-81285141D01*
X113476610Y-81285139D01*
X113696317Y-81226269D01*
X113696331Y-81226264D01*
X113902478Y-81130136D01*
X113975471Y-81079024D01*
X113296447Y-80400000D01*
X113302661Y-80400000D01*
X113404394Y-80372741D01*
X113495606Y-80320080D01*
X113570080Y-80245606D01*
X113622741Y-80154394D01*
X113650000Y-80052661D01*
X113650000Y-80046447D01*
X114329024Y-80725471D01*
X114380134Y-80652481D01*
X114387340Y-80637028D01*
X114433511Y-80584587D01*
X114500704Y-80565433D01*
X114567585Y-80585646D01*
X114612105Y-80637022D01*
X114619430Y-80652730D01*
X114619432Y-80652734D01*
X114749954Y-80839141D01*
X114910858Y-81000045D01*
X114910861Y-81000047D01*
X115097266Y-81130568D01*
X115303504Y-81226739D01*
X115523308Y-81285635D01*
X115685230Y-81299801D01*
X115749998Y-81305468D01*
X115750000Y-81305468D01*
X115750002Y-81305468D01*
X115806673Y-81300509D01*
X115976692Y-81285635D01*
X116196496Y-81226739D01*
X116402734Y-81130568D01*
X116589139Y-81000047D01*
X116750047Y-80839139D01*
X116880568Y-80652734D01*
X116976739Y-80446496D01*
X117035635Y-80226692D01*
X117055468Y-80000000D01*
X117054543Y-79989432D01*
X117049777Y-79934954D01*
X117035635Y-79773308D01*
X116976739Y-79553504D01*
X116880568Y-79347266D01*
X116750047Y-79160861D01*
X116750045Y-79160858D01*
X116589141Y-78999954D01*
X116402734Y-78869432D01*
X116402732Y-78869431D01*
X116196497Y-78773261D01*
X116196488Y-78773258D01*
X115976697Y-78714366D01*
X115976687Y-78714364D01*
X115881665Y-78706050D01*
X115816597Y-78680597D01*
X115804793Y-78670203D01*
X115105469Y-77970879D01*
X115105449Y-77970857D01*
X115014007Y-77879415D01*
X115014003Y-77879412D01*
X114973879Y-77852602D01*
X114929074Y-77798990D01*
X114920367Y-77729665D01*
X114950521Y-77666638D01*
X115009964Y-77629918D01*
X115042770Y-77625500D01*
X130684091Y-77625500D01*
X130684091Y-77625499D01*
X130769456Y-77608520D01*
X130769458Y-77608520D01*
X130779592Y-77606503D01*
X130804935Y-77601463D01*
X130845928Y-77584483D01*
X130918769Y-77554312D01*
X130969992Y-77520084D01*
X131021216Y-77485858D01*
X131108341Y-77398733D01*
X131108342Y-77398731D01*
X131115408Y-77391665D01*
X131115410Y-77391661D01*
X137095254Y-71411819D01*
X137156577Y-71378334D01*
X137182935Y-71375500D01*
X137634986Y-71375500D01*
X137634991Y-71375500D01*
X137737780Y-71364999D01*
X137904317Y-71309814D01*
X138053638Y-71217711D01*
X138177694Y-71093655D01*
X138269797Y-70944334D01*
X138324982Y-70777797D01*
X138335483Y-70675008D01*
X138335483Y-69421952D01*
X138355168Y-69354913D01*
X138407972Y-69309158D01*
X138477130Y-69299214D01*
X138540686Y-69328239D01*
X138547164Y-69334271D01*
X138848164Y-69635271D01*
X138881649Y-69696594D01*
X138884483Y-69722952D01*
X138884483Y-70675015D01*
X138894983Y-70777795D01*
X138894984Y-70777797D01*
X138905594Y-70809815D01*
X138950169Y-70944335D01*
X138950170Y-70944337D01*
X139042269Y-71093651D01*
X139042272Y-71093655D01*
X139166327Y-71217710D01*
X139166331Y-71217713D01*
X139315645Y-71309812D01*
X139315647Y-71309813D01*
X139315649Y-71309814D01*
X139482186Y-71364999D01*
X139584975Y-71375500D01*
X139584980Y-71375500D01*
X140609986Y-71375500D01*
X140609991Y-71375500D01*
X140712780Y-71364999D01*
X140879317Y-71309814D01*
X141028638Y-71217711D01*
X141152694Y-71093655D01*
X141244797Y-70944334D01*
X141299982Y-70777797D01*
X141310483Y-70675008D01*
X141310483Y-69324992D01*
X141299982Y-69222203D01*
X141244797Y-69055666D01*
X141243463Y-69053504D01*
X141152696Y-68906348D01*
X141152693Y-68906344D01*
X141028638Y-68782289D01*
X141028634Y-68782286D01*
X140879320Y-68690187D01*
X140879318Y-68690186D01*
X140743513Y-68645185D01*
X140712780Y-68635001D01*
X140712778Y-68635000D01*
X140609998Y-68624500D01*
X140609991Y-68624500D01*
X139657935Y-68624500D01*
X139590896Y-68604815D01*
X139570254Y-68588181D01*
X138855411Y-67873338D01*
X138855408Y-67873334D01*
X138855408Y-67873335D01*
X138848341Y-67866268D01*
X138848341Y-67866267D01*
X138761216Y-67779142D01*
X138761215Y-67779141D01*
X138761214Y-67779140D01*
X138709992Y-67744915D01*
X138658770Y-67710689D01*
X138658769Y-67710688D01*
X138658766Y-67710686D01*
X138658763Y-67710685D01*
X138578275Y-67677347D01*
X138544936Y-67663537D01*
X138534910Y-67661543D01*
X138484512Y-67651518D01*
X138424093Y-67639500D01*
X138424090Y-67639500D01*
X138424089Y-67639500D01*
X137026652Y-67639500D01*
X136959613Y-67619815D01*
X136913858Y-67567011D01*
X136903914Y-67497853D01*
X136905035Y-67491308D01*
X136910483Y-67463918D01*
X136910483Y-67316079D01*
X136881642Y-67171092D01*
X136881641Y-67171091D01*
X136881641Y-67171087D01*
X136834504Y-67057288D01*
X136825070Y-67034511D01*
X136825063Y-67034498D01*
X136742934Y-66911584D01*
X136742931Y-66911580D01*
X136639161Y-66807810D01*
X136605676Y-66746487D01*
X136609895Y-66687486D01*
X136592701Y-66705235D01*
X136524673Y-66721168D01*
X136484104Y-66711920D01*
X136378900Y-66668343D01*
X136378890Y-66668340D01*
X136233903Y-66639500D01*
X136233901Y-66639500D01*
X136086065Y-66639500D01*
X136086063Y-66639500D01*
X135941075Y-66668340D01*
X135941065Y-66668343D01*
X135804494Y-66724912D01*
X135804481Y-66724919D01*
X135681567Y-66807048D01*
X135681563Y-66807051D01*
X135577034Y-66911580D01*
X135577031Y-66911584D01*
X135494902Y-67034498D01*
X135494895Y-67034511D01*
X135438326Y-67171082D01*
X135438323Y-67171092D01*
X135409483Y-67316079D01*
X135409483Y-67463918D01*
X135414931Y-67491308D01*
X135408704Y-67560899D01*
X135365842Y-67616077D01*
X135299952Y-67639322D01*
X135293314Y-67639500D01*
X134816513Y-67639500D01*
X134749474Y-67619815D01*
X134703719Y-67567011D01*
X134693155Y-67528100D01*
X134689999Y-67497203D01*
X134689998Y-67497200D01*
X134672929Y-67445689D01*
X134634814Y-67330666D01*
X134542712Y-67181344D01*
X134448695Y-67087327D01*
X134415210Y-67026004D01*
X134420194Y-66956312D01*
X134448695Y-66911964D01*
X134542317Y-66818342D01*
X134634356Y-66669124D01*
X134634358Y-66669119D01*
X134689505Y-66502697D01*
X134689506Y-66502690D01*
X134699999Y-66399986D01*
X134700000Y-66399973D01*
X134700000Y-66250000D01*
X132300001Y-66250000D01*
X132300001Y-66399986D01*
X132310494Y-66502697D01*
X132365641Y-66669119D01*
X132365643Y-66669124D01*
X132457684Y-66818345D01*
X132551304Y-66911965D01*
X132584789Y-66973288D01*
X132579805Y-67042980D01*
X132551305Y-67087327D01*
X132457287Y-67181345D01*
X132365187Y-67330663D01*
X132365185Y-67330668D01*
X132350661Y-67374500D01*
X132310001Y-67497203D01*
X132310001Y-67497204D01*
X132310000Y-67497204D01*
X132299500Y-67599983D01*
X132299500Y-68400001D01*
X132299501Y-68400019D01*
X132310000Y-68502796D01*
X132310001Y-68502799D01*
X132365185Y-68669331D01*
X132365187Y-68669336D01*
X132378048Y-68690187D01*
X132457288Y-68818656D01*
X132581344Y-68942712D01*
X132730666Y-69034814D01*
X132897203Y-69089999D01*
X132999991Y-69100500D01*
X134000008Y-69100499D01*
X134000016Y-69100498D01*
X134000019Y-69100498D01*
X134056302Y-69094748D01*
X134102797Y-69089999D01*
X134269334Y-69034814D01*
X134418656Y-68942712D01*
X134434549Y-68926819D01*
X134495872Y-68893334D01*
X134522230Y-68890500D01*
X135858180Y-68890500D01*
X135925219Y-68910185D01*
X135970974Y-68962989D01*
X135980918Y-69032147D01*
X135975886Y-69053504D01*
X135975171Y-69055662D01*
X135975169Y-69055666D01*
X135919984Y-69222203D01*
X135919984Y-69222204D01*
X135919983Y-69222204D01*
X135909483Y-69324984D01*
X135909483Y-70675017D01*
X135917713Y-70755572D01*
X135904943Y-70824265D01*
X135882036Y-70855855D01*
X130399712Y-76338181D01*
X130338389Y-76371666D01*
X130312031Y-76374500D01*
X102438389Y-76374500D01*
X102377971Y-76386518D01*
X102334222Y-76395220D01*
X102317531Y-76398540D01*
X102315410Y-76399184D01*
X102314246Y-76399194D01*
X102311573Y-76399726D01*
X102311472Y-76399218D01*
X102245544Y-76399797D01*
X102186436Y-76362540D01*
X102156855Y-76299241D01*
X102166191Y-76229998D01*
X102191748Y-76192842D01*
X103722772Y-74661819D01*
X103784095Y-74628334D01*
X103810453Y-74625500D01*
X116561607Y-74625500D01*
X116622029Y-74613481D01*
X116682452Y-74601463D01*
X116682455Y-74601461D01*
X116682458Y-74601461D01*
X116715787Y-74587654D01*
X116715786Y-74587654D01*
X116715792Y-74587652D01*
X116796286Y-74554312D01*
X116847509Y-74520084D01*
X116898733Y-74485858D01*
X116985858Y-74398733D01*
X116985859Y-74398731D01*
X116992925Y-74391665D01*
X116992928Y-74391661D01*
X120476776Y-70907812D01*
X120538097Y-70874329D01*
X120577059Y-70872137D01*
X120609975Y-70875500D01*
X120609979Y-70875500D01*
X121634986Y-70875500D01*
X121634991Y-70875500D01*
X121737780Y-70864999D01*
X121904317Y-70809814D01*
X122053638Y-70717711D01*
X122177694Y-70593655D01*
X122269797Y-70444334D01*
X122324982Y-70277797D01*
X122335483Y-70175008D01*
X122335483Y-68824992D01*
X122335482Y-68824984D01*
X122884483Y-68824984D01*
X122884483Y-70175015D01*
X122894983Y-70277795D01*
X122894984Y-70277796D01*
X122950169Y-70444335D01*
X122950170Y-70444337D01*
X123042269Y-70593651D01*
X123042272Y-70593655D01*
X123166327Y-70717710D01*
X123166331Y-70717713D01*
X123315645Y-70809812D01*
X123315647Y-70809813D01*
X123315649Y-70809814D01*
X123482186Y-70864999D01*
X123584975Y-70875500D01*
X123584980Y-70875500D01*
X124609986Y-70875500D01*
X124609991Y-70875500D01*
X124712780Y-70864999D01*
X124879317Y-70809814D01*
X125028638Y-70717711D01*
X125152694Y-70593655D01*
X125244797Y-70444334D01*
X125299982Y-70277797D01*
X125304160Y-70236897D01*
X125330556Y-70172207D01*
X125387736Y-70132055D01*
X125427518Y-70125500D01*
X127061607Y-70125500D01*
X127122029Y-70113481D01*
X127182452Y-70101463D01*
X127182455Y-70101461D01*
X127182458Y-70101461D01*
X127215787Y-70087654D01*
X127215786Y-70087654D01*
X127215792Y-70087652D01*
X127296286Y-70054312D01*
X127347509Y-70020084D01*
X127398733Y-69985858D01*
X127485858Y-69898733D01*
X127485858Y-69898731D01*
X127496066Y-69888524D01*
X127496068Y-69888521D01*
X128247771Y-69136818D01*
X128309094Y-69103333D01*
X128335452Y-69100499D01*
X129000002Y-69100499D01*
X129000008Y-69100499D01*
X129102797Y-69089999D01*
X129269334Y-69034814D01*
X129418656Y-68942712D01*
X129542712Y-68818656D01*
X129634814Y-68669334D01*
X129689999Y-68502797D01*
X129700500Y-68400009D01*
X129700499Y-67599992D01*
X129689999Y-67497203D01*
X129634814Y-67330666D01*
X129542712Y-67181344D01*
X129448695Y-67087327D01*
X129415210Y-67026004D01*
X129420194Y-66956312D01*
X129448695Y-66911964D01*
X129542317Y-66818342D01*
X129634356Y-66669124D01*
X129634358Y-66669119D01*
X129689505Y-66502697D01*
X129689506Y-66502690D01*
X129699999Y-66399986D01*
X129700000Y-66399973D01*
X129700000Y-66250000D01*
X127300001Y-66250000D01*
X127300001Y-66399986D01*
X127310494Y-66502697D01*
X127365641Y-66669119D01*
X127365643Y-66669124D01*
X127457684Y-66818345D01*
X127551304Y-66911965D01*
X127584789Y-66973288D01*
X127579805Y-67042980D01*
X127551305Y-67087327D01*
X127457287Y-67181345D01*
X127365187Y-67330663D01*
X127365185Y-67330668D01*
X127350661Y-67374500D01*
X127310001Y-67497203D01*
X127310001Y-67497204D01*
X127310000Y-67497204D01*
X127299500Y-67599983D01*
X127299500Y-68264546D01*
X127279815Y-68331585D01*
X127263180Y-68352227D01*
X126882557Y-68732853D01*
X126777229Y-68838181D01*
X126715906Y-68871666D01*
X126689548Y-68874500D01*
X125427518Y-68874500D01*
X125360479Y-68854815D01*
X125314724Y-68802011D01*
X125304160Y-68763102D01*
X125303105Y-68752778D01*
X125299982Y-68722203D01*
X125244797Y-68555666D01*
X125152694Y-68406345D01*
X125028638Y-68282289D01*
X125028634Y-68282286D01*
X124879320Y-68190187D01*
X124879318Y-68190186D01*
X124796048Y-68162593D01*
X124712780Y-68135001D01*
X124712778Y-68135000D01*
X124609998Y-68124500D01*
X124609991Y-68124500D01*
X123584975Y-68124500D01*
X123584967Y-68124500D01*
X123482187Y-68135000D01*
X123482186Y-68135001D01*
X123315647Y-68190186D01*
X123315645Y-68190187D01*
X123166331Y-68282286D01*
X123166327Y-68282289D01*
X123042272Y-68406344D01*
X123042269Y-68406348D01*
X122950170Y-68555662D01*
X122950169Y-68555664D01*
X122894984Y-68722203D01*
X122894983Y-68722204D01*
X122884483Y-68824984D01*
X122335482Y-68824984D01*
X122324982Y-68722203D01*
X122269797Y-68555666D01*
X122177694Y-68406345D01*
X122053638Y-68282289D01*
X122053634Y-68282286D01*
X121904320Y-68190187D01*
X121904318Y-68190186D01*
X121821048Y-68162593D01*
X121737780Y-68135001D01*
X121737778Y-68135000D01*
X121634998Y-68124500D01*
X121634991Y-68124500D01*
X120786213Y-68124500D01*
X120719174Y-68104815D01*
X120673419Y-68052011D01*
X120663475Y-67982853D01*
X120692500Y-67919297D01*
X120698532Y-67912819D01*
X120742931Y-67868419D01*
X120742934Y-67868416D01*
X120825067Y-67745495D01*
X120881641Y-67608913D01*
X120910483Y-67463918D01*
X120910483Y-67316082D01*
X120910483Y-67316079D01*
X120881642Y-67171092D01*
X120881641Y-67171091D01*
X120881641Y-67171087D01*
X120834504Y-67057288D01*
X120825070Y-67034511D01*
X120825063Y-67034498D01*
X120742934Y-66911584D01*
X120742931Y-66911580D01*
X120639161Y-66807810D01*
X120605676Y-66746487D01*
X120609895Y-66687486D01*
X120592701Y-66705235D01*
X120524673Y-66721168D01*
X120484104Y-66711920D01*
X120378900Y-66668343D01*
X120378890Y-66668340D01*
X120233903Y-66639500D01*
X120233901Y-66639500D01*
X120086065Y-66639500D01*
X120086063Y-66639500D01*
X119941075Y-66668340D01*
X119941065Y-66668343D01*
X119804494Y-66724912D01*
X119804481Y-66724919D01*
X119681567Y-66807048D01*
X119681563Y-66807051D01*
X119577034Y-66911580D01*
X119577031Y-66911584D01*
X119494902Y-67034498D01*
X119494895Y-67034511D01*
X119438326Y-67171082D01*
X119438323Y-67171092D01*
X119409483Y-67316079D01*
X119409483Y-67463918D01*
X119438323Y-67608907D01*
X119438326Y-67608917D01*
X119494895Y-67745488D01*
X119494902Y-67745501D01*
X119577031Y-67868415D01*
X119577034Y-67868419D01*
X119681563Y-67972948D01*
X119681567Y-67972951D01*
X119804481Y-68055080D01*
X119804494Y-68055087D01*
X119941065Y-68111656D01*
X119941070Y-68111658D01*
X120005630Y-68124500D01*
X120064598Y-68136230D01*
X120126509Y-68168615D01*
X120161083Y-68229331D01*
X120157344Y-68299100D01*
X120128089Y-68345528D01*
X120067269Y-68406348D01*
X119975170Y-68555662D01*
X119975169Y-68555664D01*
X119919984Y-68722203D01*
X119919983Y-68722204D01*
X119909483Y-68824984D01*
X119909483Y-69654565D01*
X119889798Y-69721604D01*
X119873164Y-69742246D01*
X116277229Y-73338181D01*
X116215906Y-73371666D01*
X116189548Y-73374500D01*
X103567741Y-73374500D01*
X103567721Y-73374499D01*
X103561607Y-73374499D01*
X103438394Y-73374499D01*
X103337597Y-73394548D01*
X103337592Y-73394548D01*
X103317551Y-73398535D01*
X103297617Y-73406792D01*
X103286714Y-73411309D01*
X103276566Y-73415512D01*
X103259241Y-73422688D01*
X103189771Y-73430154D01*
X103127293Y-73398877D01*
X103091643Y-73338787D01*
X103094139Y-73268962D01*
X103124108Y-73220448D01*
X105432738Y-70911819D01*
X105494061Y-70878334D01*
X105520419Y-70875500D01*
X105634986Y-70875500D01*
X105634991Y-70875500D01*
X105737780Y-70864999D01*
X105904317Y-70809814D01*
X106053638Y-70717711D01*
X106177694Y-70593655D01*
X106269797Y-70444334D01*
X106324982Y-70277797D01*
X106335483Y-70175008D01*
X106335483Y-68824992D01*
X106335482Y-68824984D01*
X106884483Y-68824984D01*
X106884483Y-70175015D01*
X106894983Y-70277795D01*
X106894984Y-70277796D01*
X106950169Y-70444335D01*
X106950170Y-70444337D01*
X107042269Y-70593651D01*
X107042272Y-70593655D01*
X107166327Y-70717710D01*
X107166331Y-70717713D01*
X107315645Y-70809812D01*
X107315647Y-70809813D01*
X107315649Y-70809814D01*
X107482186Y-70864999D01*
X107584975Y-70875500D01*
X107584980Y-70875500D01*
X108609986Y-70875500D01*
X108609991Y-70875500D01*
X108712780Y-70864999D01*
X108879317Y-70809814D01*
X109028638Y-70717711D01*
X109152694Y-70593655D01*
X109244797Y-70444334D01*
X109299982Y-70277797D01*
X109310483Y-70175008D01*
X109310483Y-69222952D01*
X109330168Y-69155913D01*
X109346802Y-69135271D01*
X109820255Y-68661819D01*
X109881578Y-68628334D01*
X109907936Y-68625500D01*
X111268942Y-68625500D01*
X111335981Y-68645185D01*
X111374479Y-68684401D01*
X111457288Y-68818656D01*
X111581344Y-68942712D01*
X111730666Y-69034814D01*
X111897203Y-69089999D01*
X111999991Y-69100500D01*
X113000008Y-69100499D01*
X113000016Y-69100498D01*
X113000019Y-69100498D01*
X113056302Y-69094748D01*
X113102797Y-69089999D01*
X113269334Y-69034814D01*
X113418656Y-68942712D01*
X113542712Y-68818656D01*
X113634814Y-68669334D01*
X113689999Y-68502797D01*
X113700500Y-68400009D01*
X113700499Y-67599992D01*
X113689999Y-67497203D01*
X113634814Y-67330666D01*
X113542712Y-67181344D01*
X113448695Y-67087327D01*
X113415210Y-67026004D01*
X113420194Y-66956312D01*
X113448695Y-66911964D01*
X113542317Y-66818342D01*
X113634356Y-66669124D01*
X113634358Y-66669119D01*
X113689505Y-66502697D01*
X113689506Y-66502690D01*
X113699999Y-66399986D01*
X113700000Y-66399973D01*
X113700000Y-66250000D01*
X111300001Y-66250000D01*
X111300001Y-66399986D01*
X111310494Y-66502697D01*
X111365641Y-66669119D01*
X111365643Y-66669124D01*
X111457684Y-66818345D01*
X111551304Y-66911965D01*
X111584789Y-66973288D01*
X111579805Y-67042980D01*
X111551305Y-67087327D01*
X111457287Y-67181345D01*
X111374481Y-67315597D01*
X111322533Y-67362321D01*
X111268942Y-67374500D01*
X109535872Y-67374500D01*
X109475454Y-67386518D01*
X109432226Y-67395116D01*
X109415029Y-67398537D01*
X109301198Y-67445688D01*
X109301194Y-67445690D01*
X109273915Y-67463918D01*
X109198749Y-67514142D01*
X109198745Y-67514145D01*
X108624711Y-68088181D01*
X108563388Y-68121666D01*
X108537030Y-68124500D01*
X107584967Y-68124500D01*
X107482187Y-68135000D01*
X107482186Y-68135001D01*
X107315647Y-68190186D01*
X107315645Y-68190187D01*
X107166331Y-68282286D01*
X107166327Y-68282289D01*
X107042272Y-68406344D01*
X107042269Y-68406348D01*
X106950170Y-68555662D01*
X106950169Y-68555664D01*
X106894984Y-68722203D01*
X106894983Y-68722204D01*
X106884483Y-68824984D01*
X106335482Y-68824984D01*
X106324982Y-68722203D01*
X106269797Y-68555666D01*
X106177694Y-68406345D01*
X106053638Y-68282289D01*
X106053634Y-68282286D01*
X105904320Y-68190187D01*
X105904318Y-68190186D01*
X105821048Y-68162593D01*
X105737780Y-68135001D01*
X105737778Y-68135000D01*
X105634998Y-68124500D01*
X105634991Y-68124500D01*
X104786213Y-68124500D01*
X104719174Y-68104815D01*
X104673419Y-68052011D01*
X104663475Y-67982853D01*
X104692500Y-67919297D01*
X104698532Y-67912819D01*
X104742931Y-67868419D01*
X104742934Y-67868416D01*
X104825067Y-67745495D01*
X104881641Y-67608913D01*
X104910483Y-67463918D01*
X104910483Y-67316082D01*
X104910483Y-67316079D01*
X104881642Y-67171092D01*
X104881641Y-67171091D01*
X104881641Y-67171087D01*
X104834504Y-67057288D01*
X104825070Y-67034511D01*
X104825063Y-67034498D01*
X104742934Y-66911584D01*
X104742931Y-66911580D01*
X104639161Y-66807810D01*
X104605676Y-66746487D01*
X104609895Y-66687486D01*
X104592701Y-66705235D01*
X104524673Y-66721168D01*
X104484104Y-66711920D01*
X104378900Y-66668343D01*
X104378890Y-66668340D01*
X104233903Y-66639500D01*
X104233901Y-66639500D01*
X104086065Y-66639500D01*
X104086063Y-66639500D01*
X103941075Y-66668340D01*
X103941065Y-66668343D01*
X103804494Y-66724912D01*
X103804481Y-66724919D01*
X103681567Y-66807048D01*
X103681563Y-66807051D01*
X103577034Y-66911580D01*
X103577031Y-66911584D01*
X103494902Y-67034498D01*
X103494895Y-67034511D01*
X103438326Y-67171082D01*
X103438323Y-67171092D01*
X103409483Y-67316079D01*
X103409483Y-67463918D01*
X103438323Y-67608907D01*
X103438326Y-67608917D01*
X103494895Y-67745488D01*
X103494902Y-67745501D01*
X103577031Y-67868415D01*
X103577034Y-67868419D01*
X103681563Y-67972948D01*
X103681567Y-67972951D01*
X103804481Y-68055080D01*
X103804494Y-68055087D01*
X103941065Y-68111656D01*
X103941070Y-68111658D01*
X104005630Y-68124500D01*
X104064598Y-68136230D01*
X104126509Y-68168615D01*
X104161083Y-68229331D01*
X104157344Y-68299100D01*
X104128089Y-68345528D01*
X104067269Y-68406348D01*
X103975170Y-68555662D01*
X103975169Y-68555664D01*
X103919984Y-68722203D01*
X103919983Y-68722204D01*
X103909483Y-68824984D01*
X103909483Y-70175015D01*
X103919983Y-70277795D01*
X103919984Y-70277796D01*
X103975168Y-70444332D01*
X103983162Y-70457292D01*
X104001602Y-70524685D01*
X103980679Y-70591348D01*
X103965304Y-70610070D01*
X98067663Y-76507711D01*
X98006340Y-76541196D01*
X97936648Y-76536212D01*
X97892303Y-76507712D01*
X95992927Y-74608337D01*
X95992925Y-74608334D01*
X95992925Y-74608335D01*
X95985858Y-74601268D01*
X95985858Y-74601267D01*
X95898733Y-74514142D01*
X95898732Y-74514141D01*
X95898731Y-74514140D01*
X95847509Y-74479915D01*
X95796287Y-74445689D01*
X95796286Y-74445688D01*
X95796283Y-74445686D01*
X95796280Y-74445685D01*
X95704050Y-74407483D01*
X95682455Y-74398538D01*
X95682453Y-74398537D01*
X95682452Y-74398537D01*
X95622029Y-74386518D01*
X95561610Y-74374500D01*
X95561607Y-74374500D01*
X95561606Y-74374500D01*
X84504500Y-74374500D01*
X84437461Y-74354815D01*
X84391706Y-74302011D01*
X84380500Y-74250500D01*
X84380499Y-72652129D01*
X84380498Y-72652123D01*
X84374091Y-72592516D01*
X84323797Y-72457671D01*
X84323793Y-72457664D01*
X84237547Y-72342455D01*
X84237544Y-72342452D01*
X84122335Y-72256206D01*
X84122328Y-72256202D01*
X83987482Y-72205908D01*
X83987483Y-72205908D01*
X83927883Y-72199501D01*
X83927881Y-72199500D01*
X83927873Y-72199500D01*
X83927864Y-72199500D01*
X82232129Y-72199500D01*
X82232123Y-72199501D01*
X82172516Y-72205908D01*
X82037671Y-72256202D01*
X82037664Y-72256206D01*
X81922455Y-72342452D01*
X81922452Y-72342455D01*
X81836206Y-72457664D01*
X81836202Y-72457671D01*
X81785908Y-72592516D01*
X81782137Y-72627596D01*
X81755398Y-72692146D01*
X81698006Y-72731994D01*
X81628180Y-72734487D01*
X81568092Y-72698834D01*
X81557273Y-72685462D01*
X81540045Y-72660858D01*
X81379141Y-72499954D01*
X81192734Y-72369432D01*
X81192732Y-72369431D01*
X80986497Y-72273261D01*
X80986488Y-72273258D01*
X80766697Y-72214366D01*
X80766693Y-72214365D01*
X80766692Y-72214365D01*
X80766691Y-72214364D01*
X80766686Y-72214364D01*
X80540002Y-72194532D01*
X80539998Y-72194532D01*
X80313313Y-72214364D01*
X80313302Y-72214366D01*
X80093511Y-72273258D01*
X80093502Y-72273261D01*
X79887267Y-72369431D01*
X79887265Y-72369432D01*
X79700858Y-72499954D01*
X79539954Y-72660858D01*
X79409432Y-72847265D01*
X79409431Y-72847267D01*
X79382382Y-72905275D01*
X79336209Y-72957714D01*
X79269016Y-72976866D01*
X79202135Y-72956650D01*
X79157618Y-72905275D01*
X79130686Y-72847520D01*
X79130568Y-72847266D01*
X79000047Y-72660861D01*
X79000045Y-72660858D01*
X78839141Y-72499954D01*
X78652734Y-72369432D01*
X78652732Y-72369431D01*
X78446497Y-72273261D01*
X78446488Y-72273258D01*
X78226697Y-72214366D01*
X78226693Y-72214365D01*
X78226692Y-72214365D01*
X78226691Y-72214364D01*
X78226686Y-72214364D01*
X78000002Y-72194532D01*
X77999996Y-72194532D01*
X77999721Y-72194556D01*
X77999602Y-72194532D01*
X77994586Y-72194532D01*
X77994586Y-72193523D01*
X77931222Y-72180784D01*
X77881043Y-72132165D01*
X77865115Y-72064135D01*
X77888495Y-71998293D01*
X77901235Y-71983353D01*
X79722771Y-70161819D01*
X79784094Y-70128334D01*
X79810452Y-70125500D01*
X87792448Y-70125500D01*
X87859487Y-70145185D01*
X87905242Y-70197989D01*
X87915806Y-70236898D01*
X87919983Y-70277794D01*
X87919984Y-70277796D01*
X87975169Y-70444335D01*
X87975170Y-70444337D01*
X88067269Y-70593651D01*
X88067272Y-70593655D01*
X88191327Y-70717710D01*
X88191331Y-70717713D01*
X88340645Y-70809812D01*
X88340647Y-70809813D01*
X88340649Y-70809814D01*
X88507186Y-70864999D01*
X88609975Y-70875500D01*
X88609980Y-70875500D01*
X89634986Y-70875500D01*
X89634991Y-70875500D01*
X89737780Y-70864999D01*
X89904317Y-70809814D01*
X90053638Y-70717711D01*
X90177694Y-70593655D01*
X90269797Y-70444334D01*
X90324982Y-70277797D01*
X90335483Y-70175008D01*
X90335483Y-68824992D01*
X90335482Y-68824984D01*
X90884483Y-68824984D01*
X90884483Y-70175015D01*
X90894983Y-70277795D01*
X90894984Y-70277796D01*
X90950169Y-70444335D01*
X90950170Y-70444337D01*
X91042269Y-70593651D01*
X91042272Y-70593655D01*
X91166327Y-70717710D01*
X91166331Y-70717713D01*
X91315645Y-70809812D01*
X91315647Y-70809813D01*
X91315649Y-70809814D01*
X91482186Y-70864999D01*
X91584975Y-70875500D01*
X91584980Y-70875500D01*
X92609986Y-70875500D01*
X92609991Y-70875500D01*
X92712780Y-70864999D01*
X92879317Y-70809814D01*
X93028638Y-70717711D01*
X93152694Y-70593655D01*
X93244797Y-70444334D01*
X93299982Y-70277797D01*
X93310483Y-70175008D01*
X93310483Y-69222952D01*
X93330168Y-69155913D01*
X93346802Y-69135271D01*
X93820255Y-68661819D01*
X93881578Y-68628334D01*
X93907936Y-68625500D01*
X95268942Y-68625500D01*
X95335981Y-68645185D01*
X95374479Y-68684401D01*
X95457288Y-68818656D01*
X95581344Y-68942712D01*
X95730666Y-69034814D01*
X95897203Y-69089999D01*
X95999991Y-69100500D01*
X97000008Y-69100499D01*
X97000016Y-69100498D01*
X97000019Y-69100498D01*
X97056302Y-69094748D01*
X97102797Y-69089999D01*
X97269334Y-69034814D01*
X97418656Y-68942712D01*
X97542712Y-68818656D01*
X97634814Y-68669334D01*
X97689999Y-68502797D01*
X97700500Y-68400009D01*
X97700499Y-67599992D01*
X97689999Y-67497203D01*
X97634814Y-67330666D01*
X97542712Y-67181344D01*
X97448695Y-67087327D01*
X97415210Y-67026004D01*
X97420194Y-66956312D01*
X97448695Y-66911964D01*
X97542317Y-66818342D01*
X97634356Y-66669124D01*
X97634358Y-66669119D01*
X97689505Y-66502697D01*
X97689506Y-66502690D01*
X97699999Y-66399986D01*
X97700000Y-66399973D01*
X97700000Y-66250000D01*
X95300001Y-66250000D01*
X95300001Y-66399986D01*
X95310494Y-66502697D01*
X95365641Y-66669119D01*
X95365643Y-66669124D01*
X95457684Y-66818345D01*
X95551304Y-66911965D01*
X95584789Y-66973288D01*
X95579805Y-67042980D01*
X95551305Y-67087327D01*
X95457287Y-67181345D01*
X95374481Y-67315597D01*
X95322533Y-67362321D01*
X95268942Y-67374500D01*
X93535872Y-67374500D01*
X93475454Y-67386518D01*
X93432226Y-67395116D01*
X93415029Y-67398537D01*
X93301198Y-67445688D01*
X93301194Y-67445690D01*
X93273915Y-67463918D01*
X93198749Y-67514142D01*
X93198745Y-67514145D01*
X92624711Y-68088181D01*
X92563388Y-68121666D01*
X92537030Y-68124500D01*
X91584967Y-68124500D01*
X91482187Y-68135000D01*
X91482186Y-68135001D01*
X91315647Y-68190186D01*
X91315645Y-68190187D01*
X91166331Y-68282286D01*
X91166327Y-68282289D01*
X91042272Y-68406344D01*
X91042269Y-68406348D01*
X90950170Y-68555662D01*
X90950169Y-68555664D01*
X90894984Y-68722203D01*
X90894983Y-68722204D01*
X90884483Y-68824984D01*
X90335482Y-68824984D01*
X90324982Y-68722203D01*
X90269797Y-68555666D01*
X90177694Y-68406345D01*
X90053638Y-68282289D01*
X90053634Y-68282286D01*
X89904320Y-68190187D01*
X89904318Y-68190186D01*
X89821048Y-68162593D01*
X89737780Y-68135001D01*
X89737778Y-68135000D01*
X89634998Y-68124500D01*
X89634991Y-68124500D01*
X88786213Y-68124500D01*
X88719174Y-68104815D01*
X88673419Y-68052011D01*
X88663475Y-67982853D01*
X88692500Y-67919297D01*
X88698532Y-67912819D01*
X88742931Y-67868419D01*
X88742934Y-67868416D01*
X88825067Y-67745495D01*
X88881641Y-67608913D01*
X88910483Y-67463918D01*
X88910483Y-67316082D01*
X88910483Y-67316079D01*
X88881642Y-67171092D01*
X88881641Y-67171091D01*
X88881641Y-67171087D01*
X88834504Y-67057288D01*
X88825070Y-67034511D01*
X88825063Y-67034498D01*
X88742934Y-66911584D01*
X88742931Y-66911580D01*
X88639161Y-66807810D01*
X88605676Y-66746487D01*
X88609895Y-66687486D01*
X88592701Y-66705235D01*
X88524673Y-66721168D01*
X88484104Y-66711920D01*
X88378900Y-66668343D01*
X88378890Y-66668340D01*
X88233903Y-66639500D01*
X88233901Y-66639500D01*
X88086065Y-66639500D01*
X88086063Y-66639500D01*
X87941075Y-66668340D01*
X87941065Y-66668343D01*
X87804494Y-66724912D01*
X87804481Y-66724919D01*
X87681567Y-66807048D01*
X87681563Y-66807051D01*
X87577034Y-66911580D01*
X87577031Y-66911584D01*
X87494902Y-67034498D01*
X87494895Y-67034511D01*
X87438326Y-67171082D01*
X87438323Y-67171092D01*
X87409483Y-67316079D01*
X87409483Y-67463918D01*
X87438323Y-67608907D01*
X87438326Y-67608917D01*
X87494895Y-67745488D01*
X87494902Y-67745501D01*
X87577031Y-67868415D01*
X87577034Y-67868419D01*
X87681563Y-67972948D01*
X87681567Y-67972951D01*
X87804481Y-68055080D01*
X87804494Y-68055087D01*
X87941065Y-68111656D01*
X87941070Y-68111658D01*
X88005630Y-68124500D01*
X88064598Y-68136230D01*
X88126509Y-68168615D01*
X88161083Y-68229331D01*
X88157344Y-68299100D01*
X88128089Y-68345528D01*
X88067269Y-68406348D01*
X87975170Y-68555662D01*
X87975169Y-68555664D01*
X87919984Y-68722203D01*
X87919983Y-68722205D01*
X87915806Y-68763102D01*
X87889410Y-68827793D01*
X87832230Y-68867945D01*
X87792448Y-68874500D01*
X82230441Y-68874500D01*
X82163402Y-68854815D01*
X82117647Y-68802011D01*
X82107703Y-68732853D01*
X82124901Y-68685405D01*
X82134814Y-68669334D01*
X82189999Y-68502797D01*
X82200500Y-68400009D01*
X82200499Y-67599992D01*
X82189999Y-67497203D01*
X82134814Y-67330666D01*
X82042712Y-67181344D01*
X81948695Y-67087327D01*
X81915210Y-67026004D01*
X81920194Y-66956312D01*
X81948695Y-66911964D01*
X82042317Y-66818342D01*
X82134356Y-66669124D01*
X82134358Y-66669119D01*
X82189505Y-66502697D01*
X82189506Y-66502690D01*
X82199999Y-66399986D01*
X82200000Y-66399973D01*
X82200000Y-66250000D01*
X79800001Y-66250000D01*
X79800001Y-66399986D01*
X79810494Y-66502697D01*
X79865641Y-66669119D01*
X79865643Y-66669124D01*
X79957684Y-66818345D01*
X80051304Y-66911965D01*
X80084789Y-66973288D01*
X80079805Y-67042980D01*
X80051305Y-67087327D01*
X79957287Y-67181345D01*
X79874481Y-67315597D01*
X79822533Y-67362321D01*
X79768942Y-67374500D01*
X77535872Y-67374500D01*
X77475454Y-67386518D01*
X77432226Y-67395116D01*
X77415029Y-67398537D01*
X77301198Y-67445688D01*
X77301194Y-67445690D01*
X77273915Y-67463918D01*
X77198749Y-67514142D01*
X77198745Y-67514145D01*
X76624711Y-68088181D01*
X76563388Y-68121666D01*
X76537030Y-68124500D01*
X75584967Y-68124500D01*
X75482187Y-68135000D01*
X75482186Y-68135001D01*
X75315647Y-68190186D01*
X75315645Y-68190187D01*
X75166331Y-68282286D01*
X75166327Y-68282289D01*
X75042272Y-68406344D01*
X75042269Y-68406348D01*
X74950170Y-68555662D01*
X74950169Y-68555664D01*
X74894984Y-68722203D01*
X74894983Y-68722204D01*
X74884483Y-68824984D01*
X74884483Y-70175015D01*
X74894983Y-70277795D01*
X74894984Y-70277796D01*
X74950169Y-70444335D01*
X74950170Y-70444337D01*
X75042269Y-70593651D01*
X75042272Y-70593655D01*
X75166327Y-70717710D01*
X75166331Y-70717713D01*
X75315645Y-70809812D01*
X75315647Y-70809813D01*
X75315649Y-70809814D01*
X75482186Y-70864999D01*
X75584975Y-70875500D01*
X75584980Y-70875500D01*
X76609986Y-70875500D01*
X76609991Y-70875500D01*
X76712780Y-70864999D01*
X76879317Y-70809814D01*
X77028638Y-70717711D01*
X77152694Y-70593655D01*
X77244797Y-70444334D01*
X77299982Y-70277797D01*
X77310483Y-70175008D01*
X77310483Y-69222952D01*
X77330168Y-69155913D01*
X77346802Y-69135271D01*
X77820255Y-68661819D01*
X77881578Y-68628334D01*
X77907936Y-68625500D01*
X79768942Y-68625500D01*
X79835981Y-68645185D01*
X79874471Y-68684388D01*
X79875088Y-68685388D01*
X79893538Y-68752778D01*
X79872625Y-68819445D01*
X79818990Y-68864222D01*
X79769559Y-68874500D01*
X79438389Y-68874500D01*
X79377971Y-68886518D01*
X79334743Y-68895116D01*
X79317546Y-68898537D01*
X79203716Y-68945687D01*
X79203707Y-68945692D01*
X79101268Y-69014140D01*
X79061905Y-69053504D01*
X79014142Y-69101267D01*
X79014139Y-69101270D01*
X75906369Y-72209039D01*
X75845046Y-72242524D01*
X75786596Y-72241133D01*
X75686697Y-72214366D01*
X75686693Y-72214365D01*
X75686692Y-72214365D01*
X75516796Y-72199501D01*
X75460001Y-72194532D01*
X75459998Y-72194532D01*
X75233313Y-72214364D01*
X75233302Y-72214366D01*
X75013511Y-72273258D01*
X75013502Y-72273261D01*
X74807267Y-72369431D01*
X74807265Y-72369432D01*
X74620858Y-72499954D01*
X74459954Y-72660858D01*
X74329432Y-72847265D01*
X74329431Y-72847267D01*
X74302382Y-72905275D01*
X74256209Y-72957714D01*
X74189016Y-72976866D01*
X74122135Y-72956650D01*
X74077618Y-72905275D01*
X74050686Y-72847520D01*
X74050568Y-72847266D01*
X73920047Y-72660861D01*
X73920045Y-72660858D01*
X73759141Y-72499954D01*
X73572734Y-72369432D01*
X73572732Y-72369431D01*
X73366497Y-72273261D01*
X73366488Y-72273258D01*
X73146697Y-72214366D01*
X73146693Y-72214365D01*
X73146692Y-72214365D01*
X73146691Y-72214364D01*
X73146686Y-72214364D01*
X72920002Y-72194532D01*
X72919998Y-72194532D01*
X72693313Y-72214364D01*
X72693302Y-72214366D01*
X72473511Y-72273258D01*
X72473502Y-72273261D01*
X72267267Y-72369431D01*
X72267265Y-72369432D01*
X72080858Y-72499954D01*
X71919954Y-72660858D01*
X71789432Y-72847265D01*
X71789431Y-72847267D01*
X71762382Y-72905275D01*
X71716209Y-72957714D01*
X71649016Y-72976866D01*
X71582135Y-72956650D01*
X71537618Y-72905275D01*
X71510686Y-72847520D01*
X71510568Y-72847266D01*
X71380047Y-72660861D01*
X71380045Y-72660858D01*
X71219142Y-72499955D01*
X71215490Y-72497398D01*
X71171864Y-72442822D01*
X71164670Y-72373323D01*
X71196192Y-72310968D01*
X71198931Y-72308141D01*
X71480381Y-72026692D01*
X72595255Y-70911819D01*
X72656578Y-70878334D01*
X72682936Y-70875500D01*
X73634986Y-70875500D01*
X73634991Y-70875500D01*
X73737780Y-70864999D01*
X73904317Y-70809814D01*
X74053638Y-70717711D01*
X74177694Y-70593655D01*
X74269797Y-70444334D01*
X74324982Y-70277797D01*
X74335483Y-70175008D01*
X74335483Y-68824992D01*
X74324982Y-68722203D01*
X74269797Y-68555666D01*
X74177694Y-68406345D01*
X74053638Y-68282289D01*
X74053634Y-68282286D01*
X73904320Y-68190187D01*
X73904318Y-68190186D01*
X73821048Y-68162593D01*
X73737780Y-68135001D01*
X73737778Y-68135000D01*
X73634998Y-68124500D01*
X73634991Y-68124500D01*
X72786213Y-68124500D01*
X72719174Y-68104815D01*
X72673419Y-68052011D01*
X72663475Y-67982853D01*
X72692500Y-67919297D01*
X72698532Y-67912819D01*
X72742931Y-67868419D01*
X72742934Y-67868416D01*
X72825067Y-67745495D01*
X72881641Y-67608913D01*
X72910483Y-67463918D01*
X72910483Y-67316082D01*
X72910483Y-67316079D01*
X72881642Y-67171092D01*
X72881641Y-67171091D01*
X72881641Y-67171087D01*
X72834504Y-67057288D01*
X72825070Y-67034511D01*
X72825063Y-67034498D01*
X72742934Y-66911584D01*
X72742931Y-66911580D01*
X72639161Y-66807810D01*
X72605676Y-66746487D01*
X72609895Y-66687486D01*
X72592701Y-66705235D01*
X72524673Y-66721168D01*
X72484104Y-66711920D01*
X72378900Y-66668343D01*
X72378890Y-66668340D01*
X72233903Y-66639500D01*
X72233901Y-66639500D01*
X72086065Y-66639500D01*
X72086063Y-66639500D01*
X71941075Y-66668340D01*
X71941065Y-66668343D01*
X71804494Y-66724912D01*
X71804481Y-66724919D01*
X71681567Y-66807048D01*
X71681563Y-66807051D01*
X71577034Y-66911580D01*
X71577031Y-66911584D01*
X71494902Y-67034498D01*
X71494895Y-67034511D01*
X71438326Y-67171082D01*
X71438323Y-67171092D01*
X71409483Y-67316079D01*
X71409483Y-67463918D01*
X71438323Y-67608907D01*
X71438326Y-67608917D01*
X71494895Y-67745488D01*
X71494902Y-67745501D01*
X71577031Y-67868415D01*
X71577034Y-67868419D01*
X71681563Y-67972948D01*
X71681567Y-67972951D01*
X71804481Y-68055080D01*
X71804494Y-68055087D01*
X71941065Y-68111656D01*
X71941070Y-68111658D01*
X72005630Y-68124500D01*
X72064598Y-68136230D01*
X72126509Y-68168615D01*
X72161083Y-68229331D01*
X72157344Y-68299100D01*
X72128089Y-68345528D01*
X72067269Y-68406348D01*
X71975170Y-68555662D01*
X71975169Y-68555664D01*
X71919984Y-68722203D01*
X71919983Y-68722204D01*
X71909483Y-68824984D01*
X71909483Y-69777047D01*
X71889798Y-69844086D01*
X71873164Y-69864728D01*
X69894144Y-71843747D01*
X69894138Y-71843755D01*
X69825692Y-71946188D01*
X69825684Y-71946202D01*
X69804109Y-71998293D01*
X69792347Y-72026690D01*
X69786823Y-72040026D01*
X69778537Y-72060028D01*
X69778535Y-72060036D01*
X69754500Y-72180872D01*
X69754500Y-72285811D01*
X69734815Y-72352850D01*
X69701623Y-72387386D01*
X69540859Y-72499953D01*
X69379954Y-72660858D01*
X69249433Y-72847264D01*
X69249432Y-72847266D01*
X69249315Y-72847518D01*
X69222106Y-72905867D01*
X69175933Y-72958306D01*
X69108739Y-72977457D01*
X69041858Y-72957241D01*
X68997342Y-72905865D01*
X68970135Y-72847520D01*
X68970134Y-72847518D01*
X68839657Y-72661179D01*
X68678820Y-72500342D01*
X68492482Y-72369865D01*
X68286328Y-72273734D01*
X68090000Y-72221127D01*
X68090000Y-73184314D01*
X68085606Y-73179920D01*
X67994394Y-73127259D01*
X67892661Y-73100000D01*
X67787339Y-73100000D01*
X67685606Y-73127259D01*
X67594394Y-73179920D01*
X67590000Y-73184314D01*
X67590000Y-72221127D01*
X67393671Y-72273734D01*
X67187517Y-72369865D01*
X67001179Y-72500342D01*
X66840342Y-72661179D01*
X66709865Y-72847517D01*
X66613734Y-73053673D01*
X66613730Y-73053682D01*
X66561127Y-73249999D01*
X66561128Y-73250000D01*
X67524314Y-73250000D01*
X67519920Y-73254394D01*
X67467259Y-73345606D01*
X67440000Y-73447339D01*
X67440000Y-73552661D01*
X67467259Y-73654394D01*
X67519920Y-73745606D01*
X67524314Y-73750000D01*
X66561128Y-73750000D01*
X66613730Y-73946317D01*
X66613734Y-73946326D01*
X66709865Y-74152482D01*
X66840342Y-74338820D01*
X67001179Y-74499657D01*
X67187517Y-74630134D01*
X67393673Y-74726265D01*
X67393682Y-74726269D01*
X67589999Y-74778872D01*
X67590000Y-74778871D01*
X67590000Y-73815686D01*
X67594394Y-73820080D01*
X67685606Y-73872741D01*
X67787339Y-73900000D01*
X67892661Y-73900000D01*
X67994394Y-73872741D01*
X68085606Y-73820080D01*
X68090000Y-73815686D01*
X68090000Y-74778872D01*
X68286317Y-74726269D01*
X68286326Y-74726265D01*
X68492482Y-74630134D01*
X68678820Y-74499657D01*
X68839657Y-74338820D01*
X68970132Y-74152484D01*
X68997341Y-74094134D01*
X69043513Y-74041695D01*
X69110707Y-74022542D01*
X69177588Y-74042757D01*
X69222106Y-74094133D01*
X69249431Y-74152732D01*
X69249432Y-74152734D01*
X69379954Y-74339141D01*
X69540858Y-74500045D01*
X69540861Y-74500047D01*
X69727266Y-74630568D01*
X69933504Y-74726739D01*
X70153308Y-74785635D01*
X70310780Y-74799412D01*
X70379998Y-74805468D01*
X70380000Y-74805468D01*
X70380002Y-74805468D01*
X70436673Y-74800509D01*
X70606692Y-74785635D01*
X70675048Y-74767319D01*
X70744897Y-74768982D01*
X70794822Y-74799413D01*
X73158228Y-77162819D01*
X73191713Y-77224142D01*
X73186729Y-77293834D01*
X73144857Y-77349767D01*
X73079393Y-77374184D01*
X73070547Y-77374500D01*
X70898389Y-77374500D01*
X70837971Y-77386518D01*
X70794743Y-77395116D01*
X70777546Y-77398537D01*
X70663716Y-77445687D01*
X70663707Y-77445692D01*
X70561268Y-77514140D01*
X70521099Y-77554310D01*
X70474142Y-77601267D01*
X70474139Y-77601270D01*
X68254822Y-79820586D01*
X68193499Y-79854071D01*
X68135049Y-79852680D01*
X68066699Y-79834367D01*
X68066702Y-79834367D01*
X68066692Y-79834365D01*
X68066689Y-79834364D01*
X68066686Y-79834364D01*
X67840001Y-79814532D01*
X67839998Y-79814532D01*
X67613313Y-79834364D01*
X67613302Y-79834366D01*
X67393511Y-79893258D01*
X67393502Y-79893261D01*
X67187262Y-79989434D01*
X67088257Y-80058757D01*
X67022050Y-80081085D01*
X66954283Y-80064073D01*
X66929453Y-80044863D01*
X57885376Y-71000786D01*
X57851891Y-70939463D01*
X57856875Y-70869771D01*
X57898747Y-70813838D01*
X57907960Y-70807567D01*
X57992256Y-70755572D01*
X58053638Y-70717711D01*
X58177694Y-70593655D01*
X58269797Y-70444334D01*
X58324982Y-70277797D01*
X58335483Y-70175008D01*
X58335483Y-68824992D01*
X58335482Y-68824984D01*
X58884483Y-68824984D01*
X58884483Y-70175015D01*
X58894983Y-70277795D01*
X58894984Y-70277796D01*
X58950169Y-70444335D01*
X58950170Y-70444337D01*
X59042269Y-70593651D01*
X59042272Y-70593655D01*
X59166327Y-70717710D01*
X59166331Y-70717713D01*
X59315645Y-70809812D01*
X59315647Y-70809813D01*
X59315649Y-70809814D01*
X59482186Y-70864999D01*
X59584975Y-70875500D01*
X59584980Y-70875500D01*
X60609986Y-70875500D01*
X60609991Y-70875500D01*
X60712780Y-70864999D01*
X60879317Y-70809814D01*
X61028638Y-70717711D01*
X61152694Y-70593655D01*
X61244797Y-70444334D01*
X61299982Y-70277797D01*
X61310483Y-70175008D01*
X61310483Y-69222952D01*
X61330168Y-69155913D01*
X61346802Y-69135271D01*
X61820255Y-68661819D01*
X61881578Y-68628334D01*
X61907936Y-68625500D01*
X63768942Y-68625500D01*
X63835981Y-68645185D01*
X63874479Y-68684401D01*
X63957288Y-68818656D01*
X64081344Y-68942712D01*
X64230666Y-69034814D01*
X64397203Y-69089999D01*
X64499991Y-69100500D01*
X65500008Y-69100499D01*
X65500016Y-69100498D01*
X65500019Y-69100498D01*
X65556302Y-69094748D01*
X65602797Y-69089999D01*
X65769334Y-69034814D01*
X65918656Y-68942712D01*
X66042712Y-68818656D01*
X66134814Y-68669334D01*
X66189999Y-68502797D01*
X66200500Y-68400009D01*
X66200499Y-67599992D01*
X66189999Y-67497203D01*
X66134814Y-67330666D01*
X66042712Y-67181344D01*
X65948695Y-67087327D01*
X65915210Y-67026004D01*
X65920194Y-66956312D01*
X65948695Y-66911964D01*
X66042317Y-66818342D01*
X66134356Y-66669124D01*
X66134358Y-66669119D01*
X66189505Y-66502697D01*
X66189506Y-66502690D01*
X66199999Y-66399986D01*
X66200000Y-66399973D01*
X66200000Y-66250000D01*
X63800001Y-66250000D01*
X63800001Y-66399986D01*
X63810494Y-66502697D01*
X63865641Y-66669119D01*
X63865643Y-66669124D01*
X63957684Y-66818345D01*
X64051304Y-66911965D01*
X64084789Y-66973288D01*
X64079805Y-67042980D01*
X64051305Y-67087327D01*
X63957287Y-67181345D01*
X63874481Y-67315597D01*
X63822533Y-67362321D01*
X63768942Y-67374500D01*
X61535872Y-67374500D01*
X61475454Y-67386518D01*
X61432226Y-67395116D01*
X61415029Y-67398537D01*
X61301198Y-67445688D01*
X61301194Y-67445690D01*
X61273915Y-67463918D01*
X61198749Y-67514142D01*
X61198745Y-67514145D01*
X60624711Y-68088181D01*
X60563388Y-68121666D01*
X60537030Y-68124500D01*
X59584967Y-68124500D01*
X59482187Y-68135000D01*
X59482186Y-68135001D01*
X59315647Y-68190186D01*
X59315645Y-68190187D01*
X59166331Y-68282286D01*
X59166327Y-68282289D01*
X59042272Y-68406344D01*
X59042269Y-68406348D01*
X58950170Y-68555662D01*
X58950169Y-68555664D01*
X58894984Y-68722203D01*
X58894983Y-68722204D01*
X58884483Y-68824984D01*
X58335482Y-68824984D01*
X58324982Y-68722203D01*
X58269797Y-68555666D01*
X58177694Y-68406345D01*
X58053638Y-68282289D01*
X58053634Y-68282286D01*
X57904320Y-68190187D01*
X57904318Y-68190186D01*
X57821048Y-68162593D01*
X57737780Y-68135001D01*
X57737778Y-68135000D01*
X57634998Y-68124500D01*
X57634991Y-68124500D01*
X56786213Y-68124500D01*
X56719174Y-68104815D01*
X56673419Y-68052011D01*
X56663475Y-67982853D01*
X56692500Y-67919297D01*
X56698532Y-67912819D01*
X56742931Y-67868419D01*
X56742934Y-67868416D01*
X56825067Y-67745495D01*
X56881641Y-67608913D01*
X56910483Y-67463918D01*
X56910483Y-67316082D01*
X56910483Y-67316079D01*
X56881642Y-67171092D01*
X56881641Y-67171091D01*
X56881641Y-67171087D01*
X56834504Y-67057288D01*
X56825070Y-67034511D01*
X56825063Y-67034498D01*
X56742934Y-66911584D01*
X56742931Y-66911580D01*
X56639161Y-66807810D01*
X56605676Y-66746487D01*
X56609895Y-66687486D01*
X56592701Y-66705235D01*
X56524673Y-66721168D01*
X56484104Y-66711920D01*
X56378900Y-66668343D01*
X56378890Y-66668340D01*
X56233903Y-66639500D01*
X56233901Y-66639500D01*
X56086065Y-66639500D01*
X56086063Y-66639500D01*
X55941075Y-66668340D01*
X55941065Y-66668343D01*
X55804494Y-66724912D01*
X55804481Y-66724919D01*
X55681567Y-66807048D01*
X55681563Y-66807051D01*
X55577034Y-66911580D01*
X55577031Y-66911584D01*
X55494902Y-67034498D01*
X55494895Y-67034511D01*
X55438326Y-67171082D01*
X55438323Y-67171092D01*
X55409483Y-67316079D01*
X55409483Y-67463918D01*
X55438323Y-67608907D01*
X55438326Y-67608917D01*
X55494895Y-67745488D01*
X55494902Y-67745501D01*
X55577031Y-67868415D01*
X55577034Y-67868419D01*
X55681563Y-67972948D01*
X55681567Y-67972951D01*
X55804481Y-68055080D01*
X55804494Y-68055087D01*
X55941065Y-68111656D01*
X55941070Y-68111658D01*
X56005630Y-68124500D01*
X56064598Y-68136230D01*
X56126509Y-68168615D01*
X56161083Y-68229331D01*
X56157344Y-68299100D01*
X56128089Y-68345528D01*
X56067269Y-68406348D01*
X55975170Y-68555662D01*
X55975169Y-68555664D01*
X55919984Y-68722203D01*
X55919983Y-68722204D01*
X55909483Y-68824984D01*
X55909483Y-70175015D01*
X55919983Y-70277795D01*
X55919984Y-70277796D01*
X55975169Y-70444335D01*
X55975170Y-70444337D01*
X56067269Y-70593651D01*
X56067272Y-70593655D01*
X56191327Y-70717710D01*
X56191331Y-70717713D01*
X56340640Y-70809809D01*
X56340643Y-70809810D01*
X56340649Y-70809814D01*
X56411988Y-70833453D01*
X56469431Y-70873224D01*
X56496255Y-70937740D01*
X56496983Y-70951158D01*
X56496983Y-71184094D01*
X56521018Y-71304927D01*
X56521023Y-71304944D01*
X56568168Y-71418763D01*
X56568173Y-71418772D01*
X56602397Y-71469990D01*
X56602398Y-71469992D01*
X56636624Y-71521216D01*
X56728069Y-71612661D01*
X56728091Y-71612681D01*
X66564640Y-81449230D01*
X66596734Y-81504817D01*
X66613259Y-81566491D01*
X66613261Y-81566497D01*
X66709431Y-81772732D01*
X66709432Y-81772734D01*
X66839954Y-81959141D01*
X67000858Y-82120045D01*
X67000861Y-82120047D01*
X67187266Y-82250568D01*
X67393504Y-82346739D01*
X67613308Y-82405635D01*
X67770791Y-82419413D01*
X67839998Y-82425468D01*
X67840000Y-82425468D01*
X67840002Y-82425468D01*
X67896673Y-82420509D01*
X68066692Y-82405635D01*
X68286496Y-82346739D01*
X68492734Y-82250568D01*
X68679139Y-82120047D01*
X68840047Y-81959139D01*
X68970568Y-81772734D01*
X68997618Y-81714724D01*
X69043790Y-81662285D01*
X69110983Y-81643133D01*
X69177865Y-81663348D01*
X69222382Y-81714725D01*
X69249429Y-81772728D01*
X69249432Y-81772734D01*
X69379954Y-81959141D01*
X69540858Y-82120045D01*
X69540861Y-82120047D01*
X69727266Y-82250568D01*
X69933504Y-82346739D01*
X70153308Y-82405635D01*
X70310791Y-82419413D01*
X70379998Y-82425468D01*
X70380000Y-82425468D01*
X70380002Y-82425468D01*
X70436673Y-82420509D01*
X70606692Y-82405635D01*
X70826496Y-82346739D01*
X71032734Y-82250568D01*
X71219139Y-82120047D01*
X71380047Y-81959139D01*
X71510568Y-81772734D01*
X71537618Y-81714724D01*
X71583790Y-81662285D01*
X71650983Y-81643133D01*
X71717865Y-81663348D01*
X71762382Y-81714725D01*
X71789429Y-81772728D01*
X71789432Y-81772734D01*
X71919954Y-81959141D01*
X72080858Y-82120045D01*
X72080861Y-82120047D01*
X72267266Y-82250568D01*
X72473504Y-82346739D01*
X72693308Y-82405635D01*
X72850791Y-82419413D01*
X72919998Y-82425468D01*
X72920000Y-82425468D01*
X72920002Y-82425468D01*
X72976673Y-82420509D01*
X73146692Y-82405635D01*
X73215048Y-82387319D01*
X73284897Y-82388982D01*
X73334822Y-82419413D01*
X73543228Y-82627819D01*
X73576713Y-82689142D01*
X73571729Y-82758834D01*
X73529857Y-82814767D01*
X73464393Y-82839184D01*
X73455547Y-82839500D01*
X54234483Y-82839500D01*
X54167444Y-82819815D01*
X54121689Y-82767011D01*
X54110483Y-82715500D01*
X54110483Y-62621902D01*
X55209483Y-62621902D01*
X55209483Y-62858097D01*
X55246429Y-63091368D01*
X55319416Y-63315996D01*
X55426640Y-63526433D01*
X55565466Y-63717510D01*
X55732473Y-63884517D01*
X55923550Y-64023343D01*
X56022974Y-64074002D01*
X56133986Y-64130566D01*
X56133988Y-64130566D01*
X56133991Y-64130568D01*
X56358615Y-64203553D01*
X56568450Y-64236787D01*
X56576845Y-64238117D01*
X56639979Y-64268046D01*
X56676911Y-64327357D01*
X56675913Y-64397220D01*
X56651538Y-64433981D01*
X56650410Y-64446873D01*
X57210574Y-65007037D01*
X57146990Y-65024075D01*
X57032976Y-65089901D01*
X56939884Y-65182993D01*
X56874058Y-65297007D01*
X56857020Y-65360591D01*
X56296857Y-64800428D01*
X56253316Y-64862613D01*
X56160881Y-65060840D01*
X56160877Y-65060849D01*
X56104272Y-65272105D01*
X56104270Y-65272115D01*
X56085208Y-65489999D01*
X56085208Y-65490000D01*
X56104270Y-65707884D01*
X56104272Y-65707894D01*
X56160877Y-65919150D01*
X56160881Y-65919159D01*
X56253316Y-66117387D01*
X56296857Y-66179571D01*
X56857020Y-65619408D01*
X56874058Y-65682993D01*
X56939884Y-65797007D01*
X57032976Y-65890099D01*
X57146990Y-65955925D01*
X57210573Y-65972962D01*
X56650410Y-66533125D01*
X56655084Y-66586553D01*
X56646594Y-66628793D01*
X56652532Y-66620862D01*
X56717996Y-66596445D01*
X56779247Y-66607747D01*
X56910823Y-66669101D01*
X56910832Y-66669105D01*
X57122088Y-66725710D01*
X57122098Y-66725712D01*
X57339982Y-66744775D01*
X57339984Y-66744775D01*
X57557867Y-66725712D01*
X57557877Y-66725710D01*
X57769133Y-66669105D01*
X57769147Y-66669100D01*
X57967366Y-66576669D01*
X57967368Y-66576668D01*
X58029554Y-66533124D01*
X57469393Y-65972962D01*
X57532976Y-65955925D01*
X57646990Y-65890099D01*
X57740082Y-65797007D01*
X57805908Y-65682993D01*
X57822945Y-65619409D01*
X58383107Y-66179570D01*
X58426649Y-66117388D01*
X58497323Y-65965825D01*
X58543495Y-65913386D01*
X58610689Y-65894233D01*
X58677570Y-65914448D01*
X58722088Y-65965824D01*
X58792880Y-66117638D01*
X58792881Y-66117639D01*
X58918385Y-66296877D01*
X59073106Y-66451598D01*
X59252344Y-66577102D01*
X59450653Y-66669575D01*
X59662006Y-66726207D01*
X59844909Y-66742208D01*
X59879981Y-66745277D01*
X59879983Y-66745277D01*
X59879985Y-66745277D01*
X59908237Y-66742805D01*
X60097960Y-66726207D01*
X60309313Y-66669575D01*
X60507622Y-66577102D01*
X60686860Y-66451598D01*
X60841581Y-66296877D01*
X60967085Y-66117639D01*
X61059558Y-65919330D01*
X61116190Y-65707977D01*
X61125635Y-65600013D01*
X63800000Y-65600013D01*
X63800000Y-65750000D01*
X64750000Y-65750000D01*
X65250000Y-65750000D01*
X66199999Y-65750000D01*
X66199999Y-65600028D01*
X66199998Y-65600013D01*
X66189505Y-65497302D01*
X66134358Y-65330880D01*
X66134356Y-65330875D01*
X66042315Y-65181654D01*
X65918345Y-65057684D01*
X65769124Y-64965643D01*
X65769119Y-64965641D01*
X65602697Y-64910494D01*
X65602690Y-64910493D01*
X65499986Y-64900000D01*
X65250000Y-64900000D01*
X65250000Y-65750000D01*
X64750000Y-65750000D01*
X64750000Y-64900000D01*
X64500029Y-64900000D01*
X64500012Y-64900001D01*
X64397302Y-64910494D01*
X64230880Y-64965641D01*
X64230875Y-64965643D01*
X64081654Y-65057684D01*
X63957684Y-65181654D01*
X63865643Y-65330875D01*
X63865641Y-65330880D01*
X63810494Y-65497302D01*
X63810493Y-65497309D01*
X63800000Y-65600013D01*
X61125635Y-65600013D01*
X61135260Y-65490000D01*
X61116190Y-65272023D01*
X61079862Y-65136446D01*
X61059560Y-65060677D01*
X61059559Y-65060676D01*
X61059558Y-65060670D01*
X60967085Y-64862362D01*
X60967082Y-64862358D01*
X60967082Y-64862357D01*
X60841582Y-64683124D01*
X60841579Y-64683121D01*
X60686860Y-64528402D01*
X60514159Y-64407475D01*
X60507621Y-64402897D01*
X60368398Y-64337977D01*
X60309313Y-64310425D01*
X60309309Y-64310424D01*
X60309305Y-64310422D01*
X60097960Y-64253793D01*
X59879985Y-64234723D01*
X59879981Y-64234723D01*
X59734665Y-64247436D01*
X59662006Y-64253793D01*
X59662003Y-64253793D01*
X59450660Y-64310422D01*
X59450651Y-64310426D01*
X59252344Y-64402898D01*
X59252340Y-64402900D01*
X59073104Y-64528402D01*
X58918385Y-64683121D01*
X58792883Y-64862357D01*
X58792883Y-64862358D01*
X58792881Y-64862361D01*
X58792881Y-64862362D01*
X58780180Y-64889597D01*
X58722088Y-65014176D01*
X58675915Y-65066615D01*
X58608721Y-65085766D01*
X58541840Y-65065550D01*
X58497324Y-65014175D01*
X58426650Y-64862614D01*
X58426649Y-64862612D01*
X58383107Y-64800428D01*
X58383107Y-64800427D01*
X57822945Y-65360589D01*
X57805908Y-65297007D01*
X57740082Y-65182993D01*
X57646990Y-65089901D01*
X57532976Y-65024075D01*
X57469392Y-65007037D01*
X58029554Y-64446874D01*
X57967370Y-64403333D01*
X57769142Y-64310898D01*
X57769133Y-64310894D01*
X57557877Y-64254289D01*
X57557870Y-64254288D01*
X57548912Y-64253504D01*
X57483845Y-64228047D01*
X57442869Y-64171454D01*
X57438995Y-64101692D01*
X57473452Y-64040910D01*
X57494957Y-64024236D01*
X57496397Y-64023352D01*
X57496416Y-64023343D01*
X57687493Y-63884517D01*
X57854500Y-63717510D01*
X57993326Y-63526433D01*
X58100551Y-63315992D01*
X58173536Y-63091368D01*
X58210483Y-62858097D01*
X58210483Y-62621902D01*
X59659483Y-62621902D01*
X59659483Y-62858097D01*
X59696429Y-63091368D01*
X59769416Y-63315996D01*
X59876640Y-63526433D01*
X60015466Y-63717510D01*
X60182473Y-63884517D01*
X60373550Y-64023343D01*
X60472974Y-64074002D01*
X60583986Y-64130566D01*
X60583988Y-64130566D01*
X60583991Y-64130568D01*
X60704395Y-64169689D01*
X60808614Y-64203553D01*
X61041886Y-64240500D01*
X61041891Y-64240500D01*
X61278080Y-64240500D01*
X61511351Y-64203553D01*
X61511354Y-64203552D01*
X61735975Y-64130568D01*
X61946416Y-64023343D01*
X62137493Y-63884517D01*
X62304500Y-63717510D01*
X62443326Y-63526433D01*
X62550551Y-63315992D01*
X62623536Y-63091368D01*
X62660483Y-62858097D01*
X62660483Y-62621902D01*
X71209483Y-62621902D01*
X71209483Y-62858097D01*
X71246429Y-63091368D01*
X71319416Y-63315996D01*
X71426640Y-63526433D01*
X71565466Y-63717510D01*
X71732473Y-63884517D01*
X71923550Y-64023343D01*
X72022974Y-64074002D01*
X72133986Y-64130566D01*
X72133988Y-64130566D01*
X72133991Y-64130568D01*
X72358615Y-64203553D01*
X72568450Y-64236787D01*
X72576845Y-64238117D01*
X72639979Y-64268046D01*
X72676911Y-64327357D01*
X72675913Y-64397220D01*
X72651538Y-64433981D01*
X72650410Y-64446873D01*
X73210574Y-65007037D01*
X73146990Y-65024075D01*
X73032976Y-65089901D01*
X72939884Y-65182993D01*
X72874058Y-65297007D01*
X72857020Y-65360591D01*
X72296857Y-64800428D01*
X72253316Y-64862613D01*
X72160881Y-65060840D01*
X72160877Y-65060849D01*
X72104272Y-65272105D01*
X72104270Y-65272115D01*
X72085208Y-65489999D01*
X72085208Y-65490000D01*
X72104270Y-65707884D01*
X72104272Y-65707894D01*
X72160877Y-65919150D01*
X72160881Y-65919159D01*
X72253316Y-66117387D01*
X72296857Y-66179571D01*
X72857020Y-65619408D01*
X72874058Y-65682993D01*
X72939884Y-65797007D01*
X73032976Y-65890099D01*
X73146990Y-65955925D01*
X73210573Y-65972962D01*
X72650410Y-66533125D01*
X72655084Y-66586553D01*
X72646594Y-66628793D01*
X72652532Y-66620862D01*
X72717996Y-66596445D01*
X72779247Y-66607747D01*
X72910823Y-66669101D01*
X72910832Y-66669105D01*
X73122088Y-66725710D01*
X73122098Y-66725712D01*
X73339982Y-66744775D01*
X73339984Y-66744775D01*
X73557867Y-66725712D01*
X73557877Y-66725710D01*
X73769133Y-66669105D01*
X73769147Y-66669100D01*
X73967366Y-66576669D01*
X73967368Y-66576668D01*
X74029554Y-66533124D01*
X73469393Y-65972962D01*
X73532976Y-65955925D01*
X73646990Y-65890099D01*
X73740082Y-65797007D01*
X73805908Y-65682993D01*
X73822945Y-65619409D01*
X74383107Y-66179570D01*
X74426649Y-66117388D01*
X74497323Y-65965825D01*
X74543495Y-65913386D01*
X74610689Y-65894233D01*
X74677570Y-65914448D01*
X74722088Y-65965824D01*
X74792880Y-66117638D01*
X74792881Y-66117639D01*
X74918385Y-66296877D01*
X75073106Y-66451598D01*
X75252344Y-66577102D01*
X75450653Y-66669575D01*
X75662006Y-66726207D01*
X75844909Y-66742208D01*
X75879981Y-66745277D01*
X75879983Y-66745277D01*
X75879985Y-66745277D01*
X75908237Y-66742805D01*
X76097960Y-66726207D01*
X76309313Y-66669575D01*
X76507622Y-66577102D01*
X76686860Y-66451598D01*
X76841581Y-66296877D01*
X76967085Y-66117639D01*
X77059558Y-65919330D01*
X77116190Y-65707977D01*
X77125635Y-65600013D01*
X79800000Y-65600013D01*
X79800000Y-65750000D01*
X80750000Y-65750000D01*
X81250000Y-65750000D01*
X82199999Y-65750000D01*
X82199999Y-65600028D01*
X82199998Y-65600013D01*
X82189505Y-65497302D01*
X82134358Y-65330880D01*
X82134356Y-65330875D01*
X82042315Y-65181654D01*
X81918345Y-65057684D01*
X81769124Y-64965643D01*
X81769119Y-64965641D01*
X81602697Y-64910494D01*
X81602690Y-64910493D01*
X81499986Y-64900000D01*
X81250000Y-64900000D01*
X81250000Y-65750000D01*
X80750000Y-65750000D01*
X80750000Y-64900000D01*
X80500029Y-64900000D01*
X80500012Y-64900001D01*
X80397302Y-64910494D01*
X80230880Y-64965641D01*
X80230875Y-64965643D01*
X80081654Y-65057684D01*
X79957684Y-65181654D01*
X79865643Y-65330875D01*
X79865641Y-65330880D01*
X79810494Y-65497302D01*
X79810493Y-65497309D01*
X79800000Y-65600013D01*
X77125635Y-65600013D01*
X77135260Y-65490000D01*
X77116190Y-65272023D01*
X77079862Y-65136446D01*
X77059560Y-65060677D01*
X77059559Y-65060676D01*
X77059558Y-65060670D01*
X76967085Y-64862362D01*
X76967082Y-64862358D01*
X76967082Y-64862357D01*
X76841582Y-64683124D01*
X76841579Y-64683121D01*
X76686860Y-64528402D01*
X76592101Y-64462051D01*
X76548478Y-64407475D01*
X76541286Y-64337977D01*
X76572808Y-64275622D01*
X76633038Y-64240209D01*
X76643829Y-64238005D01*
X76675271Y-64233024D01*
X76861351Y-64203553D01*
X77085975Y-64130568D01*
X77296416Y-64023343D01*
X77487493Y-63884517D01*
X77654500Y-63717510D01*
X77793326Y-63526433D01*
X77900551Y-63315992D01*
X77973536Y-63091368D01*
X78010483Y-62858097D01*
X78010483Y-62621902D01*
X87209483Y-62621902D01*
X87209483Y-62858097D01*
X87246429Y-63091368D01*
X87319416Y-63315996D01*
X87426640Y-63526433D01*
X87565466Y-63717510D01*
X87732473Y-63884517D01*
X87923550Y-64023343D01*
X88022974Y-64074002D01*
X88133986Y-64130566D01*
X88133988Y-64130566D01*
X88133991Y-64130568D01*
X88358615Y-64203553D01*
X88568450Y-64236787D01*
X88576845Y-64238117D01*
X88639979Y-64268046D01*
X88676911Y-64327357D01*
X88675913Y-64397220D01*
X88651538Y-64433981D01*
X88650410Y-64446873D01*
X89210574Y-65007037D01*
X89146990Y-65024075D01*
X89032976Y-65089901D01*
X88939884Y-65182993D01*
X88874058Y-65297007D01*
X88857020Y-65360591D01*
X88296857Y-64800428D01*
X88253316Y-64862613D01*
X88160881Y-65060840D01*
X88160877Y-65060849D01*
X88104272Y-65272105D01*
X88104270Y-65272115D01*
X88085208Y-65489999D01*
X88085208Y-65490000D01*
X88104270Y-65707884D01*
X88104272Y-65707894D01*
X88160877Y-65919150D01*
X88160881Y-65919159D01*
X88253316Y-66117387D01*
X88296857Y-66179571D01*
X88857020Y-65619408D01*
X88874058Y-65682993D01*
X88939884Y-65797007D01*
X89032976Y-65890099D01*
X89146990Y-65955925D01*
X89210573Y-65972962D01*
X88650410Y-66533125D01*
X88655084Y-66586553D01*
X88646594Y-66628793D01*
X88652532Y-66620862D01*
X88717996Y-66596445D01*
X88779247Y-66607747D01*
X88910823Y-66669101D01*
X88910832Y-66669105D01*
X89122088Y-66725710D01*
X89122098Y-66725712D01*
X89339982Y-66744775D01*
X89339984Y-66744775D01*
X89557867Y-66725712D01*
X89557877Y-66725710D01*
X89769133Y-66669105D01*
X89769147Y-66669100D01*
X89967366Y-66576669D01*
X89967368Y-66576668D01*
X90029554Y-66533124D01*
X89469393Y-65972962D01*
X89532976Y-65955925D01*
X89646990Y-65890099D01*
X89740082Y-65797007D01*
X89805908Y-65682993D01*
X89822945Y-65619409D01*
X90383107Y-66179570D01*
X90426649Y-66117388D01*
X90497323Y-65965825D01*
X90543495Y-65913386D01*
X90610689Y-65894233D01*
X90677570Y-65914448D01*
X90722088Y-65965824D01*
X90792880Y-66117638D01*
X90792881Y-66117639D01*
X90918385Y-66296877D01*
X91073106Y-66451598D01*
X91252344Y-66577102D01*
X91450653Y-66669575D01*
X91662006Y-66726207D01*
X91844909Y-66742208D01*
X91879981Y-66745277D01*
X91879983Y-66745277D01*
X91879985Y-66745277D01*
X91908237Y-66742805D01*
X92097960Y-66726207D01*
X92309313Y-66669575D01*
X92507622Y-66577102D01*
X92686860Y-66451598D01*
X92841581Y-66296877D01*
X92967085Y-66117639D01*
X93059558Y-65919330D01*
X93116190Y-65707977D01*
X93125635Y-65600013D01*
X95300000Y-65600013D01*
X95300000Y-65750000D01*
X96250000Y-65750000D01*
X96750000Y-65750000D01*
X97699999Y-65750000D01*
X97699999Y-65600028D01*
X97699998Y-65600013D01*
X97689505Y-65497302D01*
X97634358Y-65330880D01*
X97634356Y-65330875D01*
X97542315Y-65181654D01*
X97418345Y-65057684D01*
X97269124Y-64965643D01*
X97269119Y-64965641D01*
X97102697Y-64910494D01*
X97102690Y-64910493D01*
X96999986Y-64900000D01*
X96750000Y-64900000D01*
X96750000Y-65750000D01*
X96250000Y-65750000D01*
X96250000Y-64900000D01*
X96000029Y-64900000D01*
X96000012Y-64900001D01*
X95897302Y-64910494D01*
X95730880Y-64965641D01*
X95730875Y-64965643D01*
X95581654Y-65057684D01*
X95457684Y-65181654D01*
X95365643Y-65330875D01*
X95365641Y-65330880D01*
X95310494Y-65497302D01*
X95310493Y-65497309D01*
X95300000Y-65600013D01*
X93125635Y-65600013D01*
X93135260Y-65490000D01*
X93116190Y-65272023D01*
X93079862Y-65136446D01*
X93059560Y-65060677D01*
X93059559Y-65060676D01*
X93059558Y-65060670D01*
X92967085Y-64862362D01*
X92967082Y-64862358D01*
X92967082Y-64862357D01*
X92841582Y-64683124D01*
X92841579Y-64683121D01*
X92686860Y-64528402D01*
X92592101Y-64462051D01*
X92548478Y-64407475D01*
X92541286Y-64337977D01*
X92572808Y-64275622D01*
X92633038Y-64240209D01*
X92643829Y-64238005D01*
X92675271Y-64233024D01*
X92861351Y-64203553D01*
X93085975Y-64130568D01*
X93296416Y-64023343D01*
X93487493Y-63884517D01*
X93654500Y-63717510D01*
X93793326Y-63526433D01*
X93900551Y-63315992D01*
X93973536Y-63091368D01*
X94010483Y-62858097D01*
X94010483Y-62621902D01*
X103209483Y-62621902D01*
X103209483Y-62858097D01*
X103246429Y-63091368D01*
X103319416Y-63315996D01*
X103426640Y-63526433D01*
X103565466Y-63717510D01*
X103732473Y-63884517D01*
X103923550Y-64023343D01*
X104022974Y-64074002D01*
X104133986Y-64130566D01*
X104133988Y-64130566D01*
X104133991Y-64130568D01*
X104358615Y-64203553D01*
X104568450Y-64236787D01*
X104576845Y-64238117D01*
X104639979Y-64268046D01*
X104676911Y-64327357D01*
X104675913Y-64397220D01*
X104651538Y-64433981D01*
X104650410Y-64446873D01*
X105210574Y-65007037D01*
X105146990Y-65024075D01*
X105032976Y-65089901D01*
X104939884Y-65182993D01*
X104874058Y-65297007D01*
X104857020Y-65360591D01*
X104296857Y-64800428D01*
X104253316Y-64862613D01*
X104160881Y-65060840D01*
X104160877Y-65060849D01*
X104104272Y-65272105D01*
X104104270Y-65272115D01*
X104085208Y-65489999D01*
X104085208Y-65490000D01*
X104104270Y-65707884D01*
X104104272Y-65707894D01*
X104160877Y-65919150D01*
X104160881Y-65919159D01*
X104253316Y-66117387D01*
X104296857Y-66179571D01*
X104857020Y-65619408D01*
X104874058Y-65682993D01*
X104939884Y-65797007D01*
X105032976Y-65890099D01*
X105146990Y-65955925D01*
X105210573Y-65972962D01*
X104650410Y-66533125D01*
X104655084Y-66586553D01*
X104646594Y-66628793D01*
X104652532Y-66620862D01*
X104717996Y-66596445D01*
X104779247Y-66607747D01*
X104910823Y-66669101D01*
X104910832Y-66669105D01*
X105122088Y-66725710D01*
X105122098Y-66725712D01*
X105339982Y-66744775D01*
X105339984Y-66744775D01*
X105557867Y-66725712D01*
X105557877Y-66725710D01*
X105769133Y-66669105D01*
X105769147Y-66669100D01*
X105967366Y-66576669D01*
X105967368Y-66576668D01*
X106029554Y-66533124D01*
X105469393Y-65972962D01*
X105532976Y-65955925D01*
X105646990Y-65890099D01*
X105740082Y-65797007D01*
X105805908Y-65682993D01*
X105822945Y-65619409D01*
X106383107Y-66179570D01*
X106426649Y-66117388D01*
X106497323Y-65965825D01*
X106543495Y-65913386D01*
X106610689Y-65894233D01*
X106677570Y-65914448D01*
X106722088Y-65965824D01*
X106792880Y-66117638D01*
X106792881Y-66117639D01*
X106918385Y-66296877D01*
X107073106Y-66451598D01*
X107252344Y-66577102D01*
X107450653Y-66669575D01*
X107662006Y-66726207D01*
X107844909Y-66742208D01*
X107879981Y-66745277D01*
X107879983Y-66745277D01*
X107879985Y-66745277D01*
X107908237Y-66742805D01*
X108097960Y-66726207D01*
X108309313Y-66669575D01*
X108507622Y-66577102D01*
X108686860Y-66451598D01*
X108841581Y-66296877D01*
X108967085Y-66117639D01*
X109059558Y-65919330D01*
X109116190Y-65707977D01*
X109125635Y-65600013D01*
X111300000Y-65600013D01*
X111300000Y-65750000D01*
X112250000Y-65750000D01*
X112750000Y-65750000D01*
X113699999Y-65750000D01*
X113699999Y-65600028D01*
X113699998Y-65600013D01*
X113689505Y-65497302D01*
X113634358Y-65330880D01*
X113634356Y-65330875D01*
X113542315Y-65181654D01*
X113418345Y-65057684D01*
X113269124Y-64965643D01*
X113269119Y-64965641D01*
X113102697Y-64910494D01*
X113102690Y-64910493D01*
X112999986Y-64900000D01*
X112750000Y-64900000D01*
X112750000Y-65750000D01*
X112250000Y-65750000D01*
X112250000Y-64900000D01*
X112000029Y-64900000D01*
X112000012Y-64900001D01*
X111897302Y-64910494D01*
X111730880Y-64965641D01*
X111730875Y-64965643D01*
X111581654Y-65057684D01*
X111457684Y-65181654D01*
X111365643Y-65330875D01*
X111365641Y-65330880D01*
X111310494Y-65497302D01*
X111310493Y-65497309D01*
X111300000Y-65600013D01*
X109125635Y-65600013D01*
X109135260Y-65490000D01*
X109116190Y-65272023D01*
X109079862Y-65136446D01*
X109059560Y-65060677D01*
X109059559Y-65060676D01*
X109059558Y-65060670D01*
X108967085Y-64862362D01*
X108967082Y-64862358D01*
X108967082Y-64862357D01*
X108841582Y-64683124D01*
X108841579Y-64683121D01*
X108686860Y-64528402D01*
X108592101Y-64462051D01*
X108548478Y-64407475D01*
X108541286Y-64337977D01*
X108572808Y-64275622D01*
X108633038Y-64240209D01*
X108643829Y-64238005D01*
X108675271Y-64233024D01*
X108861351Y-64203553D01*
X109085975Y-64130568D01*
X109296416Y-64023343D01*
X109487493Y-63884517D01*
X109654500Y-63717510D01*
X109793326Y-63526433D01*
X109900551Y-63315992D01*
X109973536Y-63091368D01*
X110010483Y-62858097D01*
X110010483Y-62621902D01*
X119209483Y-62621902D01*
X119209483Y-62858097D01*
X119246429Y-63091368D01*
X119319416Y-63315996D01*
X119426640Y-63526433D01*
X119565466Y-63717510D01*
X119732473Y-63884517D01*
X119923550Y-64023343D01*
X120022974Y-64074002D01*
X120133986Y-64130566D01*
X120133988Y-64130566D01*
X120133991Y-64130568D01*
X120358615Y-64203553D01*
X120568450Y-64236787D01*
X120576845Y-64238117D01*
X120639979Y-64268046D01*
X120676911Y-64327357D01*
X120675913Y-64397220D01*
X120651538Y-64433981D01*
X120650410Y-64446873D01*
X121210574Y-65007037D01*
X121146990Y-65024075D01*
X121032976Y-65089901D01*
X120939884Y-65182993D01*
X120874058Y-65297007D01*
X120857020Y-65360591D01*
X120296857Y-64800428D01*
X120253316Y-64862613D01*
X120160881Y-65060840D01*
X120160877Y-65060849D01*
X120104272Y-65272105D01*
X120104270Y-65272115D01*
X120085208Y-65489999D01*
X120085208Y-65490000D01*
X120104270Y-65707884D01*
X120104272Y-65707894D01*
X120160877Y-65919150D01*
X120160881Y-65919159D01*
X120253316Y-66117387D01*
X120296857Y-66179571D01*
X120857020Y-65619408D01*
X120874058Y-65682993D01*
X120939884Y-65797007D01*
X121032976Y-65890099D01*
X121146990Y-65955925D01*
X121210573Y-65972962D01*
X120650410Y-66533125D01*
X120655084Y-66586553D01*
X120646594Y-66628793D01*
X120652532Y-66620862D01*
X120717996Y-66596445D01*
X120779247Y-66607747D01*
X120910823Y-66669101D01*
X120910832Y-66669105D01*
X121122088Y-66725710D01*
X121122098Y-66725712D01*
X121339982Y-66744775D01*
X121339984Y-66744775D01*
X121557867Y-66725712D01*
X121557877Y-66725710D01*
X121769133Y-66669105D01*
X121769147Y-66669100D01*
X121967366Y-66576669D01*
X121967368Y-66576668D01*
X122029554Y-66533124D01*
X121469393Y-65972962D01*
X121532976Y-65955925D01*
X121646990Y-65890099D01*
X121740082Y-65797007D01*
X121805908Y-65682993D01*
X121822945Y-65619409D01*
X122383107Y-66179570D01*
X122426649Y-66117388D01*
X122497323Y-65965825D01*
X122543495Y-65913386D01*
X122610689Y-65894233D01*
X122677570Y-65914448D01*
X122722088Y-65965824D01*
X122792880Y-66117638D01*
X122792881Y-66117639D01*
X122918385Y-66296877D01*
X123073106Y-66451598D01*
X123252344Y-66577102D01*
X123450653Y-66669575D01*
X123662006Y-66726207D01*
X123844909Y-66742208D01*
X123879981Y-66745277D01*
X123879983Y-66745277D01*
X123879985Y-66745277D01*
X123908237Y-66742805D01*
X124097960Y-66726207D01*
X124309313Y-66669575D01*
X124507622Y-66577102D01*
X124686860Y-66451598D01*
X124841581Y-66296877D01*
X124967085Y-66117639D01*
X125059558Y-65919330D01*
X125116190Y-65707977D01*
X125125635Y-65600013D01*
X127300000Y-65600013D01*
X127300000Y-65750000D01*
X128250000Y-65750000D01*
X128750000Y-65750000D01*
X129699999Y-65750000D01*
X129699999Y-65600028D01*
X129699998Y-65600013D01*
X132300000Y-65600013D01*
X132300000Y-65750000D01*
X133250000Y-65750000D01*
X133750000Y-65750000D01*
X134699999Y-65750000D01*
X134699999Y-65600028D01*
X134699998Y-65600013D01*
X134689505Y-65497302D01*
X134634358Y-65330880D01*
X134634356Y-65330875D01*
X134542315Y-65181654D01*
X134418345Y-65057684D01*
X134269124Y-64965643D01*
X134269119Y-64965641D01*
X134102697Y-64910494D01*
X134102690Y-64910493D01*
X133999986Y-64900000D01*
X133750000Y-64900000D01*
X133750000Y-65750000D01*
X133250000Y-65750000D01*
X133250000Y-64900000D01*
X133000029Y-64900000D01*
X133000012Y-64900001D01*
X132897302Y-64910494D01*
X132730880Y-64965641D01*
X132730875Y-64965643D01*
X132581654Y-65057684D01*
X132457684Y-65181654D01*
X132365643Y-65330875D01*
X132365641Y-65330880D01*
X132310494Y-65497302D01*
X132310493Y-65497309D01*
X132300000Y-65600013D01*
X129699998Y-65600013D01*
X129689505Y-65497302D01*
X129634358Y-65330880D01*
X129634356Y-65330875D01*
X129542315Y-65181654D01*
X129418345Y-65057684D01*
X129269124Y-64965643D01*
X129269119Y-64965641D01*
X129102697Y-64910494D01*
X129102690Y-64910493D01*
X128999986Y-64900000D01*
X128750000Y-64900000D01*
X128750000Y-65750000D01*
X128250000Y-65750000D01*
X128250000Y-64900000D01*
X128000029Y-64900000D01*
X128000012Y-64900001D01*
X127897302Y-64910494D01*
X127730880Y-64965641D01*
X127730875Y-64965643D01*
X127581654Y-65057684D01*
X127457684Y-65181654D01*
X127365643Y-65330875D01*
X127365641Y-65330880D01*
X127310494Y-65497302D01*
X127310493Y-65497309D01*
X127300000Y-65600013D01*
X125125635Y-65600013D01*
X125135260Y-65490000D01*
X125116190Y-65272023D01*
X125079862Y-65136446D01*
X125059560Y-65060677D01*
X125059559Y-65060676D01*
X125059558Y-65060670D01*
X124967085Y-64862362D01*
X124967082Y-64862358D01*
X124967082Y-64862357D01*
X124841582Y-64683124D01*
X124841579Y-64683121D01*
X124686860Y-64528402D01*
X124592101Y-64462051D01*
X124548478Y-64407475D01*
X124541286Y-64337977D01*
X124572808Y-64275622D01*
X124633038Y-64240209D01*
X124643829Y-64238005D01*
X124675271Y-64233024D01*
X124861351Y-64203553D01*
X125085975Y-64130568D01*
X125296416Y-64023343D01*
X125487493Y-63884517D01*
X125654500Y-63717510D01*
X125793326Y-63526433D01*
X125900551Y-63315992D01*
X125973536Y-63091368D01*
X126010483Y-62858097D01*
X126010483Y-62621902D01*
X135209483Y-62621902D01*
X135209483Y-62858097D01*
X135246429Y-63091368D01*
X135319416Y-63315996D01*
X135426640Y-63526433D01*
X135565466Y-63717510D01*
X135732473Y-63884517D01*
X135923550Y-64023343D01*
X136022974Y-64074002D01*
X136133986Y-64130566D01*
X136133988Y-64130566D01*
X136133991Y-64130568D01*
X136358615Y-64203553D01*
X136568450Y-64236787D01*
X136576845Y-64238117D01*
X136639979Y-64268046D01*
X136676911Y-64327357D01*
X136675913Y-64397220D01*
X136651538Y-64433981D01*
X136650410Y-64446873D01*
X137210574Y-65007037D01*
X137146990Y-65024075D01*
X137032976Y-65089901D01*
X136939884Y-65182993D01*
X136874058Y-65297007D01*
X136857020Y-65360591D01*
X136296857Y-64800428D01*
X136253316Y-64862613D01*
X136160881Y-65060840D01*
X136160877Y-65060849D01*
X136104272Y-65272105D01*
X136104270Y-65272115D01*
X136085208Y-65489999D01*
X136085208Y-65490000D01*
X136104270Y-65707884D01*
X136104272Y-65707894D01*
X136160877Y-65919150D01*
X136160881Y-65919159D01*
X136253316Y-66117387D01*
X136296857Y-66179571D01*
X136857020Y-65619408D01*
X136874058Y-65682993D01*
X136939884Y-65797007D01*
X137032976Y-65890099D01*
X137146990Y-65955925D01*
X137210573Y-65972962D01*
X136650410Y-66533125D01*
X136655084Y-66586553D01*
X136646594Y-66628793D01*
X136652532Y-66620862D01*
X136717996Y-66596445D01*
X136779247Y-66607747D01*
X136910823Y-66669101D01*
X136910832Y-66669105D01*
X137122088Y-66725710D01*
X137122098Y-66725712D01*
X137339982Y-66744775D01*
X137339984Y-66744775D01*
X137557867Y-66725712D01*
X137557877Y-66725710D01*
X137769133Y-66669105D01*
X137769147Y-66669100D01*
X137967366Y-66576669D01*
X137967368Y-66576668D01*
X138029554Y-66533124D01*
X137469393Y-65972962D01*
X137532976Y-65955925D01*
X137646990Y-65890099D01*
X137740082Y-65797007D01*
X137805908Y-65682993D01*
X137822945Y-65619409D01*
X138383107Y-66179570D01*
X138426649Y-66117388D01*
X138497323Y-65965825D01*
X138543495Y-65913386D01*
X138610689Y-65894233D01*
X138677570Y-65914448D01*
X138722088Y-65965824D01*
X138792880Y-66117638D01*
X138792881Y-66117639D01*
X138918385Y-66296877D01*
X139073106Y-66451598D01*
X139252344Y-66577102D01*
X139450653Y-66669575D01*
X139662006Y-66726207D01*
X139844909Y-66742208D01*
X139879981Y-66745277D01*
X139879983Y-66745277D01*
X139879985Y-66745277D01*
X139908237Y-66742805D01*
X140097960Y-66726207D01*
X140309313Y-66669575D01*
X140507622Y-66577102D01*
X140686860Y-66451598D01*
X140841581Y-66296877D01*
X140967085Y-66117639D01*
X141059558Y-65919330D01*
X141116190Y-65707977D01*
X141135260Y-65490000D01*
X141116190Y-65272023D01*
X141079862Y-65136446D01*
X141059560Y-65060677D01*
X141059559Y-65060676D01*
X141059558Y-65060670D01*
X140967085Y-64862362D01*
X140967082Y-64862358D01*
X140967082Y-64862357D01*
X140841582Y-64683124D01*
X140841579Y-64683121D01*
X140686860Y-64528402D01*
X140592101Y-64462051D01*
X140548478Y-64407475D01*
X140541286Y-64337977D01*
X140572808Y-64275622D01*
X140633038Y-64240209D01*
X140643829Y-64238005D01*
X140675271Y-64233024D01*
X140861351Y-64203553D01*
X141085975Y-64130568D01*
X141296416Y-64023343D01*
X141487493Y-63884517D01*
X141654500Y-63717510D01*
X141793326Y-63526433D01*
X141900551Y-63315992D01*
X141973536Y-63091368D01*
X142010483Y-62858097D01*
X142010483Y-62621902D01*
X141973536Y-62388631D01*
X141900549Y-62164003D01*
X141793325Y-61953566D01*
X141654500Y-61762490D01*
X141487493Y-61595483D01*
X141296416Y-61456657D01*
X141262779Y-61439518D01*
X141085979Y-61349433D01*
X140861351Y-61276446D01*
X140643829Y-61241994D01*
X140580694Y-61212065D01*
X140543763Y-61152753D01*
X140544761Y-61082890D01*
X140583371Y-61024658D01*
X140592089Y-61017956D01*
X140686860Y-60951598D01*
X140841581Y-60796877D01*
X140967085Y-60617639D01*
X141059558Y-60419330D01*
X141116190Y-60207977D01*
X141135260Y-59990000D01*
X141116190Y-59772023D01*
X141079862Y-59636446D01*
X141059560Y-59560677D01*
X141059559Y-59560676D01*
X141059558Y-59560670D01*
X140967085Y-59362362D01*
X140967082Y-59362358D01*
X140967082Y-59362357D01*
X140841582Y-59183124D01*
X140841579Y-59183121D01*
X140686860Y-59028402D01*
X140548961Y-58931844D01*
X140507621Y-58902897D01*
X140408467Y-58856661D01*
X140309313Y-58810425D01*
X140309309Y-58810424D01*
X140309305Y-58810422D01*
X140097960Y-58753793D01*
X139879985Y-58734723D01*
X139879981Y-58734723D01*
X139734665Y-58747436D01*
X139662006Y-58753793D01*
X139662003Y-58753793D01*
X139450660Y-58810422D01*
X139450651Y-58810426D01*
X139252344Y-58902898D01*
X139252340Y-58902900D01*
X139073104Y-59028402D01*
X138918385Y-59183121D01*
X138792883Y-59362357D01*
X138792883Y-59362358D01*
X138792881Y-59362361D01*
X138792881Y-59362362D01*
X138780180Y-59389597D01*
X138722088Y-59514176D01*
X138675915Y-59566615D01*
X138608721Y-59585766D01*
X138541840Y-59565550D01*
X138497324Y-59514175D01*
X138426650Y-59362614D01*
X138426649Y-59362612D01*
X138383107Y-59300428D01*
X138383107Y-59300427D01*
X137822945Y-59860589D01*
X137805908Y-59797007D01*
X137740082Y-59682993D01*
X137646990Y-59589901D01*
X137532976Y-59524075D01*
X137469392Y-59507037D01*
X138029554Y-58946874D01*
X137967370Y-58903333D01*
X137769142Y-58810898D01*
X137769133Y-58810894D01*
X137557877Y-58754289D01*
X137557867Y-58754287D01*
X137339984Y-58735225D01*
X137339982Y-58735225D01*
X137122098Y-58754287D01*
X137122088Y-58754289D01*
X136910832Y-58810894D01*
X136910823Y-58810898D01*
X136712596Y-58903333D01*
X136650411Y-58946874D01*
X137210574Y-59507037D01*
X137146990Y-59524075D01*
X137032976Y-59589901D01*
X136939884Y-59682993D01*
X136874058Y-59797007D01*
X136857020Y-59860591D01*
X136296857Y-59300428D01*
X136253316Y-59362613D01*
X136160881Y-59560840D01*
X136160877Y-59560849D01*
X136104272Y-59772105D01*
X136104270Y-59772115D01*
X136085208Y-59989999D01*
X136085208Y-59990000D01*
X136104270Y-60207884D01*
X136104272Y-60207894D01*
X136160877Y-60419150D01*
X136160881Y-60419159D01*
X136253316Y-60617387D01*
X136296857Y-60679571D01*
X136857020Y-60119408D01*
X136874058Y-60182993D01*
X136939884Y-60297007D01*
X137032976Y-60390099D01*
X137146990Y-60455925D01*
X137210573Y-60472962D01*
X136650410Y-61033124D01*
X136651592Y-61046631D01*
X136672197Y-61072409D01*
X136679391Y-61141908D01*
X136647868Y-61204263D01*
X136587639Y-61239677D01*
X136576848Y-61241881D01*
X136358613Y-61276447D01*
X136133986Y-61349433D01*
X135923549Y-61456657D01*
X135814533Y-61535862D01*
X135732473Y-61595483D01*
X135732471Y-61595485D01*
X135732470Y-61595485D01*
X135565468Y-61762487D01*
X135565468Y-61762488D01*
X135565466Y-61762490D01*
X135505845Y-61844550D01*
X135426640Y-61953566D01*
X135319416Y-62164003D01*
X135246429Y-62388631D01*
X135209483Y-62621902D01*
X126010483Y-62621902D01*
X125973536Y-62388631D01*
X125900549Y-62164003D01*
X125793325Y-61953566D01*
X125654500Y-61762490D01*
X125487493Y-61595483D01*
X125296416Y-61456657D01*
X125262779Y-61439518D01*
X125085979Y-61349433D01*
X124861351Y-61276446D01*
X124643829Y-61241994D01*
X124580694Y-61212065D01*
X124543763Y-61152753D01*
X124544761Y-61082890D01*
X124583371Y-61024658D01*
X124592089Y-61017956D01*
X124686860Y-60951598D01*
X124841581Y-60796877D01*
X124967085Y-60617639D01*
X125059558Y-60419330D01*
X125116190Y-60207977D01*
X125135260Y-59990000D01*
X125116190Y-59772023D01*
X125079862Y-59636446D01*
X125059560Y-59560677D01*
X125059559Y-59560676D01*
X125059558Y-59560670D01*
X124967085Y-59362362D01*
X124967082Y-59362358D01*
X124967082Y-59362357D01*
X124841582Y-59183124D01*
X124841579Y-59183121D01*
X124686860Y-59028402D01*
X124548961Y-58931844D01*
X124507621Y-58902897D01*
X124408467Y-58856661D01*
X124309313Y-58810425D01*
X124309309Y-58810424D01*
X124309305Y-58810422D01*
X124097960Y-58753793D01*
X123879985Y-58734723D01*
X123879981Y-58734723D01*
X123734665Y-58747436D01*
X123662006Y-58753793D01*
X123662003Y-58753793D01*
X123450660Y-58810422D01*
X123450651Y-58810426D01*
X123252344Y-58902898D01*
X123252340Y-58902900D01*
X123073104Y-59028402D01*
X122918385Y-59183121D01*
X122792883Y-59362357D01*
X122792883Y-59362358D01*
X122792881Y-59362361D01*
X122792881Y-59362362D01*
X122780180Y-59389597D01*
X122722088Y-59514176D01*
X122675915Y-59566615D01*
X122608721Y-59585766D01*
X122541840Y-59565550D01*
X122497324Y-59514175D01*
X122426650Y-59362614D01*
X122426649Y-59362612D01*
X122383107Y-59300428D01*
X122383107Y-59300427D01*
X121822945Y-59860589D01*
X121805908Y-59797007D01*
X121740082Y-59682993D01*
X121646990Y-59589901D01*
X121532976Y-59524075D01*
X121469392Y-59507037D01*
X122029554Y-58946874D01*
X121967370Y-58903333D01*
X121769142Y-58810898D01*
X121769133Y-58810894D01*
X121557877Y-58754289D01*
X121557867Y-58754287D01*
X121339984Y-58735225D01*
X121339982Y-58735225D01*
X121122098Y-58754287D01*
X121122088Y-58754289D01*
X120910832Y-58810894D01*
X120910823Y-58810898D01*
X120712596Y-58903333D01*
X120650411Y-58946874D01*
X121210574Y-59507037D01*
X121146990Y-59524075D01*
X121032976Y-59589901D01*
X120939884Y-59682993D01*
X120874058Y-59797007D01*
X120857020Y-59860591D01*
X120296857Y-59300428D01*
X120253316Y-59362613D01*
X120160881Y-59560840D01*
X120160877Y-59560849D01*
X120104272Y-59772105D01*
X120104270Y-59772115D01*
X120085208Y-59989999D01*
X120085208Y-59990000D01*
X120104270Y-60207884D01*
X120104272Y-60207894D01*
X120160877Y-60419150D01*
X120160881Y-60419159D01*
X120253316Y-60617387D01*
X120296857Y-60679571D01*
X120857020Y-60119408D01*
X120874058Y-60182993D01*
X120939884Y-60297007D01*
X121032976Y-60390099D01*
X121146990Y-60455925D01*
X121210573Y-60472962D01*
X120650410Y-61033124D01*
X120651592Y-61046631D01*
X120672197Y-61072409D01*
X120679391Y-61141908D01*
X120647868Y-61204263D01*
X120587639Y-61239677D01*
X120576848Y-61241881D01*
X120358613Y-61276447D01*
X120133986Y-61349433D01*
X119923549Y-61456657D01*
X119814533Y-61535862D01*
X119732473Y-61595483D01*
X119732471Y-61595485D01*
X119732470Y-61595485D01*
X119565468Y-61762487D01*
X119565468Y-61762488D01*
X119565466Y-61762490D01*
X119505845Y-61844550D01*
X119426640Y-61953566D01*
X119319416Y-62164003D01*
X119246429Y-62388631D01*
X119209483Y-62621902D01*
X110010483Y-62621902D01*
X109973536Y-62388631D01*
X109900549Y-62164003D01*
X109793325Y-61953566D01*
X109654500Y-61762490D01*
X109487493Y-61595483D01*
X109296416Y-61456657D01*
X109262779Y-61439518D01*
X109085979Y-61349433D01*
X108861351Y-61276446D01*
X108643829Y-61241994D01*
X108580694Y-61212065D01*
X108543763Y-61152753D01*
X108544761Y-61082890D01*
X108583371Y-61024658D01*
X108592089Y-61017956D01*
X108686860Y-60951598D01*
X108841581Y-60796877D01*
X108967085Y-60617639D01*
X109059558Y-60419330D01*
X109116190Y-60207977D01*
X109135260Y-59990000D01*
X109116190Y-59772023D01*
X109079862Y-59636446D01*
X109059560Y-59560677D01*
X109059559Y-59560676D01*
X109059558Y-59560670D01*
X108967085Y-59362362D01*
X108967082Y-59362358D01*
X108967082Y-59362357D01*
X108841582Y-59183124D01*
X108841579Y-59183121D01*
X108686860Y-59028402D01*
X108548961Y-58931844D01*
X108507621Y-58902897D01*
X108408467Y-58856661D01*
X108309313Y-58810425D01*
X108309309Y-58810424D01*
X108309305Y-58810422D01*
X108097960Y-58753793D01*
X107879985Y-58734723D01*
X107879981Y-58734723D01*
X107734665Y-58747436D01*
X107662006Y-58753793D01*
X107662003Y-58753793D01*
X107450660Y-58810422D01*
X107450651Y-58810426D01*
X107252344Y-58902898D01*
X107252340Y-58902900D01*
X107073104Y-59028402D01*
X106918385Y-59183121D01*
X106792883Y-59362357D01*
X106792883Y-59362358D01*
X106792881Y-59362361D01*
X106792881Y-59362362D01*
X106780180Y-59389597D01*
X106722088Y-59514176D01*
X106675915Y-59566615D01*
X106608721Y-59585766D01*
X106541840Y-59565550D01*
X106497324Y-59514175D01*
X106426650Y-59362614D01*
X106426649Y-59362612D01*
X106383107Y-59300428D01*
X106383107Y-59300427D01*
X105822945Y-59860589D01*
X105805908Y-59797007D01*
X105740082Y-59682993D01*
X105646990Y-59589901D01*
X105532976Y-59524075D01*
X105469392Y-59507037D01*
X106029554Y-58946874D01*
X105967370Y-58903333D01*
X105769142Y-58810898D01*
X105769133Y-58810894D01*
X105557877Y-58754289D01*
X105557867Y-58754287D01*
X105339984Y-58735225D01*
X105339982Y-58735225D01*
X105122098Y-58754287D01*
X105122088Y-58754289D01*
X104910832Y-58810894D01*
X104910823Y-58810898D01*
X104712596Y-58903333D01*
X104650411Y-58946874D01*
X105210574Y-59507037D01*
X105146990Y-59524075D01*
X105032976Y-59589901D01*
X104939884Y-59682993D01*
X104874058Y-59797007D01*
X104857020Y-59860591D01*
X104296857Y-59300428D01*
X104253316Y-59362613D01*
X104160881Y-59560840D01*
X104160877Y-59560849D01*
X104104272Y-59772105D01*
X104104270Y-59772115D01*
X104085208Y-59989999D01*
X104085208Y-59990000D01*
X104104270Y-60207884D01*
X104104272Y-60207894D01*
X104160877Y-60419150D01*
X104160881Y-60419159D01*
X104253316Y-60617387D01*
X104296857Y-60679571D01*
X104857020Y-60119408D01*
X104874058Y-60182993D01*
X104939884Y-60297007D01*
X105032976Y-60390099D01*
X105146990Y-60455925D01*
X105210573Y-60472962D01*
X104650410Y-61033124D01*
X104651592Y-61046631D01*
X104672197Y-61072409D01*
X104679391Y-61141908D01*
X104647868Y-61204263D01*
X104587639Y-61239677D01*
X104576848Y-61241881D01*
X104358613Y-61276447D01*
X104133986Y-61349433D01*
X103923549Y-61456657D01*
X103814533Y-61535862D01*
X103732473Y-61595483D01*
X103732471Y-61595485D01*
X103732470Y-61595485D01*
X103565468Y-61762487D01*
X103565468Y-61762488D01*
X103565466Y-61762490D01*
X103505845Y-61844550D01*
X103426640Y-61953566D01*
X103319416Y-62164003D01*
X103246429Y-62388631D01*
X103209483Y-62621902D01*
X94010483Y-62621902D01*
X93973536Y-62388631D01*
X93900549Y-62164003D01*
X93793325Y-61953566D01*
X93654500Y-61762490D01*
X93487493Y-61595483D01*
X93296416Y-61456657D01*
X93262779Y-61439518D01*
X93085979Y-61349433D01*
X92861351Y-61276446D01*
X92643829Y-61241994D01*
X92580694Y-61212065D01*
X92543763Y-61152753D01*
X92544761Y-61082890D01*
X92583371Y-61024658D01*
X92592089Y-61017956D01*
X92686860Y-60951598D01*
X92841581Y-60796877D01*
X92967085Y-60617639D01*
X93059558Y-60419330D01*
X93116190Y-60207977D01*
X93135260Y-59990000D01*
X93116190Y-59772023D01*
X93079862Y-59636446D01*
X93059560Y-59560677D01*
X93059559Y-59560676D01*
X93059558Y-59560670D01*
X92967085Y-59362362D01*
X92967082Y-59362358D01*
X92967082Y-59362357D01*
X92841582Y-59183124D01*
X92841579Y-59183121D01*
X92686860Y-59028402D01*
X92548961Y-58931844D01*
X92507621Y-58902897D01*
X92408467Y-58856661D01*
X92309313Y-58810425D01*
X92309309Y-58810424D01*
X92309305Y-58810422D01*
X92097960Y-58753793D01*
X91879985Y-58734723D01*
X91879981Y-58734723D01*
X91734665Y-58747436D01*
X91662006Y-58753793D01*
X91662003Y-58753793D01*
X91450660Y-58810422D01*
X91450651Y-58810426D01*
X91252344Y-58902898D01*
X91252340Y-58902900D01*
X91073104Y-59028402D01*
X90918385Y-59183121D01*
X90792883Y-59362357D01*
X90792883Y-59362358D01*
X90792881Y-59362361D01*
X90792881Y-59362362D01*
X90780180Y-59389597D01*
X90722088Y-59514176D01*
X90675915Y-59566615D01*
X90608721Y-59585766D01*
X90541840Y-59565550D01*
X90497324Y-59514175D01*
X90426650Y-59362614D01*
X90426649Y-59362612D01*
X90383107Y-59300428D01*
X90383107Y-59300427D01*
X89822945Y-59860589D01*
X89805908Y-59797007D01*
X89740082Y-59682993D01*
X89646990Y-59589901D01*
X89532976Y-59524075D01*
X89469392Y-59507037D01*
X90029554Y-58946874D01*
X89967370Y-58903333D01*
X89769142Y-58810898D01*
X89769133Y-58810894D01*
X89557877Y-58754289D01*
X89557867Y-58754287D01*
X89339984Y-58735225D01*
X89339982Y-58735225D01*
X89122098Y-58754287D01*
X89122088Y-58754289D01*
X88910832Y-58810894D01*
X88910823Y-58810898D01*
X88712596Y-58903333D01*
X88650411Y-58946874D01*
X89210574Y-59507037D01*
X89146990Y-59524075D01*
X89032976Y-59589901D01*
X88939884Y-59682993D01*
X88874058Y-59797007D01*
X88857020Y-59860591D01*
X88296857Y-59300428D01*
X88253316Y-59362613D01*
X88160881Y-59560840D01*
X88160877Y-59560849D01*
X88104272Y-59772105D01*
X88104270Y-59772115D01*
X88085208Y-59989999D01*
X88085208Y-59990000D01*
X88104270Y-60207884D01*
X88104272Y-60207894D01*
X88160877Y-60419150D01*
X88160881Y-60419159D01*
X88253316Y-60617387D01*
X88296857Y-60679571D01*
X88857020Y-60119408D01*
X88874058Y-60182993D01*
X88939884Y-60297007D01*
X89032976Y-60390099D01*
X89146990Y-60455925D01*
X89210573Y-60472962D01*
X88650410Y-61033124D01*
X88651592Y-61046631D01*
X88672197Y-61072409D01*
X88679391Y-61141908D01*
X88647868Y-61204263D01*
X88587639Y-61239677D01*
X88576848Y-61241881D01*
X88358613Y-61276447D01*
X88133986Y-61349433D01*
X87923549Y-61456657D01*
X87814533Y-61535862D01*
X87732473Y-61595483D01*
X87732471Y-61595485D01*
X87732470Y-61595485D01*
X87565468Y-61762487D01*
X87565468Y-61762488D01*
X87565466Y-61762490D01*
X87505845Y-61844550D01*
X87426640Y-61953566D01*
X87319416Y-62164003D01*
X87246429Y-62388631D01*
X87209483Y-62621902D01*
X78010483Y-62621902D01*
X77973536Y-62388631D01*
X77900549Y-62164003D01*
X77793325Y-61953566D01*
X77654500Y-61762490D01*
X77487493Y-61595483D01*
X77296416Y-61456657D01*
X77262779Y-61439518D01*
X77085979Y-61349433D01*
X76861351Y-61276446D01*
X76643829Y-61241994D01*
X76580694Y-61212065D01*
X76543763Y-61152753D01*
X76544761Y-61082890D01*
X76583371Y-61024658D01*
X76592089Y-61017956D01*
X76686860Y-60951598D01*
X76841581Y-60796877D01*
X76967085Y-60617639D01*
X77059558Y-60419330D01*
X77116190Y-60207977D01*
X77135260Y-59990000D01*
X77116190Y-59772023D01*
X77079862Y-59636446D01*
X77059560Y-59560677D01*
X77059559Y-59560676D01*
X77059558Y-59560670D01*
X76967085Y-59362362D01*
X76967082Y-59362358D01*
X76967082Y-59362357D01*
X76841582Y-59183124D01*
X76841579Y-59183121D01*
X76686860Y-59028402D01*
X76548961Y-58931844D01*
X76507621Y-58902897D01*
X76408467Y-58856661D01*
X76309313Y-58810425D01*
X76309309Y-58810424D01*
X76309305Y-58810422D01*
X76097960Y-58753793D01*
X75879985Y-58734723D01*
X75879981Y-58734723D01*
X75734665Y-58747436D01*
X75662006Y-58753793D01*
X75662003Y-58753793D01*
X75450660Y-58810422D01*
X75450651Y-58810426D01*
X75252344Y-58902898D01*
X75252340Y-58902900D01*
X75073104Y-59028402D01*
X74918385Y-59183121D01*
X74792883Y-59362357D01*
X74792883Y-59362358D01*
X74792881Y-59362361D01*
X74792881Y-59362362D01*
X74780180Y-59389597D01*
X74722088Y-59514176D01*
X74675915Y-59566615D01*
X74608721Y-59585766D01*
X74541840Y-59565550D01*
X74497324Y-59514175D01*
X74426650Y-59362614D01*
X74426649Y-59362612D01*
X74383107Y-59300428D01*
X74383107Y-59300427D01*
X73822945Y-59860589D01*
X73805908Y-59797007D01*
X73740082Y-59682993D01*
X73646990Y-59589901D01*
X73532976Y-59524075D01*
X73469392Y-59507037D01*
X74029554Y-58946874D01*
X73967370Y-58903333D01*
X73769142Y-58810898D01*
X73769133Y-58810894D01*
X73557877Y-58754289D01*
X73557867Y-58754287D01*
X73339984Y-58735225D01*
X73339982Y-58735225D01*
X73122098Y-58754287D01*
X73122088Y-58754289D01*
X72910832Y-58810894D01*
X72910823Y-58810898D01*
X72712596Y-58903333D01*
X72650411Y-58946874D01*
X73210574Y-59507037D01*
X73146990Y-59524075D01*
X73032976Y-59589901D01*
X72939884Y-59682993D01*
X72874058Y-59797007D01*
X72857020Y-59860591D01*
X72296857Y-59300428D01*
X72253316Y-59362613D01*
X72160881Y-59560840D01*
X72160877Y-59560849D01*
X72104272Y-59772105D01*
X72104270Y-59772115D01*
X72085208Y-59989999D01*
X72085208Y-59990000D01*
X72104270Y-60207884D01*
X72104272Y-60207894D01*
X72160877Y-60419150D01*
X72160881Y-60419159D01*
X72253316Y-60617387D01*
X72296857Y-60679571D01*
X72857020Y-60119408D01*
X72874058Y-60182993D01*
X72939884Y-60297007D01*
X73032976Y-60390099D01*
X73146990Y-60455925D01*
X73210573Y-60472962D01*
X72650410Y-61033124D01*
X72651592Y-61046631D01*
X72672197Y-61072409D01*
X72679391Y-61141908D01*
X72647868Y-61204263D01*
X72587639Y-61239677D01*
X72576848Y-61241881D01*
X72358613Y-61276447D01*
X72133986Y-61349433D01*
X71923549Y-61456657D01*
X71814533Y-61535862D01*
X71732473Y-61595483D01*
X71732471Y-61595485D01*
X71732470Y-61595485D01*
X71565468Y-61762487D01*
X71565468Y-61762488D01*
X71565466Y-61762490D01*
X71505845Y-61844550D01*
X71426640Y-61953566D01*
X71319416Y-62164003D01*
X71246429Y-62388631D01*
X71209483Y-62621902D01*
X62660483Y-62621902D01*
X62623536Y-62388631D01*
X62550549Y-62164003D01*
X62443325Y-61953566D01*
X62304500Y-61762490D01*
X62137493Y-61595483D01*
X61946416Y-61456657D01*
X61912779Y-61439518D01*
X61735979Y-61349433D01*
X61511351Y-61276446D01*
X61278080Y-61239500D01*
X61278075Y-61239500D01*
X61041891Y-61239500D01*
X61041886Y-61239500D01*
X60808614Y-61276446D01*
X60583986Y-61349433D01*
X60373549Y-61456657D01*
X60264533Y-61535862D01*
X60182473Y-61595483D01*
X60182471Y-61595485D01*
X60182470Y-61595485D01*
X60015468Y-61762487D01*
X60015468Y-61762488D01*
X60015466Y-61762490D01*
X59955845Y-61844550D01*
X59876640Y-61953566D01*
X59769416Y-62164003D01*
X59696429Y-62388631D01*
X59659483Y-62621902D01*
X58210483Y-62621902D01*
X58173536Y-62388631D01*
X58100549Y-62164003D01*
X57993325Y-61953566D01*
X57854500Y-61762490D01*
X57687493Y-61595483D01*
X57496416Y-61456657D01*
X57496410Y-61456654D01*
X57494943Y-61455755D01*
X57494498Y-61455264D01*
X57492474Y-61453793D01*
X57492782Y-61453367D01*
X57448064Y-61403946D01*
X57436637Y-61335017D01*
X57464290Y-61270852D01*
X57522243Y-61231824D01*
X57548920Y-61226495D01*
X57557866Y-61225712D01*
X57557877Y-61225710D01*
X57769133Y-61169105D01*
X57769147Y-61169100D01*
X57967366Y-61076669D01*
X57967368Y-61076668D01*
X58029553Y-61033124D01*
X57469392Y-60472962D01*
X57532976Y-60455925D01*
X57646990Y-60390099D01*
X57740082Y-60297007D01*
X57805908Y-60182993D01*
X57822945Y-60119409D01*
X58383107Y-60679570D01*
X58426649Y-60617388D01*
X58497323Y-60465825D01*
X58543495Y-60413386D01*
X58610689Y-60394233D01*
X58677570Y-60414448D01*
X58722088Y-60465824D01*
X58792880Y-60617638D01*
X58792881Y-60617639D01*
X58918385Y-60796877D01*
X59073106Y-60951598D01*
X59252344Y-61077102D01*
X59450653Y-61169575D01*
X59662006Y-61226207D01*
X59842457Y-61241994D01*
X59879981Y-61245277D01*
X59879983Y-61245277D01*
X59879985Y-61245277D01*
X59908237Y-61242805D01*
X60097960Y-61226207D01*
X60309313Y-61169575D01*
X60507622Y-61077102D01*
X60686860Y-60951598D01*
X60841581Y-60796877D01*
X60967085Y-60617639D01*
X61059558Y-60419330D01*
X61116190Y-60207977D01*
X61135260Y-59990000D01*
X61116190Y-59772023D01*
X61079862Y-59636446D01*
X61059560Y-59560677D01*
X61059559Y-59560676D01*
X61059558Y-59560670D01*
X60967085Y-59362362D01*
X60967082Y-59362358D01*
X60967082Y-59362357D01*
X60841582Y-59183124D01*
X60841579Y-59183121D01*
X60686860Y-59028402D01*
X60548961Y-58931844D01*
X60507621Y-58902897D01*
X60408467Y-58856661D01*
X60309313Y-58810425D01*
X60309309Y-58810424D01*
X60309305Y-58810422D01*
X60097960Y-58753793D01*
X59879985Y-58734723D01*
X59879981Y-58734723D01*
X59734665Y-58747436D01*
X59662006Y-58753793D01*
X59662003Y-58753793D01*
X59450660Y-58810422D01*
X59450651Y-58810426D01*
X59252344Y-58902898D01*
X59252340Y-58902900D01*
X59073104Y-59028402D01*
X58918385Y-59183121D01*
X58792883Y-59362357D01*
X58792883Y-59362358D01*
X58792881Y-59362361D01*
X58792881Y-59362362D01*
X58780180Y-59389597D01*
X58722088Y-59514176D01*
X58675915Y-59566615D01*
X58608721Y-59585766D01*
X58541840Y-59565550D01*
X58497324Y-59514175D01*
X58426650Y-59362614D01*
X58426649Y-59362612D01*
X58383107Y-59300428D01*
X58383107Y-59300427D01*
X57822945Y-59860589D01*
X57805908Y-59797007D01*
X57740082Y-59682993D01*
X57646990Y-59589901D01*
X57532976Y-59524075D01*
X57469392Y-59507037D01*
X58029554Y-58946874D01*
X57967370Y-58903333D01*
X57769142Y-58810898D01*
X57769133Y-58810894D01*
X57557877Y-58754289D01*
X57557867Y-58754287D01*
X57339984Y-58735225D01*
X57339982Y-58735225D01*
X57122098Y-58754287D01*
X57122088Y-58754289D01*
X56910832Y-58810894D01*
X56910823Y-58810898D01*
X56712596Y-58903333D01*
X56650411Y-58946874D01*
X57210574Y-59507037D01*
X57146990Y-59524075D01*
X57032976Y-59589901D01*
X56939884Y-59682993D01*
X56874058Y-59797007D01*
X56857020Y-59860591D01*
X56296857Y-59300428D01*
X56253316Y-59362613D01*
X56160881Y-59560840D01*
X56160877Y-59560849D01*
X56104272Y-59772105D01*
X56104270Y-59772115D01*
X56085208Y-59989999D01*
X56085208Y-59990000D01*
X56104270Y-60207884D01*
X56104272Y-60207894D01*
X56160877Y-60419150D01*
X56160881Y-60419159D01*
X56253316Y-60617387D01*
X56296857Y-60679571D01*
X56857020Y-60119408D01*
X56874058Y-60182993D01*
X56939884Y-60297007D01*
X57032976Y-60390099D01*
X57146990Y-60455925D01*
X57210573Y-60472962D01*
X56650410Y-61033124D01*
X56651592Y-61046631D01*
X56672197Y-61072409D01*
X56679391Y-61141908D01*
X56647868Y-61204263D01*
X56587639Y-61239677D01*
X56576848Y-61241881D01*
X56358613Y-61276447D01*
X56133986Y-61349433D01*
X55923549Y-61456657D01*
X55814533Y-61535862D01*
X55732473Y-61595483D01*
X55732471Y-61595485D01*
X55732470Y-61595485D01*
X55565468Y-61762487D01*
X55565468Y-61762488D01*
X55565466Y-61762490D01*
X55505845Y-61844550D01*
X55426640Y-61953566D01*
X55319416Y-62164003D01*
X55246429Y-62388631D01*
X55209483Y-62621902D01*
X54110483Y-62621902D01*
X54110483Y-55904500D01*
X54130168Y-55837461D01*
X54182972Y-55791706D01*
X54234483Y-55780500D01*
X142985483Y-55780500D01*
X143052522Y-55800185D01*
G37*
%TD.AperFunction*%
%TD*%
%TA.AperFunction,NonConductor*%
G36*
X92756587Y-78645185D02*
G01*
X92777229Y-78661819D01*
X93355030Y-79239620D01*
X93388515Y-79300943D01*
X93383531Y-79370635D01*
X93363205Y-79405963D01*
X93334069Y-79441467D01*
X93241171Y-79615266D01*
X93183958Y-79803870D01*
X93164642Y-80000000D01*
X93183958Y-80196129D01*
X93193229Y-80226692D01*
X93231712Y-80353553D01*
X93241171Y-80384733D01*
X93334069Y-80558532D01*
X93334073Y-80558539D01*
X93459099Y-80710883D01*
X93611443Y-80835909D01*
X93611450Y-80835913D01*
X93785249Y-80928811D01*
X93785252Y-80928811D01*
X93785256Y-80928814D01*
X93973851Y-80986024D01*
X94169983Y-81005341D01*
X94366115Y-80986024D01*
X94554710Y-80928814D01*
X94728521Y-80835910D01*
X94728527Y-80835904D01*
X94733590Y-80832523D01*
X94734686Y-80834164D01*
X94790622Y-80810405D01*
X94859490Y-80822194D01*
X94876131Y-80832888D01*
X94876376Y-80832523D01*
X94881441Y-80835907D01*
X94881445Y-80835910D01*
X95025996Y-80913174D01*
X95051422Y-80926765D01*
X95055256Y-80928814D01*
X95243851Y-80986024D01*
X95439983Y-81005341D01*
X95636115Y-80986024D01*
X95824710Y-80928814D01*
X95998521Y-80835910D01*
X95998527Y-80835904D01*
X96003590Y-80832523D01*
X96004686Y-80834164D01*
X96060622Y-80810405D01*
X96129490Y-80822194D01*
X96146131Y-80832888D01*
X96146376Y-80832523D01*
X96151441Y-80835907D01*
X96151445Y-80835910D01*
X96295996Y-80913174D01*
X96321422Y-80926765D01*
X96325256Y-80928814D01*
X96513851Y-80986024D01*
X96709983Y-81005341D01*
X96906115Y-80986024D01*
X97094710Y-80928814D01*
X97268521Y-80835910D01*
X97268527Y-80835904D01*
X97273590Y-80832523D01*
X97274686Y-80834164D01*
X97330622Y-80810405D01*
X97399490Y-80822194D01*
X97416131Y-80832888D01*
X97416376Y-80832523D01*
X97421441Y-80835907D01*
X97421445Y-80835910D01*
X97565996Y-80913174D01*
X97591422Y-80926765D01*
X97595256Y-80928814D01*
X97783851Y-80986024D01*
X97835517Y-80991112D01*
X97837491Y-80991307D01*
X97902278Y-81017468D01*
X97942637Y-81074502D01*
X97945754Y-81144302D01*
X97913018Y-81202391D01*
X97142499Y-81972911D01*
X97081176Y-82006396D01*
X97054818Y-82009230D01*
X90226842Y-82009230D01*
X90159803Y-81989545D01*
X90114048Y-81936741D01*
X90104104Y-81867583D01*
X90127575Y-81810920D01*
X90199585Y-81714725D01*
X90297209Y-81584315D01*
X90434350Y-81333161D01*
X90534352Y-81065046D01*
X90538429Y-81046306D01*
X90595178Y-80785433D01*
X90595178Y-80785432D01*
X90595179Y-80785428D01*
X90615593Y-80500000D01*
X90595179Y-80214572D01*
X90548502Y-80000002D01*
X90534354Y-79934962D01*
X90534353Y-79934960D01*
X90534352Y-79934954D01*
X90434350Y-79666839D01*
X90372561Y-79553682D01*
X90297212Y-79415690D01*
X90297207Y-79415682D01*
X90125728Y-79186612D01*
X90125712Y-79186594D01*
X89923388Y-78984270D01*
X89923370Y-78984254D01*
X89742379Y-78848767D01*
X89700507Y-78792834D01*
X89695523Y-78723142D01*
X89729008Y-78661819D01*
X89790331Y-78628334D01*
X89816689Y-78625500D01*
X92689548Y-78625500D01*
X92756587Y-78645185D01*
G37*
%TD.AperFunction*%
%TA.AperFunction,NonConductor*%
G36*
X87470316Y-78645185D02*
G01*
X87516071Y-78697989D01*
X87526015Y-78767147D01*
X87496990Y-78830703D01*
X87477587Y-78848767D01*
X87296595Y-78984254D01*
X87296577Y-78984270D01*
X87094253Y-79186594D01*
X87094237Y-79186612D01*
X86922758Y-79415682D01*
X86922753Y-79415690D01*
X86785618Y-79666833D01*
X86685611Y-79934962D01*
X86624787Y-80214566D01*
X86604373Y-80499998D01*
X86604373Y-80500001D01*
X86624787Y-80785433D01*
X86685611Y-81065037D01*
X86685613Y-81065043D01*
X86685614Y-81065046D01*
X86767889Y-81285633D01*
X86785618Y-81333166D01*
X86922753Y-81584309D01*
X86922758Y-81584317D01*
X87092391Y-81810920D01*
X87116808Y-81876384D01*
X87101956Y-81944657D01*
X87052551Y-81994062D01*
X86993124Y-82009230D01*
X84283173Y-82009230D01*
X84216134Y-81989545D01*
X84170379Y-81936741D01*
X84160435Y-81867583D01*
X84181597Y-81814108D01*
X84210568Y-81772734D01*
X84306739Y-81566496D01*
X84365635Y-81346692D01*
X84385468Y-81120000D01*
X84365635Y-80893308D01*
X84306739Y-80673504D01*
X84210568Y-80467266D01*
X84080047Y-80280861D01*
X84080045Y-80280858D01*
X83919141Y-80119954D01*
X83732734Y-79989432D01*
X83732732Y-79989431D01*
X83526497Y-79893261D01*
X83526488Y-79893258D01*
X83306697Y-79834366D01*
X83306693Y-79834365D01*
X83306692Y-79834365D01*
X83306691Y-79834364D01*
X83306686Y-79834364D01*
X83080002Y-79814532D01*
X83079998Y-79814532D01*
X82853313Y-79834364D01*
X82853302Y-79834366D01*
X82633511Y-79893258D01*
X82633502Y-79893261D01*
X82427267Y-79989431D01*
X82427265Y-79989432D01*
X82240858Y-80119954D01*
X82079954Y-80280858D01*
X81949432Y-80467265D01*
X81949431Y-80467267D01*
X81922382Y-80525275D01*
X81876209Y-80577714D01*
X81809016Y-80596866D01*
X81742135Y-80576650D01*
X81697618Y-80525275D01*
X81670568Y-80467266D01*
X81540047Y-80280861D01*
X81540045Y-80280858D01*
X81379141Y-80119954D01*
X81192734Y-79989432D01*
X81192732Y-79989431D01*
X80986497Y-79893261D01*
X80986488Y-79893258D01*
X80766697Y-79834366D01*
X80766693Y-79834365D01*
X80766692Y-79834365D01*
X80766691Y-79834364D01*
X80766686Y-79834364D01*
X80540002Y-79814532D01*
X80539998Y-79814532D01*
X80313313Y-79834364D01*
X80313302Y-79834366D01*
X80093511Y-79893258D01*
X80093502Y-79893261D01*
X79887267Y-79989431D01*
X79887265Y-79989432D01*
X79700858Y-80119954D01*
X79539954Y-80280858D01*
X79409432Y-80467265D01*
X79409431Y-80467267D01*
X79382382Y-80525275D01*
X79336209Y-80577714D01*
X79269016Y-80596866D01*
X79202135Y-80576650D01*
X79157618Y-80525275D01*
X79130568Y-80467266D01*
X79000047Y-80280861D01*
X79000045Y-80280858D01*
X78839141Y-80119954D01*
X78652734Y-79989432D01*
X78652732Y-79989431D01*
X78446497Y-79893261D01*
X78446488Y-79893258D01*
X78226697Y-79834366D01*
X78226693Y-79834365D01*
X78226692Y-79834365D01*
X78226691Y-79834364D01*
X78226686Y-79834364D01*
X78000002Y-79814532D01*
X77999998Y-79814532D01*
X77773313Y-79834364D01*
X77773302Y-79834366D01*
X77553511Y-79893258D01*
X77553502Y-79893261D01*
X77347267Y-79989431D01*
X77347265Y-79989432D01*
X77160858Y-80119954D01*
X76999954Y-80280858D01*
X76869432Y-80467265D01*
X76869431Y-80467267D01*
X76842382Y-80525275D01*
X76796209Y-80577714D01*
X76729016Y-80596866D01*
X76662135Y-80576650D01*
X76617618Y-80525275D01*
X76590568Y-80467266D01*
X76460047Y-80280861D01*
X76460045Y-80280858D01*
X76299141Y-80119954D01*
X76112734Y-79989432D01*
X76112732Y-79989431D01*
X75906497Y-79893261D01*
X75906488Y-79893258D01*
X75686697Y-79834366D01*
X75686693Y-79834365D01*
X75686692Y-79834365D01*
X75686691Y-79834364D01*
X75686686Y-79834364D01*
X75460002Y-79814532D01*
X75459998Y-79814532D01*
X75233313Y-79834364D01*
X75233302Y-79834366D01*
X75013511Y-79893258D01*
X75013502Y-79893261D01*
X74807267Y-79989431D01*
X74807265Y-79989432D01*
X74620858Y-80119954D01*
X74459954Y-80280858D01*
X74329432Y-80467265D01*
X74329431Y-80467267D01*
X74302382Y-80525275D01*
X74256209Y-80577714D01*
X74189016Y-80596866D01*
X74122135Y-80576650D01*
X74077618Y-80525275D01*
X74050568Y-80467266D01*
X73920047Y-80280861D01*
X73920045Y-80280858D01*
X73759141Y-80119954D01*
X73572734Y-79989432D01*
X73572732Y-79989431D01*
X73366497Y-79893261D01*
X73366488Y-79893258D01*
X73146697Y-79834366D01*
X73146693Y-79834365D01*
X73146692Y-79834365D01*
X73146691Y-79834364D01*
X73146686Y-79834364D01*
X72920002Y-79814532D01*
X72919998Y-79814532D01*
X72693313Y-79834364D01*
X72693302Y-79834366D01*
X72473511Y-79893258D01*
X72473502Y-79893261D01*
X72267267Y-79989431D01*
X72267265Y-79989432D01*
X72080858Y-80119954D01*
X71919954Y-80280858D01*
X71789432Y-80467265D01*
X71789431Y-80467267D01*
X71762382Y-80525275D01*
X71716209Y-80577714D01*
X71649016Y-80596866D01*
X71582135Y-80576650D01*
X71537618Y-80525275D01*
X71510568Y-80467266D01*
X71380047Y-80280861D01*
X71380045Y-80280858D01*
X71219141Y-80119954D01*
X71032734Y-79989432D01*
X71032732Y-79989431D01*
X70826497Y-79893261D01*
X70826488Y-79893258D01*
X70606697Y-79834366D01*
X70606693Y-79834365D01*
X70606692Y-79834365D01*
X70606691Y-79834364D01*
X70606686Y-79834364D01*
X70380002Y-79814532D01*
X70379996Y-79814532D01*
X70335894Y-79818390D01*
X70267394Y-79804623D01*
X70217212Y-79756007D01*
X70201279Y-79687978D01*
X70224655Y-79622135D01*
X70237399Y-79607189D01*
X71182771Y-78661819D01*
X71244094Y-78628334D01*
X71270452Y-78625500D01*
X87403277Y-78625500D01*
X87470316Y-78645185D01*
G37*
%TD.AperFunction*%
M02*
