%TF.GenerationSoftware,KiCad,Pcbnew,8.0.5*%
%TF.CreationDate,2024-10-02T14:31:40-03:00*%
%TF.ProjectId,modulo_sensor,6d6f6475-6c6f-45f7-9365-6e736f722e6b,rev?*%
%TF.SameCoordinates,Original*%
%TF.FileFunction,Copper,L2,Bot*%
%TF.FilePolarity,Positive*%
%FSLAX46Y46*%
G04 Gerber Fmt 4.6, Leading zero omitted, Abs format (unit mm)*
G04 Created by KiCad (PCBNEW 8.0.5) date 2024-10-02 14:31:40*
%MOMM*%
%LPD*%
G01*
G04 APERTURE LIST*
G04 Aperture macros list*
%AMRoundRect*
0 Rectangle with rounded corners*
0 $1 Rounding radius*
0 $2 $3 $4 $5 $6 $7 $8 $9 X,Y pos of 4 corners*
0 Add a 4 corners polygon primitive as box body*
4,1,4,$2,$3,$4,$5,$6,$7,$8,$9,$2,$3,0*
0 Add four circle primitives for the rounded corners*
1,1,$1+$1,$2,$3*
1,1,$1+$1,$4,$5*
1,1,$1+$1,$6,$7*
1,1,$1+$1,$8,$9*
0 Add four rect primitives between the rounded corners*
20,1,$1+$1,$2,$3,$4,$5,0*
20,1,$1+$1,$4,$5,$6,$7,0*
20,1,$1+$1,$6,$7,$8,$9,0*
20,1,$1+$1,$8,$9,$2,$3,0*%
G04 Aperture macros list end*
%TA.AperFunction,ComponentPad*%
%ADD10R,1.000000X1.000000*%
%TD*%
%TA.AperFunction,ComponentPad*%
%ADD11O,1.000000X1.000000*%
%TD*%
%TA.AperFunction,ComponentPad*%
%ADD12R,1.600000X1.600000*%
%TD*%
%TA.AperFunction,ComponentPad*%
%ADD13O,1.600000X1.600000*%
%TD*%
%TA.AperFunction,ComponentPad*%
%ADD14C,1.600000*%
%TD*%
%TA.AperFunction,SMDPad,CuDef*%
%ADD15RoundRect,0.250000X-0.350000X-0.450000X0.350000X-0.450000X0.350000X0.450000X-0.350000X0.450000X0*%
%TD*%
%TA.AperFunction,ComponentPad*%
%ADD16C,1.500000*%
%TD*%
%TA.AperFunction,SMDPad,CuDef*%
%ADD17RoundRect,0.250000X0.350000X0.450000X-0.350000X0.450000X-0.350000X-0.450000X0.350000X-0.450000X0*%
%TD*%
%TA.AperFunction,Conductor*%
%ADD18C,0.250000*%
%TD*%
G04 APERTURE END LIST*
D10*
%TO.P,J1,1,Pin_1*%
%TO.N,GND*%
X103059983Y-80000000D03*
D11*
%TO.P,J1,2,Pin_2*%
%TO.N,vcc*%
X101789983Y-80000000D03*
%TO.P,J1,3,Pin_3*%
%TO.N,/Led_Sensor6*%
X100519983Y-80000000D03*
%TO.P,J1,4,Pin_4*%
%TO.N,/Led_Sensor5*%
X99249983Y-80000000D03*
%TO.P,J1,5,Pin_5*%
%TO.N,/Led_Sensor4*%
X97979983Y-80000000D03*
%TO.P,J1,6,Pin_6*%
%TO.N,/Led_Sensor3*%
X96709983Y-80000000D03*
%TO.P,J1,7,Pin_7*%
%TO.N,/Led_Sensor2*%
X95439983Y-80000000D03*
%TO.P,J1,8,Pin_8*%
%TO.N,/Led_Sensor1*%
X94169983Y-80000000D03*
%TD*%
D12*
%TO.P,U1,1,1A*%
%TO.N,/Sensor4*%
X83080000Y-73500000D03*
D13*
%TO.P,U1,2,1Y*%
%TO.N,/Led_Sensor4*%
X80540000Y-73500000D03*
%TO.P,U1,3,2A*%
%TO.N,/Sensor3*%
X78000000Y-73500000D03*
%TO.P,U1,4,2Y*%
%TO.N,/Led_Sensor3*%
X75460000Y-73500000D03*
%TO.P,U1,5,3A*%
%TO.N,/Sensor2*%
X72920000Y-73500000D03*
%TO.P,U1,6,3Y*%
%TO.N,/Led_Sensor2*%
X70380000Y-73500000D03*
%TO.P,U1,7,GND*%
%TO.N,GND*%
X67840000Y-73500000D03*
%TO.P,U1,8,4Y*%
%TO.N,/Led_Sensor1*%
X67840000Y-81120000D03*
%TO.P,U1,9,4A*%
%TO.N,/Sensor1*%
X70380000Y-81120000D03*
%TO.P,U1,10,5Y*%
%TO.N,/Led_Sensor5*%
X72920000Y-81120000D03*
%TO.P,U1,11,5A*%
%TO.N,/Sensor5*%
X75460000Y-81120000D03*
%TO.P,U1,12,6Y*%
%TO.N,/Led_Sensor6*%
X78000000Y-81120000D03*
%TO.P,U1,13,6A*%
%TO.N,/Sensor6*%
X80540000Y-81120000D03*
%TO.P,U1,14,VCC*%
%TO.N,vcc*%
X83080000Y-81120000D03*
%TD*%
D14*
%TO.P,C1,1*%
%TO.N,vcc*%
X115750000Y-80000000D03*
%TO.P,C1,2*%
%TO.N,GND*%
X113250000Y-80000000D03*
%TD*%
D15*
%TO.P,R8,1*%
%TO.N,/Sensor4*%
X111609983Y-66000000D03*
%TO.P,R8,2*%
%TO.N,vcc*%
X113609983Y-66000000D03*
%TD*%
D16*
%TO.P,Sensor3,A*%
%TO.N,Net-(R5-Pad1)*%
X91879983Y-59990000D03*
%TO.P,Sensor3,CATH*%
%TO.N,GND*%
X89339983Y-59990000D03*
%TO.P,Sensor3,COLL*%
%TO.N,/Sensor3*%
X91879983Y-65490000D03*
%TO.P,Sensor3,E*%
%TO.N,GND*%
X89339983Y-65490000D03*
%TD*%
%TO.P,Sensor2,A*%
%TO.N,Net-(R3-Pad1)*%
X75879983Y-59990000D03*
%TO.P,Sensor2,CATH*%
%TO.N,GND*%
X73339983Y-59990000D03*
%TO.P,Sensor2,COLL*%
%TO.N,/Sensor2*%
X75879983Y-65490000D03*
%TO.P,Sensor2,E*%
%TO.N,GND*%
X73339983Y-65490000D03*
%TD*%
D15*
%TO.P,R7,1*%
%TO.N,Net-(R7-Pad1)*%
X111609983Y-60000000D03*
%TO.P,R7,2*%
%TO.N,vcc*%
X113609983Y-60000000D03*
%TD*%
D16*
%TO.P,Sensor6,A*%
%TO.N,Net-(R11-Pad1)*%
X139879983Y-59990000D03*
%TO.P,Sensor6,CATH*%
%TO.N,GND*%
X137339983Y-59990000D03*
%TO.P,Sensor6,COLL*%
%TO.N,/Sensor6*%
X139879983Y-65490000D03*
%TO.P,Sensor6,E*%
%TO.N,GND*%
X137339983Y-65490000D03*
%TD*%
D15*
%TO.P,R6,1*%
%TO.N,/Sensor3*%
X95609983Y-66000000D03*
%TO.P,R6,2*%
%TO.N,vcc*%
X97609983Y-66000000D03*
%TD*%
%TO.P,R3,1*%
%TO.N,Net-(R3-Pad1)*%
X79609983Y-60000000D03*
%TO.P,R3,2*%
%TO.N,vcc*%
X81609983Y-60000000D03*
%TD*%
%TO.P,R10,1*%
%TO.N,/Sensor5*%
X127609983Y-66000000D03*
%TO.P,R10,2*%
%TO.N,vcc*%
X129609983Y-66000000D03*
%TD*%
%TO.P,R2,1*%
%TO.N,/Sensor1*%
X63000000Y-66000000D03*
%TO.P,R2,2*%
%TO.N,vcc*%
X65000000Y-66000000D03*
%TD*%
%TO.P,R5,1*%
%TO.N,Net-(R5-Pad1)*%
X95609983Y-60000000D03*
%TO.P,R5,2*%
%TO.N,vcc*%
X97609983Y-60000000D03*
%TD*%
D16*
%TO.P,Sensor5,A*%
%TO.N,Net-(R9-Pad1)*%
X123879983Y-59990000D03*
%TO.P,Sensor5,CATH*%
%TO.N,GND*%
X121339983Y-59990000D03*
%TO.P,Sensor5,COLL*%
%TO.N,/Sensor5*%
X123879983Y-65490000D03*
%TO.P,Sensor5,E*%
%TO.N,GND*%
X121339983Y-65490000D03*
%TD*%
D15*
%TO.P,R4,1*%
%TO.N,/Sensor2*%
X79609983Y-66000000D03*
%TO.P,R4,2*%
%TO.N,vcc*%
X81609983Y-66000000D03*
%TD*%
%TO.P,R1,1*%
%TO.N,Net-(R1-Pad1)*%
X63000000Y-60000000D03*
%TO.P,R1,2*%
%TO.N,vcc*%
X65000000Y-60000000D03*
%TD*%
%TO.P,R9,1*%
%TO.N,Net-(R9-Pad1)*%
X127609983Y-60000000D03*
%TO.P,R9,2*%
%TO.N,vcc*%
X129609983Y-60000000D03*
%TD*%
D16*
%TO.P,Sensor1,A*%
%TO.N,Net-(R1-Pad1)*%
X59879983Y-59990000D03*
%TO.P,Sensor1,CATH*%
%TO.N,GND*%
X57339983Y-59990000D03*
%TO.P,Sensor1,COLL*%
%TO.N,/Sensor1*%
X59879983Y-65490000D03*
%TO.P,Sensor1,E*%
%TO.N,GND*%
X57339983Y-65490000D03*
%TD*%
D17*
%TO.P,R12,1*%
%TO.N,/Sensor6*%
X134000000Y-66000000D03*
%TO.P,R12,2*%
%TO.N,vcc*%
X132000000Y-66000000D03*
%TD*%
%TO.P,R11,1*%
%TO.N,Net-(R11-Pad1)*%
X134000000Y-60000000D03*
%TO.P,R11,2*%
%TO.N,vcc*%
X132000000Y-60000000D03*
%TD*%
D16*
%TO.P,Sensor4,A*%
%TO.N,Net-(R7-Pad1)*%
X107879983Y-59990000D03*
%TO.P,Sensor4,CATH*%
%TO.N,GND*%
X105339983Y-59990000D03*
%TO.P,Sensor4,COLL*%
%TO.N,/Sensor4*%
X107879983Y-65490000D03*
%TO.P,Sensor4,E*%
%TO.N,GND*%
X105339983Y-65490000D03*
%TD*%
D18*
%TO.N,vcc*%
X83609983Y-58000000D02*
X81609983Y-60000000D01*
X97609983Y-60000000D02*
X95609983Y-58000000D01*
X133500000Y-80000000D02*
X142134983Y-71365017D01*
X132000000Y-66000000D02*
X132000000Y-60000000D01*
X85834729Y-78365271D02*
X100155254Y-78365271D01*
X139500000Y-57000000D02*
X135000000Y-57000000D01*
X81609983Y-66000000D02*
X81609983Y-60000000D01*
X142134983Y-71365017D02*
X142134983Y-59634983D01*
X97609983Y-60000000D02*
X99609983Y-58000000D01*
X99609983Y-58000000D02*
X111609983Y-58000000D01*
X129609983Y-60000000D02*
X132000000Y-60000000D01*
X115750000Y-80000000D02*
X133500000Y-80000000D01*
X135000000Y-57000000D02*
X132000000Y-60000000D01*
X67000000Y-58000000D02*
X65000000Y-60000000D01*
X83080000Y-81120000D02*
X85834729Y-78365271D01*
X113609983Y-66000000D02*
X113609983Y-60000000D01*
X100155254Y-78365271D02*
X101789983Y-80000000D01*
X65000000Y-66000000D02*
X65000000Y-60000000D01*
X83609983Y-58000000D02*
X67000000Y-58000000D01*
X111609983Y-58000000D02*
X113609983Y-60000000D01*
X111609983Y-58000000D02*
X127609983Y-58000000D01*
X142134983Y-59634983D02*
X139500000Y-57000000D01*
X127609983Y-58000000D02*
X129609983Y-60000000D01*
X129609983Y-60000000D02*
X129609983Y-66000000D01*
X97609983Y-66000000D02*
X97609983Y-60000000D01*
X95609983Y-58000000D02*
X83609983Y-58000000D01*
%TO.N,/Led_Sensor1*%
X94027497Y-80142486D02*
X94169983Y-80000000D01*
%TO.N,/Led_Sensor6*%
X78000000Y-81120000D02*
X79514730Y-82634730D01*
X79514730Y-82634730D02*
X98365270Y-82634730D01*
X98365270Y-82634730D02*
X100519983Y-80480017D01*
X100519983Y-80480017D02*
X100519983Y-80000000D01*
%TO.N,Net-(R1-Pad1)*%
X63000000Y-60000000D02*
X59889983Y-60000000D01*
X59889983Y-60000000D02*
X59879983Y-59990000D01*
%TO.N,/Sensor1*%
X60389983Y-66000000D02*
X59879983Y-65490000D01*
X63000000Y-66000000D02*
X60389983Y-66000000D01*
X70380000Y-81120000D02*
X63000000Y-73740000D01*
X63000000Y-73740000D02*
X63000000Y-66000000D01*
%TO.N,Net-(R3-Pad1)*%
X75889983Y-60000000D02*
X75879983Y-59990000D01*
X79609983Y-60000000D02*
X75889983Y-60000000D01*
%TO.N,/Sensor2*%
X72920000Y-73500000D02*
X72920000Y-68449983D01*
X79609983Y-66000000D02*
X76389983Y-66000000D01*
X72920000Y-68449983D02*
X75879983Y-65490000D01*
X76389983Y-66000000D02*
X75879983Y-65490000D01*
%TO.N,Net-(R5-Pad1)*%
X95599983Y-59990000D02*
X95609983Y-60000000D01*
X91879983Y-59990000D02*
X95599983Y-59990000D01*
%TO.N,/Sensor3*%
X91879983Y-65620017D02*
X91879983Y-65490000D01*
X92500000Y-66000000D02*
X95609983Y-66000000D01*
X91990000Y-65490000D02*
X92500000Y-66000000D01*
X87000000Y-70500000D02*
X91879983Y-65620017D01*
X81000000Y-70500000D02*
X87000000Y-70500000D01*
X78000000Y-73500000D02*
X81000000Y-70500000D01*
X91879983Y-65490000D02*
X91990000Y-65490000D01*
%TO.N,Net-(R7-Pad1)*%
X111609983Y-60000000D02*
X107889983Y-60000000D01*
X107889983Y-60000000D02*
X107879983Y-59990000D01*
%TO.N,/Sensor4*%
X101369983Y-72000000D02*
X107879983Y-65490000D01*
X107879983Y-65490000D02*
X111099983Y-65490000D01*
X83080000Y-73500000D02*
X84580000Y-72000000D01*
X84580000Y-72000000D02*
X101369983Y-72000000D01*
X111099983Y-65490000D02*
X111609983Y-66000000D01*
%TO.N,Net-(R9-Pad1)*%
X127609983Y-60000000D02*
X123889983Y-60000000D01*
X123889983Y-60000000D02*
X123879983Y-59990000D01*
%TO.N,/Sensor5*%
X80990000Y-78500000D02*
X85990000Y-73500000D01*
X124389983Y-66000000D02*
X123879983Y-65490000D01*
X78080000Y-78500000D02*
X80990000Y-78500000D01*
X85990000Y-73500000D02*
X115869983Y-73500000D01*
X127609983Y-66000000D02*
X124389983Y-66000000D01*
X115869983Y-73500000D02*
X123879983Y-65490000D01*
X75460000Y-81120000D02*
X78080000Y-78500000D01*
%TO.N,Net-(R11-Pad1)*%
X134500000Y-60000000D02*
X135585000Y-58915000D01*
X135585000Y-58915000D02*
X138804983Y-58915000D01*
X138804983Y-58915000D02*
X139879983Y-59990000D01*
X134000000Y-60000000D02*
X134500000Y-60000000D01*
%TO.N,/Sensor6*%
X135585000Y-64415000D02*
X138804983Y-64415000D01*
X138804983Y-64415000D02*
X139879983Y-65490000D01*
X134000000Y-66000000D02*
X134000000Y-66500000D01*
X86160000Y-75500000D02*
X80540000Y-81120000D01*
X134000000Y-66000000D02*
X135585000Y-64415000D01*
X134000000Y-66500000D02*
X125000000Y-75500000D01*
X125000000Y-75500000D02*
X86160000Y-75500000D01*
%TD*%
%TA.AperFunction,Conductor*%
%TO.N,GND*%
G36*
X143052522Y-55800185D02*
G01*
X143098277Y-55852989D01*
X143109483Y-55904500D01*
X143109483Y-82715500D01*
X143089798Y-82782539D01*
X143036994Y-82828294D01*
X142985483Y-82839500D01*
X99344452Y-82839500D01*
X99277413Y-82819815D01*
X99231658Y-82767011D01*
X99221714Y-82697853D01*
X99250739Y-82634297D01*
X99256771Y-82627819D01*
X100017007Y-81867583D01*
X101001413Y-80883177D01*
X101030640Y-80861502D01*
X101078521Y-80835910D01*
X101078529Y-80835902D01*
X101083589Y-80832524D01*
X101084686Y-80834166D01*
X101140617Y-80810406D01*
X101209486Y-80822191D01*
X101226131Y-80832888D01*
X101226376Y-80832523D01*
X101231441Y-80835907D01*
X101231445Y-80835910D01*
X101375996Y-80913174D01*
X101401422Y-80926765D01*
X101405256Y-80928814D01*
X101593851Y-80986024D01*
X101789983Y-81005341D01*
X101986115Y-80986024D01*
X102174710Y-80928814D01*
X102177321Y-80927418D01*
X102178847Y-80927100D01*
X102180338Y-80926483D01*
X102180455Y-80926765D01*
X102245720Y-80913174D01*
X102310089Y-80937510D01*
X102317891Y-80943351D01*
X102452606Y-80993597D01*
X102452610Y-80993598D01*
X102512138Y-80999999D01*
X102512155Y-81000000D01*
X102809983Y-81000000D01*
X103309983Y-81000000D01*
X103607811Y-81000000D01*
X103607827Y-80999999D01*
X103667355Y-80993598D01*
X103667362Y-80993596D01*
X103802069Y-80943354D01*
X103802076Y-80943350D01*
X103917170Y-80857190D01*
X103917173Y-80857187D01*
X104003333Y-80742093D01*
X104003337Y-80742086D01*
X104053579Y-80607379D01*
X104053581Y-80607372D01*
X104059982Y-80547844D01*
X104059983Y-80547827D01*
X104059983Y-80499998D01*
X106604373Y-80499998D01*
X106604373Y-80500001D01*
X106624787Y-80785433D01*
X106685611Y-81065037D01*
X106685613Y-81065043D01*
X106685614Y-81065046D01*
X106767889Y-81285633D01*
X106785618Y-81333166D01*
X106922753Y-81584309D01*
X106922758Y-81584317D01*
X107094237Y-81813387D01*
X107094253Y-81813405D01*
X107296577Y-82015729D01*
X107296595Y-82015745D01*
X107525665Y-82187224D01*
X107525673Y-82187229D01*
X107776816Y-82324364D01*
X107776815Y-82324364D01*
X107776819Y-82324365D01*
X107776822Y-82324367D01*
X108044937Y-82424369D01*
X108044943Y-82424370D01*
X108044945Y-82424371D01*
X108324549Y-82485195D01*
X108324551Y-82485195D01*
X108324555Y-82485196D01*
X108578203Y-82503337D01*
X108609982Y-82505610D01*
X108609983Y-82505610D01*
X108609984Y-82505610D01*
X108638578Y-82503564D01*
X108895411Y-82485196D01*
X109175029Y-82424369D01*
X109443144Y-82324367D01*
X109694298Y-82187226D01*
X109923378Y-82015739D01*
X110125722Y-81813395D01*
X110297209Y-81584315D01*
X110434350Y-81333161D01*
X110534352Y-81065046D01*
X110564433Y-80926765D01*
X110595178Y-80785433D01*
X110595178Y-80785432D01*
X110595179Y-80785428D01*
X110615593Y-80500000D01*
X110595179Y-80214572D01*
X110548502Y-80000002D01*
X110534354Y-79934962D01*
X110534353Y-79934960D01*
X110534352Y-79934954D01*
X110434350Y-79666839D01*
X110372561Y-79553682D01*
X110297212Y-79415690D01*
X110297207Y-79415682D01*
X110125728Y-79186612D01*
X110125712Y-79186594D01*
X109923388Y-78984270D01*
X109923370Y-78984254D01*
X109694300Y-78812775D01*
X109694292Y-78812770D01*
X109443149Y-78675635D01*
X109443150Y-78675635D01*
X109335898Y-78635632D01*
X109175029Y-78575631D01*
X109175026Y-78575630D01*
X109175020Y-78575628D01*
X108895416Y-78514804D01*
X108609984Y-78494390D01*
X108609982Y-78494390D01*
X108324549Y-78514804D01*
X108044945Y-78575628D01*
X107776816Y-78675635D01*
X107525673Y-78812770D01*
X107525665Y-78812775D01*
X107296595Y-78984254D01*
X107296577Y-78984270D01*
X107094253Y-79186594D01*
X107094237Y-79186612D01*
X106922758Y-79415682D01*
X106922753Y-79415690D01*
X106785618Y-79666833D01*
X106685611Y-79934962D01*
X106624787Y-80214566D01*
X106604373Y-80499998D01*
X104059983Y-80499998D01*
X104059983Y-80250000D01*
X103309983Y-80250000D01*
X103309983Y-81000000D01*
X102809983Y-81000000D01*
X102809983Y-80209618D01*
X102860429Y-80260064D01*
X102934538Y-80302851D01*
X103017196Y-80325000D01*
X103102770Y-80325000D01*
X103185428Y-80302851D01*
X103259537Y-80260064D01*
X103320047Y-80199554D01*
X103362834Y-80125445D01*
X103384983Y-80042787D01*
X103384983Y-79957213D01*
X103362834Y-79874555D01*
X103320047Y-79800446D01*
X103269601Y-79750000D01*
X103309983Y-79750000D01*
X104059983Y-79750000D01*
X104059983Y-79452172D01*
X104059982Y-79452155D01*
X104053581Y-79392627D01*
X104053579Y-79392620D01*
X104003337Y-79257913D01*
X104003333Y-79257906D01*
X103917173Y-79142812D01*
X103917170Y-79142809D01*
X103802076Y-79056649D01*
X103802069Y-79056645D01*
X103667362Y-79006403D01*
X103667355Y-79006401D01*
X103607827Y-79000000D01*
X103309983Y-79000000D01*
X103309983Y-79750000D01*
X103269601Y-79750000D01*
X103259537Y-79739936D01*
X103185428Y-79697149D01*
X103102770Y-79675000D01*
X103017196Y-79675000D01*
X102934538Y-79697149D01*
X102860429Y-79739936D01*
X102809983Y-79790382D01*
X102809983Y-79000000D01*
X102512138Y-79000000D01*
X102452610Y-79006401D01*
X102452603Y-79006403D01*
X102317896Y-79056645D01*
X102317890Y-79056648D01*
X102310085Y-79062492D01*
X102244621Y-79086908D01*
X102180453Y-79073249D01*
X102180342Y-79073518D01*
X102178888Y-79072916D01*
X102177324Y-79072583D01*
X102174714Y-79071188D01*
X102174713Y-79071187D01*
X102174710Y-79071186D01*
X101986115Y-79013976D01*
X101986112Y-79013975D01*
X101789983Y-78994659D01*
X101738422Y-78999737D01*
X101669776Y-78986718D01*
X101638588Y-78964015D01*
X100645452Y-77970879D01*
X100645432Y-77970857D01*
X100553987Y-77879412D01*
X100502763Y-77845186D01*
X100451540Y-77810959D01*
X100451537Y-77810957D01*
X100451534Y-77810956D01*
X100371046Y-77777618D01*
X100337707Y-77763808D01*
X100327681Y-77761814D01*
X100277283Y-77751789D01*
X100216864Y-77739771D01*
X100216861Y-77739771D01*
X100216860Y-77739771D01*
X85896336Y-77739771D01*
X85773122Y-77739771D01*
X85773118Y-77739771D01*
X85712700Y-77751789D01*
X85674988Y-77759290D01*
X85652279Y-77763807D01*
X85652277Y-77763808D01*
X85618936Y-77777618D01*
X85538448Y-77810955D01*
X85538434Y-77810963D01*
X85436001Y-77879409D01*
X85435993Y-77879415D01*
X85348868Y-77966541D01*
X83494822Y-79820586D01*
X83433499Y-79854071D01*
X83375049Y-79852680D01*
X83306699Y-79834367D01*
X83306702Y-79834367D01*
X83306692Y-79834365D01*
X83306689Y-79834364D01*
X83306686Y-79834364D01*
X83080001Y-79814532D01*
X83079996Y-79814532D01*
X83035894Y-79818390D01*
X82967394Y-79804623D01*
X82917212Y-79756007D01*
X82901279Y-79687978D01*
X82924655Y-79622135D01*
X82937400Y-79607188D01*
X86382771Y-76161819D01*
X86444094Y-76128334D01*
X86470452Y-76125500D01*
X125061607Y-76125500D01*
X125122029Y-76113481D01*
X125182452Y-76101463D01*
X125182455Y-76101461D01*
X125182458Y-76101461D01*
X125215787Y-76087654D01*
X125215786Y-76087654D01*
X125215792Y-76087652D01*
X125296286Y-76054312D01*
X125347509Y-76020084D01*
X125398733Y-75985858D01*
X125485858Y-75898733D01*
X125485859Y-75898731D01*
X125492925Y-75891665D01*
X125492928Y-75891661D01*
X133920669Y-67463920D01*
X135409482Y-67463920D01*
X135438323Y-67608907D01*
X135438326Y-67608917D01*
X135494895Y-67745488D01*
X135494902Y-67745501D01*
X135577031Y-67868415D01*
X135577034Y-67868419D01*
X135681563Y-67972948D01*
X135681567Y-67972951D01*
X135804481Y-68055080D01*
X135804494Y-68055087D01*
X135920491Y-68103134D01*
X135941070Y-68111658D01*
X135941074Y-68111658D01*
X135941075Y-68111659D01*
X136086062Y-68140500D01*
X136086065Y-68140500D01*
X136233903Y-68140500D01*
X136331445Y-68121096D01*
X136378896Y-68111658D01*
X136515478Y-68055084D01*
X136638399Y-67972951D01*
X136742934Y-67868416D01*
X136825067Y-67745495D01*
X136881641Y-67608913D01*
X136898980Y-67521746D01*
X136910483Y-67463920D01*
X136910483Y-67316079D01*
X136881642Y-67171092D01*
X136881641Y-67171091D01*
X136881641Y-67171087D01*
X136866616Y-67134814D01*
X136825070Y-67034511D01*
X136825063Y-67034498D01*
X136742934Y-66911584D01*
X136742931Y-66911580D01*
X136639161Y-66807810D01*
X136605676Y-66746487D01*
X136609895Y-66687486D01*
X136592701Y-66705235D01*
X136524673Y-66721168D01*
X136484104Y-66711920D01*
X136378900Y-66668343D01*
X136378890Y-66668340D01*
X136233903Y-66639500D01*
X136233901Y-66639500D01*
X136086065Y-66639500D01*
X136086063Y-66639500D01*
X135941075Y-66668340D01*
X135941065Y-66668343D01*
X135804494Y-66724912D01*
X135804481Y-66724919D01*
X135681567Y-66807048D01*
X135681563Y-66807051D01*
X135577034Y-66911580D01*
X135577031Y-66911584D01*
X135494902Y-67034498D01*
X135494895Y-67034511D01*
X135438326Y-67171082D01*
X135438323Y-67171092D01*
X135409483Y-67316079D01*
X135409483Y-67316082D01*
X135409483Y-67463918D01*
X135409483Y-67463920D01*
X135409482Y-67463920D01*
X133920669Y-67463920D01*
X134147771Y-67236818D01*
X134209094Y-67203333D01*
X134235452Y-67200499D01*
X134400002Y-67200499D01*
X134400008Y-67200499D01*
X134502797Y-67189999D01*
X134669334Y-67134814D01*
X134818656Y-67042712D01*
X134942712Y-66918656D01*
X135034814Y-66769334D01*
X135089999Y-66602797D01*
X135100500Y-66500009D01*
X135100499Y-65835451D01*
X135120183Y-65768413D01*
X135136813Y-65747776D01*
X135807772Y-65076819D01*
X135869095Y-65043334D01*
X135895453Y-65040500D01*
X136004731Y-65040500D01*
X136071770Y-65060185D01*
X136117525Y-65112989D01*
X136127469Y-65182147D01*
X136124506Y-65196593D01*
X136104272Y-65272105D01*
X136104270Y-65272115D01*
X136085208Y-65489999D01*
X136085208Y-65490000D01*
X136104270Y-65707884D01*
X136104272Y-65707894D01*
X136160877Y-65919150D01*
X136160881Y-65919159D01*
X136253316Y-66117387D01*
X136296857Y-66179571D01*
X136857020Y-65619408D01*
X136874058Y-65682993D01*
X136939884Y-65797007D01*
X137032976Y-65890099D01*
X137146990Y-65955925D01*
X137210573Y-65972962D01*
X136650410Y-66533125D01*
X136655084Y-66586553D01*
X136646594Y-66628793D01*
X136652532Y-66620862D01*
X136717996Y-66596445D01*
X136779247Y-66607747D01*
X136910823Y-66669101D01*
X136910832Y-66669105D01*
X137122088Y-66725710D01*
X137122098Y-66725712D01*
X137339982Y-66744775D01*
X137339984Y-66744775D01*
X137557867Y-66725712D01*
X137557877Y-66725710D01*
X137769133Y-66669105D01*
X137769147Y-66669100D01*
X137967366Y-66576669D01*
X137967368Y-66576668D01*
X138029554Y-66533124D01*
X137469393Y-65972962D01*
X137532976Y-65955925D01*
X137646990Y-65890099D01*
X137740082Y-65797007D01*
X137805908Y-65682993D01*
X137822945Y-65619408D01*
X138383107Y-66179570D01*
X138426649Y-66117388D01*
X138497323Y-65965825D01*
X138543495Y-65913386D01*
X138610689Y-65894233D01*
X138677570Y-65914448D01*
X138722088Y-65965824D01*
X138792880Y-66117638D01*
X138805167Y-66135185D01*
X138918385Y-66296877D01*
X139073106Y-66451598D01*
X139252344Y-66577102D01*
X139450653Y-66669575D01*
X139662006Y-66726207D01*
X139844909Y-66742208D01*
X139879981Y-66745277D01*
X139879983Y-66745277D01*
X139879985Y-66745277D01*
X139908237Y-66742805D01*
X140097960Y-66726207D01*
X140309313Y-66669575D01*
X140507622Y-66577102D01*
X140686860Y-66451598D01*
X140841581Y-66296877D01*
X140967085Y-66117639D01*
X141059558Y-65919330D01*
X141116190Y-65707977D01*
X141135260Y-65490000D01*
X141116190Y-65272023D01*
X141073577Y-65112989D01*
X141059560Y-65060677D01*
X141059559Y-65060676D01*
X141059558Y-65060670D01*
X140967085Y-64862362D01*
X140967082Y-64862358D01*
X140967082Y-64862357D01*
X140841582Y-64683124D01*
X140841579Y-64683121D01*
X140686860Y-64528402D01*
X140592101Y-64462051D01*
X140548478Y-64407475D01*
X140541286Y-64337977D01*
X140572808Y-64275622D01*
X140633038Y-64240209D01*
X140643829Y-64238005D01*
X140685461Y-64231411D01*
X140861351Y-64203553D01*
X141085975Y-64130568D01*
X141296416Y-64023343D01*
X141312595Y-64011587D01*
X141378401Y-63988106D01*
X141446455Y-64003930D01*
X141495151Y-64054034D01*
X141509483Y-64111904D01*
X141509483Y-71054565D01*
X141489798Y-71121604D01*
X141473164Y-71142246D01*
X133277229Y-79338181D01*
X133215906Y-79371666D01*
X133189548Y-79374500D01*
X116964188Y-79374500D01*
X116897149Y-79354815D01*
X116862613Y-79321623D01*
X116750045Y-79160858D01*
X116589141Y-78999954D01*
X116402734Y-78869432D01*
X116402732Y-78869431D01*
X116196497Y-78773261D01*
X116196488Y-78773258D01*
X115976697Y-78714366D01*
X115976693Y-78714365D01*
X115976692Y-78714365D01*
X115976691Y-78714364D01*
X115976686Y-78714364D01*
X115750002Y-78694532D01*
X115749998Y-78694532D01*
X115523313Y-78714364D01*
X115523302Y-78714366D01*
X115303511Y-78773258D01*
X115303502Y-78773261D01*
X115097267Y-78869431D01*
X115097265Y-78869432D01*
X114910858Y-78999954D01*
X114749954Y-79160858D01*
X114619432Y-79347265D01*
X114619429Y-79347270D01*
X114612104Y-79362979D01*
X114565929Y-79415417D01*
X114498735Y-79434566D01*
X114431855Y-79414347D01*
X114387341Y-79362973D01*
X114380133Y-79347515D01*
X114380132Y-79347513D01*
X114329025Y-79274526D01*
X113650000Y-79953551D01*
X113650000Y-79947339D01*
X113622741Y-79845606D01*
X113570080Y-79754394D01*
X113495606Y-79679920D01*
X113404394Y-79627259D01*
X113302661Y-79600000D01*
X113296448Y-79600000D01*
X113975472Y-78920974D01*
X113902478Y-78869863D01*
X113696331Y-78773735D01*
X113696317Y-78773730D01*
X113476610Y-78714860D01*
X113476599Y-78714858D01*
X113250002Y-78695034D01*
X113249998Y-78695034D01*
X113023400Y-78714858D01*
X113023389Y-78714860D01*
X112803682Y-78773730D01*
X112803673Y-78773734D01*
X112597516Y-78869866D01*
X112597512Y-78869868D01*
X112524526Y-78920973D01*
X112524526Y-78920974D01*
X113203553Y-79600000D01*
X113197339Y-79600000D01*
X113095606Y-79627259D01*
X113004394Y-79679920D01*
X112929920Y-79754394D01*
X112877259Y-79845606D01*
X112850000Y-79947339D01*
X112850000Y-79953552D01*
X112170974Y-79274526D01*
X112170973Y-79274526D01*
X112119868Y-79347512D01*
X112119866Y-79347516D01*
X112023734Y-79553673D01*
X112023730Y-79553682D01*
X111964860Y-79773389D01*
X111964858Y-79773400D01*
X111945034Y-79999997D01*
X111945034Y-80000002D01*
X111964858Y-80226599D01*
X111964860Y-80226610D01*
X112023730Y-80446317D01*
X112023735Y-80446331D01*
X112119863Y-80652478D01*
X112170974Y-80725472D01*
X112850000Y-80046446D01*
X112850000Y-80052661D01*
X112877259Y-80154394D01*
X112929920Y-80245606D01*
X113004394Y-80320080D01*
X113095606Y-80372741D01*
X113197339Y-80400000D01*
X113203553Y-80400000D01*
X112524526Y-81079025D01*
X112597513Y-81130132D01*
X112597521Y-81130136D01*
X112803668Y-81226264D01*
X112803682Y-81226269D01*
X113023389Y-81285139D01*
X113023400Y-81285141D01*
X113249998Y-81304966D01*
X113250002Y-81304966D01*
X113476599Y-81285141D01*
X113476610Y-81285139D01*
X113696317Y-81226269D01*
X113696331Y-81226264D01*
X113902478Y-81130136D01*
X113975471Y-81079024D01*
X113296447Y-80400000D01*
X113302661Y-80400000D01*
X113404394Y-80372741D01*
X113495606Y-80320080D01*
X113570080Y-80245606D01*
X113622741Y-80154394D01*
X113650000Y-80052661D01*
X113650000Y-80046447D01*
X114329024Y-80725471D01*
X114380134Y-80652481D01*
X114387340Y-80637028D01*
X114433511Y-80584587D01*
X114500704Y-80565433D01*
X114567585Y-80585646D01*
X114612105Y-80637022D01*
X114619430Y-80652730D01*
X114619432Y-80652734D01*
X114749954Y-80839141D01*
X114910858Y-81000045D01*
X114910861Y-81000047D01*
X115097266Y-81130568D01*
X115303504Y-81226739D01*
X115523308Y-81285635D01*
X115685230Y-81299801D01*
X115749998Y-81305468D01*
X115750000Y-81305468D01*
X115750002Y-81305468D01*
X115806673Y-81300509D01*
X115976692Y-81285635D01*
X116196496Y-81226739D01*
X116402734Y-81130568D01*
X116589139Y-81000047D01*
X116750047Y-80839139D01*
X116862613Y-80678377D01*
X116917189Y-80634752D01*
X116964188Y-80625500D01*
X133561607Y-80625500D01*
X133622029Y-80613481D01*
X133682452Y-80601463D01*
X133682455Y-80601461D01*
X133682458Y-80601461D01*
X133715787Y-80587654D01*
X133715786Y-80587654D01*
X133715792Y-80587652D01*
X133796286Y-80554312D01*
X133796289Y-80554309D01*
X133796291Y-80554309D01*
X133839741Y-80525275D01*
X133849825Y-80518537D01*
X133898733Y-80485858D01*
X133985858Y-80398733D01*
X133985859Y-80398731D01*
X133992925Y-80391665D01*
X133992928Y-80391661D01*
X142533712Y-71850877D01*
X142533716Y-71850875D01*
X142620841Y-71763750D01*
X142660956Y-71703714D01*
X142689295Y-71661303D01*
X142736446Y-71547468D01*
X142760483Y-71426624D01*
X142760483Y-71303410D01*
X142760483Y-59702724D01*
X142760484Y-59702703D01*
X142760484Y-59573374D01*
X142736447Y-59452535D01*
X142736445Y-59452530D01*
X142729470Y-59435692D01*
X142729468Y-59435687D01*
X142699982Y-59364500D01*
X142699680Y-59363772D01*
X142689297Y-59338702D01*
X142689294Y-59338697D01*
X142663723Y-59300428D01*
X142620841Y-59236250D01*
X142620838Y-59236246D01*
X139992928Y-56608338D01*
X139992925Y-56608334D01*
X139992925Y-56608335D01*
X139985858Y-56601268D01*
X139985858Y-56601267D01*
X139898733Y-56514142D01*
X139898732Y-56514141D01*
X139898731Y-56514140D01*
X139847509Y-56479915D01*
X139796287Y-56445689D01*
X139796286Y-56445688D01*
X139796283Y-56445686D01*
X139796280Y-56445685D01*
X139715792Y-56412347D01*
X139682453Y-56398537D01*
X139672427Y-56396543D01*
X139622029Y-56386518D01*
X139561610Y-56374500D01*
X139561607Y-56374500D01*
X139561606Y-56374500D01*
X135067741Y-56374500D01*
X135067721Y-56374499D01*
X135061607Y-56374499D01*
X134938394Y-56374499D01*
X134837597Y-56394548D01*
X134837592Y-56394548D01*
X134817549Y-56398536D01*
X134817547Y-56398536D01*
X134770397Y-56418067D01*
X134703719Y-56445685D01*
X134703717Y-56445686D01*
X134601266Y-56514141D01*
X134601263Y-56514144D01*
X132352227Y-58763181D01*
X132290904Y-58796666D01*
X132264546Y-58799500D01*
X131599998Y-58799500D01*
X131599980Y-58799501D01*
X131497203Y-58810000D01*
X131497200Y-58810001D01*
X131330668Y-58865185D01*
X131330663Y-58865187D01*
X131181342Y-58957289D01*
X131057289Y-59081342D01*
X130965187Y-59230663D01*
X130965186Y-59230666D01*
X130945689Y-59289505D01*
X130905916Y-59346949D01*
X130841400Y-59373772D01*
X130827983Y-59374500D01*
X130782000Y-59374500D01*
X130714961Y-59354815D01*
X130669206Y-59302011D01*
X130664294Y-59289505D01*
X130660980Y-59279504D01*
X130644797Y-59230666D01*
X130552695Y-59081344D01*
X130428639Y-58957288D01*
X130279317Y-58865186D01*
X130112780Y-58810001D01*
X130112778Y-58810000D01*
X130009999Y-58799500D01*
X130009992Y-58799500D01*
X129345435Y-58799500D01*
X129278396Y-58779815D01*
X129257754Y-58763181D01*
X128100181Y-57605608D01*
X128100161Y-57605586D01*
X128008716Y-57514141D01*
X127957492Y-57479915D01*
X127906269Y-57445688D01*
X127906266Y-57445686D01*
X127906263Y-57445685D01*
X127825775Y-57412347D01*
X127792436Y-57398537D01*
X127782410Y-57396543D01*
X127732012Y-57386518D01*
X127671593Y-57374500D01*
X127671590Y-57374500D01*
X127671589Y-57374500D01*
X111671590Y-57374500D01*
X111671589Y-57374500D01*
X99671590Y-57374500D01*
X99548376Y-57374500D01*
X99548372Y-57374500D01*
X99487954Y-57386518D01*
X99450242Y-57394019D01*
X99427533Y-57398536D01*
X99427531Y-57398537D01*
X99394190Y-57412347D01*
X99313702Y-57445684D01*
X99313688Y-57445692D01*
X99211255Y-57514138D01*
X99211247Y-57514144D01*
X97962211Y-58763181D01*
X97900888Y-58796666D01*
X97874530Y-58799500D01*
X97345435Y-58799500D01*
X97278396Y-58779815D01*
X97257754Y-58763181D01*
X96100181Y-57605608D01*
X96100161Y-57605586D01*
X96008716Y-57514141D01*
X95957492Y-57479915D01*
X95906269Y-57445688D01*
X95906266Y-57445686D01*
X95906263Y-57445685D01*
X95825775Y-57412347D01*
X95792436Y-57398537D01*
X95782410Y-57396543D01*
X95732012Y-57386518D01*
X95671593Y-57374500D01*
X95671590Y-57374500D01*
X95671589Y-57374500D01*
X83671590Y-57374500D01*
X83671589Y-57374500D01*
X67061607Y-57374500D01*
X66938393Y-57374500D01*
X66938389Y-57374500D01*
X66877971Y-57386518D01*
X66840259Y-57394019D01*
X66817550Y-57398536D01*
X66817548Y-57398537D01*
X66784207Y-57412347D01*
X66703719Y-57445684D01*
X66703705Y-57445692D01*
X66601272Y-57514138D01*
X66601264Y-57514144D01*
X66514139Y-57601270D01*
X65352227Y-58763181D01*
X65290904Y-58796666D01*
X65264546Y-58799500D01*
X64599998Y-58799500D01*
X64599980Y-58799501D01*
X64497203Y-58810000D01*
X64497200Y-58810001D01*
X64330668Y-58865185D01*
X64330663Y-58865187D01*
X64181342Y-58957289D01*
X64087681Y-59050951D01*
X64026358Y-59084436D01*
X63956666Y-59079452D01*
X63912319Y-59050951D01*
X63818657Y-58957289D01*
X63818656Y-58957288D01*
X63669334Y-58865186D01*
X63502797Y-58810001D01*
X63502795Y-58810000D01*
X63400010Y-58799500D01*
X62599998Y-58799500D01*
X62599980Y-58799501D01*
X62497203Y-58810000D01*
X62497200Y-58810001D01*
X62330668Y-58865185D01*
X62330663Y-58865187D01*
X62181342Y-58957289D01*
X62057289Y-59081342D01*
X61965187Y-59230663D01*
X61965186Y-59230666D01*
X61945689Y-59289505D01*
X61905916Y-59346949D01*
X61841400Y-59373772D01*
X61827983Y-59374500D01*
X61040134Y-59374500D01*
X60973095Y-59354815D01*
X60938559Y-59321623D01*
X60923718Y-59300428D01*
X60841581Y-59183123D01*
X60686860Y-59028402D01*
X60543264Y-58927855D01*
X60507621Y-58902897D01*
X60352799Y-58830703D01*
X60309313Y-58810425D01*
X60309309Y-58810424D01*
X60309305Y-58810422D01*
X60097960Y-58753793D01*
X59879985Y-58734723D01*
X59879981Y-58734723D01*
X59734665Y-58747436D01*
X59662006Y-58753793D01*
X59662003Y-58753793D01*
X59450660Y-58810422D01*
X59450651Y-58810426D01*
X59252344Y-58902898D01*
X59252340Y-58902900D01*
X59073104Y-59028402D01*
X58918385Y-59183121D01*
X58792883Y-59362357D01*
X58792883Y-59362358D01*
X58792881Y-59362361D01*
X58792881Y-59362362D01*
X58791884Y-59364500D01*
X58722088Y-59514176D01*
X58675915Y-59566615D01*
X58608721Y-59585766D01*
X58541840Y-59565550D01*
X58497324Y-59514175D01*
X58426650Y-59362614D01*
X58426649Y-59362612D01*
X58383107Y-59300428D01*
X58383107Y-59300427D01*
X57822945Y-59860589D01*
X57805908Y-59797007D01*
X57740082Y-59682993D01*
X57646990Y-59589901D01*
X57532976Y-59524075D01*
X57469392Y-59507037D01*
X58029554Y-58946874D01*
X57967370Y-58903333D01*
X57769142Y-58810898D01*
X57769133Y-58810894D01*
X57557877Y-58754289D01*
X57557867Y-58754287D01*
X57339984Y-58735225D01*
X57339982Y-58735225D01*
X57122098Y-58754287D01*
X57122088Y-58754289D01*
X56910832Y-58810894D01*
X56910823Y-58810898D01*
X56712596Y-58903333D01*
X56650411Y-58946874D01*
X57210574Y-59507037D01*
X57146990Y-59524075D01*
X57032976Y-59589901D01*
X56939884Y-59682993D01*
X56874058Y-59797007D01*
X56857020Y-59860591D01*
X56296857Y-59300428D01*
X56253316Y-59362613D01*
X56160881Y-59560840D01*
X56160877Y-59560849D01*
X56104272Y-59772105D01*
X56104270Y-59772115D01*
X56085208Y-59989999D01*
X56085208Y-59990000D01*
X56104270Y-60207884D01*
X56104272Y-60207894D01*
X56160877Y-60419150D01*
X56160881Y-60419159D01*
X56253316Y-60617387D01*
X56296857Y-60679571D01*
X56857020Y-60119408D01*
X56874058Y-60182993D01*
X56939884Y-60297007D01*
X57032976Y-60390099D01*
X57146990Y-60455925D01*
X57210573Y-60472962D01*
X56650410Y-61033124D01*
X56651592Y-61046631D01*
X56672197Y-61072409D01*
X56679391Y-61141908D01*
X56647868Y-61204263D01*
X56587639Y-61239677D01*
X56576848Y-61241881D01*
X56358613Y-61276447D01*
X56133986Y-61349433D01*
X55923549Y-61456657D01*
X55814533Y-61535862D01*
X55732473Y-61595483D01*
X55732471Y-61595485D01*
X55732470Y-61595485D01*
X55565468Y-61762487D01*
X55565468Y-61762488D01*
X55565466Y-61762490D01*
X55505845Y-61844550D01*
X55426640Y-61953566D01*
X55319416Y-62164003D01*
X55246429Y-62388631D01*
X55209483Y-62621902D01*
X55209483Y-62858097D01*
X55246429Y-63091368D01*
X55319416Y-63315996D01*
X55426640Y-63526433D01*
X55565466Y-63717510D01*
X55732473Y-63884517D01*
X55923550Y-64023343D01*
X55983785Y-64054034D01*
X56133986Y-64130566D01*
X56133988Y-64130566D01*
X56133991Y-64130568D01*
X56358615Y-64203553D01*
X56568450Y-64236787D01*
X56576845Y-64238117D01*
X56639979Y-64268046D01*
X56676911Y-64327357D01*
X56675913Y-64397220D01*
X56651538Y-64433981D01*
X56650410Y-64446873D01*
X57210574Y-65007037D01*
X57146990Y-65024075D01*
X57032976Y-65089901D01*
X56939884Y-65182993D01*
X56874058Y-65297007D01*
X56857020Y-65360591D01*
X56296857Y-64800428D01*
X56253316Y-64862613D01*
X56160881Y-65060840D01*
X56160877Y-65060849D01*
X56104272Y-65272105D01*
X56104270Y-65272115D01*
X56085208Y-65489999D01*
X56085208Y-65490000D01*
X56104270Y-65707884D01*
X56104272Y-65707894D01*
X56160877Y-65919150D01*
X56160881Y-65919159D01*
X56253316Y-66117387D01*
X56296857Y-66179571D01*
X56857020Y-65619408D01*
X56874058Y-65682993D01*
X56939884Y-65797007D01*
X57032976Y-65890099D01*
X57146990Y-65955925D01*
X57210573Y-65972962D01*
X56650410Y-66533125D01*
X56655084Y-66586553D01*
X56646594Y-66628793D01*
X56652532Y-66620862D01*
X56717996Y-66596445D01*
X56779247Y-66607747D01*
X56910823Y-66669101D01*
X56910832Y-66669105D01*
X57122088Y-66725710D01*
X57122098Y-66725712D01*
X57339982Y-66744775D01*
X57339984Y-66744775D01*
X57557867Y-66725712D01*
X57557877Y-66725710D01*
X57769133Y-66669105D01*
X57769147Y-66669100D01*
X57967366Y-66576669D01*
X57967368Y-66576668D01*
X58029554Y-66533124D01*
X57469393Y-65972962D01*
X57532976Y-65955925D01*
X57646990Y-65890099D01*
X57740082Y-65797007D01*
X57805908Y-65682993D01*
X57822945Y-65619409D01*
X58383107Y-66179570D01*
X58426649Y-66117388D01*
X58497323Y-65965825D01*
X58543495Y-65913386D01*
X58610689Y-65894233D01*
X58677570Y-65914448D01*
X58722088Y-65965824D01*
X58792880Y-66117638D01*
X58805167Y-66135185D01*
X58918385Y-66296877D01*
X59073106Y-66451598D01*
X59252344Y-66577102D01*
X59450653Y-66669575D01*
X59662006Y-66726207D01*
X59844909Y-66742208D01*
X59879981Y-66745277D01*
X59879983Y-66745277D01*
X59879985Y-66745277D01*
X59908237Y-66742805D01*
X60097960Y-66726207D01*
X60309313Y-66669575D01*
X60378917Y-66637117D01*
X60431322Y-66625500D01*
X61827983Y-66625500D01*
X61895022Y-66645185D01*
X61940777Y-66697989D01*
X61945686Y-66710489D01*
X61965186Y-66769334D01*
X62057288Y-66918656D01*
X62181344Y-67042712D01*
X62315597Y-67125519D01*
X62362321Y-67177465D01*
X62374500Y-67231057D01*
X62374500Y-73801610D01*
X62393819Y-73898733D01*
X62398537Y-73922452D01*
X62403484Y-73934394D01*
X62412347Y-73955792D01*
X62412347Y-73955793D01*
X62445685Y-74036281D01*
X62445688Y-74036286D01*
X62470910Y-74074032D01*
X62470911Y-74074035D01*
X62470912Y-74074035D01*
X62514141Y-74138733D01*
X62605586Y-74230178D01*
X62605608Y-74230198D01*
X67982591Y-79607181D01*
X68016076Y-79668504D01*
X68011092Y-79738196D01*
X67969220Y-79794129D01*
X67903756Y-79818546D01*
X67884104Y-79818390D01*
X67840003Y-79814532D01*
X67839998Y-79814532D01*
X67613313Y-79834364D01*
X67613302Y-79834366D01*
X67393511Y-79893258D01*
X67393502Y-79893261D01*
X67187267Y-79989431D01*
X67187265Y-79989432D01*
X67000858Y-80119954D01*
X66839954Y-80280858D01*
X66709432Y-80467265D01*
X66709431Y-80467267D01*
X66613261Y-80673502D01*
X66613258Y-80673511D01*
X66554366Y-80893302D01*
X66554364Y-80893313D01*
X66534532Y-81119998D01*
X66534532Y-81120001D01*
X66554364Y-81346686D01*
X66554366Y-81346697D01*
X66613258Y-81566488D01*
X66613261Y-81566497D01*
X66709431Y-81772732D01*
X66709432Y-81772734D01*
X66839954Y-81959141D01*
X67000858Y-82120045D01*
X67000861Y-82120047D01*
X67187266Y-82250568D01*
X67393504Y-82346739D01*
X67613308Y-82405635D01*
X67770791Y-82419413D01*
X67839998Y-82425468D01*
X67840000Y-82425468D01*
X67840002Y-82425468D01*
X67896673Y-82420509D01*
X68066692Y-82405635D01*
X68286496Y-82346739D01*
X68492734Y-82250568D01*
X68679139Y-82120047D01*
X68840047Y-81959139D01*
X68970568Y-81772734D01*
X68997618Y-81714724D01*
X69043790Y-81662285D01*
X69110983Y-81643133D01*
X69177865Y-81663348D01*
X69222382Y-81714725D01*
X69249429Y-81772728D01*
X69249432Y-81772734D01*
X69379954Y-81959141D01*
X69540858Y-82120045D01*
X69540861Y-82120047D01*
X69727266Y-82250568D01*
X69933504Y-82346739D01*
X70153308Y-82405635D01*
X70310791Y-82419413D01*
X70379998Y-82425468D01*
X70380000Y-82425468D01*
X70380002Y-82425468D01*
X70436673Y-82420509D01*
X70606692Y-82405635D01*
X70826496Y-82346739D01*
X71032734Y-82250568D01*
X71219139Y-82120047D01*
X71380047Y-81959139D01*
X71510568Y-81772734D01*
X71537618Y-81714724D01*
X71583790Y-81662285D01*
X71650983Y-81643133D01*
X71717865Y-81663348D01*
X71762382Y-81714725D01*
X71789429Y-81772728D01*
X71789432Y-81772734D01*
X71919954Y-81959141D01*
X72080858Y-82120045D01*
X72080861Y-82120047D01*
X72267266Y-82250568D01*
X72473504Y-82346739D01*
X72693308Y-82405635D01*
X72850791Y-82419413D01*
X72919998Y-82425468D01*
X72920000Y-82425468D01*
X72920002Y-82425468D01*
X72976673Y-82420509D01*
X73146692Y-82405635D01*
X73366496Y-82346739D01*
X73572734Y-82250568D01*
X73759139Y-82120047D01*
X73920047Y-81959139D01*
X74050568Y-81772734D01*
X74077618Y-81714724D01*
X74123790Y-81662285D01*
X74190983Y-81643133D01*
X74257865Y-81663348D01*
X74302382Y-81714725D01*
X74329429Y-81772728D01*
X74329432Y-81772734D01*
X74459954Y-81959141D01*
X74620858Y-82120045D01*
X74620861Y-82120047D01*
X74807266Y-82250568D01*
X75013504Y-82346739D01*
X75233308Y-82405635D01*
X75390791Y-82419413D01*
X75459998Y-82425468D01*
X75460000Y-82425468D01*
X75460002Y-82425468D01*
X75516673Y-82420509D01*
X75686692Y-82405635D01*
X75906496Y-82346739D01*
X76112734Y-82250568D01*
X76299139Y-82120047D01*
X76460047Y-81959139D01*
X76590568Y-81772734D01*
X76617618Y-81714724D01*
X76663790Y-81662285D01*
X76730983Y-81643133D01*
X76797865Y-81663348D01*
X76842382Y-81714725D01*
X76869429Y-81772728D01*
X76869432Y-81772734D01*
X76999954Y-81959141D01*
X77160858Y-82120045D01*
X77160861Y-82120047D01*
X77347266Y-82250568D01*
X77553504Y-82346739D01*
X77773308Y-82405635D01*
X77930791Y-82419413D01*
X77999998Y-82425468D01*
X78000000Y-82425468D01*
X78000002Y-82425468D01*
X78056673Y-82420509D01*
X78226692Y-82405635D01*
X78295048Y-82387319D01*
X78364897Y-82388982D01*
X78414822Y-82419413D01*
X78623228Y-82627819D01*
X78656713Y-82689142D01*
X78651729Y-82758834D01*
X78609857Y-82814767D01*
X78544393Y-82839184D01*
X78535547Y-82839500D01*
X54234483Y-82839500D01*
X54167444Y-82819815D01*
X54121689Y-82767011D01*
X54110483Y-82715500D01*
X54110483Y-67463920D01*
X55409482Y-67463920D01*
X55438323Y-67608907D01*
X55438326Y-67608917D01*
X55494895Y-67745488D01*
X55494902Y-67745501D01*
X55577031Y-67868415D01*
X55577034Y-67868419D01*
X55681563Y-67972948D01*
X55681567Y-67972951D01*
X55804481Y-68055080D01*
X55804494Y-68055087D01*
X55920491Y-68103134D01*
X55941070Y-68111658D01*
X55941074Y-68111658D01*
X55941075Y-68111659D01*
X56086062Y-68140500D01*
X56086065Y-68140500D01*
X56233903Y-68140500D01*
X56331445Y-68121096D01*
X56378896Y-68111658D01*
X56515478Y-68055084D01*
X56638399Y-67972951D01*
X56742934Y-67868416D01*
X56825067Y-67745495D01*
X56881641Y-67608913D01*
X56898980Y-67521746D01*
X56910483Y-67463920D01*
X56910483Y-67316079D01*
X56881642Y-67171092D01*
X56881641Y-67171091D01*
X56881641Y-67171087D01*
X56866616Y-67134814D01*
X56825070Y-67034511D01*
X56825063Y-67034498D01*
X56742934Y-66911584D01*
X56742931Y-66911580D01*
X56639161Y-66807810D01*
X56605676Y-66746487D01*
X56609895Y-66687486D01*
X56592701Y-66705235D01*
X56524673Y-66721168D01*
X56484104Y-66711920D01*
X56378900Y-66668343D01*
X56378890Y-66668340D01*
X56233903Y-66639500D01*
X56233901Y-66639500D01*
X56086065Y-66639500D01*
X56086063Y-66639500D01*
X55941075Y-66668340D01*
X55941065Y-66668343D01*
X55804494Y-66724912D01*
X55804481Y-66724919D01*
X55681567Y-66807048D01*
X55681563Y-66807051D01*
X55577034Y-66911580D01*
X55577031Y-66911584D01*
X55494902Y-67034498D01*
X55494895Y-67034511D01*
X55438326Y-67171082D01*
X55438323Y-67171092D01*
X55409483Y-67316079D01*
X55409483Y-67316082D01*
X55409483Y-67463918D01*
X55409483Y-67463920D01*
X55409482Y-67463920D01*
X54110483Y-67463920D01*
X54110483Y-55904500D01*
X54130168Y-55837461D01*
X54182972Y-55791706D01*
X54234483Y-55780500D01*
X142985483Y-55780500D01*
X143052522Y-55800185D01*
G37*
%TD.AperFunction*%
%TA.AperFunction,Conductor*%
G36*
X93543117Y-79010456D02*
G01*
X93588872Y-79063260D01*
X93598816Y-79132418D01*
X93569791Y-79195974D01*
X93554743Y-79210624D01*
X93459099Y-79289116D01*
X93334073Y-79441460D01*
X93334069Y-79441467D01*
X93241171Y-79615266D01*
X93183958Y-79803870D01*
X93164642Y-80000000D01*
X93183958Y-80196129D01*
X93183959Y-80196132D01*
X93231712Y-80353553D01*
X93241171Y-80384733D01*
X93334069Y-80558532D01*
X93334073Y-80558539D01*
X93459099Y-80710883D01*
X93611443Y-80835909D01*
X93611450Y-80835913D01*
X93785249Y-80928811D01*
X93785252Y-80928811D01*
X93785256Y-80928814D01*
X93973851Y-80986024D01*
X94169983Y-81005341D01*
X94366115Y-80986024D01*
X94554710Y-80928814D01*
X94728521Y-80835910D01*
X94728527Y-80835904D01*
X94733590Y-80832523D01*
X94734686Y-80834164D01*
X94790622Y-80810405D01*
X94859490Y-80822194D01*
X94876131Y-80832888D01*
X94876376Y-80832523D01*
X94881441Y-80835907D01*
X94881445Y-80835910D01*
X95025996Y-80913174D01*
X95051422Y-80926765D01*
X95055256Y-80928814D01*
X95243851Y-80986024D01*
X95439983Y-81005341D01*
X95636115Y-80986024D01*
X95824710Y-80928814D01*
X95998521Y-80835910D01*
X95998527Y-80835904D01*
X96003590Y-80832523D01*
X96004686Y-80834164D01*
X96060622Y-80810405D01*
X96129490Y-80822194D01*
X96146131Y-80832888D01*
X96146376Y-80832523D01*
X96151441Y-80835907D01*
X96151445Y-80835910D01*
X96295996Y-80913174D01*
X96321422Y-80926765D01*
X96325256Y-80928814D01*
X96513851Y-80986024D01*
X96709983Y-81005341D01*
X96906115Y-80986024D01*
X97094710Y-80928814D01*
X97268521Y-80835910D01*
X97268527Y-80835904D01*
X97273590Y-80832523D01*
X97274686Y-80834164D01*
X97330622Y-80810405D01*
X97399490Y-80822194D01*
X97416131Y-80832888D01*
X97416376Y-80832523D01*
X97421441Y-80835907D01*
X97421445Y-80835910D01*
X97565996Y-80913174D01*
X97591422Y-80926765D01*
X97595256Y-80928814D01*
X97783851Y-80986024D01*
X97979983Y-81005341D01*
X98176115Y-80986024D01*
X98364710Y-80928814D01*
X98538521Y-80835910D01*
X98538527Y-80835904D01*
X98543590Y-80832523D01*
X98544686Y-80834164D01*
X98600622Y-80810405D01*
X98669490Y-80822194D01*
X98686131Y-80832888D01*
X98686376Y-80832523D01*
X98691441Y-80835907D01*
X98691445Y-80835910D01*
X98835996Y-80913174D01*
X98861422Y-80926765D01*
X98865256Y-80928814D01*
X98913835Y-80943550D01*
X98972271Y-80981847D01*
X99000728Y-81045659D01*
X98990167Y-81114726D01*
X98965518Y-81149891D01*
X98142499Y-81972911D01*
X98081176Y-82006396D01*
X98054818Y-82009230D01*
X90226842Y-82009230D01*
X90159803Y-81989545D01*
X90114048Y-81936741D01*
X90104104Y-81867583D01*
X90127575Y-81810920D01*
X90199585Y-81714725D01*
X90297209Y-81584315D01*
X90434350Y-81333161D01*
X90534352Y-81065046D01*
X90564433Y-80926765D01*
X90595178Y-80785433D01*
X90595178Y-80785432D01*
X90595179Y-80785428D01*
X90615593Y-80500000D01*
X90595179Y-80214572D01*
X90548502Y-80000002D01*
X90534354Y-79934962D01*
X90534353Y-79934960D01*
X90534352Y-79934954D01*
X90434350Y-79666839D01*
X90372561Y-79553682D01*
X90297212Y-79415690D01*
X90297207Y-79415682D01*
X90127576Y-79189081D01*
X90103159Y-79123617D01*
X90118011Y-79055344D01*
X90167416Y-79005939D01*
X90226843Y-78990771D01*
X93476078Y-78990771D01*
X93543117Y-79010456D01*
G37*
%TD.AperFunction*%
%TA.AperFunction,Conductor*%
G36*
X130860349Y-66569158D02*
G01*
X130911549Y-66616701D01*
X130922697Y-66641111D01*
X130931721Y-66668343D01*
X130965186Y-66769334D01*
X131057288Y-66918656D01*
X131181344Y-67042712D01*
X131330666Y-67134814D01*
X131497203Y-67189999D01*
X131599991Y-67200500D01*
X132115548Y-67200499D01*
X132182586Y-67220183D01*
X132228341Y-67272987D01*
X132238285Y-67342146D01*
X132209260Y-67405702D01*
X132203228Y-67412180D01*
X124777229Y-74838181D01*
X124715906Y-74871666D01*
X124689548Y-74874500D01*
X86098389Y-74874500D01*
X86037971Y-74886518D01*
X85994743Y-74895116D01*
X85977546Y-74898537D01*
X85863716Y-74945687D01*
X85863707Y-74945692D01*
X85761268Y-75014140D01*
X85717705Y-75057703D01*
X85674142Y-75101267D01*
X85674139Y-75101270D01*
X80954822Y-79820586D01*
X80893499Y-79854071D01*
X80835049Y-79852680D01*
X80766699Y-79834367D01*
X80766702Y-79834367D01*
X80766692Y-79834365D01*
X80766689Y-79834364D01*
X80766686Y-79834364D01*
X80540001Y-79814532D01*
X80539998Y-79814532D01*
X80313313Y-79834364D01*
X80313302Y-79834366D01*
X80093511Y-79893258D01*
X80093502Y-79893261D01*
X79887267Y-79989431D01*
X79887265Y-79989432D01*
X79700858Y-80119954D01*
X79539954Y-80280858D01*
X79409432Y-80467265D01*
X79409431Y-80467267D01*
X79382382Y-80525275D01*
X79336209Y-80577714D01*
X79269016Y-80596866D01*
X79202135Y-80576650D01*
X79157618Y-80525275D01*
X79130568Y-80467266D01*
X79000047Y-80280861D01*
X79000045Y-80280858D01*
X78839141Y-80119954D01*
X78652734Y-79989432D01*
X78652732Y-79989431D01*
X78446497Y-79893261D01*
X78446488Y-79893258D01*
X78226697Y-79834366D01*
X78226693Y-79834365D01*
X78226692Y-79834365D01*
X78226691Y-79834364D01*
X78226686Y-79834364D01*
X78000002Y-79814532D01*
X77999996Y-79814532D01*
X77955895Y-79818390D01*
X77887395Y-79804623D01*
X77837213Y-79756007D01*
X77821280Y-79687978D01*
X77844656Y-79622135D01*
X77857400Y-79607190D01*
X78302772Y-79161819D01*
X78364095Y-79128334D01*
X78390453Y-79125500D01*
X81051607Y-79125500D01*
X81112029Y-79113481D01*
X81172452Y-79101463D01*
X81172455Y-79101461D01*
X81172458Y-79101461D01*
X81205787Y-79087654D01*
X81205786Y-79087654D01*
X81205792Y-79087652D01*
X81286286Y-79054312D01*
X81337509Y-79020084D01*
X81346651Y-79013976D01*
X81351919Y-79010456D01*
X81388733Y-78985858D01*
X81475858Y-78898733D01*
X81475859Y-78898731D01*
X81482925Y-78891665D01*
X81482927Y-78891661D01*
X86212771Y-74161819D01*
X86274094Y-74128334D01*
X86300452Y-74125500D01*
X115931590Y-74125500D01*
X115992012Y-74113481D01*
X116052435Y-74101463D01*
X116052438Y-74101461D01*
X116052441Y-74101461D01*
X116085770Y-74087654D01*
X116085769Y-74087654D01*
X116085775Y-74087652D01*
X116166269Y-74054312D01*
X116217492Y-74020084D01*
X116227752Y-74013229D01*
X116230254Y-74011556D01*
X116268716Y-73985858D01*
X116355841Y-73898733D01*
X116355841Y-73898731D01*
X116366049Y-73888524D01*
X116366050Y-73888521D01*
X123505986Y-66748586D01*
X123567307Y-66715103D01*
X123625760Y-66716495D01*
X123661998Y-66726205D01*
X123661999Y-66726205D01*
X123662006Y-66726207D01*
X123847520Y-66742437D01*
X123879981Y-66745277D01*
X123879983Y-66745277D01*
X123879985Y-66745277D01*
X123908237Y-66742805D01*
X124097960Y-66726207D01*
X124309313Y-66669575D01*
X124378917Y-66637117D01*
X124431322Y-66625500D01*
X126437966Y-66625500D01*
X126505005Y-66645185D01*
X126550760Y-66697989D01*
X126555669Y-66710489D01*
X126575169Y-66769334D01*
X126667271Y-66918656D01*
X126791327Y-67042712D01*
X126940649Y-67134814D01*
X127107186Y-67189999D01*
X127209974Y-67200500D01*
X128009991Y-67200499D01*
X128009999Y-67200498D01*
X128010002Y-67200498D01*
X128066285Y-67194748D01*
X128112780Y-67189999D01*
X128279317Y-67134814D01*
X128428639Y-67042712D01*
X128522302Y-66949049D01*
X128583625Y-66915564D01*
X128653317Y-66920548D01*
X128697664Y-66949049D01*
X128791327Y-67042712D01*
X128940649Y-67134814D01*
X129107186Y-67189999D01*
X129209974Y-67200500D01*
X130009991Y-67200499D01*
X130009999Y-67200498D01*
X130010002Y-67200498D01*
X130066285Y-67194748D01*
X130112780Y-67189999D01*
X130279317Y-67134814D01*
X130428639Y-67042712D01*
X130552695Y-66918656D01*
X130644797Y-66769334D01*
X130687286Y-66641108D01*
X130727057Y-66583666D01*
X130791573Y-66556843D01*
X130860349Y-66569158D01*
G37*
%TD.AperFunction*%
%TA.AperFunction,Conductor*%
G36*
X88816122Y-58645185D02*
G01*
X88861877Y-58697989D01*
X88871821Y-58767147D01*
X88842796Y-58830703D01*
X88801488Y-58861882D01*
X88712596Y-58903333D01*
X88650411Y-58946874D01*
X89210574Y-59507037D01*
X89146990Y-59524075D01*
X89032976Y-59589901D01*
X88939884Y-59682993D01*
X88874058Y-59797007D01*
X88857020Y-59860591D01*
X88296857Y-59300428D01*
X88253316Y-59362613D01*
X88160881Y-59560840D01*
X88160877Y-59560849D01*
X88104272Y-59772105D01*
X88104270Y-59772115D01*
X88085208Y-59989999D01*
X88085208Y-59990000D01*
X88104270Y-60207884D01*
X88104272Y-60207894D01*
X88160877Y-60419150D01*
X88160881Y-60419159D01*
X88253316Y-60617387D01*
X88296857Y-60679571D01*
X88857020Y-60119408D01*
X88874058Y-60182993D01*
X88939884Y-60297007D01*
X89032976Y-60390099D01*
X89146990Y-60455925D01*
X89210573Y-60472962D01*
X88650410Y-61033124D01*
X88651592Y-61046631D01*
X88672197Y-61072409D01*
X88679391Y-61141908D01*
X88647868Y-61204263D01*
X88587639Y-61239677D01*
X88576848Y-61241881D01*
X88358613Y-61276447D01*
X88133986Y-61349433D01*
X87923549Y-61456657D01*
X87814533Y-61535862D01*
X87732473Y-61595483D01*
X87732471Y-61595485D01*
X87732470Y-61595485D01*
X87565468Y-61762487D01*
X87565468Y-61762488D01*
X87565466Y-61762490D01*
X87505845Y-61844550D01*
X87426640Y-61953566D01*
X87319416Y-62164003D01*
X87246429Y-62388631D01*
X87209483Y-62621902D01*
X87209483Y-62858097D01*
X87246429Y-63091368D01*
X87319416Y-63315996D01*
X87426640Y-63526433D01*
X87565466Y-63717510D01*
X87732473Y-63884517D01*
X87923550Y-64023343D01*
X87983785Y-64054034D01*
X88133986Y-64130566D01*
X88133988Y-64130566D01*
X88133991Y-64130568D01*
X88358615Y-64203553D01*
X88568450Y-64236787D01*
X88576845Y-64238117D01*
X88639979Y-64268046D01*
X88676911Y-64327357D01*
X88675913Y-64397220D01*
X88651538Y-64433981D01*
X88650410Y-64446873D01*
X89210574Y-65007037D01*
X89146990Y-65024075D01*
X89032976Y-65089901D01*
X88939884Y-65182993D01*
X88874058Y-65297007D01*
X88857020Y-65360591D01*
X88296857Y-64800428D01*
X88253316Y-64862613D01*
X88160881Y-65060840D01*
X88160877Y-65060849D01*
X88104272Y-65272105D01*
X88104270Y-65272115D01*
X88085208Y-65489999D01*
X88085208Y-65490000D01*
X88104270Y-65707884D01*
X88104272Y-65707894D01*
X88160877Y-65919150D01*
X88160881Y-65919159D01*
X88253316Y-66117387D01*
X88296857Y-66179571D01*
X88857020Y-65619408D01*
X88874058Y-65682993D01*
X88939884Y-65797007D01*
X89032976Y-65890099D01*
X89146990Y-65955925D01*
X89210573Y-65972962D01*
X88650410Y-66533125D01*
X88655084Y-66586553D01*
X88646594Y-66628793D01*
X88652532Y-66620862D01*
X88717996Y-66596445D01*
X88779247Y-66607747D01*
X88910823Y-66669101D01*
X88910832Y-66669105D01*
X89122088Y-66725710D01*
X89122098Y-66725712D01*
X89339982Y-66744775D01*
X89339984Y-66744775D01*
X89557867Y-66725712D01*
X89557875Y-66725710D01*
X89564139Y-66724032D01*
X89633989Y-66725689D01*
X89691855Y-66764847D01*
X89719364Y-66829073D01*
X89707783Y-66897976D01*
X89683923Y-66931485D01*
X89122164Y-67493245D01*
X89060841Y-67526730D01*
X88991150Y-67521746D01*
X88935216Y-67479875D01*
X88910799Y-67414410D01*
X88910483Y-67405564D01*
X88910483Y-67316079D01*
X88881642Y-67171092D01*
X88881641Y-67171091D01*
X88881641Y-67171087D01*
X88866616Y-67134814D01*
X88825070Y-67034511D01*
X88825063Y-67034498D01*
X88742934Y-66911584D01*
X88742931Y-66911580D01*
X88639161Y-66807810D01*
X88605676Y-66746487D01*
X88609895Y-66687486D01*
X88592701Y-66705235D01*
X88524673Y-66721168D01*
X88484104Y-66711920D01*
X88378900Y-66668343D01*
X88378890Y-66668340D01*
X88233903Y-66639500D01*
X88233901Y-66639500D01*
X88086065Y-66639500D01*
X88086063Y-66639500D01*
X87941075Y-66668340D01*
X87941065Y-66668343D01*
X87804494Y-66724912D01*
X87804481Y-66724919D01*
X87681567Y-66807048D01*
X87681563Y-66807051D01*
X87577034Y-66911580D01*
X87577031Y-66911584D01*
X87494902Y-67034498D01*
X87494895Y-67034511D01*
X87438326Y-67171082D01*
X87438323Y-67171092D01*
X87409483Y-67316079D01*
X87409483Y-67316082D01*
X87409483Y-67463918D01*
X87409483Y-67463920D01*
X87409482Y-67463920D01*
X87438323Y-67608907D01*
X87438326Y-67608917D01*
X87494895Y-67745488D01*
X87494902Y-67745501D01*
X87577031Y-67868415D01*
X87577034Y-67868419D01*
X87681563Y-67972948D01*
X87681567Y-67972951D01*
X87804481Y-68055080D01*
X87804494Y-68055087D01*
X87920491Y-68103134D01*
X87941070Y-68111658D01*
X87941074Y-68111658D01*
X87941075Y-68111659D01*
X88086062Y-68140500D01*
X88175548Y-68140500D01*
X88242587Y-68160185D01*
X88288342Y-68212989D01*
X88298286Y-68282147D01*
X88269261Y-68345703D01*
X88263229Y-68352181D01*
X86777229Y-69838181D01*
X86715906Y-69871666D01*
X86689548Y-69874500D01*
X81067741Y-69874500D01*
X81067721Y-69874499D01*
X81061607Y-69874499D01*
X80938394Y-69874499D01*
X80837597Y-69894548D01*
X80837592Y-69894548D01*
X80817549Y-69898536D01*
X80817547Y-69898536D01*
X80770397Y-69918067D01*
X80703719Y-69945685D01*
X80703717Y-69945686D01*
X80601266Y-70014141D01*
X78414821Y-72200586D01*
X78353498Y-72234071D01*
X78295048Y-72232680D01*
X78226697Y-72214366D01*
X78226693Y-72214365D01*
X78226692Y-72214365D01*
X78113346Y-72204448D01*
X78000001Y-72194532D01*
X77999998Y-72194532D01*
X77773313Y-72214364D01*
X77773302Y-72214366D01*
X77553511Y-72273258D01*
X77553502Y-72273261D01*
X77347267Y-72369431D01*
X77347265Y-72369432D01*
X77160858Y-72499954D01*
X76999954Y-72660858D01*
X76869432Y-72847265D01*
X76869431Y-72847267D01*
X76842382Y-72905275D01*
X76796209Y-72957714D01*
X76729016Y-72976866D01*
X76662135Y-72956650D01*
X76617618Y-72905275D01*
X76590568Y-72847266D01*
X76460047Y-72660861D01*
X76460045Y-72660858D01*
X76299141Y-72499954D01*
X76112734Y-72369432D01*
X76112732Y-72369431D01*
X75906497Y-72273261D01*
X75906488Y-72273258D01*
X75686697Y-72214366D01*
X75686693Y-72214365D01*
X75686692Y-72214365D01*
X75686691Y-72214364D01*
X75686686Y-72214364D01*
X75460002Y-72194532D01*
X75459998Y-72194532D01*
X75233313Y-72214364D01*
X75233302Y-72214366D01*
X75013511Y-72273258D01*
X75013502Y-72273261D01*
X74807267Y-72369431D01*
X74807265Y-72369432D01*
X74620858Y-72499954D01*
X74459954Y-72660858D01*
X74329432Y-72847265D01*
X74329431Y-72847267D01*
X74302382Y-72905275D01*
X74256209Y-72957714D01*
X74189016Y-72976866D01*
X74122135Y-72956650D01*
X74077618Y-72905275D01*
X74050568Y-72847266D01*
X73920047Y-72660861D01*
X73920045Y-72660858D01*
X73759140Y-72499953D01*
X73598377Y-72387386D01*
X73554752Y-72332809D01*
X73545500Y-72285811D01*
X73545500Y-68760434D01*
X73565185Y-68693395D01*
X73581814Y-68672758D01*
X75505985Y-66748586D01*
X75567306Y-66715103D01*
X75625757Y-66716493D01*
X75662006Y-66726207D01*
X75817703Y-66739828D01*
X75879981Y-66745277D01*
X75879983Y-66745277D01*
X75879985Y-66745277D01*
X75908237Y-66742805D01*
X76097960Y-66726207D01*
X76309313Y-66669575D01*
X76378917Y-66637117D01*
X76431322Y-66625500D01*
X78437966Y-66625500D01*
X78505005Y-66645185D01*
X78550760Y-66697989D01*
X78555669Y-66710489D01*
X78575169Y-66769334D01*
X78667271Y-66918656D01*
X78791327Y-67042712D01*
X78940649Y-67134814D01*
X79107186Y-67189999D01*
X79209974Y-67200500D01*
X80009991Y-67200499D01*
X80009999Y-67200498D01*
X80010002Y-67200498D01*
X80066285Y-67194748D01*
X80112780Y-67189999D01*
X80279317Y-67134814D01*
X80428639Y-67042712D01*
X80522302Y-66949049D01*
X80583625Y-66915564D01*
X80653317Y-66920548D01*
X80697664Y-66949049D01*
X80791327Y-67042712D01*
X80940649Y-67134814D01*
X81107186Y-67189999D01*
X81209974Y-67200500D01*
X82009991Y-67200499D01*
X82009999Y-67200498D01*
X82010002Y-67200498D01*
X82066285Y-67194748D01*
X82112780Y-67189999D01*
X82279317Y-67134814D01*
X82428639Y-67042712D01*
X82552695Y-66918656D01*
X82644797Y-66769334D01*
X82699982Y-66602797D01*
X82710483Y-66500009D01*
X82710482Y-65499992D01*
X82709461Y-65490000D01*
X82699982Y-65397203D01*
X82699981Y-65397200D01*
X82687286Y-65358889D01*
X82644797Y-65230666D01*
X82552695Y-65081344D01*
X82428639Y-64957288D01*
X82294385Y-64874480D01*
X82247662Y-64822533D01*
X82235483Y-64768942D01*
X82235483Y-61231057D01*
X82255168Y-61164018D01*
X82294384Y-61125520D01*
X82428639Y-61042712D01*
X82552695Y-60918656D01*
X82644797Y-60769334D01*
X82699982Y-60602797D01*
X82710483Y-60500009D01*
X82710482Y-59835450D01*
X82730166Y-59768412D01*
X82746796Y-59747775D01*
X83832754Y-58661819D01*
X83894077Y-58628334D01*
X83920435Y-58625500D01*
X88749083Y-58625500D01*
X88816122Y-58645185D01*
G37*
%TD.AperFunction*%
%TA.AperFunction,Conductor*%
G36*
X104816122Y-58645185D02*
G01*
X104861877Y-58697989D01*
X104871821Y-58767147D01*
X104842796Y-58830703D01*
X104801488Y-58861882D01*
X104712596Y-58903333D01*
X104650411Y-58946874D01*
X105210574Y-59507037D01*
X105146990Y-59524075D01*
X105032976Y-59589901D01*
X104939884Y-59682993D01*
X104874058Y-59797007D01*
X104857020Y-59860591D01*
X104296857Y-59300428D01*
X104253316Y-59362613D01*
X104160881Y-59560840D01*
X104160877Y-59560849D01*
X104104272Y-59772105D01*
X104104270Y-59772115D01*
X104085208Y-59989999D01*
X104085208Y-59990000D01*
X104104270Y-60207884D01*
X104104272Y-60207894D01*
X104160877Y-60419150D01*
X104160881Y-60419159D01*
X104253316Y-60617387D01*
X104296857Y-60679571D01*
X104857020Y-60119408D01*
X104874058Y-60182993D01*
X104939884Y-60297007D01*
X105032976Y-60390099D01*
X105146990Y-60455925D01*
X105210573Y-60472962D01*
X104650410Y-61033124D01*
X104651592Y-61046631D01*
X104672197Y-61072409D01*
X104679391Y-61141908D01*
X104647868Y-61204263D01*
X104587639Y-61239677D01*
X104576848Y-61241881D01*
X104358613Y-61276447D01*
X104133986Y-61349433D01*
X103923549Y-61456657D01*
X103814533Y-61535862D01*
X103732473Y-61595483D01*
X103732471Y-61595485D01*
X103732470Y-61595485D01*
X103565468Y-61762487D01*
X103565468Y-61762488D01*
X103565466Y-61762490D01*
X103505845Y-61844550D01*
X103426640Y-61953566D01*
X103319416Y-62164003D01*
X103246429Y-62388631D01*
X103209483Y-62621902D01*
X103209483Y-62858097D01*
X103246429Y-63091368D01*
X103319416Y-63315996D01*
X103426640Y-63526433D01*
X103565466Y-63717510D01*
X103732473Y-63884517D01*
X103923550Y-64023343D01*
X103983785Y-64054034D01*
X104133986Y-64130566D01*
X104133988Y-64130566D01*
X104133991Y-64130568D01*
X104358615Y-64203553D01*
X104568450Y-64236787D01*
X104576845Y-64238117D01*
X104639979Y-64268046D01*
X104676911Y-64327357D01*
X104675913Y-64397220D01*
X104651538Y-64433981D01*
X104650410Y-64446873D01*
X105210574Y-65007037D01*
X105146990Y-65024075D01*
X105032976Y-65089901D01*
X104939884Y-65182993D01*
X104874058Y-65297007D01*
X104857020Y-65360591D01*
X104296857Y-64800428D01*
X104253316Y-64862613D01*
X104160881Y-65060840D01*
X104160877Y-65060849D01*
X104104272Y-65272105D01*
X104104270Y-65272115D01*
X104085208Y-65489999D01*
X104085208Y-65490000D01*
X104104270Y-65707884D01*
X104104272Y-65707894D01*
X104160877Y-65919150D01*
X104160881Y-65919159D01*
X104253316Y-66117387D01*
X104296857Y-66179571D01*
X104857020Y-65619408D01*
X104874058Y-65682993D01*
X104939884Y-65797007D01*
X105032976Y-65890099D01*
X105146990Y-65955925D01*
X105210573Y-65972962D01*
X104650410Y-66533125D01*
X104655084Y-66586553D01*
X104646594Y-66628793D01*
X104652532Y-66620862D01*
X104717996Y-66596445D01*
X104779247Y-66607747D01*
X104910823Y-66669101D01*
X104910832Y-66669105D01*
X105122088Y-66725710D01*
X105122098Y-66725712D01*
X105339982Y-66744775D01*
X105339984Y-66744775D01*
X105439637Y-66736056D01*
X105508137Y-66749822D01*
X105558320Y-66798437D01*
X105574254Y-66866466D01*
X105550879Y-66932310D01*
X105538126Y-66947265D01*
X105117465Y-67367926D01*
X105056142Y-67401411D01*
X104986450Y-67396427D01*
X104930517Y-67354555D01*
X104908167Y-67304437D01*
X104881642Y-67171092D01*
X104881641Y-67171091D01*
X104881641Y-67171087D01*
X104866616Y-67134814D01*
X104825070Y-67034511D01*
X104825063Y-67034498D01*
X104742934Y-66911584D01*
X104742931Y-66911580D01*
X104639161Y-66807810D01*
X104605676Y-66746487D01*
X104609895Y-66687486D01*
X104592701Y-66705235D01*
X104524673Y-66721168D01*
X104484104Y-66711920D01*
X104378900Y-66668343D01*
X104378890Y-66668340D01*
X104233903Y-66639500D01*
X104233901Y-66639500D01*
X104086065Y-66639500D01*
X104086063Y-66639500D01*
X103941075Y-66668340D01*
X103941065Y-66668343D01*
X103804494Y-66724912D01*
X103804481Y-66724919D01*
X103681567Y-66807048D01*
X103681563Y-66807051D01*
X103577034Y-66911580D01*
X103577031Y-66911584D01*
X103494902Y-67034498D01*
X103494895Y-67034511D01*
X103438326Y-67171082D01*
X103438323Y-67171092D01*
X103409483Y-67316079D01*
X103409483Y-67316082D01*
X103409483Y-67463918D01*
X103409483Y-67463920D01*
X103409482Y-67463920D01*
X103438323Y-67608907D01*
X103438326Y-67608917D01*
X103494895Y-67745488D01*
X103494902Y-67745501D01*
X103577031Y-67868415D01*
X103577034Y-67868419D01*
X103681563Y-67972948D01*
X103681567Y-67972951D01*
X103804481Y-68055080D01*
X103804494Y-68055087D01*
X103920491Y-68103134D01*
X103941070Y-68111658D01*
X103941074Y-68111658D01*
X103941075Y-68111659D01*
X104074420Y-68138184D01*
X104136331Y-68170569D01*
X104170905Y-68231285D01*
X104167165Y-68301055D01*
X104137909Y-68347482D01*
X101147212Y-71338181D01*
X101085889Y-71371666D01*
X101059531Y-71374500D01*
X84518389Y-71374500D01*
X84457971Y-71386518D01*
X84414743Y-71395116D01*
X84397546Y-71398537D01*
X84329743Y-71426623D01*
X84283715Y-71445687D01*
X84181265Y-71514142D01*
X84181262Y-71514145D01*
X83532227Y-72163181D01*
X83470904Y-72196666D01*
X83444546Y-72199500D01*
X82232129Y-72199500D01*
X82232123Y-72199501D01*
X82172516Y-72205908D01*
X82037671Y-72256202D01*
X82037664Y-72256206D01*
X81922455Y-72342452D01*
X81922452Y-72342455D01*
X81836206Y-72457664D01*
X81836202Y-72457671D01*
X81785908Y-72592516D01*
X81782137Y-72627596D01*
X81755398Y-72692146D01*
X81698006Y-72731994D01*
X81628180Y-72734487D01*
X81568092Y-72698834D01*
X81557273Y-72685462D01*
X81540045Y-72660858D01*
X81379141Y-72499954D01*
X81192734Y-72369432D01*
X81192732Y-72369431D01*
X80986497Y-72273261D01*
X80986488Y-72273258D01*
X80766697Y-72214366D01*
X80766693Y-72214365D01*
X80766692Y-72214365D01*
X80766691Y-72214364D01*
X80766686Y-72214364D01*
X80540002Y-72194532D01*
X80539996Y-72194532D01*
X80495895Y-72198390D01*
X80427395Y-72184623D01*
X80377213Y-72136007D01*
X80361280Y-72067978D01*
X80384656Y-72002135D01*
X80397400Y-71987189D01*
X81222772Y-71161819D01*
X81284095Y-71128334D01*
X81310453Y-71125500D01*
X87061607Y-71125500D01*
X87122029Y-71113481D01*
X87182452Y-71101463D01*
X87182455Y-71101461D01*
X87182458Y-71101461D01*
X87215787Y-71087654D01*
X87215786Y-71087654D01*
X87215792Y-71087652D01*
X87296286Y-71054312D01*
X87347509Y-71020084D01*
X87398733Y-70985858D01*
X87485858Y-70898733D01*
X87485859Y-70898731D01*
X87492925Y-70891665D01*
X87492928Y-70891661D01*
X91617789Y-66766799D01*
X91679110Y-66733316D01*
X91716270Y-66730954D01*
X91865196Y-66743983D01*
X91879982Y-66745277D01*
X91879983Y-66745277D01*
X91879985Y-66745277D01*
X91908237Y-66742805D01*
X92097960Y-66726207D01*
X92309313Y-66669575D01*
X92379089Y-66637037D01*
X92432301Y-66627964D01*
X92432301Y-66625500D01*
X92438393Y-66625500D01*
X92438394Y-66625500D01*
X94437966Y-66625500D01*
X94505005Y-66645185D01*
X94550760Y-66697989D01*
X94555669Y-66710489D01*
X94575169Y-66769334D01*
X94667271Y-66918656D01*
X94791327Y-67042712D01*
X94940649Y-67134814D01*
X95107186Y-67189999D01*
X95209974Y-67200500D01*
X96009991Y-67200499D01*
X96009999Y-67200498D01*
X96010002Y-67200498D01*
X96066285Y-67194748D01*
X96112780Y-67189999D01*
X96279317Y-67134814D01*
X96428639Y-67042712D01*
X96522302Y-66949049D01*
X96583625Y-66915564D01*
X96653317Y-66920548D01*
X96697664Y-66949049D01*
X96791327Y-67042712D01*
X96940649Y-67134814D01*
X97107186Y-67189999D01*
X97209974Y-67200500D01*
X98009991Y-67200499D01*
X98009999Y-67200498D01*
X98010002Y-67200498D01*
X98066285Y-67194748D01*
X98112780Y-67189999D01*
X98279317Y-67134814D01*
X98428639Y-67042712D01*
X98552695Y-66918656D01*
X98644797Y-66769334D01*
X98699982Y-66602797D01*
X98710483Y-66500009D01*
X98710482Y-65499992D01*
X98709461Y-65490000D01*
X98699982Y-65397203D01*
X98699981Y-65397200D01*
X98687286Y-65358889D01*
X98644797Y-65230666D01*
X98552695Y-65081344D01*
X98428639Y-64957288D01*
X98294385Y-64874480D01*
X98247662Y-64822533D01*
X98235483Y-64768942D01*
X98235483Y-61231057D01*
X98255168Y-61164018D01*
X98294384Y-61125520D01*
X98428639Y-61042712D01*
X98552695Y-60918656D01*
X98644797Y-60769334D01*
X98699982Y-60602797D01*
X98710483Y-60500009D01*
X98710482Y-59835450D01*
X98730166Y-59768412D01*
X98746796Y-59747775D01*
X99832754Y-58661819D01*
X99894077Y-58628334D01*
X99920435Y-58625500D01*
X104749083Y-58625500D01*
X104816122Y-58645185D01*
G37*
%TD.AperFunction*%
%TA.AperFunction,Conductor*%
G36*
X58383107Y-60679570D02*
G01*
X58426649Y-60617388D01*
X58497323Y-60465825D01*
X58543495Y-60413386D01*
X58610689Y-60394233D01*
X58677570Y-60414448D01*
X58722088Y-60465824D01*
X58792880Y-60617638D01*
X58798385Y-60625500D01*
X58918385Y-60796877D01*
X59073106Y-60951598D01*
X59252344Y-61077102D01*
X59450653Y-61169575D01*
X59662006Y-61226207D01*
X59842457Y-61241994D01*
X59879981Y-61245277D01*
X59879983Y-61245277D01*
X59879985Y-61245277D01*
X59908237Y-61242805D01*
X60097960Y-61226207D01*
X60309313Y-61169575D01*
X60507622Y-61077102D01*
X60686860Y-60951598D01*
X60841581Y-60796877D01*
X60909069Y-60700495D01*
X60924557Y-60678376D01*
X60979134Y-60634751D01*
X61026131Y-60625500D01*
X61827983Y-60625500D01*
X61895022Y-60645185D01*
X61940777Y-60697989D01*
X61945689Y-60710495D01*
X61965186Y-60769333D01*
X61965187Y-60769336D01*
X61982175Y-60796878D01*
X62057288Y-60918656D01*
X62181344Y-61042712D01*
X62330666Y-61134814D01*
X62497203Y-61189999D01*
X62599991Y-61200500D01*
X63400008Y-61200499D01*
X63400016Y-61200498D01*
X63400019Y-61200498D01*
X63456302Y-61194748D01*
X63502797Y-61189999D01*
X63669334Y-61134814D01*
X63818656Y-61042712D01*
X63912319Y-60949049D01*
X63973642Y-60915564D01*
X64043334Y-60920548D01*
X64087681Y-60949049D01*
X64181344Y-61042712D01*
X64315597Y-61125519D01*
X64362321Y-61177465D01*
X64374500Y-61231057D01*
X64374500Y-64768942D01*
X64354815Y-64835981D01*
X64315598Y-64874479D01*
X64229209Y-64927764D01*
X64181342Y-64957289D01*
X64087681Y-65050951D01*
X64026358Y-65084436D01*
X63956666Y-65079452D01*
X63912319Y-65050951D01*
X63818657Y-64957289D01*
X63818656Y-64957288D01*
X63669334Y-64865186D01*
X63502797Y-64810001D01*
X63502795Y-64810000D01*
X63400010Y-64799500D01*
X62599998Y-64799500D01*
X62599980Y-64799501D01*
X62497203Y-64810000D01*
X62497200Y-64810001D01*
X62330668Y-64865185D01*
X62330663Y-64865187D01*
X62181342Y-64957289D01*
X62057289Y-65081342D01*
X61965187Y-65230663D01*
X61965186Y-65230666D01*
X61949768Y-65277196D01*
X61945689Y-65289505D01*
X61905916Y-65346949D01*
X61841400Y-65373772D01*
X61827983Y-65374500D01*
X61238308Y-65374500D01*
X61171269Y-65354815D01*
X61125514Y-65302011D01*
X61117797Y-65277196D01*
X61117591Y-65277252D01*
X61116199Y-65272059D01*
X61116193Y-65272038D01*
X61116191Y-65272027D01*
X61059560Y-65060677D01*
X61059559Y-65060676D01*
X61059558Y-65060670D01*
X60967085Y-64862362D01*
X60967082Y-64862358D01*
X60967082Y-64862357D01*
X60841582Y-64683124D01*
X60841579Y-64683121D01*
X60686860Y-64528402D01*
X60514159Y-64407475D01*
X60507621Y-64402897D01*
X60368398Y-64337977D01*
X60309313Y-64310425D01*
X60309309Y-64310424D01*
X60309305Y-64310422D01*
X60097960Y-64253793D01*
X59879985Y-64234723D01*
X59879981Y-64234723D01*
X59734665Y-64247436D01*
X59662006Y-64253793D01*
X59662003Y-64253793D01*
X59450660Y-64310422D01*
X59450651Y-64310426D01*
X59252344Y-64402898D01*
X59252340Y-64402900D01*
X59073104Y-64528402D01*
X58918385Y-64683121D01*
X58792883Y-64862357D01*
X58792883Y-64862358D01*
X58792881Y-64862361D01*
X58792881Y-64862362D01*
X58791884Y-64864500D01*
X58722088Y-65014176D01*
X58675915Y-65066615D01*
X58608721Y-65085766D01*
X58541840Y-65065550D01*
X58497324Y-65014175D01*
X58426650Y-64862614D01*
X58426649Y-64862612D01*
X58383107Y-64800428D01*
X58383107Y-64800427D01*
X57822945Y-65360589D01*
X57805908Y-65297007D01*
X57740082Y-65182993D01*
X57646990Y-65089901D01*
X57532976Y-65024075D01*
X57469392Y-65007037D01*
X58029554Y-64446874D01*
X57967370Y-64403333D01*
X57769142Y-64310898D01*
X57769133Y-64310894D01*
X57557877Y-64254289D01*
X57557870Y-64254288D01*
X57548912Y-64253504D01*
X57483845Y-64228047D01*
X57442869Y-64171454D01*
X57438995Y-64101692D01*
X57473452Y-64040910D01*
X57494957Y-64024236D01*
X57496397Y-64023352D01*
X57496416Y-64023343D01*
X57687493Y-63884517D01*
X57854500Y-63717510D01*
X57993326Y-63526433D01*
X58100551Y-63315992D01*
X58173536Y-63091368D01*
X58210483Y-62858097D01*
X58210483Y-62621902D01*
X59659483Y-62621902D01*
X59659483Y-62858097D01*
X59696429Y-63091368D01*
X59769416Y-63315996D01*
X59876640Y-63526433D01*
X60015466Y-63717510D01*
X60182473Y-63884517D01*
X60373550Y-64023343D01*
X60433785Y-64054034D01*
X60583986Y-64130566D01*
X60583988Y-64130566D01*
X60583991Y-64130568D01*
X60704395Y-64169689D01*
X60808614Y-64203553D01*
X61041886Y-64240500D01*
X61041891Y-64240500D01*
X61278080Y-64240500D01*
X61511351Y-64203553D01*
X61511354Y-64203552D01*
X61735975Y-64130568D01*
X61946416Y-64023343D01*
X62137493Y-63884517D01*
X62304500Y-63717510D01*
X62443326Y-63526433D01*
X62550551Y-63315992D01*
X62623536Y-63091368D01*
X62660483Y-62858097D01*
X62660483Y-62621902D01*
X62623536Y-62388631D01*
X62550549Y-62164003D01*
X62443325Y-61953566D01*
X62304500Y-61762490D01*
X62137493Y-61595483D01*
X61946416Y-61456657D01*
X61904175Y-61435134D01*
X61735979Y-61349433D01*
X61511351Y-61276446D01*
X61278080Y-61239500D01*
X61278075Y-61239500D01*
X61041891Y-61239500D01*
X61041886Y-61239500D01*
X60808614Y-61276446D01*
X60583986Y-61349433D01*
X60373549Y-61456657D01*
X60264533Y-61535862D01*
X60182473Y-61595483D01*
X60182471Y-61595485D01*
X60182470Y-61595485D01*
X60015468Y-61762487D01*
X60015468Y-61762488D01*
X60015466Y-61762490D01*
X59955845Y-61844550D01*
X59876640Y-61953566D01*
X59769416Y-62164003D01*
X59696429Y-62388631D01*
X59659483Y-62621902D01*
X58210483Y-62621902D01*
X58173536Y-62388631D01*
X58100549Y-62164003D01*
X57993325Y-61953566D01*
X57854500Y-61762490D01*
X57687493Y-61595483D01*
X57496416Y-61456657D01*
X57496410Y-61456654D01*
X57494943Y-61455755D01*
X57494498Y-61455264D01*
X57492474Y-61453793D01*
X57492782Y-61453367D01*
X57448064Y-61403946D01*
X57436637Y-61335017D01*
X57464290Y-61270852D01*
X57522243Y-61231824D01*
X57548920Y-61226495D01*
X57557866Y-61225712D01*
X57557877Y-61225710D01*
X57769133Y-61169105D01*
X57769147Y-61169100D01*
X57967366Y-61076669D01*
X57967368Y-61076668D01*
X58029554Y-61033124D01*
X57469393Y-60472962D01*
X57532976Y-60455925D01*
X57646990Y-60390099D01*
X57740082Y-60297007D01*
X57805908Y-60182993D01*
X57822945Y-60119409D01*
X58383107Y-60679570D01*
G37*
%TD.AperFunction*%
%TA.AperFunction,Conductor*%
G36*
X78505005Y-60645185D02*
G01*
X78550760Y-60697989D01*
X78555672Y-60710495D01*
X78575169Y-60769333D01*
X78575170Y-60769336D01*
X78592158Y-60796878D01*
X78667271Y-60918656D01*
X78791327Y-61042712D01*
X78940649Y-61134814D01*
X79107186Y-61189999D01*
X79209974Y-61200500D01*
X80009991Y-61200499D01*
X80009999Y-61200498D01*
X80010002Y-61200498D01*
X80066285Y-61194748D01*
X80112780Y-61189999D01*
X80279317Y-61134814D01*
X80428639Y-61042712D01*
X80522302Y-60949049D01*
X80583625Y-60915564D01*
X80653317Y-60920548D01*
X80697664Y-60949049D01*
X80791327Y-61042712D01*
X80925580Y-61125519D01*
X80972304Y-61177465D01*
X80984483Y-61231057D01*
X80984483Y-64768942D01*
X80964798Y-64835981D01*
X80925581Y-64874479D01*
X80839192Y-64927764D01*
X80791325Y-64957289D01*
X80697664Y-65050951D01*
X80636341Y-65084436D01*
X80566649Y-65079452D01*
X80522302Y-65050951D01*
X80428640Y-64957289D01*
X80428639Y-64957288D01*
X80279317Y-64865186D01*
X80112780Y-64810001D01*
X80112778Y-64810000D01*
X80009993Y-64799500D01*
X79209981Y-64799500D01*
X79209963Y-64799501D01*
X79107186Y-64810000D01*
X79107183Y-64810001D01*
X78940651Y-64865185D01*
X78940646Y-64865187D01*
X78791325Y-64957289D01*
X78667272Y-65081342D01*
X78575170Y-65230663D01*
X78575169Y-65230666D01*
X78559751Y-65277196D01*
X78555672Y-65289505D01*
X78515899Y-65346949D01*
X78451383Y-65373772D01*
X78437966Y-65374500D01*
X77238308Y-65374500D01*
X77171269Y-65354815D01*
X77125514Y-65302011D01*
X77117797Y-65277196D01*
X77117591Y-65277252D01*
X77116199Y-65272059D01*
X77116193Y-65272038D01*
X77116191Y-65272027D01*
X77059560Y-65060677D01*
X77059559Y-65060676D01*
X77059558Y-65060670D01*
X76967085Y-64862362D01*
X76967082Y-64862358D01*
X76967082Y-64862357D01*
X76841582Y-64683124D01*
X76841579Y-64683121D01*
X76686860Y-64528402D01*
X76592101Y-64462051D01*
X76548478Y-64407475D01*
X76541286Y-64337977D01*
X76572808Y-64275622D01*
X76633038Y-64240209D01*
X76643829Y-64238005D01*
X76685461Y-64231411D01*
X76861351Y-64203553D01*
X77085975Y-64130568D01*
X77296416Y-64023343D01*
X77487493Y-63884517D01*
X77654500Y-63717510D01*
X77793326Y-63526433D01*
X77900551Y-63315992D01*
X77973536Y-63091368D01*
X78010483Y-62858097D01*
X78010483Y-62621902D01*
X77973536Y-62388631D01*
X77900549Y-62164003D01*
X77793325Y-61953566D01*
X77654500Y-61762490D01*
X77487493Y-61595483D01*
X77296416Y-61456657D01*
X77254175Y-61435134D01*
X77085979Y-61349433D01*
X76861351Y-61276446D01*
X76643829Y-61241994D01*
X76580694Y-61212065D01*
X76543763Y-61152753D01*
X76544761Y-61082890D01*
X76583371Y-61024658D01*
X76592089Y-61017956D01*
X76686860Y-60951598D01*
X76841581Y-60796877D01*
X76909069Y-60700495D01*
X76924557Y-60678376D01*
X76979134Y-60634751D01*
X77026131Y-60625500D01*
X78437966Y-60625500D01*
X78505005Y-60645185D01*
G37*
%TD.AperFunction*%
%TA.AperFunction,Conductor*%
G36*
X94501691Y-60635185D02*
G01*
X94547446Y-60687989D01*
X94552358Y-60700495D01*
X94575169Y-60769333D01*
X94575170Y-60769336D01*
X94592158Y-60796878D01*
X94667271Y-60918656D01*
X94791327Y-61042712D01*
X94940649Y-61134814D01*
X95107186Y-61189999D01*
X95209974Y-61200500D01*
X96009991Y-61200499D01*
X96009999Y-61200498D01*
X96010002Y-61200498D01*
X96066285Y-61194748D01*
X96112780Y-61189999D01*
X96279317Y-61134814D01*
X96428639Y-61042712D01*
X96522302Y-60949049D01*
X96583625Y-60915564D01*
X96653317Y-60920548D01*
X96697664Y-60949049D01*
X96791327Y-61042712D01*
X96925580Y-61125519D01*
X96972304Y-61177465D01*
X96984483Y-61231057D01*
X96984483Y-64768942D01*
X96964798Y-64835981D01*
X96925581Y-64874479D01*
X96839192Y-64927764D01*
X96791325Y-64957289D01*
X96697664Y-65050951D01*
X96636341Y-65084436D01*
X96566649Y-65079452D01*
X96522302Y-65050951D01*
X96428640Y-64957289D01*
X96428639Y-64957288D01*
X96279317Y-64865186D01*
X96112780Y-64810001D01*
X96112778Y-64810000D01*
X96009993Y-64799500D01*
X95209981Y-64799500D01*
X95209963Y-64799501D01*
X95107186Y-64810000D01*
X95107183Y-64810001D01*
X94940651Y-64865185D01*
X94940646Y-64865187D01*
X94791325Y-64957289D01*
X94667272Y-65081342D01*
X94575170Y-65230663D01*
X94575169Y-65230666D01*
X94559751Y-65277196D01*
X94555672Y-65289505D01*
X94515899Y-65346949D01*
X94451383Y-65373772D01*
X94437966Y-65374500D01*
X93238308Y-65374500D01*
X93171269Y-65354815D01*
X93125514Y-65302011D01*
X93117797Y-65277196D01*
X93117591Y-65277252D01*
X93116199Y-65272059D01*
X93116193Y-65272038D01*
X93116191Y-65272027D01*
X93059560Y-65060677D01*
X93059559Y-65060676D01*
X93059558Y-65060670D01*
X92967085Y-64862362D01*
X92967082Y-64862358D01*
X92967082Y-64862357D01*
X92841582Y-64683124D01*
X92841579Y-64683121D01*
X92686860Y-64528402D01*
X92592101Y-64462051D01*
X92548478Y-64407475D01*
X92541286Y-64337977D01*
X92572808Y-64275622D01*
X92633038Y-64240209D01*
X92643829Y-64238005D01*
X92685461Y-64231411D01*
X92861351Y-64203553D01*
X93085975Y-64130568D01*
X93296416Y-64023343D01*
X93487493Y-63884517D01*
X93654500Y-63717510D01*
X93793326Y-63526433D01*
X93900551Y-63315992D01*
X93973536Y-63091368D01*
X94010483Y-62858097D01*
X94010483Y-62621902D01*
X93973536Y-62388631D01*
X93900549Y-62164003D01*
X93793325Y-61953566D01*
X93654500Y-61762490D01*
X93487493Y-61595483D01*
X93296416Y-61456657D01*
X93254175Y-61435134D01*
X93085979Y-61349433D01*
X92861351Y-61276446D01*
X92643829Y-61241994D01*
X92580694Y-61212065D01*
X92543763Y-61152753D01*
X92544761Y-61082890D01*
X92583371Y-61024658D01*
X92592089Y-61017956D01*
X92686860Y-60951598D01*
X92841581Y-60796877D01*
X92931558Y-60668375D01*
X92986134Y-60624752D01*
X93033132Y-60615500D01*
X94434652Y-60615500D01*
X94501691Y-60635185D01*
G37*
%TD.AperFunction*%
%TA.AperFunction,Conductor*%
G36*
X106383107Y-60679570D02*
G01*
X106426649Y-60617388D01*
X106497323Y-60465825D01*
X106543495Y-60413386D01*
X106610689Y-60394233D01*
X106677570Y-60414448D01*
X106722088Y-60465824D01*
X106792880Y-60617638D01*
X106798385Y-60625500D01*
X106918385Y-60796877D01*
X107073106Y-60951598D01*
X107252344Y-61077102D01*
X107450653Y-61169575D01*
X107662006Y-61226207D01*
X107670324Y-61226934D01*
X107735391Y-61252381D01*
X107776373Y-61308970D01*
X107780256Y-61378731D01*
X107745806Y-61439518D01*
X107727460Y-61453749D01*
X107727492Y-61453793D01*
X107726101Y-61454803D01*
X107724328Y-61456179D01*
X107723559Y-61456649D01*
X107584516Y-61557670D01*
X107532473Y-61595483D01*
X107532471Y-61595485D01*
X107532470Y-61595485D01*
X107365468Y-61762487D01*
X107365468Y-61762488D01*
X107365466Y-61762490D01*
X107305845Y-61844550D01*
X107226640Y-61953566D01*
X107119416Y-62164003D01*
X107046429Y-62388631D01*
X107009483Y-62621902D01*
X107009483Y-62858097D01*
X107046429Y-63091368D01*
X107119416Y-63315996D01*
X107226640Y-63526433D01*
X107365466Y-63717510D01*
X107532473Y-63884517D01*
X107707371Y-64011588D01*
X107723550Y-64023343D01*
X107724312Y-64023810D01*
X107724540Y-64024062D01*
X107727492Y-64026207D01*
X107727041Y-64026827D01*
X107771187Y-64075623D01*
X107782608Y-64144553D01*
X107754951Y-64208715D01*
X107696995Y-64247739D01*
X107670330Y-64253064D01*
X107662006Y-64253793D01*
X107662003Y-64253793D01*
X107450660Y-64310422D01*
X107450651Y-64310426D01*
X107252344Y-64402898D01*
X107252340Y-64402900D01*
X107073104Y-64528402D01*
X106918385Y-64683121D01*
X106792883Y-64862357D01*
X106792883Y-64862358D01*
X106792881Y-64862361D01*
X106792881Y-64862362D01*
X106791884Y-64864500D01*
X106722088Y-65014176D01*
X106675915Y-65066615D01*
X106608721Y-65085766D01*
X106541840Y-65065550D01*
X106497324Y-65014175D01*
X106426650Y-64862614D01*
X106426649Y-64862612D01*
X106383107Y-64800428D01*
X106383107Y-64800427D01*
X105822945Y-65360589D01*
X105805908Y-65297007D01*
X105740082Y-65182993D01*
X105646990Y-65089901D01*
X105532976Y-65024075D01*
X105469392Y-65007037D01*
X106029554Y-64446874D01*
X105967370Y-64403333D01*
X105769142Y-64310898D01*
X105769133Y-64310894D01*
X105557877Y-64254289D01*
X105557870Y-64254288D01*
X105548912Y-64253504D01*
X105483845Y-64228047D01*
X105442869Y-64171454D01*
X105438995Y-64101692D01*
X105473452Y-64040910D01*
X105494957Y-64024236D01*
X105496397Y-64023352D01*
X105496416Y-64023343D01*
X105687493Y-63884517D01*
X105854500Y-63717510D01*
X105993326Y-63526433D01*
X106100551Y-63315992D01*
X106173536Y-63091368D01*
X106210483Y-62858097D01*
X106210483Y-62621902D01*
X106173536Y-62388631D01*
X106100549Y-62164003D01*
X105993325Y-61953566D01*
X105854500Y-61762490D01*
X105687493Y-61595483D01*
X105496416Y-61456657D01*
X105496410Y-61456654D01*
X105494943Y-61455755D01*
X105494498Y-61455264D01*
X105492474Y-61453793D01*
X105492782Y-61453367D01*
X105448064Y-61403946D01*
X105436637Y-61335017D01*
X105464290Y-61270852D01*
X105522243Y-61231824D01*
X105548920Y-61226495D01*
X105557866Y-61225712D01*
X105557877Y-61225710D01*
X105769133Y-61169105D01*
X105769147Y-61169100D01*
X105967366Y-61076669D01*
X105967368Y-61076668D01*
X106029554Y-61033124D01*
X105469393Y-60472962D01*
X105532976Y-60455925D01*
X105646990Y-60390099D01*
X105740082Y-60297007D01*
X105805908Y-60182993D01*
X105822945Y-60119409D01*
X106383107Y-60679570D01*
G37*
%TD.AperFunction*%
%TA.AperFunction,Conductor*%
G36*
X122383107Y-60679570D02*
G01*
X122426649Y-60617388D01*
X122497323Y-60465825D01*
X122543495Y-60413386D01*
X122610689Y-60394233D01*
X122677570Y-60414448D01*
X122722088Y-60465824D01*
X122792880Y-60617638D01*
X122798385Y-60625500D01*
X122918385Y-60796877D01*
X123073106Y-60951598D01*
X123252344Y-61077102D01*
X123450653Y-61169575D01*
X123662006Y-61226207D01*
X123670324Y-61226934D01*
X123735391Y-61252381D01*
X123776373Y-61308970D01*
X123780256Y-61378731D01*
X123745806Y-61439518D01*
X123727460Y-61453749D01*
X123727492Y-61453793D01*
X123726101Y-61454803D01*
X123724328Y-61456179D01*
X123723559Y-61456649D01*
X123584516Y-61557670D01*
X123532473Y-61595483D01*
X123532471Y-61595485D01*
X123532470Y-61595485D01*
X123365468Y-61762487D01*
X123365468Y-61762488D01*
X123365466Y-61762490D01*
X123305845Y-61844550D01*
X123226640Y-61953566D01*
X123119416Y-62164003D01*
X123046429Y-62388631D01*
X123009483Y-62621902D01*
X123009483Y-62858097D01*
X123046429Y-63091368D01*
X123119416Y-63315996D01*
X123226640Y-63526433D01*
X123365466Y-63717510D01*
X123532473Y-63884517D01*
X123707371Y-64011588D01*
X123723550Y-64023343D01*
X123724312Y-64023810D01*
X123724540Y-64024062D01*
X123727492Y-64026207D01*
X123727041Y-64026827D01*
X123771187Y-64075623D01*
X123782608Y-64144553D01*
X123754951Y-64208715D01*
X123696995Y-64247739D01*
X123670330Y-64253064D01*
X123662006Y-64253793D01*
X123662003Y-64253793D01*
X123450660Y-64310422D01*
X123450651Y-64310426D01*
X123252344Y-64402898D01*
X123252340Y-64402900D01*
X123073104Y-64528402D01*
X122918385Y-64683121D01*
X122792883Y-64862357D01*
X122792883Y-64862358D01*
X122792881Y-64862361D01*
X122792881Y-64862362D01*
X122791884Y-64864500D01*
X122722088Y-65014176D01*
X122675915Y-65066615D01*
X122608721Y-65085766D01*
X122541840Y-65065550D01*
X122497324Y-65014175D01*
X122426650Y-64862614D01*
X122426649Y-64862612D01*
X122383107Y-64800428D01*
X122383107Y-64800427D01*
X121822945Y-65360589D01*
X121805908Y-65297007D01*
X121740082Y-65182993D01*
X121646990Y-65089901D01*
X121532976Y-65024075D01*
X121469392Y-65007037D01*
X122029554Y-64446874D01*
X121967370Y-64403333D01*
X121769142Y-64310898D01*
X121769133Y-64310894D01*
X121557877Y-64254289D01*
X121557870Y-64254288D01*
X121548912Y-64253504D01*
X121483845Y-64228047D01*
X121442869Y-64171454D01*
X121438995Y-64101692D01*
X121473452Y-64040910D01*
X121494957Y-64024236D01*
X121496397Y-64023352D01*
X121496416Y-64023343D01*
X121687493Y-63884517D01*
X121854500Y-63717510D01*
X121993326Y-63526433D01*
X122100551Y-63315992D01*
X122173536Y-63091368D01*
X122210483Y-62858097D01*
X122210483Y-62621902D01*
X122173536Y-62388631D01*
X122100549Y-62164003D01*
X121993325Y-61953566D01*
X121854500Y-61762490D01*
X121687493Y-61595483D01*
X121496416Y-61456657D01*
X121496410Y-61456654D01*
X121494943Y-61455755D01*
X121494498Y-61455264D01*
X121492474Y-61453793D01*
X121492782Y-61453367D01*
X121448064Y-61403946D01*
X121436637Y-61335017D01*
X121464290Y-61270852D01*
X121522243Y-61231824D01*
X121548920Y-61226495D01*
X121557866Y-61225712D01*
X121557877Y-61225710D01*
X121769133Y-61169105D01*
X121769147Y-61169100D01*
X121967366Y-61076669D01*
X121967368Y-61076668D01*
X122029553Y-61033124D01*
X121469392Y-60472962D01*
X121532976Y-60455925D01*
X121646990Y-60390099D01*
X121740082Y-60297007D01*
X121805908Y-60182993D01*
X121822945Y-60119409D01*
X122383107Y-60679570D01*
G37*
%TD.AperFunction*%
%TA.AperFunction,Conductor*%
G36*
X110505005Y-60645185D02*
G01*
X110550760Y-60697989D01*
X110555672Y-60710495D01*
X110575169Y-60769333D01*
X110575170Y-60769336D01*
X110592158Y-60796878D01*
X110667271Y-60918656D01*
X110791327Y-61042712D01*
X110940649Y-61134814D01*
X111107186Y-61189999D01*
X111209974Y-61200500D01*
X112009991Y-61200499D01*
X112009999Y-61200498D01*
X112010002Y-61200498D01*
X112066285Y-61194748D01*
X112112780Y-61189999D01*
X112279317Y-61134814D01*
X112428639Y-61042712D01*
X112522302Y-60949049D01*
X112583625Y-60915564D01*
X112653317Y-60920548D01*
X112697664Y-60949049D01*
X112791327Y-61042712D01*
X112925580Y-61125519D01*
X112972304Y-61177465D01*
X112984483Y-61231057D01*
X112984483Y-64768942D01*
X112964798Y-64835981D01*
X112925581Y-64874479D01*
X112839192Y-64927764D01*
X112791325Y-64957289D01*
X112697664Y-65050951D01*
X112636341Y-65084436D01*
X112566649Y-65079452D01*
X112522302Y-65050951D01*
X112428640Y-64957289D01*
X112428639Y-64957288D01*
X112279317Y-64865186D01*
X112112780Y-64810001D01*
X112112778Y-64810000D01*
X112009993Y-64799500D01*
X111209981Y-64799500D01*
X111209963Y-64799501D01*
X111107186Y-64810000D01*
X111107183Y-64810001D01*
X110961713Y-64858206D01*
X110922709Y-64864500D01*
X109033133Y-64864500D01*
X108966094Y-64844815D01*
X108931558Y-64811623D01*
X108841582Y-64683124D01*
X108841579Y-64683121D01*
X108686860Y-64528402D01*
X108592101Y-64462051D01*
X108548478Y-64407475D01*
X108541286Y-64337977D01*
X108572808Y-64275622D01*
X108633038Y-64240209D01*
X108643829Y-64238005D01*
X108685461Y-64231411D01*
X108861351Y-64203553D01*
X109085975Y-64130568D01*
X109296416Y-64023343D01*
X109487493Y-63884517D01*
X109654500Y-63717510D01*
X109793326Y-63526433D01*
X109900551Y-63315992D01*
X109973536Y-63091368D01*
X110010483Y-62858097D01*
X110010483Y-62621902D01*
X109973536Y-62388631D01*
X109900549Y-62164003D01*
X109793325Y-61953566D01*
X109654500Y-61762490D01*
X109487493Y-61595483D01*
X109296416Y-61456657D01*
X109254175Y-61435134D01*
X109085979Y-61349433D01*
X108861351Y-61276446D01*
X108643829Y-61241994D01*
X108580694Y-61212065D01*
X108543763Y-61152753D01*
X108544761Y-61082890D01*
X108583371Y-61024658D01*
X108592089Y-61017956D01*
X108686860Y-60951598D01*
X108841581Y-60796877D01*
X108909069Y-60700495D01*
X108924557Y-60678376D01*
X108979134Y-60634751D01*
X109026131Y-60625500D01*
X110437966Y-60625500D01*
X110505005Y-60645185D01*
G37*
%TD.AperFunction*%
%TA.AperFunction,Conductor*%
G36*
X136071770Y-59560185D02*
G01*
X136117525Y-59612989D01*
X136127469Y-59682147D01*
X136124506Y-59696593D01*
X136104272Y-59772105D01*
X136104270Y-59772115D01*
X136085208Y-59989999D01*
X136085208Y-59990000D01*
X136104270Y-60207884D01*
X136104272Y-60207894D01*
X136160877Y-60419150D01*
X136160881Y-60419159D01*
X136253316Y-60617387D01*
X136296857Y-60679571D01*
X136857020Y-60119408D01*
X136874058Y-60182993D01*
X136939884Y-60297007D01*
X137032976Y-60390099D01*
X137146990Y-60455925D01*
X137210573Y-60472962D01*
X136650410Y-61033124D01*
X136651592Y-61046631D01*
X136672197Y-61072409D01*
X136679391Y-61141908D01*
X136647868Y-61204263D01*
X136587639Y-61239677D01*
X136576848Y-61241881D01*
X136358613Y-61276447D01*
X136133986Y-61349433D01*
X135923549Y-61456657D01*
X135814533Y-61535862D01*
X135732473Y-61595483D01*
X135732471Y-61595485D01*
X135732470Y-61595485D01*
X135565468Y-61762487D01*
X135565468Y-61762488D01*
X135565466Y-61762490D01*
X135505845Y-61844550D01*
X135426640Y-61953566D01*
X135319416Y-62164003D01*
X135246429Y-62388631D01*
X135209483Y-62621902D01*
X135209483Y-62858097D01*
X135246429Y-63091368D01*
X135319416Y-63315996D01*
X135426642Y-63526436D01*
X135491993Y-63616385D01*
X135515473Y-63682191D01*
X135499647Y-63750245D01*
X135449542Y-63798940D01*
X135415869Y-63810887D01*
X135402550Y-63813536D01*
X135402547Y-63813537D01*
X135288716Y-63860687D01*
X135186265Y-63929142D01*
X135186262Y-63929145D01*
X134352227Y-64763181D01*
X134290904Y-64796666D01*
X134264546Y-64799500D01*
X133599998Y-64799500D01*
X133599980Y-64799501D01*
X133497203Y-64810000D01*
X133497200Y-64810001D01*
X133330668Y-64865185D01*
X133330663Y-64865187D01*
X133181342Y-64957289D01*
X133087681Y-65050951D01*
X133026358Y-65084436D01*
X132956666Y-65079452D01*
X132912319Y-65050951D01*
X132818657Y-64957289D01*
X132818656Y-64957288D01*
X132684402Y-64874480D01*
X132637679Y-64822533D01*
X132625500Y-64768942D01*
X132625500Y-61231057D01*
X132645185Y-61164018D01*
X132684401Y-61125520D01*
X132818656Y-61042712D01*
X132912319Y-60949049D01*
X132973642Y-60915564D01*
X133043334Y-60920548D01*
X133087681Y-60949049D01*
X133181344Y-61042712D01*
X133330666Y-61134814D01*
X133497203Y-61189999D01*
X133599991Y-61200500D01*
X134400008Y-61200499D01*
X134400016Y-61200498D01*
X134400019Y-61200498D01*
X134456302Y-61194748D01*
X134502797Y-61189999D01*
X134669334Y-61134814D01*
X134818656Y-61042712D01*
X134942712Y-60918656D01*
X135034814Y-60769334D01*
X135089999Y-60602797D01*
X135100500Y-60500009D01*
X135100499Y-60335451D01*
X135120183Y-60268412D01*
X135136813Y-60247775D01*
X135807772Y-59576819D01*
X135869095Y-59543334D01*
X135895453Y-59540500D01*
X136004731Y-59540500D01*
X136071770Y-59560185D01*
G37*
%TD.AperFunction*%
%TA.AperFunction,Conductor*%
G36*
X75354938Y-58645185D02*
G01*
X75400693Y-58697989D01*
X75410637Y-58767147D01*
X75381612Y-58830703D01*
X75340304Y-58861881D01*
X75333218Y-58865186D01*
X75252344Y-58902898D01*
X75252340Y-58902900D01*
X75073104Y-59028402D01*
X74918385Y-59183121D01*
X74792883Y-59362357D01*
X74792883Y-59362358D01*
X74792881Y-59362361D01*
X74792881Y-59362362D01*
X74791884Y-59364500D01*
X74722088Y-59514176D01*
X74675915Y-59566615D01*
X74608721Y-59585766D01*
X74541840Y-59565550D01*
X74497324Y-59514175D01*
X74426650Y-59362614D01*
X74426649Y-59362612D01*
X74383107Y-59300428D01*
X74383107Y-59300427D01*
X73822945Y-59860589D01*
X73805908Y-59797007D01*
X73740082Y-59682993D01*
X73646990Y-59589901D01*
X73532976Y-59524075D01*
X73469392Y-59507037D01*
X74029554Y-58946874D01*
X73967369Y-58903332D01*
X73967367Y-58903331D01*
X73878479Y-58861882D01*
X73826039Y-58815710D01*
X73806887Y-58748516D01*
X73827103Y-58681635D01*
X73880268Y-58636301D01*
X73930883Y-58625500D01*
X75287899Y-58625500D01*
X75354938Y-58645185D01*
G37*
%TD.AperFunction*%
%TA.AperFunction,Conductor*%
G36*
X91354938Y-58645185D02*
G01*
X91400693Y-58697989D01*
X91410637Y-58767147D01*
X91381612Y-58830703D01*
X91340304Y-58861881D01*
X91333218Y-58865186D01*
X91252344Y-58902898D01*
X91252340Y-58902900D01*
X91073104Y-59028402D01*
X90918385Y-59183121D01*
X90792883Y-59362357D01*
X90792883Y-59362358D01*
X90792881Y-59362361D01*
X90792881Y-59362362D01*
X90791884Y-59364500D01*
X90722088Y-59514176D01*
X90675915Y-59566615D01*
X90608721Y-59585766D01*
X90541840Y-59565550D01*
X90497324Y-59514175D01*
X90426650Y-59362614D01*
X90426649Y-59362612D01*
X90383107Y-59300428D01*
X90383107Y-59300427D01*
X89822945Y-59860589D01*
X89805908Y-59797007D01*
X89740082Y-59682993D01*
X89646990Y-59589901D01*
X89532976Y-59524075D01*
X89469392Y-59507037D01*
X90029554Y-58946874D01*
X89967369Y-58903332D01*
X89967367Y-58903331D01*
X89878479Y-58861882D01*
X89826039Y-58815710D01*
X89806887Y-58748516D01*
X89827103Y-58681635D01*
X89880268Y-58636301D01*
X89930883Y-58625500D01*
X91287899Y-58625500D01*
X91354938Y-58645185D01*
G37*
%TD.AperFunction*%
%TA.AperFunction,Conductor*%
G36*
X107354938Y-58645185D02*
G01*
X107400693Y-58697989D01*
X107410637Y-58767147D01*
X107381612Y-58830703D01*
X107340304Y-58861881D01*
X107333218Y-58865186D01*
X107252344Y-58902898D01*
X107252340Y-58902900D01*
X107073104Y-59028402D01*
X106918385Y-59183121D01*
X106792883Y-59362357D01*
X106792883Y-59362358D01*
X106792881Y-59362361D01*
X106792881Y-59362362D01*
X106791884Y-59364500D01*
X106722088Y-59514176D01*
X106675915Y-59566615D01*
X106608721Y-59585766D01*
X106541840Y-59565550D01*
X106497324Y-59514175D01*
X106426650Y-59362614D01*
X106426649Y-59362612D01*
X106383107Y-59300428D01*
X106383107Y-59300427D01*
X105822945Y-59860589D01*
X105805908Y-59797007D01*
X105740082Y-59682993D01*
X105646990Y-59589901D01*
X105532976Y-59524075D01*
X105469392Y-59507037D01*
X106029554Y-58946874D01*
X105967369Y-58903332D01*
X105967367Y-58903331D01*
X105878479Y-58861882D01*
X105826039Y-58815710D01*
X105806887Y-58748516D01*
X105827103Y-58681635D01*
X105880268Y-58636301D01*
X105930883Y-58625500D01*
X107287899Y-58625500D01*
X107354938Y-58645185D01*
G37*
%TD.AperFunction*%
%TA.AperFunction,Conductor*%
G36*
X123354938Y-58645185D02*
G01*
X123400693Y-58697989D01*
X123410637Y-58767147D01*
X123381612Y-58830703D01*
X123340304Y-58861881D01*
X123333218Y-58865186D01*
X123252344Y-58902898D01*
X123252340Y-58902900D01*
X123073104Y-59028402D01*
X122918385Y-59183121D01*
X122792883Y-59362357D01*
X122792883Y-59362358D01*
X122792881Y-59362361D01*
X122792881Y-59362362D01*
X122791884Y-59364500D01*
X122722088Y-59514176D01*
X122675915Y-59566615D01*
X122608721Y-59585766D01*
X122541840Y-59565550D01*
X122497324Y-59514175D01*
X122426650Y-59362614D01*
X122426649Y-59362612D01*
X122383107Y-59300428D01*
X122383107Y-59300427D01*
X121822945Y-59860589D01*
X121805908Y-59797007D01*
X121740082Y-59682993D01*
X121646990Y-59589901D01*
X121532976Y-59524075D01*
X121469392Y-59507037D01*
X122029554Y-58946874D01*
X121967369Y-58903332D01*
X121967367Y-58903331D01*
X121878479Y-58861882D01*
X121826039Y-58815710D01*
X121806887Y-58748516D01*
X121827103Y-58681635D01*
X121880268Y-58636301D01*
X121930883Y-58625500D01*
X123287899Y-58625500D01*
X123354938Y-58645185D01*
G37*
%TD.AperFunction*%
%TD*%
%TA.AperFunction,NonConductor*%
G36*
X138383107Y-60679570D02*
G01*
X138426649Y-60617388D01*
X138497323Y-60465825D01*
X138543495Y-60413386D01*
X138610689Y-60394233D01*
X138677570Y-60414448D01*
X138722088Y-60465824D01*
X138792880Y-60617638D01*
X138798385Y-60625500D01*
X138918385Y-60796877D01*
X139073106Y-60951598D01*
X139252344Y-61077102D01*
X139450653Y-61169575D01*
X139662006Y-61226207D01*
X139670324Y-61226934D01*
X139735391Y-61252381D01*
X139776373Y-61308970D01*
X139780256Y-61378731D01*
X139745806Y-61439518D01*
X139727460Y-61453749D01*
X139727492Y-61453793D01*
X139726101Y-61454803D01*
X139724328Y-61456179D01*
X139723559Y-61456649D01*
X139584516Y-61557670D01*
X139532473Y-61595483D01*
X139532471Y-61595485D01*
X139532470Y-61595485D01*
X139365468Y-61762487D01*
X139365468Y-61762488D01*
X139365466Y-61762490D01*
X139305845Y-61844550D01*
X139226640Y-61953566D01*
X139119416Y-62164003D01*
X139046429Y-62388631D01*
X139009483Y-62621902D01*
X139009483Y-62858097D01*
X139046429Y-63091368D01*
X139119416Y-63315996D01*
X139226640Y-63526433D01*
X139365466Y-63717510D01*
X139532473Y-63884517D01*
X139707371Y-64011588D01*
X139723550Y-64023343D01*
X139724312Y-64023810D01*
X139724540Y-64024062D01*
X139727492Y-64026207D01*
X139727041Y-64026827D01*
X139771187Y-64075623D01*
X139782608Y-64144553D01*
X139754951Y-64208715D01*
X139696995Y-64247739D01*
X139670330Y-64253064D01*
X139662006Y-64253793D01*
X139662000Y-64253794D01*
X139625757Y-64263505D01*
X139555907Y-64261841D01*
X139505984Y-64231411D01*
X139297911Y-64023338D01*
X139297908Y-64023334D01*
X139297908Y-64023335D01*
X139290841Y-64016268D01*
X139290841Y-64016267D01*
X139203716Y-63929142D01*
X139203715Y-63929141D01*
X139203714Y-63929140D01*
X139152492Y-63894915D01*
X139101270Y-63860689D01*
X139101269Y-63860688D01*
X139101266Y-63860686D01*
X139101263Y-63860685D01*
X139020775Y-63827347D01*
X138987436Y-63813537D01*
X138977410Y-63811543D01*
X138927012Y-63801518D01*
X138914051Y-63798940D01*
X138866593Y-63789500D01*
X138866590Y-63789500D01*
X138866589Y-63789500D01*
X138045560Y-63789500D01*
X137978521Y-63769815D01*
X137932766Y-63717011D01*
X137922822Y-63647853D01*
X137945241Y-63592615D01*
X137993326Y-63526433D01*
X138100551Y-63315992D01*
X138173536Y-63091368D01*
X138210483Y-62858097D01*
X138210483Y-62621902D01*
X138173536Y-62388631D01*
X138100549Y-62164003D01*
X137993325Y-61953566D01*
X137854500Y-61762490D01*
X137687493Y-61595483D01*
X137496416Y-61456657D01*
X137496410Y-61456654D01*
X137494943Y-61455755D01*
X137494498Y-61455264D01*
X137492474Y-61453793D01*
X137492782Y-61453367D01*
X137448064Y-61403946D01*
X137436637Y-61335017D01*
X137464290Y-61270852D01*
X137522243Y-61231824D01*
X137548920Y-61226495D01*
X137557866Y-61225712D01*
X137557877Y-61225710D01*
X137769133Y-61169105D01*
X137769147Y-61169100D01*
X137967366Y-61076669D01*
X137967368Y-61076668D01*
X138029553Y-61033124D01*
X137469392Y-60472962D01*
X137532976Y-60455925D01*
X137646990Y-60390099D01*
X137740082Y-60297007D01*
X137805908Y-60182993D01*
X137822945Y-60119408D01*
X138383107Y-60679570D01*
G37*
%TD.AperFunction*%
%TA.AperFunction,NonConductor*%
G36*
X90383107Y-60679570D02*
G01*
X90426649Y-60617388D01*
X90497323Y-60465825D01*
X90543495Y-60413386D01*
X90610689Y-60394233D01*
X90677570Y-60414448D01*
X90722088Y-60465824D01*
X90792880Y-60617638D01*
X90798385Y-60625500D01*
X90918385Y-60796877D01*
X91073106Y-60951598D01*
X91252344Y-61077102D01*
X91450653Y-61169575D01*
X91662006Y-61226207D01*
X91670324Y-61226934D01*
X91735391Y-61252381D01*
X91776373Y-61308970D01*
X91780256Y-61378731D01*
X91745806Y-61439518D01*
X91727460Y-61453749D01*
X91727492Y-61453793D01*
X91726101Y-61454803D01*
X91724328Y-61456179D01*
X91723559Y-61456649D01*
X91584516Y-61557670D01*
X91532473Y-61595483D01*
X91532471Y-61595485D01*
X91532470Y-61595485D01*
X91365468Y-61762487D01*
X91365468Y-61762488D01*
X91365466Y-61762490D01*
X91305845Y-61844550D01*
X91226640Y-61953566D01*
X91119416Y-62164003D01*
X91046429Y-62388631D01*
X91009483Y-62621902D01*
X91009483Y-62858097D01*
X91046429Y-63091368D01*
X91119416Y-63315996D01*
X91226640Y-63526433D01*
X91365466Y-63717510D01*
X91532473Y-63884517D01*
X91707371Y-64011588D01*
X91723550Y-64023343D01*
X91724312Y-64023810D01*
X91724540Y-64024062D01*
X91727492Y-64026207D01*
X91727041Y-64026827D01*
X91771187Y-64075623D01*
X91782608Y-64144553D01*
X91754951Y-64208715D01*
X91696995Y-64247739D01*
X91670330Y-64253064D01*
X91662006Y-64253793D01*
X91662003Y-64253793D01*
X91450660Y-64310422D01*
X91450651Y-64310426D01*
X91252344Y-64402898D01*
X91252340Y-64402900D01*
X91073104Y-64528402D01*
X90918385Y-64683121D01*
X90792883Y-64862357D01*
X90792883Y-64862358D01*
X90792881Y-64862361D01*
X90792881Y-64862362D01*
X90791884Y-64864500D01*
X90722088Y-65014176D01*
X90675915Y-65066615D01*
X90608721Y-65085766D01*
X90541840Y-65065550D01*
X90497324Y-65014175D01*
X90426650Y-64862614D01*
X90426649Y-64862612D01*
X90383107Y-64800428D01*
X90383107Y-64800427D01*
X89822945Y-65360589D01*
X89805908Y-65297007D01*
X89740082Y-65182993D01*
X89646990Y-65089901D01*
X89532976Y-65024075D01*
X89469392Y-65007037D01*
X90029554Y-64446874D01*
X89967370Y-64403333D01*
X89769142Y-64310898D01*
X89769133Y-64310894D01*
X89557877Y-64254289D01*
X89557870Y-64254288D01*
X89548912Y-64253504D01*
X89483845Y-64228047D01*
X89442869Y-64171454D01*
X89438995Y-64101692D01*
X89473452Y-64040910D01*
X89494957Y-64024236D01*
X89496397Y-64023352D01*
X89496416Y-64023343D01*
X89687493Y-63884517D01*
X89854500Y-63717510D01*
X89993326Y-63526433D01*
X90100551Y-63315992D01*
X90173536Y-63091368D01*
X90210483Y-62858097D01*
X90210483Y-62621902D01*
X90173536Y-62388631D01*
X90100549Y-62164003D01*
X89993325Y-61953566D01*
X89854500Y-61762490D01*
X89687493Y-61595483D01*
X89496416Y-61456657D01*
X89496410Y-61456654D01*
X89494943Y-61455755D01*
X89494498Y-61455264D01*
X89492474Y-61453793D01*
X89492782Y-61453367D01*
X89448064Y-61403946D01*
X89436637Y-61335017D01*
X89464290Y-61270852D01*
X89522243Y-61231824D01*
X89548920Y-61226495D01*
X89557866Y-61225712D01*
X89557877Y-61225710D01*
X89769133Y-61169105D01*
X89769147Y-61169100D01*
X89967366Y-61076669D01*
X89967368Y-61076668D01*
X90029554Y-61033124D01*
X89469393Y-60472962D01*
X89532976Y-60455925D01*
X89646990Y-60390099D01*
X89740082Y-60297007D01*
X89805908Y-60182993D01*
X89822945Y-60119409D01*
X90383107Y-60679570D01*
G37*
%TD.AperFunction*%
%TA.AperFunction,NonConductor*%
G36*
X74383107Y-60679570D02*
G01*
X74426649Y-60617388D01*
X74497323Y-60465825D01*
X74543495Y-60413386D01*
X74610689Y-60394233D01*
X74677570Y-60414448D01*
X74722088Y-60465824D01*
X74792880Y-60617638D01*
X74798385Y-60625500D01*
X74918385Y-60796877D01*
X75073106Y-60951598D01*
X75252344Y-61077102D01*
X75450653Y-61169575D01*
X75662006Y-61226207D01*
X75670324Y-61226934D01*
X75735391Y-61252381D01*
X75776373Y-61308970D01*
X75780256Y-61378731D01*
X75745806Y-61439518D01*
X75727460Y-61453749D01*
X75727492Y-61453793D01*
X75726101Y-61454803D01*
X75724328Y-61456179D01*
X75723559Y-61456649D01*
X75584516Y-61557670D01*
X75532473Y-61595483D01*
X75532471Y-61595485D01*
X75532470Y-61595485D01*
X75365468Y-61762487D01*
X75365468Y-61762488D01*
X75365466Y-61762490D01*
X75305845Y-61844550D01*
X75226640Y-61953566D01*
X75119416Y-62164003D01*
X75046429Y-62388631D01*
X75009483Y-62621902D01*
X75009483Y-62858097D01*
X75046429Y-63091368D01*
X75119416Y-63315996D01*
X75226640Y-63526433D01*
X75365466Y-63717510D01*
X75532473Y-63884517D01*
X75707371Y-64011588D01*
X75723550Y-64023343D01*
X75724312Y-64023810D01*
X75724540Y-64024062D01*
X75727492Y-64026207D01*
X75727041Y-64026827D01*
X75771187Y-64075623D01*
X75782608Y-64144553D01*
X75754951Y-64208715D01*
X75696995Y-64247739D01*
X75670330Y-64253064D01*
X75662006Y-64253793D01*
X75662003Y-64253793D01*
X75450660Y-64310422D01*
X75450651Y-64310426D01*
X75252344Y-64402898D01*
X75252340Y-64402900D01*
X75073104Y-64528402D01*
X74918385Y-64683121D01*
X74792883Y-64862357D01*
X74792883Y-64862358D01*
X74792881Y-64862361D01*
X74792881Y-64862362D01*
X74791884Y-64864500D01*
X74722088Y-65014176D01*
X74675915Y-65066615D01*
X74608721Y-65085766D01*
X74541840Y-65065550D01*
X74497324Y-65014175D01*
X74426650Y-64862614D01*
X74426649Y-64862612D01*
X74383107Y-64800428D01*
X74383107Y-64800427D01*
X73822945Y-65360589D01*
X73805908Y-65297007D01*
X73740082Y-65182993D01*
X73646990Y-65089901D01*
X73532976Y-65024075D01*
X73469392Y-65007037D01*
X74029554Y-64446874D01*
X73967370Y-64403333D01*
X73769142Y-64310898D01*
X73769133Y-64310894D01*
X73557877Y-64254289D01*
X73557870Y-64254288D01*
X73548912Y-64253504D01*
X73483845Y-64228047D01*
X73442869Y-64171454D01*
X73438995Y-64101692D01*
X73473452Y-64040910D01*
X73494957Y-64024236D01*
X73496397Y-64023352D01*
X73496416Y-64023343D01*
X73687493Y-63884517D01*
X73854500Y-63717510D01*
X73993326Y-63526433D01*
X74100551Y-63315992D01*
X74173536Y-63091368D01*
X74210483Y-62858097D01*
X74210483Y-62621902D01*
X74173536Y-62388631D01*
X74100549Y-62164003D01*
X73993325Y-61953566D01*
X73854500Y-61762490D01*
X73687493Y-61595483D01*
X73496416Y-61456657D01*
X73496410Y-61456654D01*
X73494943Y-61455755D01*
X73494498Y-61455264D01*
X73492474Y-61453793D01*
X73492782Y-61453367D01*
X73448064Y-61403946D01*
X73436637Y-61335017D01*
X73464290Y-61270852D01*
X73522243Y-61231824D01*
X73548920Y-61226495D01*
X73557866Y-61225712D01*
X73557877Y-61225710D01*
X73769133Y-61169105D01*
X73769147Y-61169100D01*
X73967366Y-61076669D01*
X73967368Y-61076668D01*
X74029553Y-61033124D01*
X73469392Y-60472962D01*
X73532976Y-60455925D01*
X73646990Y-60390099D01*
X73740082Y-60297007D01*
X73805908Y-60182993D01*
X73822945Y-60119409D01*
X74383107Y-60679570D01*
G37*
%TD.AperFunction*%
%TA.AperFunction,NonConductor*%
G36*
X126505005Y-60645185D02*
G01*
X126550760Y-60697989D01*
X126555672Y-60710495D01*
X126575169Y-60769333D01*
X126575170Y-60769336D01*
X126592158Y-60796878D01*
X126667271Y-60918656D01*
X126791327Y-61042712D01*
X126940649Y-61134814D01*
X127107186Y-61189999D01*
X127209974Y-61200500D01*
X128009991Y-61200499D01*
X128009999Y-61200498D01*
X128010002Y-61200498D01*
X128066285Y-61194748D01*
X128112780Y-61189999D01*
X128279317Y-61134814D01*
X128428639Y-61042712D01*
X128522302Y-60949049D01*
X128583625Y-60915564D01*
X128653317Y-60920548D01*
X128697664Y-60949049D01*
X128791327Y-61042712D01*
X128925580Y-61125519D01*
X128972304Y-61177465D01*
X128984483Y-61231057D01*
X128984483Y-64768942D01*
X128964798Y-64835981D01*
X128925581Y-64874479D01*
X128839192Y-64927764D01*
X128791325Y-64957289D01*
X128697664Y-65050951D01*
X128636341Y-65084436D01*
X128566649Y-65079452D01*
X128522302Y-65050951D01*
X128428640Y-64957289D01*
X128428639Y-64957288D01*
X128279317Y-64865186D01*
X128112780Y-64810001D01*
X128112778Y-64810000D01*
X128009993Y-64799500D01*
X127209981Y-64799500D01*
X127209963Y-64799501D01*
X127107186Y-64810000D01*
X127107183Y-64810001D01*
X126940651Y-64865185D01*
X126940646Y-64865187D01*
X126791325Y-64957289D01*
X126667272Y-65081342D01*
X126575170Y-65230663D01*
X126575169Y-65230666D01*
X126559751Y-65277196D01*
X126555672Y-65289505D01*
X126515899Y-65346949D01*
X126451383Y-65373772D01*
X126437966Y-65374500D01*
X125238308Y-65374500D01*
X125171269Y-65354815D01*
X125125514Y-65302011D01*
X125117797Y-65277196D01*
X125117591Y-65277252D01*
X125116199Y-65272059D01*
X125116193Y-65272038D01*
X125116191Y-65272027D01*
X125059560Y-65060677D01*
X125059559Y-65060676D01*
X125059558Y-65060670D01*
X124967085Y-64862362D01*
X124967082Y-64862358D01*
X124967082Y-64862357D01*
X124841582Y-64683124D01*
X124841579Y-64683121D01*
X124686860Y-64528402D01*
X124592101Y-64462051D01*
X124548478Y-64407475D01*
X124541286Y-64337977D01*
X124572808Y-64275622D01*
X124633038Y-64240209D01*
X124643829Y-64238005D01*
X124685461Y-64231411D01*
X124861351Y-64203553D01*
X125085975Y-64130568D01*
X125296416Y-64023343D01*
X125487493Y-63884517D01*
X125654500Y-63717510D01*
X125793326Y-63526433D01*
X125900551Y-63315992D01*
X125973536Y-63091368D01*
X126010483Y-62858097D01*
X126010483Y-62621902D01*
X125973536Y-62388631D01*
X125900549Y-62164003D01*
X125793325Y-61953566D01*
X125654500Y-61762490D01*
X125487493Y-61595483D01*
X125296416Y-61456657D01*
X125254175Y-61435134D01*
X125085979Y-61349433D01*
X124861351Y-61276446D01*
X124643829Y-61241994D01*
X124580694Y-61212065D01*
X124543763Y-61152753D01*
X124544761Y-61082890D01*
X124583371Y-61024658D01*
X124592089Y-61017956D01*
X124686860Y-60951598D01*
X124841581Y-60796877D01*
X124909069Y-60700495D01*
X124924557Y-60678376D01*
X124979134Y-60634751D01*
X125026131Y-60625500D01*
X126437966Y-60625500D01*
X126505005Y-60645185D01*
G37*
%TD.AperFunction*%
%TA.AperFunction,NonConductor*%
G36*
X120816122Y-58645185D02*
G01*
X120861877Y-58697989D01*
X120871821Y-58767147D01*
X120842796Y-58830703D01*
X120801488Y-58861882D01*
X120712596Y-58903333D01*
X120650411Y-58946874D01*
X121210574Y-59507037D01*
X121146990Y-59524075D01*
X121032976Y-59589901D01*
X120939884Y-59682993D01*
X120874058Y-59797007D01*
X120857020Y-59860591D01*
X120296857Y-59300428D01*
X120253316Y-59362613D01*
X120160881Y-59560840D01*
X120160877Y-59560849D01*
X120104272Y-59772105D01*
X120104270Y-59772115D01*
X120085208Y-59989999D01*
X120085208Y-59990000D01*
X120104270Y-60207884D01*
X120104272Y-60207894D01*
X120160877Y-60419150D01*
X120160881Y-60419159D01*
X120253316Y-60617387D01*
X120296857Y-60679571D01*
X120857020Y-60119408D01*
X120874058Y-60182993D01*
X120939884Y-60297007D01*
X121032976Y-60390099D01*
X121146990Y-60455925D01*
X121210573Y-60472962D01*
X120650410Y-61033124D01*
X120651592Y-61046631D01*
X120672197Y-61072409D01*
X120679391Y-61141908D01*
X120647868Y-61204263D01*
X120587639Y-61239677D01*
X120576848Y-61241881D01*
X120358613Y-61276447D01*
X120133986Y-61349433D01*
X119923549Y-61456657D01*
X119814533Y-61535862D01*
X119732473Y-61595483D01*
X119732471Y-61595485D01*
X119732470Y-61595485D01*
X119565468Y-61762487D01*
X119565468Y-61762488D01*
X119565466Y-61762490D01*
X119505845Y-61844550D01*
X119426640Y-61953566D01*
X119319416Y-62164003D01*
X119246429Y-62388631D01*
X119209483Y-62621902D01*
X119209483Y-62858097D01*
X119246429Y-63091368D01*
X119319416Y-63315996D01*
X119426640Y-63526433D01*
X119565466Y-63717510D01*
X119732473Y-63884517D01*
X119923550Y-64023343D01*
X119983785Y-64054034D01*
X120133986Y-64130566D01*
X120133988Y-64130566D01*
X120133991Y-64130568D01*
X120358615Y-64203553D01*
X120568450Y-64236787D01*
X120576845Y-64238117D01*
X120639979Y-64268046D01*
X120676911Y-64327357D01*
X120675913Y-64397220D01*
X120651538Y-64433981D01*
X120650410Y-64446873D01*
X121210574Y-65007037D01*
X121146990Y-65024075D01*
X121032976Y-65089901D01*
X120939884Y-65182993D01*
X120874058Y-65297007D01*
X120857020Y-65360591D01*
X120296857Y-64800428D01*
X120253316Y-64862613D01*
X120160881Y-65060840D01*
X120160877Y-65060849D01*
X120104272Y-65272105D01*
X120104270Y-65272115D01*
X120085208Y-65489999D01*
X120085208Y-65490000D01*
X120104270Y-65707884D01*
X120104272Y-65707894D01*
X120160877Y-65919150D01*
X120160881Y-65919159D01*
X120253316Y-66117387D01*
X120296857Y-66179571D01*
X120857020Y-65619408D01*
X120874058Y-65682993D01*
X120939884Y-65797007D01*
X121032976Y-65890099D01*
X121146990Y-65955925D01*
X121210573Y-65972962D01*
X120650410Y-66533125D01*
X120655084Y-66586553D01*
X120646594Y-66628793D01*
X120652532Y-66620862D01*
X120717996Y-66596445D01*
X120779247Y-66607747D01*
X120910823Y-66669101D01*
X120910832Y-66669105D01*
X121122088Y-66725710D01*
X121122098Y-66725712D01*
X121339982Y-66744775D01*
X121339984Y-66744775D01*
X121439635Y-66736056D01*
X121508135Y-66749822D01*
X121558318Y-66798437D01*
X121574252Y-66866466D01*
X121550877Y-66932309D01*
X121538124Y-66947265D01*
X121117465Y-67367925D01*
X121056142Y-67401410D01*
X120986451Y-67396426D01*
X120930517Y-67354555D01*
X120908167Y-67304436D01*
X120881642Y-67171092D01*
X120881641Y-67171091D01*
X120881641Y-67171087D01*
X120866616Y-67134814D01*
X120825070Y-67034511D01*
X120825063Y-67034498D01*
X120742934Y-66911584D01*
X120742931Y-66911580D01*
X120639161Y-66807810D01*
X120605676Y-66746487D01*
X120609895Y-66687486D01*
X120592701Y-66705235D01*
X120524673Y-66721168D01*
X120484104Y-66711920D01*
X120378900Y-66668343D01*
X120378890Y-66668340D01*
X120233903Y-66639500D01*
X120233901Y-66639500D01*
X120086065Y-66639500D01*
X120086063Y-66639500D01*
X119941075Y-66668340D01*
X119941065Y-66668343D01*
X119804494Y-66724912D01*
X119804481Y-66724919D01*
X119681567Y-66807048D01*
X119681563Y-66807051D01*
X119577034Y-66911580D01*
X119577031Y-66911584D01*
X119494902Y-67034498D01*
X119494895Y-67034511D01*
X119438326Y-67171082D01*
X119438323Y-67171092D01*
X119409483Y-67316079D01*
X119409483Y-67316082D01*
X119409483Y-67463918D01*
X119409483Y-67463920D01*
X119409482Y-67463920D01*
X119438323Y-67608907D01*
X119438326Y-67608917D01*
X119494895Y-67745488D01*
X119494902Y-67745501D01*
X119577031Y-67868415D01*
X119577034Y-67868419D01*
X119681563Y-67972948D01*
X119681567Y-67972951D01*
X119804481Y-68055080D01*
X119804494Y-68055087D01*
X119920491Y-68103134D01*
X119941070Y-68111658D01*
X119941074Y-68111658D01*
X119941075Y-68111659D01*
X120074420Y-68138184D01*
X120136331Y-68170569D01*
X120170905Y-68231285D01*
X120167165Y-68301055D01*
X120137909Y-68347482D01*
X115647212Y-72838181D01*
X115585889Y-72871666D01*
X115559531Y-72874500D01*
X85928389Y-72874500D01*
X85867971Y-72886518D01*
X85807548Y-72898537D01*
X85807543Y-72898538D01*
X85773546Y-72912620D01*
X85760397Y-72918067D01*
X85738169Y-72927274D01*
X85693713Y-72945688D01*
X85683557Y-72952475D01*
X85683449Y-72952547D01*
X85591268Y-73014140D01*
X85557637Y-73047772D01*
X85504142Y-73101267D01*
X84592180Y-74013229D01*
X84530857Y-74046714D01*
X84461165Y-74041730D01*
X84405232Y-73999858D01*
X84380815Y-73934394D01*
X84380499Y-73925548D01*
X84380499Y-73135453D01*
X84400184Y-73068414D01*
X84416818Y-73047772D01*
X84802772Y-72661819D01*
X84864095Y-72628334D01*
X84890453Y-72625500D01*
X101431590Y-72625500D01*
X101492012Y-72613481D01*
X101552435Y-72601463D01*
X101552438Y-72601461D01*
X101552441Y-72601461D01*
X101585770Y-72587654D01*
X101585769Y-72587654D01*
X101585775Y-72587652D01*
X101666269Y-72554312D01*
X101717492Y-72520084D01*
X101768716Y-72485858D01*
X101855841Y-72398733D01*
X101855842Y-72398731D01*
X101862908Y-72391665D01*
X101862911Y-72391661D01*
X107505985Y-66748586D01*
X107567306Y-66715103D01*
X107625757Y-66716493D01*
X107662006Y-66726207D01*
X107817703Y-66739828D01*
X107879981Y-66745277D01*
X107879983Y-66745277D01*
X107879985Y-66745277D01*
X107908237Y-66742805D01*
X108097960Y-66726207D01*
X108309313Y-66669575D01*
X108507622Y-66577102D01*
X108686860Y-66451598D01*
X108841581Y-66296877D01*
X108931558Y-66168375D01*
X108986134Y-66124752D01*
X109033132Y-66115500D01*
X110385484Y-66115500D01*
X110452523Y-66135185D01*
X110498278Y-66187989D01*
X110509484Y-66239500D01*
X110509484Y-66500018D01*
X110519983Y-66602796D01*
X110519984Y-66602799D01*
X110557660Y-66716495D01*
X110575169Y-66769334D01*
X110667271Y-66918656D01*
X110791327Y-67042712D01*
X110940649Y-67134814D01*
X111107186Y-67189999D01*
X111209974Y-67200500D01*
X112009991Y-67200499D01*
X112009999Y-67200498D01*
X112010002Y-67200498D01*
X112066285Y-67194748D01*
X112112780Y-67189999D01*
X112279317Y-67134814D01*
X112428639Y-67042712D01*
X112522302Y-66949049D01*
X112583625Y-66915564D01*
X112653317Y-66920548D01*
X112697664Y-66949049D01*
X112791327Y-67042712D01*
X112940649Y-67134814D01*
X113107186Y-67189999D01*
X113209974Y-67200500D01*
X114009991Y-67200499D01*
X114009999Y-67200498D01*
X114010002Y-67200498D01*
X114066285Y-67194748D01*
X114112780Y-67189999D01*
X114279317Y-67134814D01*
X114428639Y-67042712D01*
X114552695Y-66918656D01*
X114644797Y-66769334D01*
X114699982Y-66602797D01*
X114710483Y-66500009D01*
X114710482Y-65499992D01*
X114709461Y-65490000D01*
X114699982Y-65397203D01*
X114699981Y-65397200D01*
X114687286Y-65358889D01*
X114644797Y-65230666D01*
X114552695Y-65081344D01*
X114428639Y-64957288D01*
X114294385Y-64874480D01*
X114247662Y-64822533D01*
X114235483Y-64768942D01*
X114235483Y-61231057D01*
X114255168Y-61164018D01*
X114294384Y-61125520D01*
X114428639Y-61042712D01*
X114552695Y-60918656D01*
X114644797Y-60769334D01*
X114699982Y-60602797D01*
X114710483Y-60500009D01*
X114710482Y-59499992D01*
X114709461Y-59490000D01*
X114699982Y-59397203D01*
X114699981Y-59397200D01*
X114682622Y-59344815D01*
X114644797Y-59230666D01*
X114552695Y-59081344D01*
X114428639Y-58957288D01*
X114279317Y-58865186D01*
X114279316Y-58865185D01*
X114272774Y-58862136D01*
X114274069Y-58859357D01*
X114227952Y-58827415D01*
X114201142Y-58762894D01*
X114213470Y-58694121D01*
X114261022Y-58642930D01*
X114324416Y-58625500D01*
X120749083Y-58625500D01*
X120816122Y-58645185D01*
G37*
%TD.AperFunction*%
%TA.AperFunction,NonConductor*%
G36*
X72816122Y-58645185D02*
G01*
X72861877Y-58697989D01*
X72871821Y-58767147D01*
X72842796Y-58830703D01*
X72801488Y-58861882D01*
X72712596Y-58903333D01*
X72650411Y-58946874D01*
X73210574Y-59507037D01*
X73146990Y-59524075D01*
X73032976Y-59589901D01*
X72939884Y-59682993D01*
X72874058Y-59797007D01*
X72857020Y-59860591D01*
X72296857Y-59300428D01*
X72253316Y-59362613D01*
X72160881Y-59560840D01*
X72160877Y-59560849D01*
X72104272Y-59772105D01*
X72104270Y-59772115D01*
X72085208Y-59989999D01*
X72085208Y-59990000D01*
X72104270Y-60207884D01*
X72104272Y-60207894D01*
X72160877Y-60419150D01*
X72160881Y-60419159D01*
X72253316Y-60617387D01*
X72296857Y-60679571D01*
X72857020Y-60119408D01*
X72874058Y-60182993D01*
X72939884Y-60297007D01*
X73032976Y-60390099D01*
X73146990Y-60455925D01*
X73210573Y-60472962D01*
X72650410Y-61033124D01*
X72651592Y-61046631D01*
X72672197Y-61072409D01*
X72679391Y-61141908D01*
X72647868Y-61204263D01*
X72587639Y-61239677D01*
X72576848Y-61241881D01*
X72358613Y-61276447D01*
X72133986Y-61349433D01*
X71923549Y-61456657D01*
X71814533Y-61535862D01*
X71732473Y-61595483D01*
X71732471Y-61595485D01*
X71732470Y-61595485D01*
X71565468Y-61762487D01*
X71565468Y-61762488D01*
X71565466Y-61762490D01*
X71505845Y-61844550D01*
X71426640Y-61953566D01*
X71319416Y-62164003D01*
X71246429Y-62388631D01*
X71209483Y-62621902D01*
X71209483Y-62858097D01*
X71246429Y-63091368D01*
X71319416Y-63315996D01*
X71426640Y-63526433D01*
X71565466Y-63717510D01*
X71732473Y-63884517D01*
X71923550Y-64023343D01*
X71983785Y-64054034D01*
X72133986Y-64130566D01*
X72133988Y-64130566D01*
X72133991Y-64130568D01*
X72358615Y-64203553D01*
X72568450Y-64236787D01*
X72576845Y-64238117D01*
X72639979Y-64268046D01*
X72676911Y-64327357D01*
X72675913Y-64397220D01*
X72651538Y-64433981D01*
X72650410Y-64446873D01*
X73210574Y-65007037D01*
X73146990Y-65024075D01*
X73032976Y-65089901D01*
X72939884Y-65182993D01*
X72874058Y-65297007D01*
X72857020Y-65360591D01*
X72296857Y-64800428D01*
X72253316Y-64862613D01*
X72160881Y-65060840D01*
X72160877Y-65060849D01*
X72104272Y-65272105D01*
X72104270Y-65272115D01*
X72085208Y-65489999D01*
X72085208Y-65490000D01*
X72104270Y-65707884D01*
X72104272Y-65707894D01*
X72160877Y-65919150D01*
X72160881Y-65919159D01*
X72253316Y-66117387D01*
X72296857Y-66179571D01*
X72857020Y-65619408D01*
X72874058Y-65682993D01*
X72939884Y-65797007D01*
X73032976Y-65890099D01*
X73146990Y-65955925D01*
X73210573Y-65972962D01*
X72650410Y-66533125D01*
X72655084Y-66586553D01*
X72646594Y-66628793D01*
X72652532Y-66620862D01*
X72717996Y-66596445D01*
X72779247Y-66607747D01*
X72910823Y-66669101D01*
X72910832Y-66669105D01*
X73122088Y-66725710D01*
X73122098Y-66725712D01*
X73339982Y-66744775D01*
X73339984Y-66744775D01*
X73439637Y-66736056D01*
X73508137Y-66749822D01*
X73558320Y-66798437D01*
X73574254Y-66866466D01*
X73550879Y-66932310D01*
X73538126Y-66947265D01*
X73117465Y-67367926D01*
X73056142Y-67401411D01*
X72986450Y-67396427D01*
X72930517Y-67354555D01*
X72908167Y-67304437D01*
X72881642Y-67171092D01*
X72881641Y-67171091D01*
X72881641Y-67171087D01*
X72866616Y-67134814D01*
X72825070Y-67034511D01*
X72825063Y-67034498D01*
X72742934Y-66911584D01*
X72742931Y-66911580D01*
X72639161Y-66807810D01*
X72605676Y-66746487D01*
X72609895Y-66687486D01*
X72592701Y-66705235D01*
X72524673Y-66721168D01*
X72484104Y-66711920D01*
X72378900Y-66668343D01*
X72378890Y-66668340D01*
X72233903Y-66639500D01*
X72233901Y-66639500D01*
X72086065Y-66639500D01*
X72086063Y-66639500D01*
X71941075Y-66668340D01*
X71941065Y-66668343D01*
X71804494Y-66724912D01*
X71804481Y-66724919D01*
X71681567Y-66807048D01*
X71681563Y-66807051D01*
X71577034Y-66911580D01*
X71577031Y-66911584D01*
X71494902Y-67034498D01*
X71494895Y-67034511D01*
X71438326Y-67171082D01*
X71438323Y-67171092D01*
X71409483Y-67316079D01*
X71409483Y-67316082D01*
X71409483Y-67463918D01*
X71409483Y-67463920D01*
X71409482Y-67463920D01*
X71438323Y-67608907D01*
X71438326Y-67608917D01*
X71494895Y-67745488D01*
X71494902Y-67745501D01*
X71577031Y-67868415D01*
X71577034Y-67868419D01*
X71681563Y-67972948D01*
X71681567Y-67972951D01*
X71804481Y-68055080D01*
X71804494Y-68055087D01*
X71920491Y-68103134D01*
X71941070Y-68111658D01*
X71941074Y-68111658D01*
X71941075Y-68111659D01*
X72086062Y-68140500D01*
X72192711Y-68140500D01*
X72259750Y-68160185D01*
X72305505Y-68212989D01*
X72315449Y-68282147D01*
X72314328Y-68288691D01*
X72294500Y-68388372D01*
X72294500Y-72285811D01*
X72274815Y-72352850D01*
X72241623Y-72387386D01*
X72080859Y-72499953D01*
X71919954Y-72660858D01*
X71789432Y-72847265D01*
X71789431Y-72847267D01*
X71762382Y-72905275D01*
X71716209Y-72957714D01*
X71649016Y-72976866D01*
X71582135Y-72956650D01*
X71537618Y-72905275D01*
X71510568Y-72847266D01*
X71380047Y-72660861D01*
X71380045Y-72660858D01*
X71219141Y-72499954D01*
X71032734Y-72369432D01*
X71032732Y-72369431D01*
X70826497Y-72273261D01*
X70826488Y-72273258D01*
X70606697Y-72214366D01*
X70606693Y-72214365D01*
X70606692Y-72214365D01*
X70606691Y-72214364D01*
X70606686Y-72214364D01*
X70380002Y-72194532D01*
X70379998Y-72194532D01*
X70153313Y-72214364D01*
X70153302Y-72214366D01*
X69933511Y-72273258D01*
X69933502Y-72273261D01*
X69727267Y-72369431D01*
X69727265Y-72369432D01*
X69540858Y-72499954D01*
X69379954Y-72660858D01*
X69255793Y-72838181D01*
X69249432Y-72847266D01*
X69225524Y-72898538D01*
X69222106Y-72905867D01*
X69175933Y-72958306D01*
X69108739Y-72977457D01*
X69041858Y-72957241D01*
X68997342Y-72905865D01*
X68970135Y-72847520D01*
X68970134Y-72847518D01*
X68839657Y-72661179D01*
X68678820Y-72500342D01*
X68492482Y-72369865D01*
X68286328Y-72273734D01*
X68090000Y-72221127D01*
X68090000Y-73184314D01*
X68085606Y-73179920D01*
X67994394Y-73127259D01*
X67892661Y-73100000D01*
X67787339Y-73100000D01*
X67685606Y-73127259D01*
X67594394Y-73179920D01*
X67590000Y-73184314D01*
X67590000Y-72221127D01*
X67393671Y-72273734D01*
X67187517Y-72369865D01*
X67001179Y-72500342D01*
X66840342Y-72661179D01*
X66709865Y-72847517D01*
X66613734Y-73053673D01*
X66613730Y-73053682D01*
X66561127Y-73249999D01*
X66561128Y-73250000D01*
X67524314Y-73250000D01*
X67519920Y-73254394D01*
X67467259Y-73345606D01*
X67440000Y-73447339D01*
X67440000Y-73552661D01*
X67467259Y-73654394D01*
X67519920Y-73745606D01*
X67524314Y-73750000D01*
X66561128Y-73750000D01*
X66613730Y-73946317D01*
X66613734Y-73946326D01*
X66709865Y-74152482D01*
X66840342Y-74338820D01*
X67001179Y-74499657D01*
X67187517Y-74630134D01*
X67393673Y-74726265D01*
X67393682Y-74726269D01*
X67589999Y-74778872D01*
X67590000Y-74778871D01*
X67590000Y-73815686D01*
X67594394Y-73820080D01*
X67685606Y-73872741D01*
X67787339Y-73900000D01*
X67892661Y-73900000D01*
X67994394Y-73872741D01*
X68085606Y-73820080D01*
X68090000Y-73815686D01*
X68090000Y-74778872D01*
X68286317Y-74726269D01*
X68286326Y-74726265D01*
X68492482Y-74630134D01*
X68678820Y-74499657D01*
X68839657Y-74338820D01*
X68970132Y-74152484D01*
X68997341Y-74094134D01*
X69043513Y-74041695D01*
X69110707Y-74022542D01*
X69177588Y-74042757D01*
X69222105Y-74094132D01*
X69238054Y-74128334D01*
X69249431Y-74152732D01*
X69249432Y-74152734D01*
X69379954Y-74339141D01*
X69540858Y-74500045D01*
X69540861Y-74500047D01*
X69727266Y-74630568D01*
X69933504Y-74726739D01*
X70153308Y-74785635D01*
X70315230Y-74799801D01*
X70379998Y-74805468D01*
X70380000Y-74805468D01*
X70380002Y-74805468D01*
X70436807Y-74800498D01*
X70606692Y-74785635D01*
X70826496Y-74726739D01*
X71032734Y-74630568D01*
X71219139Y-74500047D01*
X71380047Y-74339139D01*
X71510568Y-74152734D01*
X71537618Y-74094724D01*
X71583790Y-74042285D01*
X71650983Y-74023133D01*
X71717865Y-74043348D01*
X71762382Y-74094725D01*
X71789429Y-74152728D01*
X71789432Y-74152734D01*
X71919954Y-74339141D01*
X72080858Y-74500045D01*
X72080861Y-74500047D01*
X72267266Y-74630568D01*
X72473504Y-74726739D01*
X72693308Y-74785635D01*
X72855230Y-74799801D01*
X72919998Y-74805468D01*
X72920000Y-74805468D01*
X72920002Y-74805468D01*
X72976807Y-74800498D01*
X73146692Y-74785635D01*
X73366496Y-74726739D01*
X73572734Y-74630568D01*
X73759139Y-74500047D01*
X73920047Y-74339139D01*
X74050568Y-74152734D01*
X74077618Y-74094724D01*
X74123790Y-74042285D01*
X74190983Y-74023133D01*
X74257865Y-74043348D01*
X74302382Y-74094725D01*
X74329429Y-74152728D01*
X74329432Y-74152734D01*
X74459954Y-74339141D01*
X74620858Y-74500045D01*
X74620861Y-74500047D01*
X74807266Y-74630568D01*
X75013504Y-74726739D01*
X75233308Y-74785635D01*
X75395230Y-74799801D01*
X75459998Y-74805468D01*
X75460000Y-74805468D01*
X75460002Y-74805468D01*
X75516807Y-74800498D01*
X75686692Y-74785635D01*
X75906496Y-74726739D01*
X76112734Y-74630568D01*
X76299139Y-74500047D01*
X76460047Y-74339139D01*
X76590568Y-74152734D01*
X76617618Y-74094724D01*
X76663790Y-74042285D01*
X76730983Y-74023133D01*
X76797865Y-74043348D01*
X76842382Y-74094725D01*
X76869429Y-74152728D01*
X76869432Y-74152734D01*
X76999954Y-74339141D01*
X77160858Y-74500045D01*
X77160861Y-74500047D01*
X77347266Y-74630568D01*
X77553504Y-74726739D01*
X77773308Y-74785635D01*
X77935230Y-74799801D01*
X77999998Y-74805468D01*
X78000000Y-74805468D01*
X78000002Y-74805468D01*
X78056807Y-74800498D01*
X78226692Y-74785635D01*
X78446496Y-74726739D01*
X78652734Y-74630568D01*
X78839139Y-74500047D01*
X79000047Y-74339139D01*
X79130568Y-74152734D01*
X79157618Y-74094724D01*
X79203790Y-74042285D01*
X79270983Y-74023133D01*
X79337865Y-74043348D01*
X79382382Y-74094725D01*
X79409429Y-74152728D01*
X79409432Y-74152734D01*
X79539954Y-74339141D01*
X79700858Y-74500045D01*
X79700861Y-74500047D01*
X79887266Y-74630568D01*
X80093504Y-74726739D01*
X80313308Y-74785635D01*
X80475230Y-74799801D01*
X80539998Y-74805468D01*
X80540000Y-74805468D01*
X80540002Y-74805468D01*
X80596807Y-74800498D01*
X80766692Y-74785635D01*
X80986496Y-74726739D01*
X81192734Y-74630568D01*
X81379139Y-74500047D01*
X81540047Y-74339139D01*
X81557272Y-74314539D01*
X81611848Y-74270913D01*
X81681346Y-74263718D01*
X81743701Y-74295239D01*
X81779116Y-74355468D01*
X81782138Y-74372406D01*
X81785908Y-74407483D01*
X81836202Y-74542328D01*
X81836206Y-74542335D01*
X81922452Y-74657544D01*
X81922455Y-74657547D01*
X82037664Y-74743793D01*
X82037671Y-74743797D01*
X82172517Y-74794091D01*
X82172516Y-74794091D01*
X82179444Y-74794835D01*
X82232127Y-74800500D01*
X83505547Y-74800499D01*
X83572586Y-74820184D01*
X83618341Y-74872987D01*
X83628285Y-74942146D01*
X83599260Y-75005702D01*
X83593228Y-75012180D01*
X80767229Y-77838181D01*
X80705906Y-77871666D01*
X80679548Y-77874500D01*
X78147741Y-77874500D01*
X78147721Y-77874499D01*
X78141607Y-77874499D01*
X78018394Y-77874499D01*
X77917597Y-77894548D01*
X77917592Y-77894548D01*
X77897549Y-77898536D01*
X77897547Y-77898536D01*
X77850397Y-77918067D01*
X77783719Y-77945685D01*
X77783717Y-77945686D01*
X77681266Y-78014141D01*
X75874821Y-79820586D01*
X75813498Y-79854071D01*
X75755048Y-79852680D01*
X75686697Y-79834366D01*
X75686693Y-79834365D01*
X75686692Y-79834365D01*
X75573346Y-79824448D01*
X75460001Y-79814532D01*
X75459998Y-79814532D01*
X75233313Y-79834364D01*
X75233302Y-79834366D01*
X75013511Y-79893258D01*
X75013502Y-79893261D01*
X74807267Y-79989431D01*
X74807265Y-79989432D01*
X74620858Y-80119954D01*
X74459954Y-80280858D01*
X74329432Y-80467265D01*
X74329431Y-80467267D01*
X74302382Y-80525275D01*
X74256209Y-80577714D01*
X74189016Y-80596866D01*
X74122135Y-80576650D01*
X74077618Y-80525275D01*
X74050568Y-80467266D01*
X73920047Y-80280861D01*
X73920045Y-80280858D01*
X73759141Y-80119954D01*
X73572734Y-79989432D01*
X73572732Y-79989431D01*
X73366497Y-79893261D01*
X73366488Y-79893258D01*
X73146697Y-79834366D01*
X73146693Y-79834365D01*
X73146692Y-79834365D01*
X73146691Y-79834364D01*
X73146686Y-79834364D01*
X72920002Y-79814532D01*
X72919998Y-79814532D01*
X72693313Y-79834364D01*
X72693302Y-79834366D01*
X72473511Y-79893258D01*
X72473502Y-79893261D01*
X72267267Y-79989431D01*
X72267265Y-79989432D01*
X72080858Y-80119954D01*
X71919954Y-80280858D01*
X71789432Y-80467265D01*
X71789431Y-80467267D01*
X71762382Y-80525275D01*
X71716209Y-80577714D01*
X71649016Y-80596866D01*
X71582135Y-80576650D01*
X71537618Y-80525275D01*
X71510568Y-80467266D01*
X71380047Y-80280861D01*
X71380045Y-80280858D01*
X71219141Y-80119954D01*
X71032734Y-79989432D01*
X71032732Y-79989431D01*
X70826497Y-79893261D01*
X70826488Y-79893258D01*
X70606697Y-79834366D01*
X70606693Y-79834365D01*
X70606692Y-79834365D01*
X70606691Y-79834364D01*
X70606686Y-79834364D01*
X70380002Y-79814532D01*
X70379999Y-79814532D01*
X70153313Y-79834364D01*
X70153307Y-79834365D01*
X70084948Y-79852681D01*
X70015098Y-79851016D01*
X69965176Y-79820586D01*
X63661819Y-73517229D01*
X63628334Y-73455906D01*
X63625500Y-73429548D01*
X63625500Y-67231057D01*
X63645185Y-67164018D01*
X63684401Y-67125520D01*
X63818656Y-67042712D01*
X63912319Y-66949049D01*
X63973642Y-66915564D01*
X64043334Y-66920548D01*
X64087681Y-66949049D01*
X64181344Y-67042712D01*
X64330666Y-67134814D01*
X64497203Y-67189999D01*
X64599991Y-67200500D01*
X65400008Y-67200499D01*
X65400016Y-67200498D01*
X65400019Y-67200498D01*
X65456302Y-67194748D01*
X65502797Y-67189999D01*
X65669334Y-67134814D01*
X65818656Y-67042712D01*
X65942712Y-66918656D01*
X66034814Y-66769334D01*
X66089999Y-66602797D01*
X66100500Y-66500009D01*
X66100499Y-65499992D01*
X66099478Y-65490000D01*
X66089999Y-65397203D01*
X66089998Y-65397200D01*
X66077303Y-65358889D01*
X66034814Y-65230666D01*
X65942712Y-65081344D01*
X65818656Y-64957288D01*
X65684402Y-64874480D01*
X65637679Y-64822533D01*
X65625500Y-64768942D01*
X65625500Y-61231057D01*
X65645185Y-61164018D01*
X65684401Y-61125520D01*
X65818656Y-61042712D01*
X65942712Y-60918656D01*
X66034814Y-60769334D01*
X66089999Y-60602797D01*
X66100500Y-60500009D01*
X66100499Y-59835450D01*
X66120183Y-59768412D01*
X66136813Y-59747775D01*
X67222771Y-58661819D01*
X67284094Y-58628334D01*
X67310452Y-58625500D01*
X72749083Y-58625500D01*
X72816122Y-58645185D01*
G37*
%TD.AperFunction*%
M02*
