%TF.GenerationSoftware,KiCad,Pcbnew,8.0.5*%
%TF.CreationDate,2024-10-06T17:03:47-03:00*%
%TF.ProjectId,modulo_sensor,6d6f6475-6c6f-45f7-9365-6e736f722e6b,rev?*%
%TF.SameCoordinates,Original*%
%TF.FileFunction,Soldermask,Top*%
%TF.FilePolarity,Negative*%
%FSLAX46Y46*%
G04 Gerber Fmt 4.6, Leading zero omitted, Abs format (unit mm)*
G04 Created by KiCad (PCBNEW 8.0.5) date 2024-10-06 17:03:47*
%MOMM*%
%LPD*%
G01*
G04 APERTURE LIST*
G04 Aperture macros list*
%AMRoundRect*
0 Rectangle with rounded corners*
0 $1 Rounding radius*
0 $2 $3 $4 $5 $6 $7 $8 $9 X,Y pos of 4 corners*
0 Add a 4 corners polygon primitive as box body*
4,1,4,$2,$3,$4,$5,$6,$7,$8,$9,$2,$3,0*
0 Add four circle primitives for the rounded corners*
1,1,$1+$1,$2,$3*
1,1,$1+$1,$4,$5*
1,1,$1+$1,$6,$7*
1,1,$1+$1,$8,$9*
0 Add four rect primitives between the rounded corners*
20,1,$1+$1,$2,$3,$4,$5,0*
20,1,$1+$1,$4,$5,$6,$7,0*
20,1,$1+$1,$6,$7,$8,$9,0*
20,1,$1+$1,$8,$9,$2,$3,0*%
G04 Aperture macros list end*
%ADD10R,1.000000X1.000000*%
%ADD11O,1.000000X1.000000*%
%ADD12RoundRect,0.250000X0.450000X-0.350000X0.450000X0.350000X-0.450000X0.350000X-0.450000X-0.350000X0*%
%ADD13RoundRect,0.250001X0.462499X0.624999X-0.462499X0.624999X-0.462499X-0.624999X0.462499X-0.624999X0*%
%ADD14R,1.600000X1.600000*%
%ADD15O,1.600000X1.600000*%
%ADD16C,1.600000*%
%ADD17C,1.000000*%
%ADD18C,2.500000*%
%ADD19C,1.704000*%
G04 APERTURE END LIST*
D10*
%TO.C,J1*%
X103059983Y-80000000D03*
D11*
X101789983Y-80000000D03*
X100519983Y-80000000D03*
X99249983Y-80000000D03*
X97979983Y-80000000D03*
X96709983Y-80000000D03*
X95439983Y-80000000D03*
X94169983Y-80000000D03*
%TD*%
D12*
%TO.C,R15*%
X96500000Y-68000000D03*
X96500000Y-66000000D03*
%TD*%
D13*
%TO.C,D2*%
X76097483Y-69500000D03*
X73122483Y-69500000D03*
%TD*%
D12*
%TO.C,R18*%
X133500000Y-68000000D03*
X133500000Y-66000000D03*
%TD*%
D13*
%TO.C,D3*%
X92097483Y-69500000D03*
X89122483Y-69500000D03*
%TD*%
%TO.C,D6*%
X140097483Y-70000000D03*
X137122483Y-70000000D03*
%TD*%
D12*
%TO.C,R13*%
X65000000Y-68000000D03*
X65000000Y-66000000D03*
%TD*%
D13*
%TO.C,D4*%
X108097483Y-69500000D03*
X105122483Y-69500000D03*
%TD*%
D12*
%TO.C,R17*%
X128500000Y-68000000D03*
X128500000Y-66000000D03*
%TD*%
%TO.C,R14*%
X81000000Y-68000000D03*
X81000000Y-66000000D03*
%TD*%
%TO.C,R16*%
X112500000Y-68000000D03*
X112500000Y-66000000D03*
%TD*%
D14*
%TO.C,U1*%
X83080000Y-72500000D03*
D15*
X80540000Y-72500000D03*
X78000000Y-72500000D03*
X75460000Y-72500000D03*
X72920000Y-72500000D03*
X70380000Y-72500000D03*
X67840000Y-72500000D03*
X67840000Y-80120000D03*
X70380000Y-80120000D03*
X72920000Y-80120000D03*
X75460000Y-80120000D03*
X78000000Y-80120000D03*
X80540000Y-80120000D03*
X83080000Y-80120000D03*
%TD*%
D16*
%TO.C,C1*%
X107000000Y-78750000D03*
X107000000Y-81250000D03*
%TD*%
D13*
%TO.C,D5*%
X124097483Y-69500000D03*
X121122483Y-69500000D03*
%TD*%
%TO.C,D1*%
X60097483Y-69500000D03*
X57122483Y-69500000D03*
%TD*%
D17*
%TO.C,Sensor3*%
X88159983Y-67390000D03*
D18*
X88709983Y-62740000D03*
X92509983Y-62740000D03*
D19*
X91879983Y-59990000D03*
X89339983Y-59990000D03*
X91879983Y-65490000D03*
X89339983Y-65490000D03*
%TD*%
D17*
%TO.C,Sensor2*%
X72159983Y-67390000D03*
D18*
X72709983Y-62740000D03*
X76509983Y-62740000D03*
D19*
X75879983Y-59990000D03*
X73339983Y-59990000D03*
X75879983Y-65490000D03*
X73339983Y-65490000D03*
%TD*%
D17*
%TO.C,Sensor6*%
X136159983Y-67390000D03*
D18*
X136709983Y-62740000D03*
X140509983Y-62740000D03*
D19*
X139879983Y-59990000D03*
X137339983Y-59990000D03*
X139879983Y-65490000D03*
X137339983Y-65490000D03*
%TD*%
D17*
%TO.C,Sensor5*%
X120159983Y-67390000D03*
D18*
X120709983Y-62740000D03*
X124509983Y-62740000D03*
D19*
X123879983Y-59990000D03*
X121339983Y-59990000D03*
X123879983Y-65490000D03*
X121339983Y-65490000D03*
%TD*%
D17*
%TO.C,Sensor1*%
X56159983Y-67390000D03*
D18*
X56709983Y-62740000D03*
X60509983Y-62740000D03*
D19*
X59879983Y-59990000D03*
X57339983Y-59990000D03*
X59879983Y-65490000D03*
X57339983Y-65490000D03*
%TD*%
D17*
%TO.C,Sensor4*%
X104159983Y-67390000D03*
D18*
X104709983Y-62740000D03*
X108509983Y-62740000D03*
D19*
X107879983Y-59990000D03*
X105339983Y-59990000D03*
X107879983Y-65490000D03*
X105339983Y-65490000D03*
%TD*%
M02*
